<?xml version="1.0" encoding="UTF-8" standalone="no" ?>
<COLLADA xmlns="http://www.collada.org/2005/11/COLLADASchema" version="1.4.1">
  <asset>
    <contributor>
      <author>Assimp</author>
      <authoring_tool>Assimp Exporter</authoring_tool>
    </contributor>
    <created>2025-12-08T10:04:59</created>
    <modified>2025-12-08T10:04:59</modified>
    <unit name="meter" meter="1" />
    <up_axis>Y_UP</up_axis>
  </asset>
  <library_images>
  </library_images>
  <library_effects>
    <effect id="material_0-fx" name="">
      <profile_COMMON>
        <technique sid="standard">
          <phong>
            <emission>
              <color sid="emission">0   0   0   4.53488209e-41</color>
            </emission>
            <ambient>
              <color sid="ambient">0.792156875   0.819607854   0.933333337   -0.000423977443</color>
            </ambient>
            <diffuse>
              <color sid="diffuse">0.792156875   0.819607854   0.933333337   -0.000423977443</color>
            </diffuse>
            <specular>
              <color sid="specular">0.200000003   0.200000003   0.200000003   2.55843558e-11</color>
            </specular>
          </phong>
        </technique>
      </profile_COMMON>
    </effect>
  </library_effects>
  <library_materials>
    <material id="material_0" name="">
      <instance_effect url="#material_0-fx"/>
    </material>
  </library_materials>
  <library_geometries>
    <geometry id="mesh_0" name="" >
      <mesh>
        <source id="mesh_0-positions" name="mesh_0-positions">
          <float_array id="mesh_0-positions-array" count="3987"> 0.0311155226 0.0380164832 -0.0873067677 0.0135094961 0.0546532683 -0.0737399161 0.0200336017 0.0528991669 -0.089782387 0.021131454 0.0510469675 -0.0701574385 0.0135094961 0.0546532683 -0.0737399161 0.0311155226 0.0380164832 -0.0873067677 0.0321830846 0.0330198817 -0.0690097883 0.021131454 0.0510469675 -0.0701574385 0.0311155226 0.0380164832 -0.0873067677 0.00620228192 0.003451091 -0.0727662593 0.0321830846 0.0330198817 -0.0690097883 0.0266840719 0.0109167611 -0.0778970271 0.0127146877 -0.00273770094 -0.0949818566 0.00620228192 0.003451091 -0.0727662593 0.0266840719 0.0109167611 -0.0778970271 0.0266840719 0.0109167611 -0.0778970271 0.0321830846 0.0330198817 -0.0690097883 0.0311155226 0.0380164832 -0.0873067677 0.000228913515 0.0607373156 -0.0905143544 0.0135094961 0.0546532683 -0.0737399161 -0.0171765201 0.0633592457 -0.0881491452 0.0266725086 0.0123096555 -0.0693837926 0.0321830846 0.0330198817 -0.0690097883 0.00620228192 0.003451091 -0.0727662593 -0.0189765394 0.0515804738 -0.0699826404 0.0135094961 0.0546532683 -0.0737399161 0.00209150207 0.060695298 -0.0694842413 0.00209150207 0.060695298 -0.0694842413 0.0135094961 0.0546532683 -0.0737399161 0.021131454 0.0510469675 -0.0701574385 -0.0189765394 0.0515804738 -0.0699826404 -0.0171765201 0.0633592457 -0.0881491452 0.0135094961 0.0546532683 -0.0737399161 0.0217854287 -0.0122482581 -0.168453991 0.0176905915 0.0158156194 -0.171282127 0.0262905881 -0.0103415512 -0.158125058 -0.0119250612 0.0573923998 -0.104134701 -0.0132821295 0.0592601486 -0.157224536 -0.0103949532 0.0552872904 -0.0890334323 0.010296734 -0.00170125312 -0.0689988434 0.00620228192 0.003451091 -0.0727662593 0.0127146877 -0.00273770094 -0.0949818566 0.0170903578 -0.00183252548 -0.115130454 0.0177141316 -0.00400785543 -0.167856291 0.0184785072 -0.00548006315 -0.170067787 -0.00105628953 0.052475322 -0.160635188 -0.0132821295 0.0592601486 -0.157224536 -0.0206634421 0.0712787211 -0.157169983 0.0184785072 -0.00548006315 -0.170067787 0.0176905915 0.0158156194 -0.171282127 0.0217854287 -0.0122482581 -0.168453991 0.0122001218 -0.0170566533 -0.164669111 0.0184785072 -0.00548006315 -0.170067787 0.0217854287 -0.0122482581 -0.168453991 0.0104664164 0.0350355245 -0.164067894 0.0176905915 0.0158156194 -0.171282127 0.00122488127 0.0423186086 -0.166252762 -0.0269267503 0.0627427921 -0.102217376 -0.0171765201 0.0633592457 -0.0881491452 -0.0124262199 0.0711877421 -0.0984221473 0.000501381641 0.0631767139 -0.0805191398 -0.0124262199 0.0711877421 -0.0984221473 -0.0171765201 0.0633592457 -0.0881491452 0.000501381641 0.0631767139 -0.0805191398 -0.0171765201 0.0633592457 -0.0881491452 0.00209150207 0.060695298 -0.0694842413 -0.0189765394 0.0515804738 -0.0699826404 0.00209150207 0.060695298 -0.0694842413 -0.0171765201 0.0633592457 -0.0881491452 0.0269902498 0.0111452853 -0.083301872 0.0266725086 0.0123096555 -0.0693837926 0.010296734 -0.00170125312 -0.0689988434 0.0269902498 0.0111452853 -0.083301872 0.010296734 -0.00170125312 -0.0689988434 0.0127146877 -0.00273770094 -0.0949818566 0.0323897339 0.031174155 -0.09148743 0.0266725086 0.0123096555 -0.0693837926 0.0269902498 0.0111452853 -0.083301872 0.0323897339 0.031174155 -0.09148743 0.0321830846 0.0330198817 -0.0690097883 0.0266725086 0.0123096555 -0.0693837926 0.0190365184 0.0546888337 -0.0903456286 0.00209150207 0.060695298 -0.0694842413 0.021131454 0.0510469675 -0.0701574385 0.0190365184 0.0546888337 -0.0903456286 0.000501381641 0.0631767139 -0.0805191398 0.00209150207 0.060695298 -0.0694842413 0.0190365184 0.0546888337 -0.0903456286 0.021131454 0.0510469675 -0.0701574385 0.0321830846 0.0330198817 -0.0690097883 0.015791947 -0.0090184547 -0.100494236 0.0269902498 0.0111452853 -0.083301872 0.0127146877 -0.00273770094 -0.0949818566 -0.00367182447 0.0588553324 -0.150824651 -0.0124262199 0.0711877421 -0.0984221473 0.000501381641 0.0631767139 -0.0805191398 -0.00367182447 0.0588553324 -0.150824651 -0.00105628953 0.052475322 -0.160635188 -0.0206634421 0.0712787211 -0.157169983 0.0190365184 0.0546888337 -0.0903456286 0.0321830846 0.0330198817 -0.0690097883 0.0323897339 0.031174155 -0.09148743 -0.00367182447 0.0588553324 -0.150824651 -0.0206634421 0.0712787211 -0.157169983 -0.0124262199 0.0711877421 -0.0984221473 0.0155592859 0.0343336798 -0.125347927 -0.00105628953 0.052475322 -0.160635188 -0.00367182447 0.0588553324 -0.150824651 0.0155592859 0.0343336798 -0.125347927 -0.00367182447 0.0588553324 -0.150824651 0.000501381641 0.0631767139 -0.0805191398 0.0155592859 0.0343336798 -0.125347927 0.0104664164 0.0350355245 -0.164067894 -0.00105628953 0.052475322 -0.160635188 0.0155592859 0.0343336798 -0.125347927 0.0176905915 0.0158156194 -0.171282127 0.0104664164 0.0350355245 -0.164067894 0.0155592859 0.0343336798 -0.125347927 0.000501381641 0.0631767139 -0.0805191398 0.0190365184 0.0546888337 -0.0903456286 0.0155592859 0.0343336798 -0.125347927 0.0190365184 0.0546888337 -0.0903456286 0.0323897339 0.031174155 -0.09148743 0.015791947 -0.0090184547 -0.100494236 0.0262905881 -0.0103415512 -0.158125058 0.0269902498 0.0111452853 -0.083301872 0.0104664164 0.0350355245 -0.164067894 0.00122488127 0.0423186086 -0.166252762 -0.00105628953 0.052475322 -0.160635188 0.0155592859 0.0343336798 -0.125347927 0.0323897339 0.031174155 -0.09148743 0.0269902498 0.0111452853 -0.083301872 0.000228913515 0.0607373156 -0.0905143544 0.0200336017 0.0528991669 -0.089782387 0.0135094961 0.0546532683 -0.0737399161 0.0141002443 0.0250830315 -0.166722655 0.00122488127 0.0423186086 -0.166252762 0.0176905915 0.0158156194 -0.171282127 0.0184785072 -0.00548006315 -0.170067787 0.0176905915 0.0158156194 -0.171282127 0.0177141316 -0.00400785543 -0.167856291 -0.0130005376 0.0702146888 -0.103217021 -0.0182661191 0.0702583641 -0.155608878 -0.00785260927 0.0628337786 -0.149817497 -0.0284004752 0.0655103773 -0.14817062 -0.0182661191 0.0702583641 -0.155608878 -0.0130005376 0.0702146888 -0.103217021 -0.00256012031 0.062148992 -0.104807988 -0.0130005376 0.0702146888 -0.103217021 -0.00785260927 0.0628337786 -0.149817497 0.0236660149 -0.00219453964 -0.161326617 0.0184785072 -0.00548006315 -0.170067787 0.0217854287 -0.0122482581 -0.168453991 0.0223264396 -0.00132108445 -0.163174883 0.0141002443 0.0250830315 -0.166722655 0.0184785072 -0.00548006315 -0.170067787 0.0236813929 -0.00674610259 -0.114620626 0.0257363301 0.00244447729 -0.115870163 0.0236660149 -0.00219453964 -0.161326617 0.0236813929 -0.00674610259 -0.114620626 0.0236660149 -0.00219453964 -0.161326617 0.0217854287 -0.0122482581 -0.168453991 0.0141002443 0.0250830315 -0.166722655 0.0176905915 0.0158156194 -0.171282127 0.0184785072 -0.00548006315 -0.170067787 0.0141002443 0.0250830315 -0.166722655 -0.00105628953 0.052475322 -0.160635188 0.00122488127 0.0423186086 -0.166252762 -0.00785260927 0.0628337786 -0.149817497 -0.0182661191 0.0702583641 -0.155608878 -0.00105628953 0.052475322 -0.160635188 -0.00419223728 0.0629552379 -0.103366658 -0.0171765201 0.0633592457 -0.0881491452 -0.0269267503 0.0627427921 -0.102217376 -0.00583492825 0.0594676062 -0.089851737 -0.0171765201 0.0633592457 -0.0881491452 -0.00419223728 0.0629552379 -0.103366658 0.0143796671 0.0341590717 -0.125391841 0.0200336017 0.0528991669 -0.089782387 0.000228913515 0.0607373156 -0.0905143544 0.0143796671 0.0341590717 -0.125391841 0.0311155226 0.0380164832 -0.0873067677 0.0200336017 0.0528991669 -0.089782387 0.0143796671 0.0341590717 -0.125391841 0.0266840719 0.0109167611 -0.0778970271 0.0311155226 0.0380164832 -0.0873067677 0.0260580052 0.00554457586 -0.100082815 0.0266840719 0.0109167611 -0.0778970271 0.0143796671 0.0341590717 -0.125391841 0.0263908431 0.00392277678 -0.101403199 0.0274528731 0.00327683124 -0.114272594 0.015791947 -0.0090184547 -0.100494236 0.0106596472 -0.0122225452 -0.113228679 0.015791947 -0.0090184547 -0.100494236 0.0274528731 0.00327683124 -0.114272594 0.0260580052 0.00554457586 -0.100082815 0.0127146877 -0.00273770094 -0.0949818566 0.0266840719 0.0109167611 -0.0778970271 -0.00583492825 0.0594676062 -0.089851737 -0.0103949532 0.0552872904 -0.0890334323 -0.0171765201 0.0633592457 -0.0881491452 -0.00419223728 0.0629552379 -0.103366658 -0.0269267503 0.0627427921 -0.102217376 -0.0130005376 0.0702146888 -0.103217021 -0.00419223728 0.0629552379 -0.103366658 -0.0130005376 0.0702146888 -0.103217021 -0.0119250612 0.0573923998 -0.104134701 -0.00256012031 0.062148992 -0.104807988 -0.0119250612 0.0573923998 -0.104134701 -0.0130005376 0.0702146888 -0.103217021 0.0274528731 0.00327683124 -0.114272594 0.0170903578 -0.00183252548 -0.115130454 0.0236813929 -0.00674610259 -0.114620626 0.0106596472 -0.0122225452 -0.113228679 0.0274528731 0.00327683124 -0.114272594 0.0236813929 -0.00674610259 -0.114620626 0.0236813929 -0.00674610259 -0.114620626 0.0170903578 -0.00183252548 -0.115130454 0.0257363301 0.00244447729 -0.115870163 -0.0103949532 0.0552872904 -0.0890334323 0.000228913515 0.0607373156 -0.0905143544 -0.0171765201 0.0633592457 -0.0881491452 -0.00785260927 0.0628337786 -0.149817497 -0.00105628953 0.052475322 -0.160635188 0.000228913515 0.0607373156 -0.0905143544 0.0143796671 0.0341590717 -0.125391841 0.000228913515 0.0607373156 -0.0905143544 -0.00105628953 0.052475322 -0.160635188 0.0143796671 0.0341590717 -0.125391841 -0.00105628953 0.052475322 -0.160635188 0.0141002443 0.0250830315 -0.166722655 -0.00256012031 0.062148992 -0.104807988 -0.00785260927 0.0628337786 -0.149817497 -0.0119250612 0.0573923998 -0.104134701 -0.00785260927 0.0628337786 -0.149817497 -0.0132821295 0.0592601486 -0.157224536 -0.0119250612 0.0573923998 -0.104134701 -0.00583492825 0.0594676062 -0.089851737 -0.00419223728 0.0629552379 -0.103366658 -0.0119250612 0.0573923998 -0.104134701 -0.00583492825 0.0594676062 -0.089851737 -0.0119250612 0.0573923998 -0.104134701 -0.0103949532 0.0552872904 -0.0890334323 -0.0103949532 0.0552872904 -0.0890334323 -0.0132821295 0.0592601486 -0.157224536 0.000228913515 0.0607373156 -0.0905143544 -0.00785260927 0.0628337786 -0.149817497 0.000228913515 0.0607373156 -0.0905143544 -0.0132821295 0.0592601486 -0.157224536 0.0263908431 0.00392277678 -0.101403199 0.0177141316 -0.00400785543 -0.167856291 0.0170903578 -0.00183252548 -0.115130454 0.0263908431 0.00392277678 -0.101403199 0.0170903578 -0.00183252548 -0.115130454 0.0274528731 0.00327683124 -0.114272594 0.0257363301 0.00244447729 -0.115870163 0.0170903578 -0.00183252548 -0.115130454 0.0236660149 -0.00219453964 -0.161326617 0.0236660149 -0.00219453964 -0.161326617 0.0170903578 -0.00183252548 -0.115130454 0.0184785072 -0.00548006315 -0.170067787 0.0223264396 -0.00132108445 -0.163174883 0.0184785072 -0.00548006315 -0.170067787 0.0177141316 -0.00400785543 -0.167856291 0.0260580052 0.00554457586 -0.100082815 0.0223264396 -0.00132108445 -0.163174883 0.0177141316 -0.00400785543 -0.167856291 0.0263908431 0.00392277678 -0.101403199 0.015791947 -0.0090184547 -0.100494236 0.0177141316 -0.00400785543 -0.167856291 0.0260580052 0.00554457586 -0.100082815 0.0177141316 -0.00400785543 -0.167856291 0.015791947 -0.0090184547 -0.100494236 0.0260580052 0.00554457586 -0.100082815 0.015791947 -0.0090184547 -0.100494236 0.0127146877 -0.00273770094 -0.0949818566 -0.0284004752 0.0655103773 -0.14817062 -0.0130005376 0.0702146888 -0.103217021 -0.0269267503 0.0627427921 -0.102217376 -0.0182661191 0.0702583641 -0.155608878 -0.0132821295 0.0592601486 -0.157224536 -0.00105628953 0.052475322 -0.160635188 -0.0284004752 0.0655103773 -0.14817062 -0.0206634421 0.0712787211 -0.157169983 -0.0182661191 0.0702583641 -0.155608878 -0.0182661191 0.0702583641 -0.155608878 -0.0206634421 0.0712787211 -0.157169983 -0.0132821295 0.0592601486 -0.157224536 0.0155592859 0.0343336798 -0.125347927 0.0269902498 0.0111452853 -0.083301872 0.0262905881 -0.0103415512 -0.158125058 0.0155592859 0.0343336798 -0.125347927 0.0262905881 -0.0103415512 -0.158125058 0.0176905915 0.0158156194 -0.171282127 0.0260580052 0.00554457586 -0.100082815 0.0143796671 0.0341590717 -0.125391841 0.0141002443 0.0250830315 -0.166722655 0.0260580052 0.00554457586 -0.100082815 0.0141002443 0.0250830315 -0.166722655 0.0223264396 -0.00132108445 -0.163174883 -0.0284004752 0.0655103773 -0.14817062 -0.0124262199 0.0711877421 -0.0984221473 -0.0206634421 0.0712787211 -0.157169983 -0.0284004752 0.0655103773 -0.14817062 -0.0269267503 0.0627427921 -0.102217376 -0.0124262199 0.0711877421 -0.0984221473 0.0122001218 -0.0170566533 -0.164669111 0.0217854287 -0.0122482581 -0.168453991 0.0262905881 -0.0103415512 -0.158125058 0.015791947 -0.0090184547 -0.100494236 0.0122001218 -0.0170566533 -0.164669111 0.0262905881 -0.0103415512 -0.158125058 0.0106596472 -0.0122225452 -0.113228679 0.0122001218 -0.0170566533 -0.164669111 0.015791947 -0.0090184547 -0.100494236 0.010296734 -0.00170125312 -0.0689988434 0.0266725086 0.0123096555 -0.0693837926 0.00620228192 0.003451091 -0.0727662593 0.0106596472 -0.0122225452 -0.113228679 0.0236813929 -0.00674610259 -0.114620626 0.0217854287 -0.0122482581 -0.168453991 0.0106596472 -0.0122225452 -0.113228679 0.0217854287 -0.0122482581 -0.168453991 0.0122001218 -0.0170566533 -0.164669111 -0.0265096053 0.0285434909 -0.0850641727 -0.0238045063 0.0291728731 -0.10370931 -0.0327155739 0.0410437062 -0.103750423 -0.03732742 0.0505373999 -0.10372939 -0.0252167061 0.0603846349 -0.093342796 -0.0358482115 0.040624585 -0.0858828425 -0.0332054868 0.0575790331 -0.123216309 -0.03732742 0.0505373999 -0.10372939 -0.0313628018 0.0468846522 -0.123539366 -0.0214930419 0.00775901973 -0.0709037408 0.010296734 -0.00170125312 -0.0689988434 0.00620228192 0.003451091 -0.0727662593 -0.00409148075 -0.00401338143 -0.0691780001 0.010296734 -0.00170125312 -0.0689988434 -0.0214930419 0.00775901973 -0.0709037408 0.00599487545 -0.000250732061 -0.0786766559 -0.00680613797 0.000201403818 -0.0763882697 0.00620228192 0.003451091 -0.0727662593 -0.0238088146 0.00942732301 -0.0888180882 -0.0214930419 0.00775901973 -0.0709037408 -0.0276859291 0.0134739894 -0.0693391189 -0.0218362417 0.016551137 -0.0895415619 -0.0238088146 0.00942732301 -0.0888180882 -0.0276859291 0.0134739894 -0.0693391189 -0.0173520856 0.0155835049 -0.0769784376 -0.0214930419 0.00775901973 -0.0709037408 -0.00680613797 0.000201403818 -0.0763882697 -0.0287697893 0.0358775184 -0.0700909495 -0.0276859291 0.0134739894 -0.0693391189 -0.0173520856 0.0155835049 -0.0769784376 -0.0173520856 0.0155835049 -0.0769784376 -0.0276859291 0.0134739894 -0.0693391189 -0.0214930419 0.00775901973 -0.0709037408 -0.00680613797 0.000201403818 -0.0763882697 -0.0214930419 0.00775901973 -0.0709037408 0.00620228192 0.003451091 -0.0727662593 -0.032686621 0.0361990407 -0.0789067596 -0.0189765394 0.0515804738 -0.0699826404 -0.0252167061 0.0603846349 -0.093342796 -0.032686621 0.0361990407 -0.0789067596 -0.0252167061 0.0603846349 -0.093342796 -0.0171765201 0.0633592457 -0.0881491452 -0.032686621 0.0361990407 -0.0789067596 -0.0218362417 0.016551137 -0.0895415619 -0.0276859291 0.0134739894 -0.0693391189 0.00667510787 -0.00298674754 -0.0946971849 -0.00409148075 -0.00401338143 -0.0691780001 -0.00646109693 -0.00488987938 -0.0920977667 -0.00680613797 0.000201403818 -0.0763882697 -0.00409148075 -0.00401338143 -0.0691780001 -0.0214930419 0.00775901973 -0.0709037408 -0.0332378894 0.0363081545 -0.0948805884 -0.0218362417 0.016551137 -0.0895415619 -0.032686621 0.0361990407 -0.0789067596 -0.0367105901 0.0531824864 -0.144117773 -0.0140451128 0.0206311811 -0.160145447 -0.0159099847 0.0221014898 -0.121407397 -0.00319389859 -0.0143986139 -0.106640093 -0.0140451128 0.0206311811 -0.160145447 -0.00175489951 -0.0155262388 -0.148505628 -0.0381253175 0.0534691662 -0.10070014 -0.0367105901 0.0531824864 -0.144117773 -0.0159099847 0.0221014898 -0.121407397 -0.0143967727 -0.000549663033 -0.102826931 -0.0159099847 0.0221014898 -0.121407397 -0.00319389859 -0.0143986139 -0.106640093 -0.00319389859 -0.0143986139 -0.106640093 -0.0159099847 0.0221014898 -0.121407397 -0.0140451128 0.0206311811 -0.160145447 -0.0381253175 0.0534691662 -0.10070014 -0.0159099847 0.0221014898 -0.121407397 -0.0332378894 0.0363081545 -0.0948805884 0.0116491336 -0.0161571559 -0.153677836 0.0106596472 -0.0122225452 -0.113228679 -0.00319389859 -0.0143986139 -0.106640093 -0.010030197 0.0126406504 -0.150031 -0.00175489951 -0.0155262388 -0.148505628 -0.0140451128 0.0206311811 -0.160145447 -0.0289371535 0.0652434155 -0.144885778 -0.0381253175 0.0534691662 -0.10070014 -0.0269267503 0.0627427921 -0.102217376 -0.0289371535 0.0652434155 -0.144885778 -0.0367105901 0.0531824864 -0.144117773 -0.0381253175 0.0534691662 -0.10070014 0.0116491336 -0.0161571559 -0.153677836 -0.00319389859 -0.0143986139 -0.106640093 -0.00175489951 -0.0155262388 -0.148505628 -0.0192184262 0.0107615823 -0.0746370032 -0.0214930419 0.00775901973 -0.0709037408 -0.0238088146 0.00942732301 -0.0888180882 -0.0143967727 -0.000549663033 -0.102826931 -0.0332378894 0.0363081545 -0.0948805884 -0.0159099847 0.0221014898 -0.121407397 -0.0381253175 0.0534691662 -0.10070014 -0.0332378894 0.0363081545 -0.0948805884 -0.032686621 0.0361990407 -0.0789067596 -0.0381253175 0.0534691662 -0.10070014 -0.032686621 0.0361990407 -0.0789067596 -0.0171765201 0.0633592457 -0.0881491452 -0.0381253175 0.0534691662 -0.10070014 -0.0171765201 0.0633592457 -0.0881491452 -0.0269267503 0.0627427921 -0.102217376 -0.00646109693 -0.00488987938 -0.0920977667 -0.00409148075 -0.00401338143 -0.0691780001 -0.00680613797 0.000201403818 -0.0763882697 0.00667510787 -0.00298674754 -0.0946971849 0.010296734 -0.00170125312 -0.0689988434 -0.00409148075 -0.00401338143 -0.0691780001 -0.0252167061 0.0603846349 -0.093342796 -0.0269267503 0.0627427921 -0.102217376 -0.0171765201 0.0633592457 -0.0881491452 -0.0277235545 0.0638252571 -0.145316392 -0.0289371535 0.0652434155 -0.144885778 -0.0269267503 0.0627427921 -0.102217376 -0.0277235545 0.0638252571 -0.145316392 -0.0269267503 0.0627427921 -0.102217376 -0.0252167061 0.0603846349 -0.093342796 -0.032686621 0.0361990407 -0.0789067596 -0.0276859291 0.0134739894 -0.0693391189 -0.0287697893 0.0358775184 -0.0700909495 -0.032686621 0.0361990407 -0.0789067596 -0.0287697893 0.0358775184 -0.0700909495 -0.0189765394 0.0515804738 -0.0699826404 -0.00974797551 0.00686849793 -0.0819445476 -0.0238088146 0.00942732301 -0.0888180882 -0.0192184262 0.0107615823 -0.0746370032 -0.020028539 0.012905851 -0.0850190595 -0.0192184262 0.0107615823 -0.0746370032 -0.0238088146 0.00942732301 -0.0888180882 -0.0102460552 0.00922549702 -0.0881717652 -0.0238088146 0.00942732301 -0.0888180882 -0.00974797551 0.00686849793 -0.0819445476 -0.0192184262 0.0107615823 -0.0746370032 -0.0238088146 0.00942732301 -0.0888180882 -0.00680613797 0.000201403818 -0.0763882697 -0.00646109693 -0.00488987938 -0.0920977667 -0.00680613797 0.000201403818 -0.0763882697 -0.0238088146 0.00942732301 -0.0888180882 -0.0102460552 0.00922549702 -0.0881717652 -0.020028539 0.012905851 -0.0850190595 -0.0238088146 0.00942732301 -0.0888180882 -0.0173520856 0.0155835049 -0.0769784376 -0.00680613797 0.000201403818 -0.0763882697 0.00599487545 -0.000250732061 -0.0786766559 -0.0192184262 0.0107615823 -0.0746370032 -0.00680613797 0.000201403818 -0.0763882697 -0.0214930419 0.00775901973 -0.0709037408 0.00990940165 -0.0094343219 -0.0981616378 0.0116491336 -0.0161571559 -0.153677836 0.0109090824 -0.0137077216 -0.147896856 0.00990940165 -0.0094343219 -0.0981616378 0.0106596472 -0.0122225452 -0.113228679 0.0116491336 -0.0161571559 -0.153677836 -0.00198453641 -0.0118425088 -0.103662319 0.00667510787 -0.00298674754 -0.0946971849 0.00990940165 -0.0094343219 -0.0981616378 0.00599487545 -0.000250732061 -0.0786766559 0.00620228192 0.003451091 -0.0727662593 0.010296734 -0.00170125312 -0.0689988434 0.00667510787 -0.00298674754 -0.0946971849 0.00599487545 -0.000250732061 -0.0786766559 0.010296734 -0.00170125312 -0.0689988434 -0.0143967727 -0.000549663033 -0.102826931 -0.00319389859 -0.0143986139 -0.106640093 -0.00646109693 -0.00488987938 -0.0920977667 -0.0143967727 -0.000549663033 -0.102826931 -0.0218362417 0.016551137 -0.0895415619 -0.0332378894 0.0363081545 -0.0948805884 0.00990940165 -0.0094343219 -0.0981616378 -0.00319389859 -0.0143986139 -0.106640093 0.0106596472 -0.0122225452 -0.113228679 0.00990940165 -0.0094343219 -0.0981616378 0.00667510787 -0.00298674754 -0.0946971849 -0.00646109693 -0.00488987938 -0.0920977667 0.00990940165 -0.0094343219 -0.0981616378 -0.00646109693 -0.00488987938 -0.0920977667 -0.00319389859 -0.0143986139 -0.106640093 -0.020028539 0.012905851 -0.0850190595 -0.0218362417 0.016551137 -0.0895415619 -0.0173520856 0.0155835049 -0.0769784376 -0.00974797551 0.00686849793 -0.0819445476 -0.0173520856 0.0155835049 -0.0769784376 0.00599487545 -0.000250732061 -0.0786766559 -0.0102460552 0.00922549702 -0.0881717652 -0.0218362417 0.016551137 -0.0895415619 -0.020028539 0.012905851 -0.0850190595 -0.0102460552 0.00922549702 -0.0881717652 0.00599487545 -0.000250732061 -0.0786766559 0.00667510787 -0.00298674754 -0.0946971849 -0.0102460552 0.00922549702 -0.0881717652 -0.00646109693 -0.00488987938 -0.0920977667 -0.0218362417 0.016551137 -0.0895415619 -0.0102460552 0.00922549702 -0.0881717652 0.00667510787 -0.00298674754 -0.0946971849 -0.0218362417 0.016551137 -0.0895415619 -0.0102460552 0.00922549702 -0.0881717652 -0.00974797551 0.00686849793 -0.0819445476 0.00599487545 -0.000250732061 -0.0786766559 0.00667510787 -0.00298674754 -0.0946971849 -0.00646109693 -0.00488987938 -0.0920977667 -0.0218362417 0.016551137 -0.0895415619 -0.00646109693 -0.00488987938 -0.0920977667 -0.0238088146 0.00942732301 -0.0888180882 -0.0218362417 0.016551137 -0.0895415619 -0.00198453641 -0.0118425088 -0.103662319 -0.00646109693 -0.00488987938 -0.0920977667 0.00667510787 -0.00298674754 -0.0946971849 -0.0207165144 0.0314725637 -0.143997639 -0.0367105901 0.0531824864 -0.144117773 -0.0313628018 0.0468846522 -0.123539366 -0.0207165144 0.0314725637 -0.143997639 -0.0140451128 0.0206311811 -0.160145447 -0.0367105901 0.0531824864 -0.144117773 -0.0207165144 0.0314725637 -0.143997639 -0.010030197 0.0126406504 -0.150031 -0.0140451128 0.0206311811 -0.160145447 -0.00439984258 -0.00913482159 -0.124159314 0.0109090824 -0.0137077216 -0.147896856 -0.00175489951 -0.0155262388 -0.148505628 -0.00439984258 -0.00913482159 -0.124159314 -0.00175489951 -0.0155262388 -0.148505628 -0.010030197 0.0126406504 -0.150031 -0.0199828763 0.0315890647 -0.12352594 -0.0207165144 0.0314725637 -0.143997639 -0.0313628018 0.0468846522 -0.123539366 -0.00439984258 -0.00913482159 -0.124159314 0.00990940165 -0.0094343219 -0.0981616378 0.0109090824 -0.0137077216 -0.147896856 -0.00439984258 -0.00913482159 -0.124159314 -0.00198453641 -0.0118425088 -0.103662319 0.00990940165 -0.0094343219 -0.0981616378 -0.00198453641 -0.0118425088 -0.103662319 -0.0143967727 -0.000549663033 -0.102826931 -0.00646109693 -0.00488987938 -0.0920977667 -0.0290891789 0.0392131321 -0.0858396813 -0.0265096053 0.0285434909 -0.0850641727 -0.0327155739 0.0410437062 -0.103750423 -0.0313628018 0.0468846522 -0.123539366 -0.03732742 0.0505373999 -0.10372939 -0.0327155739 0.0410437062 -0.103750423 -0.0367105901 0.0531824864 -0.144117773 -0.0332054868 0.0575790331 -0.123216309 -0.0313628018 0.0468846522 -0.123539366 -0.0277235545 0.0638252571 -0.145316392 -0.0332054868 0.0575790331 -0.123216309 -0.0289371535 0.0652434155 -0.144885778 -0.0277235545 0.0638252571 -0.145316392 -0.0252167061 0.0603846349 -0.093342796 -0.0332054868 0.0575790331 -0.123216309 -0.0332054868 0.0575790331 -0.123216309 -0.0252167061 0.0603846349 -0.093342796 -0.03732742 0.0505373999 -0.10372939 -0.0114494823 -0.00553822005 -0.104598053 -0.00439984258 -0.00913482159 -0.124159314 -0.0123537295 0.00982737727 -0.109470956 -0.0123537295 0.00982737727 -0.109470956 -0.00439984258 -0.00913482159 -0.124159314 -0.010030197 0.0126406504 -0.150031 -0.0153269246 0.00975983217 -0.104157224 -0.0199828763 0.0315890647 -0.12352594 -0.0238045063 0.0291728731 -0.10370931 -0.0153269246 0.00975983217 -0.104157224 -0.0123537295 0.00982737727 -0.109470956 -0.0199828763 0.0315890647 -0.12352594 -0.0199828763 0.0315890647 -0.12352594 -0.010030197 0.0126406504 -0.150031 -0.0207165144 0.0314725637 -0.143997639 -0.0287697893 0.0358775184 -0.0700909495 -0.0358482115 0.040624585 -0.0858828425 -0.0252167061 0.0603846349 -0.093342796 -0.03732742 0.0505373999 -0.10372939 -0.0358482115 0.040624585 -0.0858828425 -0.0327155739 0.0410437062 -0.103750423 -0.0199828763 0.0315890647 -0.12352594 -0.0313628018 0.0468846522 -0.123539366 -0.0238045063 0.0291728731 -0.10370931 -0.0313628018 0.0468846522 -0.123539366 -0.0327155739 0.0410437062 -0.103750423 -0.0238045063 0.0291728731 -0.10370931 0.0109090824 -0.0137077216 -0.147896856 0.0116491336 -0.0161571559 -0.153677836 -0.00175489951 -0.0155262388 -0.148505628 -0.0123537295 0.00982737727 -0.109470956 -0.010030197 0.0126406504 -0.150031 -0.0199828763 0.0315890647 -0.12352594 -0.0290891789 0.0392131321 -0.0858396813 -0.0358482115 0.040624585 -0.0858828425 -0.0287697893 0.0358775184 -0.0700909495 -0.0290891789 0.0392131321 -0.0858396813 -0.0327155739 0.0410437062 -0.103750423 -0.0358482115 0.040624585 -0.0858828425 -0.0153269246 0.00975983217 -0.104157224 -0.00198453641 -0.0118425088 -0.103662319 -0.00439984258 -0.00913482159 -0.124159314 -0.0153269246 0.00975983217 -0.104157224 -0.00439984258 -0.00913482159 -0.124159314 -0.0114494823 -0.00553822005 -0.104598053 -0.0153269246 0.00975983217 -0.104157224 -0.0114494823 -0.00553822005 -0.104598053 -0.0123537295 0.00982737727 -0.109470956 -0.0289371535 0.0652434155 -0.144885778 -0.0332054868 0.0575790331 -0.123216309 -0.0367105901 0.0531824864 -0.144117773 -0.0218362417 0.016551137 -0.0895415619 -0.0238045063 0.0291728731 -0.10370931 -0.0265096053 0.0285434909 -0.0850641727 -0.0173520856 0.0155835049 -0.0769784376 -0.0218362417 0.016551137 -0.0895415619 -0.0265096053 0.0285434909 -0.0850641727 -0.0143967727 -0.000549663033 -0.102826931 -0.0238045063 0.0291728731 -0.10370931 -0.0218362417 0.016551137 -0.0895415619 -0.0153269246 0.00975983217 -0.104157224 -0.0238045063 0.0291728731 -0.10370931 -0.0143967727 -0.000549663033 -0.102826931 -0.0153269246 0.00975983217 -0.104157224 -0.0143967727 -0.000549663033 -0.102826931 -0.00198453641 -0.0118425088 -0.103662319 -0.0287697893 0.0358775184 -0.0700909495 -0.0173520856 0.0155835049 -0.0769784376 -0.0265096053 0.0285434909 -0.0850641727 -0.0287697893 0.0358775184 -0.0700909495 -0.0252167061 0.0603846349 -0.093342796 -0.0189765394 0.0515804738 -0.0699826404 -0.0290891789 0.0392131321 -0.0858396813 -0.0287697893 0.0358775184 -0.0700909495 -0.0265096053 0.0285434909 -0.0850641727 -0.020028539 0.012905851 -0.0850190595 -0.0173520856 0.0155835049 -0.0769784376 -0.0192184262 0.0107615823 -0.0746370032 -0.00974797551 0.00686849793 -0.0819445476 -0.0192184262 0.0107615823 -0.0746370032 -0.0173520856 0.0155835049 -0.0769784376 -0.0286575407 0.0378755592 -0.0645029619 -0.029646581 0.0238221679 -0.0533214845 -0.0248773154 0.0115008038 -0.0669169053 -0.0194651745 0.0482492708 -0.0530212484 -0.00746417465 0.0584488884 -0.0648749396 0.0088989716 0.0534047484 -0.0652081668 0.0144042298 0.056831494 -0.0564724319 0.0088989716 0.0534047484 -0.0652081668 -0.00746417465 0.0584488884 -0.0648749396 -0.00729125785 0.000342757354 -0.0642095879 0.0106580537 0.0044444371 -0.0537257604 0.0076297014 -0.00229005609 -0.0593069419 0.0165048856 0.0019949195 -0.0643886328 0.0279400013 0.0248332079 -0.0635632202 0.0285071637 0.0131213963 -0.0548943579 0.0246192515 0.045820348 -0.055662442 0.0088989716 0.0534047484 -0.0652081668 0.0144042298 0.056831494 -0.0564724319 -0.0186681356 0.00155326095 -0.0530812554 -0.00729125785 0.000342757354 -0.0642095879 0.0076297014 -0.00229005609 -0.0593069419 0.0165048856 0.0019949195 -0.0643886328 0.0076297014 -0.00229005609 -0.0593069419 0.0106580537 0.0044444371 -0.0537257604 -0.0186681356 0.00155326095 -0.0530812554 -0.0248773154 0.0115008038 -0.0669169053 -0.029646581 0.0238221679 -0.0533214845 -0.026339978 0.0469748937 -0.0531853177 -0.0194651745 0.0482492708 -0.0530212484 -0.009441779 0.0588585809 -0.0530245863 -0.009441779 0.0588585809 -0.0530245863 -0.0194651745 0.0482492708 -0.0530212484 0.0144042298 0.056831494 -0.0564724319 0.0287269354 0.0325852484 -0.0550714284 0.0279400013 0.0248332079 -0.0635632202 0.0285071637 0.0131213963 -0.0548943579 0.0285071637 0.0131213963 -0.0548943579 0.0106580537 0.0044444371 -0.0537257604 0.0076297014 -0.00229005609 -0.0593069419 0.0285071637 0.0131213963 -0.0548943579 0.0279400013 0.0248332079 -0.0635632202 0.0106580537 0.0044444371 -0.0537257604 -0.0186681356 0.00155326095 -0.0530812554 0.0106580537 0.0044444371 -0.0537257604 -0.00729125785 0.000342757354 -0.0642095879 -0.0186681356 0.00155326095 -0.0530812554 0.0076297014 -0.00229005609 -0.0593069419 0.0106580537 0.0044444371 -0.0537257604 -0.0186681356 0.00155326095 -0.0530812554 -0.00729125785 0.000342757354 -0.0642095879 -0.0248773154 0.0115008038 -0.0669169053 0.0144042298 0.056831494 -0.0564724319 -0.0194651745 0.0482492708 -0.0530212484 0.0088989716 0.0534047484 -0.0652081668 0.0165048856 0.0019949195 -0.0643886328 0.0106580537 0.0044444371 -0.0537257604 0.0279400013 0.0248332079 -0.0635632202 -0.009441779 0.0588585809 -0.0530245863 0.0144042298 0.056831494 -0.0564724319 -0.00746417465 0.0584488884 -0.0648749396 -0.026339978 0.0469748937 -0.0531853177 -0.00746417465 0.0584488884 -0.0648749396 -0.0286575407 0.0378755592 -0.0645029619 -0.026339978 0.0469748937 -0.0531853177 -0.0286575407 0.0378755592 -0.0645029619 -0.029646581 0.0238221679 -0.0533214845 -0.026339978 0.0469748937 -0.0531853177 -0.009441779 0.0588585809 -0.0530245863 -0.00746417465 0.0584488884 -0.0648749396 0.0165048856 0.0019949195 -0.0643886328 0.0285071637 0.0131213963 -0.0548943579 0.0076297014 -0.00229005609 -0.0593069419 -0.026339978 0.0469748937 -0.0531853177 -0.0194651745 0.0482492708 -0.0530212484 -0.0286575407 0.0378755592 -0.0645029619 -0.026339978 0.0469748937 -0.0531853177 -0.029646581 0.0238221679 -0.0533214845 -0.0194651745 0.0482492708 -0.0530212484 -0.0194651745 0.0482492708 -0.0530212484 -0.0286575407 0.0378755592 -0.0645029619 -0.00746417465 0.0584488884 -0.0648749396 -0.0194651745 0.0482492708 -0.0530212484 -0.029646581 0.0238221679 -0.0533214845 -0.0286575407 0.0378755592 -0.0645029619 -0.0175843034 -0.0486530401 -0.106750548 -0.0139279161 -0.0707601681 -0.12794441 -0.0287535451 -0.0406774245 -0.120448865 -0.00686657801 -0.0699544102 -0.160478994 -0.00014865995 -0.0790483877 -0.144507796 -0.0173026863 -0.0735607147 -0.156119213 -0.0139279161 -0.0707601681 -0.12794441 -0.0173026863 -0.0735607147 -0.156119213 -0.00014865995 -0.0790483877 -0.144507796 -0.0175843034 -0.0486530401 -0.106750548 -0.00853494182 -0.0336989276 -0.103331856 -0.0104201743 -0.0381554067 -0.101349786 -0.00686657801 -0.0699544102 -0.160478994 -0.0115536032 -0.075689517 -0.136604115 -0.00014865995 -0.0790483877 -0.144507796 -0.0175843034 -0.0486530401 -0.106750548 -0.00014865995 -0.0790483877 -0.144507796 -0.0115536032 -0.075689517 -0.136604115 -0.0287535451 -0.0406774245 -0.120448865 -0.0115536032 -0.075689517 -0.136604115 -0.0239780396 -0.0513991974 -0.138212144 -0.0175843034 -0.0486530401 -0.106750548 -0.0104201743 -0.0381554067 -0.101349786 -0.00014865995 -0.0790483877 -0.144507796 -0.0139279161 -0.0707601681 -0.12794441 -0.00014865995 -0.0790483877 -0.144507796 -0.0104201743 -0.0381554067 -0.101349786 -0.0175843034 -0.0486530401 -0.106750548 -0.0139279161 -0.0707601681 -0.12794441 -0.0104201743 -0.0381554067 -0.101349786 -0.0287535451 -0.0406774245 -0.120448865 -0.0173026863 -0.0735607147 -0.156119213 -0.0139279161 -0.0707601681 -0.12794441 -0.00686657801 -0.0699544102 -0.160478994 -0.0239780396 -0.0513991974 -0.138212144 -0.0115536032 -0.075689517 -0.136604115 -0.00686657801 -0.0699544102 -0.160478994 -0.00761584053 -0.0323647261 -0.135789782 -0.0239780396 -0.0513991974 -0.138212144 -0.0159695353 -0.0218960214 -0.128336549 -0.00761584053 -0.0323647261 -0.135789782 -0.0239780396 -0.0513991974 -0.138212144 -0.0287535451 -0.0406774245 -0.120448865 -0.0239780396 -0.0513991974 -0.138212144 -0.00761584053 -0.0323647261 -0.135789782 -0.0287535451 -0.0406774245 -0.120448865 -0.00761584053 -0.0323647261 -0.135789782 -0.0190913584 -0.0337416604 -0.133700192 -0.0287535451 -0.0406774245 -0.120448865 -0.0190913584 -0.0337416604 -0.133700192 -0.0173026863 -0.0735607147 -0.156119213 -0.0276477635 -0.0273721889 -0.123640664 -0.0239780396 -0.0513991974 -0.138212144 -0.00761584053 -0.0323647261 -0.135789782 -0.0276477635 -0.0273721889 -0.123640664 -0.0159695353 -0.0218960214 -0.128336549 -0.0239780396 -0.0513991974 -0.138212144 -0.00686657801 -0.0699544102 -0.160478994 -0.0173026863 -0.0735607147 -0.156119213 -0.0190913584 -0.0337416604 -0.133700192 -0.00686657801 -0.0699544102 -0.160478994 -0.0190913584 -0.0337416604 -0.133700192 -0.00761584053 -0.0323647261 -0.135789782 -0.0276477635 -0.0273721889 -0.123640664 -0.00761584053 -0.0323647261 -0.135789782 -0.0159695353 -0.0218960214 -0.128336549 -0.0175843034 -0.0486530401 -0.106750548 -0.0115536032 -0.075689517 -0.136604115 -0.0287535451 -0.0406774245 -0.120448865 -0.026835667 -0.0219582878 -0.0716927648 -0.0212968793 0.00884649716 -0.0744890049 -0.0135445707 -0.00190242438 -0.0754411221 -0.0130913081 -0.0302589461 -0.0751984566 -0.0135445707 -0.00190242438 -0.0754411221 -0.00202867971 -0.0230976734 -0.0801312402 -0.000474586734 -0.00957715698 -0.0784155652 -0.00202867971 -0.0230976734 -0.0801312402 -0.0135445707 -0.00190242438 -0.0754411221 -0.0112422751 -9.14540869e-05 -0.0925983265 -0.000474586734 -0.00957715698 -0.0784155652 -0.0135445707 -0.00190242438 -0.0754411221 -0.0112422751 -9.14540869e-05 -0.0925983265 -0.0135445707 -0.00190242438 -0.0754411221 -0.0212968793 0.00884649716 -0.0744890049 -0.0153068788 0.00556215458 -0.0798467547 -0.0135445707 -0.00190242438 -0.0754411221 -0.0112422751 -9.14540869e-05 -0.0925983265 -0.0130913081 -0.0302589461 -0.0751984566 -0.026835667 -0.0219582878 -0.0716927648 -0.0135445707 -0.00190242438 -0.0754411221 -0.0250726715 0.00727050984 -0.0884533674 -0.0212968793 0.00884649716 -0.0744890049 -0.0112422751 -9.14540869e-05 -0.0925983265 -0.0250726715 0.00727050984 -0.0884533674 -0.0153068788 0.00556215458 -0.0798467547 -0.0112422751 -9.14540869e-05 -0.0925983265 -0.0365625136 -0.0083367629 -0.0936182365 -0.0212968793 0.00884649716 -0.0744890049 -0.0250726715 0.00727050984 -0.0884533674 -0.0319479927 -0.0226784423 -0.0866666734 -0.0212968793 0.00884649716 -0.0744890049 -0.0365625136 -0.0083367629 -0.0936182365 -0.000474586734 -0.00957715698 -0.0784155652 -0.0135445707 -0.00190242438 -0.0754411221 -0.0130913081 -0.0302589461 -0.0751984566 -0.000474586734 -0.00957715698 -0.0784155652 -0.0130913081 -0.0302589461 -0.0751984566 -0.00202867971 -0.0230976734 -0.0801312402 -0.0365625136 -0.0083367629 -0.0936182365 -0.0250726715 0.00727050984 -0.0884533674 -0.0112422751 -9.14540869e-05 -0.0925983265 -0.0319479927 -0.0226784423 -0.0866666734 -0.0365625136 -0.0083367629 -0.0936182365 -0.0112422751 -9.14540869e-05 -0.0925983265 -0.0319479927 -0.0226784423 -0.0866666734 -0.0112422751 -9.14540869e-05 -0.0925983265 -0.0212968793 0.00884649716 -0.0744890049 0.00555367349 -0.0520305857 -0.123570435 -0.00853494182 -0.0336989276 -0.103331856 -0.0104201743 -0.0381554067 -0.101349786 -0.00686657801 -0.0699544102 -0.160478994 0.00301320921 -0.0689976662 -0.163710743 -0.00014865995 -0.0790483877 -0.144507796 0.00301320921 -0.0689976662 -0.163710743 0.00555367349 -0.0520305857 -0.123570435 -0.00014865995 -0.0790483877 -0.144507796 -0.00686657801 -0.0699544102 -0.160478994 -0.00014865995 -0.0790483877 -0.144507796 0.00768984389 -0.0735153705 -0.147624865 -0.000986644533 -0.0359060615 -0.130347162 0.00768984389 -0.0735153705 -0.147624865 0.00555367349 -0.0520305857 -0.123570435 0.00768984389 -0.0735153705 -0.147624865 -0.00014865995 -0.0790483877 -0.144507796 0.00555367349 -0.0520305857 -0.123570435 0.00555367349 -0.0520305857 -0.123570435 -0.00014865995 -0.0790483877 -0.144507796 -0.0104201743 -0.0381554067 -0.101349786 -0.00686657801 -0.0699544102 -0.160478994 0.00768984389 -0.0735153705 -0.147624865 -0.00761584053 -0.0323647261 -0.135789782 -0.000986644533 -0.0359060615 -0.130347162 -0.00761584053 -0.0323647261 -0.135789782 0.00768984389 -0.0735153705 -0.147624865 0.00301320921 -0.0689976662 -0.163710743 -0.0190913584 -0.0337416604 -0.133700192 -0.00761584053 -0.0323647261 -0.135789782 -0.000986644533 -0.0359060615 -0.130347162 0.00301320921 -0.0689976662 -0.163710743 -0.00761584053 -0.0323647261 -0.135789782 -0.00686657801 -0.0699544102 -0.160478994 -0.0190913584 -0.0337416604 -0.133700192 0.00301320921 -0.0689976662 -0.163710743 -0.000986644533 -0.0359060615 -0.130347162 0.00555367349 -0.0520305857 -0.123570435 0.00301320921 -0.0689976662 -0.163710743 -0.0218893476 -0.0326142684 -0.0946974084 -0.00357512315 -0.0251812134 -0.0980633274 -0.018467946 -0.0156450272 -0.0947399661 -0.0132388575 -0.0241017304 -0.240481958 -0.0167675111 -0.0166873876 -0.244631678 -0.00595237501 -0.0163365584 -0.224527538 -0.0296375044 0.00749053387 -0.250053167 -0.0427848101 -0.00148311793 -0.257256567 -0.0151051339 0.00310447556 -0.232402295 -0.0196752399 0.0104381135 -0.231793717 -0.0296375044 0.00749053387 -0.250053167 -0.0151051339 0.00310447556 -0.232402295 0.00416998286 0.0105173737 -0.185937405 -0.00446015876 0.00854666345 -0.217756197 -0.00885231793 0.00423612492 -0.195213795 -0.00268072705 0.0223228484 -0.202157855 -0.00446015876 0.00854666345 -0.217756197 0.00416998286 0.0105173737 -0.185937405 -0.0117493998 0.0114994384 -0.194177136 -0.00885231793 0.00423612492 -0.195213795 -0.00446015876 0.00854666345 -0.217756197 -0.0126929032 0.0205325987 -0.220146596 -0.00268072705 0.0223228484 -0.202157855 -0.0123445326 0.0188281536 -0.182276264 -0.0126929032 0.0205325987 -0.220146596 -0.0123445326 0.0188281536 -0.182276264 -0.0117493998 0.0114994384 -0.194177136 -0.0126929032 0.0205325987 -0.220146596 -0.00268072705 0.0223228484 -0.202157855 -0.00446015876 0.00854666345 -0.217756197 -0.0334644616 0.0233632214 -0.240605444 -0.0306248069 0.0379665904 -0.222955704 -0.0394810401 0.0306695625 -0.240628988 -0.0251752362 0.0279280934 -0.222433284 -0.0394810401 0.0306695625 -0.240628988 -0.0306248069 0.0379665904 -0.222955704 -0.0499586798 0.0210553426 -0.247740716 -0.0251752362 0.0279280934 -0.222433284 -0.0334644616 0.0233632214 -0.240605444 -0.0499586798 0.0210553426 -0.247740716 -0.0394810401 0.0306695625 -0.240628988 -0.0251752362 0.0279280934 -0.222433284 -0.0251752362 0.0279280934 -0.222433284 -0.0306248069 0.0379665904 -0.222955704 -0.0334644616 0.0233632214 -0.240605444 -0.0499586798 0.0210553426 -0.247740716 -0.0334644616 0.0233632214 -0.240605444 -0.0394810401 0.0306695625 -0.240628988 -0.0222572535 0.051063627 -0.18144238 -0.025638923 0.0538720004 -0.196336716 -0.0289342832 0.0456514396 -0.177376747 -0.0373658873 0.0545082018 -0.18147321 -0.0222572535 0.051063627 -0.18144238 -0.0289342832 0.0456514396 -0.177376747 -0.0347838327 0.049203705 -0.120668747 -0.0165005662 0.0208447371 -0.130380005 -0.00407865085 -0.0123886988 -0.124762364 -0.0145105226 0.0177531857 -0.138611212 -0.0165005662 0.0208447371 -0.130380005 -0.037318483 0.0519236103 -0.140516132 -0.037318483 0.0519236103 -0.140516132 -0.0165005662 0.0208447371 -0.130380005 -0.0347838327 0.049203705 -0.120668747 -0.0186723899 0.0156651381 -0.105214462 -0.0387137495 0.0443173312 -0.101952225 -0.0347838327 0.049203705 -0.120668747 -0.0150786173 0.0203656964 -0.148445651 -0.0145105226 0.0177531857 -0.138611212 -0.037318483 0.0519236103 -0.140516132 -0.0150786173 0.0203656964 -0.148445651 -0.037318483 0.0519236103 -0.140516132 -0.0347838327 0.049203705 -0.120668747 -0.0157657787 0.0218539555 -0.120550543 -0.0150786173 0.0203656964 -0.148445651 -0.0347838327 0.049203705 -0.120668747 -0.00366103067 -0.0136977043 -0.147475779 -0.0150786173 0.0203656964 -0.148445651 -0.0157657787 0.0218539555 -0.120550543 -0.00366103067 -0.0136977043 -0.147475779 -0.0157657787 0.0218539555 -0.120550543 -0.00407865085 -0.0123886988 -0.124762364 -0.0157657787 0.0218539555 -0.120550543 -0.0387137495 0.0443173312 -0.101952225 -0.0186723899 0.0156651381 -0.105214462 -0.0157657787 0.0218539555 -0.120550543 -0.0347838327 0.049203705 -0.120668747 -0.0387137495 0.0443173312 -0.101952225 -0.0157657787 0.0218539555 -0.120550543 -0.0186723899 0.0156651381 -0.105214462 -0.00407865085 -0.0123886988 -0.124762364 -0.00366103067 -0.0136977043 -0.147475779 -0.0145105226 0.0177531857 -0.138611212 -0.0150786173 0.0203656964 -0.148445651 -0.00366103067 -0.0136977043 -0.147475779 -0.0165005662 0.0208447371 -0.130380005 -0.0145105226 0.0177531857 -0.138611212 -0.0186723899 0.0156651381 -0.105214462 -0.0347838327 0.049203705 -0.120668747 -0.00407865085 -0.0123886988 -0.124762364 -0.00366103067 -0.0136977043 -0.147475779 -0.00407865085 -0.0123886988 -0.124762364 -0.0165005662 0.0208447371 -0.130380005 -0.00672598882 -0.00923616346 -0.0993780568 -0.0240722485 0.00881301146 -0.0967137665 -0.0112422751 -9.14540869e-05 -0.0925983265 -0.0194914304 -0.0332918465 -0.0923077017 -0.0319479927 -0.0226784423 -0.0866666734 -0.0365625136 -0.0083367629 -0.0936182365 -0.00672598882 -0.00923616346 -0.0993780568 -0.0112422751 -9.14540869e-05 -0.0925983265 -0.0365625136 -0.0083367629 -0.0936182365 -0.0194914304 -0.0332918465 -0.0923077017 -0.0240722485 0.00881301146 -0.0967137665 -0.0319479927 -0.0226784423 -0.0866666734 -0.0240722485 0.00881301146 -0.0967137665 -0.0365625136 -0.0083367629 -0.0936182365 -0.0250726715 0.00727050984 -0.0884533674 -0.00672598882 -0.00923616346 -0.0993780568 -0.0365625136 -0.0083367629 -0.0936182365 -0.0240722485 0.00881301146 -0.0967137665 -0.0319479927 -0.0226784423 -0.0866666734 -0.0250726715 0.00727050984 -0.0884533674 -0.0365625136 -0.0083367629 -0.0936182365 -0.0194914304 -0.0332918465 -0.0923077017 -0.0112422751 -9.14540869e-05 -0.0925983265 -0.0240722485 0.00881301146 -0.0967137665 -0.0194914304 -0.0332918465 -0.0923077017 -0.0365625136 -0.0083367629 -0.0936182365 -0.0112422751 -9.14540869e-05 -0.0925983265 -0.0240722485 0.00881301146 -0.0967137665 -0.0250726715 0.00727050984 -0.0884533674 -0.0319479927 -0.0226784423 -0.0866666734 -0.0107820947 -0.0308091305 -0.068309322 -0.0261065159 -0.00678336574 -0.0651730746 -0.000152511901 -0.00551545061 -0.0712844953 0.00146958872 -0.0857959837 -0.171306059 -0.00440982962 -0.0856472403 -0.157772228 -0.005132169 -0.0770136565 -0.168775454 -0.0202900507 0.0670689791 -0.159437358 -0.027761694 0.0604073927 -0.15100421 -0.00848460477 0.0524838418 -0.150539756 -0.0089829471 0.0538469106 -0.168981016 -0.0202900507 0.0670689791 -0.159437358 -0.00848460477 0.0524838418 -0.150539756 0.00635202182 0.0294652991 -0.176812083 -0.0089829471 0.0538469106 -0.168981016 -0.00625631679 0.0356150046 -0.15821515 0.00626003416 0.0295210592 -0.160026431 0.00635202182 0.0294652991 -0.176812083 -0.00625631679 0.0356150046 -0.15821515 -0.00625631679 0.0356150046 -0.15821515 -0.0089829471 0.0538469106 -0.168981016 -0.00848460477 0.0524838418 -0.150539756 0.0177356005 -0.00788238365 -0.175128758 0.00635202182 0.0294652991 -0.176812083 0.0123843821 0.0167185888 -0.162000269 0.0123843821 0.0167185888 -0.162000269 0.00635202182 0.0294652991 -0.176812083 0.00626003416 0.0295210592 -0.160026431 0.0143362237 -0.0108619379 -0.161113873 0.0177356005 -0.00788238365 -0.175128758 0.00951463357 -0.000714728027 -0.163239643 0.00951463357 -0.000714728027 -0.163239643 0.0177356005 -0.00788238365 -0.175128758 0.0123843821 0.0167185888 -0.162000269 -0.0151153021 0.0212226138 -0.158776984 -0.029105084 0.041451145 -0.1502143 -0.0161118209 0.0443748981 -0.161920786 0.00786001515 -0.0131458314 -0.168747216 0.0177356005 -0.00788238365 -0.175128758 0.0143362237 -0.0108619379 -0.161113873 -0.00702426862 -0.00234833965 -0.160497665 -0.0151153021 0.0212226138 -0.158776984 0.00626003416 0.0295210592 -0.160026431 0.000202936804 0.0182267949 -0.165680498 0.00626003416 0.0295210592 -0.160026431 -0.0151153021 0.0212226138 -0.158776984 0.000202936804 0.0182267949 -0.165680498 -0.00702426862 -0.00234833965 -0.160497665 0.0123843821 0.0167185888 -0.162000269 -0.029105084 0.041451145 -0.1502143 -0.00848460477 0.0524838418 -0.150539756 -0.027761694 0.0604073927 -0.15100421 -0.0151153021 0.0212226138 -0.158776984 0.00626003416 0.0295210592 -0.160026431 -0.00625631679 0.0356150046 -0.15821515 -0.0151153021 0.0212226138 -0.158776984 -0.00848460477 0.0524838418 -0.150539756 -0.029105084 0.041451145 -0.1502143 -0.0151153021 0.0212226138 -0.158776984 -0.0161118209 0.0443748981 -0.161920786 -0.00848460477 0.0524838418 -0.150539756 -0.0161118209 0.0443748981 -0.161920786 -0.00625631679 0.0356150046 -0.15821515 -0.00848460477 0.0524838418 -0.150539756 -0.00702426862 -0.00234833965 -0.160497665 0.00951463357 -0.000714728027 -0.163239643 0.0123843821 0.0167185888 -0.162000269 -0.00364766084 0.0247391313 -0.169937059 0.000202936804 0.0182267949 -0.165680498 -0.00625631679 0.0356150046 -0.15821515 -0.00364766084 0.0247391313 -0.169937059 0.00786001515 -0.0131458314 -0.168747216 0.000202936804 0.0182267949 -0.165680498 0.000202936804 0.0182267949 -0.165680498 0.00951463357 -0.000714728027 -0.163239643 -0.00702426862 -0.00234833965 -0.160497665 -0.00364766084 0.0247391313 -0.169937059 -0.00625631679 0.0356150046 -0.15821515 -0.0161118209 0.0443748981 -0.161920786 -0.0161118209 0.0443748981 -0.161920786 -0.029105084 0.041451145 -0.1502143 -0.027761694 0.0604073927 -0.15100421 0.000202936804 0.0182267949 -0.165680498 -0.0151153021 0.0212226138 -0.158776984 -0.00625631679 0.0356150046 -0.15821515 0.000202936804 0.0182267949 -0.165680498 0.00786001515 -0.0131458314 -0.168747216 0.00951463357 -0.000714728027 -0.163239643 0.00786001515 -0.0131458314 -0.168747216 0.0143362237 -0.0108619379 -0.161113873 0.00951463357 -0.000714728027 -0.163239643 -0.00702426862 -0.00234833965 -0.160497665 0.00951463357 -0.000714728027 -0.163239643 0.0143362237 -0.0108619379 -0.161113873 0.000202936804 0.0182267949 -0.165680498 0.00635202182 0.0294652991 -0.176812083 0.00626003416 0.0295210592 -0.160026431 0.000202936804 0.0182267949 -0.165680498 0.0123843821 0.0167185888 -0.162000269 0.00626003416 0.0295210592 -0.160026431 -0.0161118209 0.0443748981 -0.161920786 -0.0202900507 0.0670689791 -0.159437358 -0.0089829471 0.0538469106 -0.168981016 -0.0161118209 0.0443748981 -0.161920786 -0.027761694 0.0604073927 -0.15100421 -0.0202900507 0.0670689791 -0.159437358 -0.00364766084 0.0247391313 -0.169937059 -0.0089829471 0.0538469106 -0.168981016 0.00635202182 0.0294652991 -0.176812083 -0.00364766084 0.0247391313 -0.169937059 -0.0161118209 0.0443748981 -0.161920786 -0.0089829471 0.0538469106 -0.168981016 -0.00364766084 0.0247391313 -0.169937059 0.00635202182 0.0294652991 -0.176812083 0.0177356005 -0.00788238365 -0.175128758 -0.00364766084 0.0247391313 -0.169937059 0.0177356005 -0.00788238365 -0.175128758 0.00786001515 -0.0131458314 -0.168747216 -0.00319230207 -0.00797139108 -0.0133746127 -0.00730017712 -0.00563285081 0.0166439731 0.00765380077 -4.7515573e-06 0.0073975781 -0.0159403887 -0.00294458237 -0.00220626569 0.00765380077 -4.7515573e-06 0.0073975781 -0.00730017712 -0.00563285081 0.0166439731 -0.0159403887 -0.00294458237 -0.00220626569 -0.00319230207 -0.00797139108 -0.0133746127 0.00765380077 -4.7515573e-06 0.0073975781 0.0335131325 0.0148392627 -0.0490053035 0.0153409261 1.07128884e-09 -0.0490009487 0.0167603921 -0.00347134355 -0.047946196 0.01290383 -0.00247909874 -0.0649691299 0.0153409261 1.07128884e-09 -0.0490009487 0.0335131325 0.0148392627 -0.0490053035 0.031121783 0.0102380179 -0.0650010481 0.01290383 -0.00247909874 -0.0649691299 0.0335131325 0.0148392627 -0.0490053035 0.0322632007 0.0282252245 -0.0630074888 0.031121783 0.0102380179 -0.0650010481 0.0335131325 0.0148392627 -0.0490053035 0.0357000418 0.0361618027 -0.0494184457 0.0322632007 0.0282252245 -0.0630074888 0.0335131325 0.0148392627 -0.0490053035 0.0236913078 0.0496086441 -0.0620188266 0.0357000418 0.0361618027 -0.0494184457 0.0144206509 0.0617375858 -0.0489772782 0.0179253127 0.0595124364 -0.0649661943 0.0236913078 0.0496086441 -0.0620188266 0.0144206509 0.0617375858 -0.0489772782 -0.0182149988 0.0595150851 -0.0490043312 0.0179253127 0.0595124364 -0.0649661943 0.0144206509 0.0617375858 -0.0489772782 -0.0309825297 0.0413670167 -0.0490319356 -0.00958846416 0.0635217354 -0.0650035292 -0.0182149988 0.0595150851 -0.0490043312 -0.0329973139 0.0171479415 -0.0648952127 -0.0310708396 0.0470168479 -0.0490265898 -0.028353367 0.00278998236 -0.0492679626 -0.0130069423 -0.00234635477 -0.0648549423 -0.0329973139 0.0171479415 -0.0648952127 -0.028353367 0.00278998236 -0.0492679626 0.0160169192 7.36342599e-07 -0.00746626034 0.0128431395 -5.57200983e-05 0.0179991126 0.0084257219 -0.00652726693 0.0212902222 0.01602461 -0.00369506376 -0.0125799123 0.0160169192 7.36342599e-07 -0.00746626034 0.0084257219 -0.00652726693 0.0212902222 -0.0130069423 -0.00234635477 -0.0648549423 -0.028353367 0.00278998236 -0.0492679626 -0.0159403887 -0.00294458237 -0.00220626569 -0.028353367 0.00278998236 -0.0492679626 -0.00319230207 -0.00797139108 -0.0133746127 -0.0159403887 -0.00294458237 -0.00220626569 0.0233699419 0.000328265742 -0.0647213832 0.0335131325 0.0148392627 -0.0490053035 0.0167603921 -0.00347134355 -0.047946196 0.00305161485 0.0649147779 -0.0647147074 -0.00847803615 0.0635493472 -0.0489921011 0.0144206509 0.0617375858 -0.0489772782 -0.0265575349 0.0537278019 -0.064703092 -0.0310708396 0.0470168479 -0.0490265898 -0.0182149988 0.0595150851 -0.0490043312 -0.0327967703 0.0408328585 -0.0649695918 -0.0329973139 0.0171479415 -0.0648952127 -0.0310708396 0.0470168479 -0.0490265898 0.0160169192 7.36342599e-07 -0.00746626034 0.0167603921 -0.00347134355 -0.047946196 0.0153409261 1.07128884e-09 -0.0490009487 0.01602461 -0.00369506376 -0.0125799123 0.0167603921 -0.00347134355 -0.047946196 0.0160169192 7.36342599e-07 -0.00746626034 0.0153409261 1.07128884e-09 -0.0490009487 -0.0159403887 -0.00294458237 -0.00220626569 -0.00730017712 -0.00563285081 0.0166439731 0.0160169192 7.36342599e-07 -0.00746626034 0.0153409261 1.07128884e-09 -0.0490009487 0.0128431395 -5.57200983e-05 0.0179991126 0.0128431395 -5.57200983e-05 0.0179991126 0.0153409261 1.07128884e-09 -0.0490009487 -0.00730017712 -0.00563285081 0.0166439731 -0.0130069423 -0.00234635477 -0.0648549423 -0.0159403887 -0.00294458237 -0.00220626569 0.0153409261 1.07128884e-09 -0.0490009487 0.0153409261 1.07128884e-09 -0.0490009487 0.00765380077 -4.7515573e-06 0.0073975781 -0.0159403887 -0.00294458237 -0.00220626569 0.01602461 -0.00369506376 -0.0125799123 0.0153409261 1.07128884e-09 -0.0490009487 0.0160169192 7.36342599e-07 -0.00746626034 0.0128234308 -0.00250543561 -0.0490000024 -0.0130069423 -0.00234635477 -0.0648549423 0.0153409261 1.07128884e-09 -0.0490009487 -0.00847803615 0.0635493472 -0.0489921011 -0.0182149988 0.0595150851 -0.0490043312 0.0144206509 0.0617375858 -0.0489772782 -0.0310708396 0.0470168479 -0.0490265898 -0.0309825297 0.0413670167 -0.0490319356 -0.0182149988 0.0595150851 -0.0490043312 0.00985859521 -0.0061221621 -0.0649989843 -0.0130069423 -0.00234635477 -0.0648549423 0.01290383 -0.00247909874 -0.0649691299 0.00305161485 0.0649147779 -0.0647147074 0.0179253127 0.0595124364 -0.0649661943 -0.00958846416 0.0635217354 -0.0650035292 -0.0327967703 0.0408328585 -0.0649695918 -0.0265575349 0.0537278019 -0.064703092 -0.00958846416 0.0635217354 -0.0650035292 -0.00339905918 -0.00781587604 -0.0639618486 -0.0130069423 -0.00234635477 -0.0648549423 0.00985859521 -0.0061221621 -0.0649989843 -0.0258278791 0.00093186344 -0.0649854839 -0.0130069423 -0.00234635477 -0.0648549423 -0.00339905918 -0.00781587604 -0.0639618486 -0.0258278791 0.00093186344 -0.0649854839 -0.0329973139 0.0171479415 -0.0648952127 -0.0130069423 -0.00234635477 -0.0648549423 0.0233699419 0.000328265742 -0.0647213832 0.01290383 -0.00247909874 -0.0649691299 0.031121783 0.0102380179 -0.0650010481 -0.0327967703 0.0408328585 -0.0649695918 -0.00958846416 0.0635217354 -0.0650035292 -0.0309825297 0.0413670167 -0.0490319356 -0.0327967703 0.0408328585 -0.0649695918 -0.0309825297 0.0413670167 -0.0490319356 -0.0310708396 0.0470168479 -0.0490265898 0.0128234308 -0.00250543561 -0.0490000024 0.01290383 -0.00247909874 -0.0649691299 -0.0130069423 -0.00234635477 -0.0648549423 0.0128234308 -0.00250543561 -0.0490000024 0.0153409261 1.07128884e-09 -0.0490009487 0.01290383 -0.00247909874 -0.0649691299 -0.00958846416 0.0635217354 -0.0650035292 0.0179253127 0.0595124364 -0.0649661943 -0.0182149988 0.0595150851 -0.0490043312 0.00985859521 -0.0061221621 -0.0649989843 0.01290383 -0.00247909874 -0.0649691299 0.0233699419 0.000328265742 -0.0647213832 0.00985859521 -0.0061221621 -0.0649989843 0.0167603921 -0.00347134355 -0.047946196 0.01602461 -0.00369506376 -0.0125799123 0.00985859521 -0.0061221621 -0.0649989843 0.0233699419 0.000328265742 -0.0647213832 0.0167603921 -0.00347134355 -0.047946196 0.0233699419 0.000328265742 -0.0647213832 0.031121783 0.0102380179 -0.0650010481 0.0335131325 0.0148392627 -0.0490053035 0.00305161485 0.0649147779 -0.0647147074 0.0144206509 0.0617375858 -0.0489772782 0.0179253127 0.0595124364 -0.0649661943 0.00305161485 0.0649147779 -0.0647147074 -0.00958846416 0.0635217354 -0.0650035292 -0.00847803615 0.0635493472 -0.0489921011 -0.00847803615 0.0635493472 -0.0489921011 -0.00958846416 0.0635217354 -0.0650035292 -0.0182149988 0.0595150851 -0.0490043312 -0.0265575349 0.0537278019 -0.064703092 -0.0182149988 0.0595150851 -0.0490043312 -0.00958846416 0.0635217354 -0.0650035292 -0.0327967703 0.0408328585 -0.0649695918 -0.0310708396 0.0470168479 -0.0490265898 -0.0265575349 0.0537278019 -0.064703092 -0.0258278791 0.00093186344 -0.0649854839 -0.028353367 0.00278998236 -0.0492679626 -0.0329973139 0.0171479415 -0.0648952127 -0.00339905918 -0.00781587604 -0.0639618486 -0.00319230207 -0.00797139108 -0.0133746127 -0.028353367 0.00278998236 -0.0492679626 -0.0258278791 0.00093186344 -0.0649854839 -0.00339905918 -0.00781587604 -0.0639618486 -0.028353367 0.00278998236 -0.0492679626 0.00985859521 -0.0061221621 -0.0649989843 0.01602461 -0.00369506376 -0.0125799123 -0.00319230207 -0.00797139108 -0.0133746127 0.01602461 -0.00369506376 -0.0125799123 -0.00730017712 -0.00563285081 0.0166439731 -0.00319230207 -0.00797139108 -0.0133746127 0.01602461 -0.00369506376 -0.0125799123 0.0084257219 -0.00652726693 0.0212902222 -0.00730017712 -0.00563285081 0.0166439731 -0.00339905918 -0.00781587604 -0.0639618486 0.00985859521 -0.0061221621 -0.0649989843 -0.00319230207 -0.00797139108 -0.0133746127 </float_array>
          <technique_common>
            <accessor count="1329" offset="0" source="#mesh_0-positions-array" stride="3">
              <param name="X" type="float" />
              <param name="Y" type="float" />
              <param name="Z" type="float" />
            </accessor>
          </technique_common>
        </source>
        <vertices id="mesh_0-vertices">
          <input semantic="POSITION" source="#mesh_0-positions" />
        </vertices>
        <polylist count="443" material="defaultMaterial">
          <input offset="0" semantic="VERTEX" source="#mesh_0-vertices" />
          <vcount>3 3 3 3 3 3 3 3 3 3 3 3 3 3 3 3 3 3 3 3 3 3 3 3 3 3 3 3 3 3 3 3 3 3 3 3 3 3 3 3 3 3 3 3 3 3 3 3 3 3 3 3 3 3 3 3 3 3 3 3 3 3 3 3 3 3 3 3 3 3 3 3 3 3 3 3 3 3 3 3 3 3 3 3 3 3 3 3 3 3 3 3 3 3 3 3 3 3 3 3 3 3 3 3 3 3 3 3 3 3 3 3 3 3 3 3 3 3 3 3 3 3 3 3 3 3 3 3 3 3 3 3 3 3 3 3 3 3 3 3 3 3 3 3 3 3 3 3 3 3 3 3 3 3 3 3 3 3 3 3 3 3 3 3 3 3 3 3 3 3 3 3 3 3 3 3 3 3 3 3 3 3 3 3 3 3 3 3 3 3 3 3 3 3 3 3 3 3 3 3 3 3 3 3 3 3 3 3 3 3 3 3 3 3 3 3 3 3 3 3 3 3 3 3 3 3 3 3 3 3 3 3 3 3 3 3 3 3 3 3 3 3 3 3 3 3 3 3 3 3 3 3 3 3 3 3 3 3 3 3 3 3 3 3 3 3 3 3 3 3 3 3 3 3 3 3 3 3 3 3 3 3 3 3 3 3 3 3 3 3 3 3 3 3 3 3 3 3 3 3 3 3 3 3 3 3 3 3 3 3 3 3 3 3 3 3 3 3 3 3 3 3 3 3 3 3 3 3 3 3 3 3 3 3 3 3 3 3 3 3 3 3 3 3 3 3 3 3 3 3 3 3 3 3 3 3 3 3 3 3 3 3 3 3 3 3 3 3 3 3 3 3 3 3 3 3 3 3 3 3 3 3 3 3 3 3 3 3 3 3 3 3 3 3 3 3 3 3 3 3 3 3 3 3 3 3 3 3 3 3 3 3 3 3 3 3 3 3 3 3 3 3 3 3 3 3 3 3 3 3 3 3 3 3 3 3 3 3 3 3 3 3 3 </vcount>
          <p>0 1 2 3 4 5 6 7 8 9 10 11 12 13 14 15 16 17 18 19 20 21 22 23 24 25 26 27 28 29 30 31 32 33 34 35 36 37 38 39 40 41 42 43 44 45 46 47 48 49 50 51 52 53 54 55 56 57 58 59 60 61 62 63 64 65 66 67 68 69 70 71 72 73 74 75 76 77 78 79 80 81 82 83 84 85 86 87 88 89 90 91 92 93 94 95 96 97 98 99 100 101 102 103 104 105 106 107 108 109 110 111 112 113 114 115 116 117 118 119 120 121 122 123 124 125 126 127 128 129 130 131 132 133 134 135 136 137 138 139 140 141 142 143 144 145 146 147 148 149 150 151 152 153 154 155 156 157 158 159 160 161 162 163 164 165 166 167 168 169 170 171 172 173 174 175 176 177 178 179 180 181 182 183 184 185 186 187 188 189 190 191 192 193 194 195 196 197 198 199 200 201 202 203 204 205 206 207 208 209 210 211 212 213 214 215 216 217 218 219 220 221 222 223 224 225 226 227 228 229 230 231 232 233 234 235 236 237 238 239 240 241 242 243 244 245 246 247 248 249 250 251 252 253 254 255 256 257 258 259 260 261 262 263 264 265 266 267 268 269 270 271 272 273 274 275 276 277 278 279 280 281 282 283 284 285 286 287 288 289 290 291 292 293 294 295 296 297 298 299 300 301 302 303 304 305 306 307 308 309 310 311 312 313 314 315 316 317 318 319 320 321 322 323 324 325 326 327 328 329 330 331 332 333 334 335 336 337 338 339 340 341 342 343 344 345 346 347 348 349 350 351 352 353 354 355 356 357 358 359 360 361 362 363 364 365 366 367 368 369 370 371 372 373 374 375 376 377 378 379 380 381 382 383 384 385 386 387 388 389 390 391 392 393 394 395 396 397 398 399 400 401 402 403 404 405 406 407 408 409 410 411 412 413 414 415 416 417 418 419 420 421 422 423 424 425 426 427 428 429 430 431 432 433 434 435 436 437 438 439 440 441 442 443 444 445 446 447 448 449 450 451 452 453 454 455 456 457 458 459 460 461 462 463 464 465 466 467 468 469 470 471 472 473 474 475 476 477 478 479 480 481 482 483 484 485 486 487 488 489 490 491 492 493 494 495 496 497 498 499 500 501 502 503 504 505 506 507 508 509 510 511 512 513 514 515 516 517 518 519 520 521 522 523 524 525 526 527 528 529 530 531 532 533 534 535 536 537 538 539 540 541 542 543 544 545 546 547 548 549 550 551 552 553 554 555 556 557 558 559 560 561 562 563 564 565 566 567 568 569 570 571 572 573 574 575 576 577 578 579 580 581 582 583 584 585 586 587 588 589 590 591 592 593 594 595 596 597 598 599 600 601 602 603 604 605 606 607 608 609 610 611 612 613 614 615 616 617 618 619 620 621 622 623 624 625 626 627 628 629 630 631 632 633 634 635 636 637 638 639 640 641 642 643 644 645 646 647 648 649 650 651 652 653 654 655 656 657 658 659 660 661 662 663 664 665 666 667 668 669 670 671 672 673 674 675 676 677 678 679 680 681 682 683 684 685 686 687 688 689 690 691 692 693 694 695 696 697 698 699 700 701 702 703 704 705 706 707 708 709 710 711 712 713 714 715 716 717 718 719 720 721 722 723 724 725 726 727 728 729 730 731 732 733 734 735 736 737 738 739 740 741 742 743 744 745 746 747 748 749 750 751 752 753 754 755 756 757 758 759 760 761 762 763 764 765 766 767 768 769 770 771 772 773 774 775 776 777 778 779 780 781 782 783 784 785 786 787 788 789 790 791 792 793 794 795 796 797 798 799 800 801 802 803 804 805 806 807 808 809 810 811 812 813 814 815 816 817 818 819 820 821 822 823 824 825 826 827 828 829 830 831 832 833 834 835 836 837 838 839 840 841 842 843 844 845 846 847 848 849 850 851 852 853 854 855 856 857 858 859 860 861 862 863 864 865 866 867 868 869 870 871 872 873 874 875 876 877 878 879 880 881 882 883 884 885 886 887 888 889 890 891 892 893 894 895 896 897 898 899 900 901 902 903 904 905 906 907 908 909 910 911 912 913 914 915 916 917 918 919 920 921 922 923 924 925 926 927 928 929 930 931 932 933 934 935 936 937 938 939 940 941 942 943 944 945 946 947 948 949 950 951 952 953 954 955 956 957 958 959 960 961 962 963 964 965 966 967 968 969 970 971 972 973 974 975 976 977 978 979 980 981 982 983 984 985 986 987 988 989 990 991 992 993 994 995 996 997 998 999 1000 1001 1002 1003 1004 1005 1006 1007 1008 1009 1010 1011 1012 1013 1014 1015 1016 1017 1018 1019 1020 1021 1022 1023 1024 1025 1026 1027 1028 1029 1030 1031 1032 1033 1034 1035 1036 1037 1038 1039 1040 1041 1042 1043 1044 1045 1046 1047 1048 1049 1050 1051 1052 1053 1054 1055 1056 1057 1058 1059 1060 1061 1062 1063 1064 1065 1066 1067 1068 1069 1070 1071 1072 1073 1074 1075 1076 1077 1078 1079 1080 1081 1082 1083 1084 1085 1086 1087 1088 1089 1090 1091 1092 1093 1094 1095 1096 1097 1098 1099 1100 1101 1102 1103 1104 1105 1106 1107 1108 1109 1110 1111 1112 1113 1114 1115 1116 1117 1118 1119 1120 1121 1122 1123 1124 1125 1126 1127 1128 1129 1130 1131 1132 1133 1134 1135 1136 1137 1138 1139 1140 1141 1142 1143 1144 1145 1146 1147 1148 1149 1150 1151 1152 1153 1154 1155 1156 1157 1158 1159 1160 1161 1162 1163 1164 1165 1166 1167 1168 1169 1170 1171 1172 1173 1174 1175 1176 1177 1178 1179 1180 1181 1182 1183 1184 1185 1186 1187 1188 1189 1190 1191 1192 1193 1194 1195 1196 1197 1198 1199 1200 1201 1202 1203 1204 1205 1206 1207 1208 1209 1210 1211 1212 1213 1214 1215 1216 1217 1218 1219 1220 1221 1222 1223 1224 1225 1226 1227 1228 1229 1230 1231 1232 1233 1234 1235 1236 1237 1238 1239 1240 1241 1242 1243 1244 1245 1246 1247 1248 1249 1250 1251 1252 1253 1254 1255 1256 1257 1258 1259 1260 1261 1262 1263 1264 1265 1266 1267 1268 1269 1270 1271 1272 1273 1274 1275 1276 1277 1278 1279 1280 1281 1282 1283 1284 1285 1286 1287 1288 1289 1290 1291 1292 1293 1294 1295 1296 1297 1298 1299 1300 1301 1302 1303 1304 1305 1306 1307 1308 1309 1310 1311 1312 1313 1314 1315 1316 1317 1318 1319 1320 1321 1322 1323 1324 1325 1326 1327 1328 </p>
        </polylist>
      </mesh>
    </geometry>
  </library_geometries>
  <library_controllers>
  </library_controllers>
  <library_visual_scenes>
    <visual_scene id="Scene" name="Scene">
      <node id="node" name="" type="NODE">
        <matrix sid="matrix">1 0 0 0 0 1 0 0 0 0 1 0 0 0 0 1</matrix>
        <instance_geometry url="#mesh_0">
          <bind_material>
            <technique_common>
              <instance_material symbol="defaultMaterial" target="#material_0">
              </instance_material>
            </technique_common>
          </bind_material>
        </instance_geometry>
      </node>
    </visual_scene>
  </library_visual_scenes>
  <scene>
    <instance_visual_scene url="#Scene" />
  </scene>
</COLLADA>
