<?xml version="1.0" encoding="UTF-8" standalone="no" ?>
<COLLADA xmlns="http://www.collada.org/2005/11/COLLADASchema" version="1.4.1">
  <asset>
    <contributor>
      <author>Assimp</author>
      <authoring_tool>Assimp Exporter</authoring_tool>
    </contributor>
    <created>2025-12-08T10:04:59</created>
    <modified>2025-12-08T10:04:59</modified>
    <unit name="meter" meter="1" />
    <up_axis>Y_UP</up_axis>
  </asset>
  <library_images>
  </library_images>
  <library_effects>
    <effect id="material_0-fx" name="">
      <profile_COMMON>
        <technique sid="standard">
          <phong>
            <emission>
              <color sid="emission">0   0   0   4.53488209e-41</color>
            </emission>
            <ambient>
              <color sid="ambient">0.831372559   0.839215696   0.831372559   -0.021484375</color>
            </ambient>
            <diffuse>
              <color sid="diffuse">0.831372559   0.839215696   0.831372559   -0.021484375</color>
            </diffuse>
            <specular>
              <color sid="specular">0.200000003   0.200000003   0.200000003   2.55843558e-11</color>
            </specular>
          </phong>
        </technique>
      </profile_COMMON>
    </effect>
  </library_effects>
  <library_materials>
    <material id="material_0" name="">
      <instance_effect url="#material_0-fx"/>
    </material>
  </library_materials>
  <library_geometries>
    <geometry id="mesh_0" name="" >
      <mesh>
        <source id="mesh_0-positions" name="mesh_0-positions">
          <float_array id="mesh_0-positions-array" count="1584"> -0.0134101762 -0.00327949924 0.0245666727 -0.0106116477 0.00396388723 0.0297247451 0.00623497926 -3.67156426e-05 0.0272880644 -0.0195876919 0.00399163365 -0.0233196095 -0.0263160523 2.46853288e-05 -0.0126048429 -0.014061247 -6.56672228e-06 -0.0253624003 0.0234236754 -1.49826074e-05 -0.0166134443 0.0135255782 0.00398467155 -0.0274075978 0.0130229769 -9.08771981e-05 -0.0256095733 0.0310071222 0.0038897593 -0.000702671299 0.0309954844 0.00403849641 -0.0375796594 0.0271232706 0.00397289917 -0.0253402907 -0.0260301344 0.00394020975 -0.0337629057 0.0135255782 0.00398467155 -0.0274075978 0.0309954844 0.00403849641 -0.0375796594 -0.0260301344 0.00394020975 -0.0337629057 -0.0195876919 0.00399163365 -0.0233196095 0.0135255782 0.00398467155 -0.0274075978 0.0271232706 0.00397289917 -0.0253402907 0.0309954844 0.00403849641 -0.0375796594 0.0135255782 0.00398467155 -0.0274075978 -0.0309955161 0.00399373472 0.00337406923 -0.0195876919 0.00399163365 -0.0233196095 -0.0260301344 0.00394020975 -0.0337629057 -0.0202681702 -0.00496990187 -0.0173811894 -0.014061247 -6.56672228e-06 -0.0253624003 -0.0108895246 -0.00492624147 -0.0172170009 -0.0206095595 -7.42126576e-05 -0.00236566341 -0.0105705252 -3.00182928e-05 -0.0179649442 -0.0263160523 2.46853288e-05 -0.0126048429 0.0171636939 -4.25285252e-05 -0.0112630036 0.0234236754 -1.49826074e-05 -0.0166134443 0.00800106768 -2.37331333e-05 -0.018465016 -0.0273179058 0.00289372727 0.014709278 -0.0134101762 -0.00327949924 0.0245666727 0.0173787363 1.0749086e-05 0.0243046582 0.0234236754 -1.49826074e-05 -0.0166134443 -0.014061247 -6.56672228e-06 -0.0253624003 -0.0263160523 2.46853288e-05 -0.0126048429 0.0234236754 -1.49826074e-05 -0.0166134443 0.0130229769 -9.08771981e-05 -0.0256095733 -0.014061247 -6.56672228e-06 -0.0253624003 0.0051310421 -0.000358523044 -0.0230397694 0.0130229769 -9.08771981e-05 -0.0256095733 0.0234236754 -1.49826074e-05 -0.0166134443 0.024261605 -0.0031466959 -0.00789995212 0.0173787363 1.0749086e-05 0.0243046582 0.02812819 -0.000143353725 -0.000256719883 0.024261605 -0.0031466959 -0.00789995212 0.0234236754 -1.49826074e-05 -0.0166134443 0.0173787363 1.0749086e-05 0.0243046582 0.024261605 -0.0031466959 -0.00789995212 0.02812819 -0.000143353725 -0.000256719883 0.0234236754 -1.49826074e-05 -0.0166134443 0.0193076059 -0.00487781083 0.00920506474 0.0298454482 0.00228226767 0.00784853939 0.0173787363 1.0749086e-05 0.0243046582 0.0173787363 1.0749086e-05 0.0243046582 -0.0134101762 -0.00327949924 0.0245666727 0.00623497926 -3.67156426e-05 0.0272880644 -0.028350817 2.13589756e-05 0.00491481228 -0.0273179058 0.00289372727 0.014709278 0.0173787363 1.0749086e-05 0.0243046582 0.0159168299 -3.0552419e-05 0.0134658515 0.0173787363 1.0749086e-05 0.0243046582 0.0171636939 -4.25285252e-05 -0.0112630036 0.0173787363 1.0749086e-05 0.0243046582 0.0234236754 -1.49826074e-05 -0.0166134443 0.0171636939 -4.25285252e-05 -0.0112630036 -0.0138360551 -4.32704837e-05 0.01461225 -0.0206095595 -7.42126576e-05 -0.00236566341 -0.028350817 2.13589756e-05 0.00491481228 -0.028350817 2.13589756e-05 0.00491481228 -0.0206095595 -7.42126576e-05 -0.00236566341 -0.0263160523 2.46853288e-05 -0.0126048429 -0.0138360551 -4.32704837e-05 0.01461225 -0.028350817 2.13589756e-05 0.00491481228 0.0173787363 1.0749086e-05 0.0243046582 -0.00121866213 -0.00133511028 0.0206060167 -0.0138360551 -4.32704837e-05 0.01461225 0.0173787363 1.0749086e-05 0.0243046582 -0.00121866213 -0.00133511028 0.0206060167 0.0173787363 1.0749086e-05 0.0243046582 0.0159168299 -3.0552419e-05 0.0134658515 0.0298454482 0.00228226767 0.00784853939 0.02812819 -0.000143353725 -0.000256719883 0.0173787363 1.0749086e-05 0.0243046582 -0.0105705252 -3.00182928e-05 -0.0179649442 0.0234236754 -1.49826074e-05 -0.0166134443 -0.0263160523 2.46853288e-05 -0.0126048429 0.0147264507 0.0357960276 -0.0401022732 -0.0249999985 0.0459994934 -0.0400002711 -0.00926184654 0.0442017205 -0.0400244929 -0.0150322178 0.0280823074 -0.0430834889 -0.00926184654 0.0442017205 -0.0400244929 -0.0249999985 0.0459994934 -0.0400002711 0.0106820194 0.0243264772 -0.0400436334 -0.0150322178 0.0280823074 -0.0430834889 -0.0249999985 0.0459994934 -0.0400002711 0.0106820194 0.0243264772 -0.0400436334 -0.0249999985 0.0459994934 -0.0400002711 0.0147264507 0.0357960276 -0.0401022732 -0.0126756178 0.0579970889 -0.0402754955 -0.0249999985 0.0459994934 -0.0400002711 0.0129998634 0.0579996854 -0.0400353521 0.0250050128 0.0458899327 -0.0400082767 0.0129998634 0.0579996854 -0.0400353521 -0.0249999985 0.0459994934 -0.0400002711 0.0209922343 0.029316647 -0.0435040966 0.0250050128 0.0458899327 -0.0400082767 -0.0249999985 0.0459994934 -0.0400002711 0.0250050481 0.0142762391 -0.0400054045 0.0250050128 0.0458899327 -0.0400082767 -0.0249999985 0.0459994934 -0.0400002711 -0.0309863426 0.00586582348 -0.0395712443 0.0250050481 0.0142762391 -0.0400054045 -0.0249999985 0.0459994934 -0.0400002711 -0.0249706339 0.0348155499 -0.0400200859 -0.0249999985 0.0459994934 -0.0400002711 -0.0198976509 0.0414508805 -0.0400064923 -0.0126756178 0.0579970889 -0.0402754955 -0.0249999985 0.0459994934 -0.0400002711 0.0096844295 0.0540817566 -0.0444274805 -0.0309863426 0.00586582348 -0.0395712443 -0.0249999985 0.0459994934 -0.0400002711 0.00072879612 0.0122763626 -0.0400784984 -0.0249999985 0.0459994934 -0.0400002711 -0.000485661789 0.0108161811 -0.0477134921 0.00072879612 0.0122763626 -0.0400784984 -0.0126756178 0.0579970889 -0.0402754955 4.46251252e-05 0.0542410612 -0.0404475108 -0.0249999985 0.0459994934 -0.0400002711 -0.0309999995 -0.00100000075 -0.0500000007 -0.0310003031 0.0139060998 -0.0499651842 -0.0250339285 0.0149624003 -0.0499998964 0.0307 -0.00100000075 -0.0500000007 -0.0309999995 -0.00100000075 -0.0500000007 -0.0250339285 0.0149624003 -0.0499998964 0.0264174789 0.0145887639 -0.0500004962 0.0307 -0.00100000075 -0.0500000007 0.000781440234 0.0092473859 -0.0499921776 0.024994513 0.0310392193 -0.049972564 0.0264174789 0.0145887639 -0.0500004962 0.000781440234 0.0092473859 -0.0499921776 0.020131873 0.0428813547 -0.0497533083 0.0249991603 0.046000246 -0.0499765985 0.024994513 0.0310392193 -0.049972564 -0.0189149771 0.018763015 -0.0498691089 -0.0250339285 0.0149624003 -0.0499998964 -0.024972938 0.0458767749 -0.0499486215 0.000781440234 0.0092473859 -0.0499921776 0.0307 -0.00100000075 -0.0500000007 -0.0250339285 0.0149624003 -0.0499998964 0.0126665635 0.0580123477 -0.0494090281 0.0249991603 0.046000246 -0.0499765985 0.020131873 0.0428813547 -0.0497533083 0.0126665635 0.0580123477 -0.0494090281 0.020131873 0.0428813547 -0.0497533083 0.0096844295 0.0540817566 -0.0444274805 -0.0309990719 -0.004999639 -0.0460003577 0.0307 -0.00100000075 -0.0500000007 0.0309998337 -0.00486778701 -0.0473621674 -9.49744353e-05 -0.00452224398 -0.0464775339 -0.0309990719 -0.004999639 -0.0460003577 -0.0309999995 -0.00100000075 -0.0500000007 -9.49744353e-05 -0.00452224398 -0.0464775339 -0.0309999995 -0.00100000075 -0.0500000007 0.0307 -0.00100000075 -0.0500000007 -9.49744353e-05 -0.00452224398 -0.0464775339 0.0307 -0.00100000075 -0.0500000007 -0.0309990719 -0.004999639 -0.0460003577 -0.0138360551 -4.32704837e-05 0.01461225 -0.0181466285 -0.00488579879 0.0116208419 -0.0206095595 -7.42126576e-05 -0.00236566341 0.0159168299 -3.0552419e-05 0.0134658515 0.0171636939 -4.25285252e-05 -0.0112630036 0.0202229619 -0.00485176826 1.15854327e-05 0.0117302472 -0.0049345335 -0.0193603802 0.00800106768 -2.37331333e-05 -0.018465016 0.0234236754 -1.49826074e-05 -0.0166134443 0.0117302472 -0.0049345335 -0.0193603802 0.0234236754 -1.49826074e-05 -0.0166134443 -0.0105705252 -3.00182928e-05 -0.0179649442 -0.028350817 2.13589756e-05 0.00491481228 -0.0310054198 -0.00476173963 0.000592248165 -0.0227233898 -0.00434374996 -0.00101850962 -0.028350817 2.13589756e-05 0.00491481228 -0.0296256468 -0.00502746366 0.0105893351 -0.0310054198 -0.00476173963 0.000592248165 0.00701501034 -0.00498403609 0.0302001853 0.00623497926 -3.67156426e-05 0.0272880644 0.0135823851 -0.00382700842 0.0223716516 -0.0309863426 0.00586582348 -0.0395712443 -0.0260301344 0.00394020975 -0.0337629057 0.0309954844 0.00403849641 -0.0375796594 -0.0310054198 -0.00476173963 0.000592248165 -0.0309955161 0.00399373472 0.00337406923 -0.0309990719 -0.004999639 -0.0460003577 -0.0309863426 0.00586582348 -0.0395712443 -0.0309990719 -0.004999639 -0.0460003577 -0.0309955161 0.00399373472 0.00337406923 -0.0309863426 0.00586582348 -0.0395712443 -0.0309999995 -0.00100000075 -0.0500000007 -0.0309990719 -0.004999639 -0.0460003577 -0.0309863426 0.00586582348 -0.0395712443 -0.0310003031 0.0139060998 -0.0499651842 -0.0309999995 -0.00100000075 -0.0500000007 0.0309437495 0.0137562491 -0.04736875 0.0309954844 0.00403849641 -0.0375796594 0.0309998337 -0.00486778701 -0.0473621674 0.0309998337 -0.00486778701 -0.0473621674 0.0309954844 0.00403849641 -0.0375796594 0.0310071222 0.0038897593 -0.000702671299 -0.0309863426 0.00586582348 -0.0395712443 0.0309954844 0.00403849641 -0.0375796594 0.0309437495 0.0137562491 -0.04736875 -0.0309863426 0.00586582348 -0.0395712443 0.0309437495 0.0137562491 -0.04736875 0.0250050481 0.0142762391 -0.0400054045 -0.0249706339 0.0348155499 -0.0400200859 -0.0310003031 0.0139060998 -0.0499651842 -0.0249999985 0.0459994934 -0.0400002711 -0.0309863426 0.00586582348 -0.0395712443 -0.0249999985 0.0459994934 -0.0400002711 -0.0310003031 0.0139060998 -0.0499651842 -0.0309863426 0.00586582348 -0.0395712443 -0.0309955161 0.00399373472 0.00337406923 -0.0260301344 0.00394020975 -0.0337629057 -0.028350817 2.13589756e-05 0.00491481228 -0.0227233898 -0.00434374996 -0.00101850962 -0.0296256468 -0.00502746366 0.0105893351 -0.00444123242 -0.00334511371 0.0247743744 -0.0134101762 -0.00327949924 0.0245666727 0.00701501034 -0.00498403609 0.0302001853 0.0159168299 -3.0552419e-05 0.0134658515 0.0202229619 -0.00485176826 1.15854327e-05 0.0193076059 -0.00487781083 0.00920506474 -0.00121866213 -0.00133511028 0.0206060167 0.0159168299 -3.0552419e-05 0.0134658515 0.0193076059 -0.00487781083 0.00920506474 -0.00121866213 -0.00133511028 0.0206060167 0.00701501034 -0.00498403609 0.0302001853 -0.0138360551 -4.32704837e-05 0.01461225 -0.0138360551 -4.32704837e-05 0.01461225 0.00701501034 -0.00498403609 0.0302001853 -0.0181466285 -0.00488579879 0.0116208419 -0.0181466285 -0.00488579879 0.0116208419 -0.0105705252 -3.00182928e-05 -0.0179649442 -0.0206095595 -7.42126576e-05 -0.00236566341 -0.0181466285 -0.00488579879 0.0116208419 -0.0108895246 -0.00492624147 -0.0172170009 -0.0105705252 -3.00182928e-05 -0.0179649442 0.0117302472 -0.0049345335 -0.0193603802 -0.0105705252 -3.00182928e-05 -0.0179649442 -0.0108895246 -0.00492624147 -0.0172170009 0.0117302472 -0.0049345335 -0.0193603802 0.0171636939 -4.25285252e-05 -0.0112630036 0.00800106768 -2.37331333e-05 -0.018465016 0.0117302472 -0.0049345335 -0.0193603802 0.0202229619 -0.00485176826 1.15854327e-05 0.0171636939 -4.25285252e-05 -0.0112630036 0.0106820194 0.0243264772 -0.0400436334 0.00358944782 0.0193457101 -0.0478620827 -0.0150322178 0.0280823074 -0.0430834889 0.0147264507 0.0357960276 -0.0401022732 -0.00926184654 0.0442017205 -0.0400244929 0.00336285727 0.048197411 -0.04754024 0.0117302472 -0.0049345335 -0.0193603802 -0.0108895246 -0.00492624147 -0.0172170009 -0.0309990719 -0.004999639 -0.0460003577 0.0117302472 -0.0049345335 -0.0193603802 -0.0309990719 -0.004999639 -0.0460003577 0.0202229619 -0.00485176826 1.15854327e-05 0.0193076059 -0.00487781083 0.00920506474 0.0202229619 -0.00485176826 1.15854327e-05 -0.0309990719 -0.004999639 -0.0460003577 -0.0296256468 -0.00502746366 0.0105893351 -0.0309990719 -0.004999639 -0.0460003577 -0.0181466285 -0.00488579879 0.0116208419 0.00701501034 -0.00498403609 0.0302001853 -0.0134101762 -0.00327949924 0.0245666727 -0.0181466285 -0.00488579879 0.0116208419 -0.0296256468 -0.00502746366 0.0105893351 -0.0181466285 -0.00488579879 0.0116208419 -0.0134101762 -0.00327949924 0.0245666727 -0.00237615872 -0.00489452016 0.0313257128 -0.0134101762 -0.00327949924 0.0245666727 0.00701501034 -0.00498403609 0.0302001853 -0.00107672834 -0.0043695746 0.0239085704 -0.00237615872 -0.00489452016 0.0313257128 0.00701501034 -0.00498403609 0.0302001853 -0.00121866213 -0.00133511028 0.0206060167 0.0193076059 -0.00487781083 0.00920506474 0.0135823851 -0.00382700842 0.0223716516 -0.00121866213 -0.00133511028 0.0206060167 0.0135823851 -0.00382700842 0.0223716516 0.00701501034 -0.00498403609 0.0302001853 0.0251862537 -0.00498498837 0.0200446676 0.00701501034 -0.00498403609 0.0302001853 0.0135823851 -0.00382700842 0.0223716516 0.0251862537 -0.00498498837 0.0200446676 0.0193076059 -0.00487781083 0.00920506474 -0.0309990719 -0.004999639 -0.0460003577 -0.00779469265 -0.00443116156 -0.0245455764 -0.0309990719 -0.004999639 -0.0460003577 -0.0108895246 -0.00492624147 -0.0172170009 -0.0309990719 -0.004999639 -0.0460003577 -0.0108895246 -0.00492624147 -0.0172170009 -0.0202681702 -0.00496990187 -0.0173811894 0.0251862537 -0.00498498837 0.0200446676 -0.0309990719 -0.004999639 -0.0460003577 0.0310071222 0.0038897593 -0.000702671299 -0.0296256468 -0.00502746366 0.0105893351 -0.0227233898 -0.00434374996 -0.00101850962 -0.0309990719 -0.004999639 -0.0460003577 -0.0227233898 -0.00434374996 -0.00101850962 -0.0310054198 -0.00476173963 0.000592248165 -0.0309990719 -0.004999639 -0.0460003577 0.0188466031 -0.0049912869 -0.0311365891 0.0271232706 0.00397289917 -0.0253402907 -0.0309990719 -0.004999639 -0.0460003577 -0.0181466285 -0.00488579879 0.0116208419 -0.0309990719 -0.004999639 -0.0460003577 -0.0108895246 -0.00492624147 -0.0172170009 -0.0309990719 -0.004999639 -0.0460003577 0.0309998337 -0.00486778701 -0.0473621674 0.0310071222 0.0038897593 -0.000702671299 0.0251862537 -0.00498498837 0.0200446676 0.0135823851 -0.00382700842 0.0223716516 0.0193076059 -0.00487781083 0.00920506474 0.0200675335 -0.00247949269 0.0159120243 0.0251862537 -0.00498498837 0.0200446676 0.0193076059 -0.00487781083 0.00920506474 0.0213219076 0.00398110459 0.0233998373 0.0251862537 -0.00498498837 0.0200446676 0.0298454482 0.00228226767 0.00784853939 -0.0196662806 -0.00207772618 0.0243580192 -0.00237615872 -0.00489452016 0.0313257128 -0.0106116477 0.00396388723 0.0297247451 -0.0196662806 -0.00207772618 0.0243580192 -0.0273179058 0.00289372727 0.014709278 -0.0296256468 -0.00502746366 0.0105893351 -0.0310054198 -0.00476173963 0.000592248165 -0.0273179058 0.00289372727 0.014709278 -0.0309955161 0.00399373472 0.00337406923 0.02812819 -0.000143353725 -0.000256719883 0.0310071222 0.0038897593 -0.000702671299 0.0234236754 -1.49826074e-05 -0.0166134443 0.0310071222 0.0038897593 -0.000702671299 0.0135255782 0.00398467155 -0.0274075978 0.0234236754 -1.49826074e-05 -0.0166134443 -0.0273179058 0.00289372727 0.014709278 -0.0106116477 0.00396388723 0.0297247451 -0.0134101762 -0.00327949924 0.0245666727 0.0213219076 0.00398110459 0.0233998373 0.0173787363 1.0749086e-05 0.0243046582 -0.0106116477 0.00396388723 0.0297247451 0.0213219076 0.00398110459 0.0233998373 0.0298454482 0.00228226767 0.00784853939 0.0173787363 1.0749086e-05 0.0243046582 0.0298454482 0.00228226767 0.00784853939 0.0310071222 0.0038897593 -0.000702671299 0.02812819 -0.000143353725 -0.000256719883 0.0310071222 0.0038897593 -0.000702671299 0.0271232706 0.00397289917 -0.0253402907 0.0135255782 0.00398467155 -0.0274075978 0.0135255782 0.00398467155 -0.0274075978 -0.0195876919 0.00399163365 -0.0233196095 -0.014061247 -6.56672228e-06 -0.0253624003 -0.0309955161 0.00399373472 0.00337406923 -0.0263160523 2.46853288e-05 -0.0126048429 -0.0195876919 0.00399163365 -0.0233196095 -0.028350817 2.13589756e-05 0.00491481228 -0.0263160523 2.46853288e-05 -0.0126048429 -0.0309955161 0.00399373472 0.00337406923 -0.028350817 2.13589756e-05 0.00491481228 -0.0309955161 0.00399373472 0.00337406923 -0.0273179058 0.00289372727 0.014709278 -0.0101410206 0.0545437187 -0.0480008908 -0.0189149771 0.018763015 -0.0498691089 -0.0214803368 0.0268527474 -0.046920456 -0.0101410206 0.0545437187 -0.0480008908 0.0096844295 0.0540817566 -0.0444274805 0.020131873 0.0428813547 -0.0497533083 0.00965665095 0.0141662229 -0.0480008423 0.000781440234 0.0092473859 -0.0499921776 -0.000485661789 0.0108161811 -0.0477134921 0.00965665095 0.0141662229 -0.0480008423 0.024994513 0.0310392193 -0.049972564 0.0209922343 0.029316647 -0.0435040966 0.00965665095 0.0141662229 -0.0480008423 0.020131873 0.0428813547 -0.0497533083 0.024994513 0.0310392193 -0.049972564 -0.0101410206 0.0545437187 -0.0480008908 0.0126665635 0.0580123477 -0.0494090281 0.0096844295 0.0540817566 -0.0444274805 -0.0101410206 0.0545437187 -0.0480008908 -0.0150322178 0.0280823074 -0.0430834889 0.00358944782 0.0193457101 -0.0478620827 -0.0101410206 0.0545437187 -0.0480008908 0.00336285727 0.048197411 -0.04754024 -0.0150322178 0.0280823074 -0.0430834889 0.00965665095 0.0141662229 -0.0480008423 0.00358944782 0.0193457101 -0.0478620827 -0.0101410206 0.0545437187 -0.0480008908 -0.0101410206 0.0545437187 -0.0480008908 0.00358944782 0.0193457101 -0.0478620827 0.00336285727 0.048197411 -0.04754024 0.00965665095 0.0141662229 -0.0480008423 0.000781440234 0.0092473859 -0.0499921776 -0.0189149771 0.018763015 -0.0498691089 0.00965665095 0.0141662229 -0.0480008423 -0.0189149771 0.018763015 -0.0498691089 -0.0101410206 0.0545437187 -0.0480008908 -0.0101410206 0.0545437187 -0.0480008908 -0.0214803368 0.0268527474 -0.046920456 -0.024972938 0.0458767749 -0.0499486215 0.0142401848 0.0481860116 -0.0438922346 0.020131873 0.0428813547 -0.0497533083 0.00965665095 0.0141662229 -0.0480008423 0.0142401848 0.0481860116 -0.0438922346 -0.0101410206 0.0545437187 -0.0480008908 0.020131873 0.0428813547 -0.0497533083 0.0142401848 0.0481860116 -0.0438922346 0.00965665095 0.0141662229 -0.0480008423 -0.0101410206 0.0545437187 -0.0480008908 -0.0214803368 0.0268527474 -0.046920456 -0.0189149771 0.018763015 -0.0498691089 -0.024972938 0.0458767749 -0.0499486215 -0.0129677113 0.0579815544 -0.0500096194 -0.0101410206 0.0545437187 -0.0480008908 -0.024972938 0.0458767749 -0.0499486215 -0.0129677113 0.0579815544 -0.0500096194 0.0126665635 0.0580123477 -0.0494090281 -0.0101410206 0.0545437187 -0.0480008908 -0.0189149771 0.018763015 -0.0498691089 0.000781440234 0.0092473859 -0.0499921776 -0.0250339285 0.0149624003 -0.0499998964 0.00965665095 0.0141662229 -0.0480008423 0.024994513 0.0310392193 -0.049972564 0.000781440234 0.0092473859 -0.0499921776 -0.0150322178 0.0280823074 -0.0430834889 0.00336285727 0.048197411 -0.04754024 -0.00926184654 0.0442017205 -0.0400244929 0.0106820194 0.0243264772 -0.0400436334 0.0147264507 0.0357960276 -0.0401022732 0.00358944782 0.0193457101 -0.0478620827 0.0147264507 0.0357960276 -0.0401022732 0.00336285727 0.048197411 -0.04754024 0.00358944782 0.0193457101 -0.0478620827 -0.0249706339 0.0348155499 -0.0400200859 -0.024972938 0.0458767749 -0.0499486215 -0.0250339285 0.0149624003 -0.0499998964 -0.0249706339 0.0348155499 -0.0400200859 -0.0249999985 0.0459994934 -0.0400002711 -0.024972938 0.0458767749 -0.0499486215 -0.0129677113 0.0579815544 -0.0500096194 -0.0126756178 0.0579970889 -0.0402754955 0.0126665635 0.0580123477 -0.0494090281 -0.0126756178 0.0579970889 -0.0402754955 0.0129998634 0.0579996854 -0.0400353521 0.0126665635 0.0580123477 -0.0494090281 0.0250050128 0.0458899327 -0.0400082767 0.024994513 0.0310392193 -0.049972564 0.0249991603 0.046000246 -0.0499765985 0.0250050481 0.0142762391 -0.0400054045 0.024994513 0.0310392193 -0.049972564 0.0250050128 0.0458899327 -0.0400082767 0.0250050481 0.0142762391 -0.0400054045 0.0309437495 0.0137562491 -0.04736875 0.0264174789 0.0145887639 -0.0500004962 0.0129998634 0.0579996854 -0.0400353521 0.0249991603 0.046000246 -0.0499765985 0.0126665635 0.0580123477 -0.0494090281 0.0250050128 0.0458899327 -0.0400082767 0.0249991603 0.046000246 -0.0499765985 0.0129998634 0.0579996854 -0.0400353521 -0.0129677113 0.0579815544 -0.0500096194 -0.024972938 0.0458767749 -0.0499486215 -0.0249999985 0.0459994934 -0.0400002711 -0.0129677113 0.0579815544 -0.0500096194 -0.0249999985 0.0459994934 -0.0400002711 -0.0126756178 0.0579970889 -0.0402754955 0.0250050481 0.0142762391 -0.0400054045 0.0264174789 0.0145887639 -0.0500004962 0.024994513 0.0310392193 -0.049972564 0.0309437495 0.0137562491 -0.04736875 0.0309998337 -0.00486778701 -0.0473621674 0.0307 -0.00100000075 -0.0500000007 0.0309437495 0.0137562491 -0.04736875 0.0307 -0.00100000075 -0.0500000007 0.0264174789 0.0145887639 -0.0500004962 -0.0196662806 -0.00207772618 0.0243580192 -0.0106116477 0.00396388723 0.0297247451 -0.0273179058 0.00289372727 0.014709278 -0.00237615872 -0.00489452016 0.0313257128 0.00701501034 -0.00498403609 0.0302001853 -0.0106116477 0.00396388723 0.0297247451 0.0213219076 0.00398110459 0.0233998373 -0.0106116477 0.00396388723 0.0297247451 0.00701501034 -0.00498403609 0.0302001853 0.0251862537 -0.00498498837 0.0200446676 0.0310071222 0.0038897593 -0.000702671299 0.0298454482 0.00228226767 0.00784853939 0.0213219076 0.00398110459 0.0233998373 0.00701501034 -0.00498403609 0.0302001853 0.0251862537 -0.00498498837 0.0200446676 -0.0196662806 -0.00207772618 0.0243580192 -0.0134101762 -0.00327949924 0.0245666727 -0.00237615872 -0.00489452016 0.0313257128 -0.0196662806 -0.00207772618 0.0243580192 -0.0296256468 -0.00502746366 0.0105893351 -0.0134101762 -0.00327949924 0.0245666727 -0.0296256468 -0.00502746366 0.0105893351 -0.0273179058 0.00289372727 0.014709278 -0.0310054198 -0.00476173963 0.000592248165 -0.0249706339 0.0348155499 -0.0400200859 -0.0250339285 0.0149624003 -0.0499998964 -0.0310003031 0.0139060998 -0.0499651842 -0.0198976509 0.0414508805 -0.0400064923 -0.0214803368 0.0268527474 -0.046920456 -0.024972938 0.0458767749 -0.0499486215 -0.0233294964 -0.00500124646 -0.0285451449 -0.0260301344 0.00394020975 -0.0337629057 -0.0195876919 0.00399163365 -0.0233196095 0.0188466031 -0.0049912869 -0.0311365891 0.0271232706 0.00397289917 -0.0253402907 0.0309954844 0.00403849641 -0.0375796594 </float_array>
          <technique_common>
            <accessor count="528" offset="0" source="#mesh_0-positions-array" stride="3">
              <param name="X" type="float" />
              <param name="Y" type="float" />
              <param name="Z" type="float" />
            </accessor>
          </technique_common>
        </source>
        <vertices id="mesh_0-vertices">
          <input semantic="POSITION" source="#mesh_0-positions" />
        </vertices>
        <polylist count="176" material="defaultMaterial">
          <input offset="0" semantic="VERTEX" source="#mesh_0-vertices" />
          <vcount>3 3 3 3 3 3 3 3 3 3 3 3 3 3 3 3 3 3 3 3 3 3 3 3 3 3 3 3 3 3 3 3 3 3 3 3 3 3 3 3 3 3 3 3 3 3 3 3 3 3 3 3 3 3 3 3 3 3 3 3 3 3 3 3 3 3 3 3 3 3 3 3 3 3 3 3 3 3 3 3 3 3 3 3 3 3 3 3 3 3 3 3 3 3 3 3 3 3 3 3 3 3 3 3 3 3 3 3 3 3 3 3 3 3 3 3 3 3 3 3 3 3 3 3 3 3 3 3 3 3 3 3 3 3 3 3 3 3 3 3 3 3 3 3 3 3 3 3 3 3 3 3 3 3 3 3 3 3 3 3 3 3 3 3 3 3 3 3 3 3 3 3 3 3 3 3 </vcount>
          <p>0 1 2 3 4 5 6 7 8 9 10 11 12 13 14 15 16 17 18 19 20 21 22 23 24 25 26 27 28 29 30 31 32 33 34 35 36 37 38 39 40 41 42 43 44 45 46 47 48 49 50 51 52 53 54 55 56 57 58 59 60 61 62 63 64 65 66 67 68 69 70 71 72 73 74 75 76 77 78 79 80 81 82 83 84 85 86 87 88 89 90 91 92 93 94 95 96 97 98 99 100 101 102 103 104 105 106 107 108 109 110 111 112 113 114 115 116 117 118 119 120 121 122 123 124 125 126 127 128 129 130 131 132 133 134 135 136 137 138 139 140 141 142 143 144 145 146 147 148 149 150 151 152 153 154 155 156 157 158 159 160 161 162 163 164 165 166 167 168 169 170 171 172 173 174 175 176 177 178 179 180 181 182 183 184 185 186 187 188 189 190 191 192 193 194 195 196 197 198 199 200 201 202 203 204 205 206 207 208 209 210 211 212 213 214 215 216 217 218 219 220 221 222 223 224 225 226 227 228 229 230 231 232 233 234 235 236 237 238 239 240 241 242 243 244 245 246 247 248 249 250 251 252 253 254 255 256 257 258 259 260 261 262 263 264 265 266 267 268 269 270 271 272 273 274 275 276 277 278 279 280 281 282 283 284 285 286 287 288 289 290 291 292 293 294 295 296 297 298 299 300 301 302 303 304 305 306 307 308 309 310 311 312 313 314 315 316 317 318 319 320 321 322 323 324 325 326 327 328 329 330 331 332 333 334 335 336 337 338 339 340 341 342 343 344 345 346 347 348 349 350 351 352 353 354 355 356 357 358 359 360 361 362 363 364 365 366 367 368 369 370 371 372 373 374 375 376 377 378 379 380 381 382 383 384 385 386 387 388 389 390 391 392 393 394 395 396 397 398 399 400 401 402 403 404 405 406 407 408 409 410 411 412 413 414 415 416 417 418 419 420 421 422 423 424 425 426 427 428 429 430 431 432 433 434 435 436 437 438 439 440 441 442 443 444 445 446 447 448 449 450 451 452 453 454 455 456 457 458 459 460 461 462 463 464 465 466 467 468 469 470 471 472 473 474 475 476 477 478 479 480 481 482 483 484 485 486 487 488 489 490 491 492 493 494 495 496 497 498 499 500 501 502 503 504 505 506 507 508 509 510 511 512 513 514 515 516 517 518 519 520 521 522 523 524 525 526 527 </p>
        </polylist>
      </mesh>
    </geometry>
  </library_geometries>
  <library_controllers>
  </library_controllers>
  <library_visual_scenes>
    <visual_scene id="Scene" name="Scene">
      <node id="node" name="" type="NODE">
        <matrix sid="matrix">1 0 0 0 0 1 0 0 0 0 1 0 0 0 0 1</matrix>
        <instance_geometry url="#mesh_0">
          <bind_material>
            <technique_common>
              <instance_material symbol="defaultMaterial" target="#material_0">
              </instance_material>
            </technique_common>
          </bind_material>
        </instance_geometry>
      </node>
    </visual_scene>
  </library_visual_scenes>
  <scene>
    <instance_visual_scene url="#Scene" />
  </scene>
</COLLADA>
