<?xml version="1.0" encoding="UTF-8" standalone="no" ?>
<COLLADA xmlns="http://www.collada.org/2005/11/COLLADASchema" version="1.4.1">
  <asset>
    <contributor>
      <author>Assimp</author>
      <authoring_tool>Assimp Exporter</authoring_tool>
    </contributor>
    <created>2025-12-08T10:04:59</created>
    <modified>2025-12-08T10:04:59</modified>
    <unit name="meter" meter="1" />
    <up_axis>Y_UP</up_axis>
  </asset>
  <library_images>
  </library_images>
  <library_effects>
    <effect id="material_0-fx" name="">
      <profile_COMMON>
        <technique sid="standard">
          <phong>
            <emission>
              <color sid="emission">0   0   0   4.53488209e-41</color>
            </emission>
            <ambient>
              <color sid="ambient">0.792156875   0.819607854   0.933333337   0</color>
            </ambient>
            <diffuse>
              <color sid="diffuse">0.792156875   0.819607854   0.933333337   0</color>
            </diffuse>
            <specular>
              <color sid="specular">0.200000003   0.200000003   0.200000003   2.55843558e-11</color>
            </specular>
          </phong>
        </technique>
      </profile_COMMON>
    </effect>
  </library_effects>
  <library_materials>
    <material id="material_0" name="">
      <instance_effect url="#material_0-fx"/>
    </material>
  </library_materials>
  <library_geometries>
    <geometry id="mesh_0" name="" >
      <mesh>
        <source id="mesh_0-positions" name="mesh_0-positions">
          <float_array id="mesh_0-positions-array" count="1746"> 0.0120062837 0.0121356817 -0.020444138 0.0114665907 -0.0124812983 -0.0201163273 0.00470330101 -0.00176540192 -0.00901862979 0.060469795 0.0125152869 0.00949206203 0.0611828901 -0.0125070205 0.0068617193 0.0619656444 -1.63329732e-05 -0.00334764086 0.0142429732 -0.0124426316 0.0221363585 0.0187425707 -0.012511991 0.025252929 0.0253986157 0.0118735516 0.0282870904 0.0431132913 -0.0125277378 0.0273234118 0.0557120889 -0.0124355564 0.0192897283 0.0536230542 0.00368064153 0.0214268528 0.0413065813 0.0125149833 0.0278099347 0.0431132913 -0.0125277378 0.0273234118 0.0536230542 0.00368064153 0.0214268528 0.0413065813 0.0125149833 0.0278099347 0.0253986157 0.0118735516 0.0282870904 0.0431132913 -0.0125277378 0.0273234118 0.0557120889 -0.0124355564 0.0192897283 0.0611828901 -0.0125070205 0.0068617193 0.060469795 0.0125152869 0.00949206203 0.0536230542 0.00368064153 0.0214268528 0.0557120889 -0.0124355564 0.0192897283 0.060469795 0.0125152869 0.00949206203 0.0606466532 0.0125285694 -0.00921188388 0.0583203845 -0.0125226369 -0.0144433388 0.053201016 0.0120216617 -0.0215985309 0.0606466532 0.0125285694 -0.00921188388 0.0619656444 -1.63329732e-05 -0.00334764086 0.0583203845 -0.0125226369 -0.0144433388 0.0440186709 0.0124977408 -0.0269234721 0.0411453918 -0.0125087574 -0.0278659482 0.0320645347 0.0118152937 -0.0294573903 0.0440186709 0.0124977408 -0.0269234721 0.053201016 0.0120216617 -0.0215985309 0.0411453918 -0.0125087574 -0.0278659482 0.0241911244 0.0125042852 -0.0281015504 0.0114665907 -0.0124812983 -0.0201163273 0.0120062837 0.0121356817 -0.020444138 0.0212501194 -0.0125103779 -0.0266121756 0.0114665907 -0.0124812983 -0.0201163273 0.0241911244 0.0125042852 -0.0281015504 0.0212501194 -0.0125103779 -0.0266121756 0.0241911244 0.0125042852 -0.0281015504 0.0320645347 0.0118152937 -0.0294573903 0.0219023172 0.0124289179 0.0236836001 0.0253986157 0.0118735516 0.0282870904 0.0413065813 0.0125149833 0.0278099347 0.0590638183 0.0123040164 0.00317553198 0.0413065813 0.0125149833 0.0278099347 0.060469795 0.0125152869 0.00949206203 0.0590638183 0.0123040164 0.00317553198 0.060469795 0.0125152869 0.00949206203 0.0606466532 0.0125285694 -0.00921188388 0.0574543327 0.012293594 -0.00963768084 0.0606466532 0.0125285694 -0.00921188388 0.053201016 0.0120216617 -0.0215985309 0.0574543327 0.012293594 -0.00963768084 0.053201016 0.0120216617 -0.0215985309 0.0440186709 0.0124977408 -0.0269234721 0.0447989926 0.012491839 -0.0233582575 0.0574543327 0.012293594 -0.00963768084 0.0440186709 0.0124977408 -0.0269234721 0.0447989926 0.012491839 -0.0233582575 0.0440186709 0.0124977408 -0.0269234721 0.0320645347 0.0118152937 -0.0294573903 0.0447989926 0.012491839 -0.0233582575 0.0320645347 0.0118152937 -0.0294573903 0.0241911244 0.0125042852 -0.0281015504 0.0538733229 -0.0117290979 0.0162235741 0.0611828901 -0.0125070205 0.0068617193 0.0557120889 -0.0124355564 0.0192897283 0.0538733229 -0.0117290979 0.0162235741 0.0557120889 -0.0124355564 0.0192897283 0.0431132913 -0.0125277378 0.0273234118 0.0248971172 -0.0122750001 0.0246977825 0.0431132913 -0.0125277378 0.0273234118 0.0187425707 -0.012511991 0.025252929 0.0450937524 -0.0124870148 -0.0231798235 0.0411453918 -0.0125087574 -0.0278659482 0.0583203845 -0.0125226369 -0.0144433388 0.0420701727 -0.0118904505 0.0247086342 0.0431132913 -0.0125277378 0.0273234118 0.0248971172 -0.0122750001 0.0246977825 0.0102130603 0.0125033064 -0.0125779761 0.0063414881 0.0104470029 -0.00508514326 0.00662522949 0.00641845772 -0.0016291535 0.008001009 -0.000327371061 -0.00890960824 0.0102130603 0.0125033064 -0.0125779761 0.00662522949 0.00641845772 -0.0016291535 0.000115003662 -0.00460045272 0.00469373632 0.00662522949 0.00641845772 -0.0016291535 0.00769518875 0.00247920351 0.00699816784 0.00587369455 -0.00839592423 -0.000321683008 0.000115003662 -0.00460045272 0.00469373632 0.00769518875 0.00247920351 0.00699816784 0.00769518875 0.00247920351 0.00699816784 0.00662522949 0.00641845772 -0.0016291535 0.0063414881 0.0104470029 -0.00508514326 0.0146188838 0.00175070856 -0.0187002383 0.0102130603 0.0125033064 -0.0125779761 0.008001009 -0.000327371061 -0.00890960824 0.0450937524 -0.0124870148 -0.0231798235 0.0447989926 0.012491839 -0.0233582575 0.0241911244 0.0125042852 -0.0281015504 0.0520170517 -0.0106415702 -0.0179629754 0.0447989926 0.012491839 -0.0233582575 0.0450937524 -0.0124870148 -0.0231798235 0.03191071 0.00320555735 0.0262048542 0.0248971172 -0.0122750001 0.0246977825 0.0219023172 0.0124289179 0.0236836001 0.00587369455 -0.00839592423 -0.000321683008 0.00769518875 0.00247920351 0.00699816784 0.0142429732 -0.0124426316 0.0221363585 0.0132183498 0.0117092803 0.0173468255 0.0142429732 -0.0124426316 0.0221363585 0.00769518875 0.00247920351 0.00699816784 0.00587369455 -0.00839592423 -0.000321683008 0.00470330101 -0.00176540192 -0.00901862979 0.000115003662 -0.00460045272 0.00469373632 0.000455597474 0.00926687103 0.00592831103 0.00662522949 0.00641845772 -0.0016291535 0.000115003662 -0.00460045272 0.00469373632 0.000455597474 0.00926687103 0.00592831103 0.00470330101 -0.00176540192 -0.00901862979 0.00662522949 0.00641845772 -0.0016291535 0.00622082734 -0.00277342461 0.0124407336 0.0063414881 0.0104470029 -0.00508514326 0.000455597474 0.00926687103 0.00592831103 0.008001009 -0.000327371061 -0.00890960824 0.00662522949 0.00641845772 -0.0016291535 0.00470330101 -0.00176540192 -0.00901862979 0.00587369455 -0.00839592423 -0.000321683008 0.008001009 -0.000327371061 -0.00890960824 0.00470330101 -0.00176540192 -0.00901862979 0.0583203845 -0.0125226369 -0.0144433388 0.0619656444 -1.63329732e-05 -0.00334764086 0.0611828901 -0.0125070205 0.0068617193 0.0411453918 -0.0125087574 -0.0278659482 0.053201016 0.0120216617 -0.0215985309 0.0583203845 -0.0125226369 -0.0144433388 0.0212501194 -0.0125103779 -0.0266121756 0.0320645347 0.0118152937 -0.0294573903 0.0411453918 -0.0125087574 -0.0278659482 0.0431132913 -0.0125277378 0.0273234118 0.0253986157 0.0118735516 0.0282870904 0.0187425707 -0.012511991 0.025252929 0.00587369455 -0.00839592423 -0.000321683008 0.00470330101 -0.00176540192 -0.00901862979 0.0114665907 -0.0124812983 -0.0201163273 0.00622082734 -0.00277342461 0.0124407336 0.00587369455 -0.00839592423 -0.000321683008 0.0142429732 -0.0124426316 0.0221363585 0.00587369455 -0.00839592423 -0.000321683008 0.0114665907 -0.0124812983 -0.0201163273 0.008001009 -0.000327371061 -0.00890960824 0.0146188838 0.00175070856 -0.0187002383 0.008001009 -0.000327371061 -0.00890960824 0.0114665907 -0.0124812983 -0.0201163273 0.0146188838 0.00175070856 -0.0187002383 0.0114665907 -0.0124812983 -0.0201163273 0.0212501194 -0.0125103779 -0.0266121756 0.0265279487 0.000989394612 -0.025819568 0.0146188838 0.00175070856 -0.0187002383 0.0212501194 -0.0125103779 -0.0266121756 0.0265279487 0.000989394612 -0.025819568 0.0212501194 -0.0125103779 -0.0266121756 0.0411453918 -0.0125087574 -0.0278659482 0.0265279487 0.000989394612 -0.025819568 0.0411453918 -0.0125087574 -0.0278659482 0.0450937524 -0.0124870148 -0.0231798235 0.0265279487 0.000989394612 -0.025819568 0.0450937524 -0.0124870148 -0.0231798235 0.0241911244 0.0125042852 -0.0281015504 0.0520170517 -0.0106415702 -0.0179629754 0.0450937524 -0.0124870148 -0.0231798235 0.0583203845 -0.0125226369 -0.0144433388 0.0520170517 -0.0106415702 -0.0179629754 0.0583203845 -0.0125226369 -0.0144433388 0.0574543327 0.012293594 -0.00963768084 0.0574543327 0.012293594 -0.00963768084 0.0583203845 -0.0125226369 -0.0144433388 0.0611828901 -0.0125070205 0.0068617193 0.0574543327 0.012293594 -0.00963768084 0.0611828901 -0.0125070205 0.0068617193 0.0590638183 0.0123040164 0.00317553198 0.0538733229 -0.0117290979 0.0162235741 0.0590638183 0.0123040164 0.00317553198 0.0611828901 -0.0125070205 0.0068617193 0.0420701727 -0.0118904505 0.0247086342 0.0538733229 -0.0117290979 0.0162235741 0.0431132913 -0.0125277378 0.0273234118 0.03191071 0.00320555735 0.0262048542 0.0420701727 -0.0118904505 0.0247086342 0.0248971172 -0.0122750001 0.0246977825 0.0248971172 -0.0122750001 0.0246977825 0.0187425707 -0.012511991 0.025252929 0.0219023172 0.0124289179 0.0236836001 0.0132183498 0.0117092803 0.0173468255 0.0219023172 0.0124289179 0.0236836001 0.0187425707 -0.012511991 0.025252929 0.0132183498 0.0117092803 0.0173468255 0.0187425707 -0.012511991 0.025252929 0.0142429732 -0.0124426316 0.0221363585 0.0538733229 -0.0117290979 0.0162235741 0.0413065813 0.0125149833 0.0278099347 0.0590638183 0.0123040164 0.00317553198 0.0420701727 -0.0118904505 0.0247086342 0.0413065813 0.0125149833 0.0278099347 0.0538733229 -0.0117290979 0.0162235741 0.03191071 0.00320555735 0.0262048542 0.0413065813 0.0125149833 0.0278099347 0.0420701727 -0.0118904505 0.0247086342 0.03191071 0.00320555735 0.0262048542 0.0219023172 0.0124289179 0.0236836001 0.0413065813 0.0125149833 0.0278099347 0.0132183498 0.0117092803 0.0173468255 0.0253986157 0.0118735516 0.0282870904 0.0219023172 0.0124289179 0.0236836001 0.0132183498 0.0117092803 0.0173468255 0.00769518875 0.00247920351 0.00699816784 0.0063414881 0.0104470029 -0.00508514326 0.0146188838 0.00175070856 -0.0187002383 0.0120062837 0.0121356817 -0.020444138 0.0102130603 0.0125033064 -0.0125779761 0.0146188838 0.00175070856 -0.0187002383 0.0241911244 0.0125042852 -0.0281015504 0.0120062837 0.0121356817 -0.020444138 0.0265279487 0.000989394612 -0.025819568 0.0241911244 0.0125042852 -0.0281015504 0.0146188838 0.00175070856 -0.0187002383 0.0520170517 -0.0106415702 -0.0179629754 0.0574543327 0.012293594 -0.00963768084 0.0447989926 0.012491839 -0.0233582575 0.0574543327 0.012293594 -0.00963768084 0.0590638183 0.0123040164 0.00317553198 0.0606466532 0.0125285694 -0.00921188388 0.0102130603 0.0125033064 -0.0125779761 0.00470330101 -0.00176540192 -0.00901862979 0.0063414881 0.0104470029 -0.00508514326 0.00622082734 -0.00277342461 0.0124407336 0.0253986157 0.0118735516 0.0282870904 0.0132183498 0.0117092803 0.0173468255 0.00622082734 -0.00277342461 0.0124407336 0.0142429732 -0.0124426316 0.0221363585 0.0253986157 0.0118735516 0.0282870904 0.0413065813 0.0125149833 0.0278099347 0.0536230542 0.00368064153 0.0214268528 0.060469795 0.0125152869 0.00949206203 0.0606466532 0.0125285694 -0.00921188388 0.060469795 0.0125152869 0.00949206203 0.0619656444 -1.63329732e-05 -0.00334764086 0.0102130603 0.0125033064 -0.0125779761 0.0120062837 0.0121356817 -0.020444138 0.00470330101 -0.00176540192 -0.00901862979 0.00622082734 -0.00277342461 0.0124407336 0.0132183498 0.0117092803 0.0173468255 0.0063414881 0.0104470029 -0.00508514326 0.000455597474 0.00926687103 0.00592831103 0.0063414881 0.0104470029 -0.00508514326 0.00470330101 -0.00176540192 -0.00901862979 0.00622082734 -0.00277342461 0.0124407336 0.000115003662 -0.00460045272 0.00469373632 0.00587369455 -0.00839592423 -0.000321683008 0.00622082734 -0.00277342461 0.0124407336 0.000455597474 0.00926687103 0.00592831103 0.000115003662 -0.00460045272 0.00469373632 0.0597811304 -0.00744826812 -0.00299357041 0.0384491682 -0.00714410422 0.0278917179 0.00821637362 -0.00641223276 0.00954881497 0.0260655694 -0.00657293433 -0.0300708171 0.0597811304 -0.00744826812 -0.00299357041 0.00821637362 -0.00641223276 0.00954881497 0.03498514 -0.00750000076 0.0001158878 0.0384491682 -0.00714410422 0.0278917179 0.0597811304 -0.00744826812 -0.00299357041 0.0492625348 -0.00392779801 0.0209083557 0.0560918525 0.00271646702 0.0124841854 0.0380112901 0.000445611076 0.0258641262 0.0337302573 0.0323999971 0.0224483162 0.0286968704 0.0323999971 0.0193690937 0.0280663576 0.0229999982 0.0227027312 0.0336061306 0.0229999982 0.0226471331 0.0337302573 0.0323999971 0.0224483162 0.0280663576 0.0229999982 0.0227027312 0.0305925366 0.0229999982 0.0129472548 0.0280663576 0.0229999982 0.0227027312 0.0286968704 0.0323999971 0.0193690937 0.0305925366 0.0229999982 0.0129472548 0.0337302573 0.0323999971 0.0224483162 0.0336061306 0.0229999982 0.0226471331 0.0305925366 0.0229999982 0.0129472548 0.0286968704 0.0323999971 0.0193690937 0.0337302573 0.0323999971 0.0224483162 0.0275134053 0.0323999971 0.0209282022 0.0224800166 0.0323999971 0.0178489778 0.0218495056 0.0229999982 0.0211826153 0.0273892786 0.0229999982 0.0211270191 0.0275134053 0.0323999971 0.0209282022 0.0218495056 0.0229999982 0.0211826153 0.0243756827 0.0229999982 0.0114271408 0.0218495056 0.0229999982 0.0211826153 0.0224800166 0.0323999971 0.0178489778 0.0243756827 0.0229999982 0.0114271408 0.0275134053 0.0323999971 0.0209282022 0.0273892786 0.0229999982 0.0211270191 0.0243756827 0.0229999982 0.0114271408 0.0224800166 0.0323999971 0.0178489778 0.0275134053 0.0323999971 0.0209282022 0.0304019284 -0.0259998236 -0.00657482259 0.0266462434 -0.0259949677 -0.00322913844 0.0283963345 0.0305653308 -0.00533632608 0.0374353901 -0.0260000005 -0.00562126935 0.033289142 -0.0259886179 -0.00705883279 0.0357873961 0.030498676 -0.00647114636 0.0389551595 0.0304121934 -0.0039725625 0.0374353901 -0.0260000005 -0.00562126935 0.0357873961 0.030498676 -0.00647114636 0.0399578437 -0.0259850528 -0.00158000353 0.0374353901 -0.0260000005 -0.00562126935 0.0389551595 0.0304121934 -0.0039725625 0.027823817 -0.0260000005 0.00478639966 0.0299903639 -0.0259944033 0.00638259389 0.0278272722 0.0305128805 0.00478747534 0.0259254202 -0.0259943884 0.00121653534 0.027823817 -0.0260000005 0.00478639966 0.0278272722 0.0305128805 0.00478747534 0.0397850014 -0.0259997621 0.0022828253 0.0399578437 -0.0259850528 -0.00158000353 0.0359886512 -0.0259959176 0.00643747859 0.033289142 -0.0259886179 -0.00705883279 0.0304019284 -0.0259998236 -0.00657482259 0.0283963345 0.0305653308 -0.00533632608 0.0299903639 -0.0259944033 0.00638259389 0.0325960703 -0.0259997156 0.00704153301 0.0362434722 0.031752795 0.00518785417 0.0359886512 -0.0259959176 0.00643747859 0.0362434722 0.031752795 0.00518785417 0.0325960703 -0.0259997156 0.00704153301 0.0357873961 0.030498676 -0.00647114636 0.033289142 -0.0259886179 -0.00705883279 0.0283963345 0.0305653308 -0.00533632608 0.0399578437 -0.0259850528 -0.00158000353 0.0389551595 0.0304121934 -0.0039725625 0.0362434722 0.031752795 0.00518785417 0.0359886512 -0.0259959176 0.00643747859 0.0399578437 -0.0259850528 -0.00158000353 0.0362434722 0.031752795 0.00518785417 0.0278272722 0.0305128805 0.00478747534 0.0299903639 -0.0259944033 0.00638259389 0.0362434722 0.031752795 0.00518785417 0.0259254202 -0.0259943884 0.00121653534 0.0278272722 0.0305128805 0.00478747534 0.0283963345 0.0305653308 -0.00533632608 0.0259254202 -0.0259943884 0.00121653534 0.0283963345 0.0305653308 -0.00533632608 0.0266462434 -0.0259949677 -0.00322913844 0.0389551595 0.0304121934 -0.0039725625 0.0366298854 -0.0279009622 0.00522575248 0.0362434722 0.031752795 0.00518785417 0.0389551595 0.0304121934 -0.0039725625 0.0392951779 -0.0275044944 -0.00101224252 0.0366298854 -0.0279009622 0.00522575248 0.0389551595 0.0304121934 -0.0039725625 0.0355027094 -0.016795285 -0.00552675268 0.0392951779 -0.0275044944 -0.00101224252 0.0389551595 0.0304121934 -0.0039725625 0.0357873961 0.030498676 -0.00647114636 0.0355027094 -0.016795285 -0.00552675268 0.0357873961 0.030498676 -0.00647114636 0.0313302316 -0.0275634304 -0.00598208699 0.0355027094 -0.016795285 -0.00552675268 0.0357873961 0.030498676 -0.00647114636 0.0283963345 0.0305653308 -0.00533632608 0.0313302316 -0.0275634304 -0.00598208699 0.0283963345 0.0305653308 -0.00533632608 0.0274552964 -0.0282980017 -0.00260443054 0.0313302316 -0.0275634304 -0.00598208699 0.0283963345 0.0305653308 -0.00533632608 0.0270605888 -0.0263085626 0.00155682582 0.0274552964 -0.0282980017 -0.00260443054 0.0278272722 0.0305128805 0.00478747534 0.0270605888 -0.0263085626 0.00155682582 0.0283963345 0.0305653308 -0.00533632608 0.0278272722 0.0305128805 0.00478747534 0.0298739001 -0.0158328302 0.00525520742 0.0270605888 -0.0263085626 0.00155682582 0.032926552 0.0013500005 0.0059936624 0.0362434722 0.031752795 0.00518785417 0.0366298854 -0.0279009622 0.00522575248 0.0278272722 0.0305128805 0.00478747534 0.0362434722 0.031752795 0.00518785417 0.032926552 0.0013500005 0.0059936624 0.0278272722 0.0305128805 0.00478747534 0.032926552 0.0013500005 0.0059936624 0.0298739001 -0.0158328302 0.00525520742 0.0274552964 -0.0282980017 -0.00260443054 0.0366298854 -0.0279009622 0.00522575248 0.0392951779 -0.0275044944 -0.00101224252 0.0274552964 -0.0282980017 -0.00260443054 0.0392951779 -0.0275044944 -0.00101224252 0.0313302316 -0.0275634304 -0.00598208699 0.0313302316 -0.0275634304 -0.00598208699 0.0392951779 -0.0275044944 -0.00101224252 0.0355027094 -0.016795285 -0.00552675268 0.0270605888 -0.0263085626 0.00155682582 0.0366298854 -0.0279009622 0.00522575248 0.0274552964 -0.0282980017 -0.00260443054 0.032926552 0.0013500005 0.0059936624 0.0366298854 -0.0279009622 0.00522575248 0.0270605888 -0.0263085626 0.00155682582 0.032926552 0.0013500005 0.0059936624 0.0270605888 -0.0263085626 0.00155682582 0.0298739001 -0.0158328302 0.00525520742 0.0298646353 -0.0277482383 -0.0200763065 0.0274552964 -0.0282980017 -0.00260443054 0.012897362 -0.0283902604 0.00321679167 0.0535421334 -0.0283744484 -0.00309091504 0.0274552964 -0.0282980017 -0.00260443054 0.0298646353 -0.0277482383 -0.0200763065 0.0449979343 -0.0283195209 0.0164910257 0.0274552964 -0.0282980017 -0.00260443054 0.0535421334 -0.0283744484 -0.00309091504 0.0157000497 -0.0277599227 0.0155729363 0.0274552964 -0.0282980017 -0.00260443054 0.0449979343 -0.0283195209 0.0164910257 0.0157000497 -0.0277599227 0.0155729363 0.012897362 -0.0283902604 0.00321679167 0.0274552964 -0.0282980017 -0.00260443054 0.0182520002 -0.0242495574 -0.0141010517 0.0298646353 -0.0277482383 -0.0200763065 0.012897362 -0.0283902604 0.00321679167 0.0454507135 -0.0245059598 -0.0177517496 0.0535421334 -0.0283744484 -0.00309091504 0.0298646353 -0.0277482383 -0.0200763065 0.0495070629 -0.0244740508 0.0118297404 0.0449979343 -0.0283195209 0.0164910257 0.0535421334 -0.0283744484 -0.00309091504 0.0198947228 -0.0201015659 0.0164660588 0.0391497537 -0.0236616228 0.0196711887 0.0157000497 -0.0277599227 0.0155729363 0.0498201363 -0.0208545346 -0.0199186597 0.0469688997 -0.00800176617 -0.01980922 0.0557821319 -0.0211140197 -0.0129987393 0.018177418 -0.0208764076 -0.0215380974 0.0145193553 -0.0195225254 -0.013047765 0.0114539322 -0.0206403341 -0.0153387589 0.0497590899 -0.0194987524 -0.0142393447 0.0498201363 -0.0208545346 -0.0199186597 0.0557821319 -0.0211140197 -0.0129987393 0.0543158352 -0.0203709826 0.0156795867 0.0508105643 -0.0201455783 0.0127713261 0.0592994988 -0.0212432649 0.000471340143 0.034597218 -0.0211526603 -0.0274063367 0.0323642381 -0.019497497 -0.0221672487 0.018177418 -0.0208764076 -0.0215380974 0.0323642381 -0.019497497 -0.0221672487 0.0498201363 -0.0208545346 -0.0199186597 0.0497590899 -0.0194987524 -0.0142393447 0.034597218 -0.0211526603 -0.0274063367 0.0498201363 -0.0208545346 -0.0199186597 0.0323642381 -0.019497497 -0.0221672487 0.027958544 -0.0194967706 0.0208360013 0.0243570972 -0.021032298 0.0246513784 0.0133396219 -0.0195641648 0.0109884245 0.0389373228 -0.0196559243 0.0211102534 0.0243570972 -0.021032298 0.0246513784 0.027958544 -0.0194967706 0.0208360013 0.0366055295 -0.00907732826 0.0259667449 0.0243570972 -0.021032298 0.0246513784 0.0389373228 -0.0196559243 0.0211102534 0.00838227198 -0.0209504552 0.00931345671 0.00904552732 -0.00297153788 0.00377149321 0.0133396219 -0.0195641648 0.0109884245 0.0458617844 -0.0210257508 0.0225998498 0.0366055295 -0.00907732826 0.0259667449 0.0389373228 -0.0196559243 0.0211102534 0.00707702059 -0.0207545739 -0.00321596116 0.0133396219 -0.0195641648 0.0109884245 0.00838227198 -0.0209504552 0.00931345671 0.0154695492 -0.0212583169 0.0193650313 0.00838227198 -0.0209504552 0.00931345671 0.0133396219 -0.0195641648 0.0109884245 0.0154695492 -0.0212583169 0.0193650313 0.0133396219 -0.0195641648 0.0109884245 0.0243570972 -0.021032298 0.0246513784 0.054834798 -0.0195027962 -0.00333956233 0.0508105643 -0.0201455783 0.0127713261 0.0389373228 -0.0196559243 0.0211102534 0.0323642381 -0.019497497 -0.0221672487 0.0497590899 -0.0194987524 -0.0142393447 0.0145193553 -0.0195225254 -0.013047765 0.054834798 -0.0195027962 -0.00333956233 0.0389373228 -0.0196559243 0.0211102534 0.027958544 -0.0194967706 0.0208360013 0.0414261296 0.0294804871 0.025401732 0.059091989 0.029495731 0.00284616416 0.0453848876 0.0295657311 0.000143994024 0.0565605834 0.0294646956 -0.0120083615 0.0453848876 0.0295657311 0.000143994024 0.059091989 0.029495731 0.00284616416 0.0490061529 0.0294983387 -0.0206308588 0.0453848876 0.0295657311 0.000143994024 0.0565605834 0.0294646956 -0.0120083615 0.0291368868 0.0300035216 -0.0112235053 0.0453848876 0.0295657311 0.000143994024 0.0490061529 0.0294983387 -0.0206308588 0.0236430634 0.0309932623 0.00944928359 0.0414261296 0.0294804871 0.025401732 0.0453848876 0.0295657311 0.000143994024 0.0204673409 0.0284424964 0.0227702837 0.0236430634 0.0309932623 0.00944928359 0.0101095419 0.0281427875 0.0131752463 0.0100280149 0.0146582266 0.0107902866 0.0101095419 0.0281427875 0.0131752463 0.0236430634 0.0309932623 0.00944928359 0.0216203593 0.0290312506 -0.0133376643 0.0490061529 0.0294983387 -0.0206308588 0.0148183238 0.0291859135 -0.018755693 0.0273063108 0.0294719003 -0.0254374556 0.0148183238 0.0291859135 -0.018755693 0.0490061529 0.0294983387 -0.0206308588 0.0383940861 0.0294283498 -0.0257258825 0.0273063108 0.0294719003 -0.0254374556 0.0490061529 0.0294983387 -0.0206308588 0.00852628238 0.0294977669 -0.00917277113 0.0236430634 0.0309932623 0.00944928359 0.0291368868 0.0300035216 -0.0112235053 0.00852628238 0.0294977669 -0.00917277113 0.0291368868 0.0300035216 -0.0112235053 0.0490061529 0.0294983387 -0.0206308588 0.00852628238 0.0294977669 -0.00917277113 0.0490061529 0.0294983387 -0.0206308588 0.0148183238 0.0291859135 -0.018755693 0.0214712173 0.0208736937 -0.0233776309 0.0148183238 0.0291859135 -0.018755693 0.0273063108 0.0294719003 -0.0254374556 0.00687954528 0.0180293899 0.00107106287 0.0101095419 0.0281427875 0.0131752463 0.00852628238 0.0294977669 -0.00917277113 0.00905999355 0.0146727106 -0.0112916008 0.00687954528 0.0180293899 0.00107106287 0.00852628238 0.0294977669 -0.00917277113 0.0534847677 0.0163780823 0.0164606646 0.059091989 0.029495731 0.00284616416 0.0414261296 0.0294804871 0.025401732 0.00905999355 0.0146727106 -0.0112916008 0.00852628238 0.0294977669 -0.00917277113 0.0148183238 0.0291859135 -0.018755693 0.0582987964 0.0139765553 0.0064041852 0.059091989 0.029495731 0.00284616416 0.0534847677 0.0163780823 0.0164606646 0.0121355886 0.0143016418 -0.0141270459 0.0169195253 0.0267990306 -0.0193047058 0.0078974152 0.0144358557 -0.00360667682 0.0344692841 0.0279917531 -0.0262514371 0.0169195253 0.0267990306 -0.0193047058 0.0233417731 0.0143004134 -0.0236058775 0.0433232933 0.0144964661 -0.0238604862 0.0344692841 0.0279917531 -0.0262514371 0.0233417731 0.0143004134 -0.0236058775 0.0210697688 0.0143009406 0.0227547027 0.0100280149 0.0146582266 0.0107902866 0.0204673409 0.0284424964 0.0227702837 0.0296568628 0.0286881942 0.0256486386 0.0210697688 0.0143009406 0.0227547027 0.0204673409 0.0284424964 0.0227702837 0.0587288551 0.0278408732 0.00699676201 0.0541762002 0.0143024204 0.0143923303 0.0397180021 0.0146953454 0.0246661957 0.0582754798 0.0146762626 -0.00583007839 0.0541762002 0.0143024204 0.0143923303 0.0587288551 0.0278408732 0.00699676201 0.0078974152 0.0144358557 -0.00360667682 0.0101095419 0.0281427875 0.0131752463 0.0100280149 0.0146582266 0.0107902866 0.0233417731 0.0143004134 -0.0236058775 0.0169195253 0.0267990306 -0.0193047058 0.0121355886 0.0143016418 -0.0141270459 0.0397180021 0.0146953454 0.0246661957 0.0210697688 0.0143009406 0.0227547027 0.0296568628 0.0286881942 0.0256486386 </float_array>
          <technique_common>
            <accessor count="582" offset="0" source="#mesh_0-positions-array" stride="3">
              <param name="X" type="float" />
              <param name="Y" type="float" />
              <param name="Z" type="float" />
            </accessor>
          </technique_common>
        </source>
        <vertices id="mesh_0-vertices">
          <input semantic="POSITION" source="#mesh_0-positions" />
        </vertices>
        <polylist count="194" material="defaultMaterial">
          <input offset="0" semantic="VERTEX" source="#mesh_0-vertices" />
          <vcount>3 3 3 3 3 3 3 3 3 3 3 3 3 3 3 3 3 3 3 3 3 3 3 3 3 3 3 3 3 3 3 3 3 3 3 3 3 3 3 3 3 3 3 3 3 3 3 3 3 3 3 3 3 3 3 3 3 3 3 3 3 3 3 3 3 3 3 3 3 3 3 3 3 3 3 3 3 3 3 3 3 3 3 3 3 3 3 3 3 3 3 3 3 3 3 3 3 3 3 3 3 3 3 3 3 3 3 3 3 3 3 3 3 3 3 3 3 3 3 3 3 3 3 3 3 3 3 3 3 3 3 3 3 3 3 3 3 3 3 3 3 3 3 3 3 3 3 3 3 3 3 3 3 3 3 3 3 3 3 3 3 3 3 3 3 3 3 3 3 3 3 3 3 3 3 3 3 3 3 3 3 3 3 3 3 3 3 3 3 3 3 3 3 3 </vcount>
          <p>0 1 2 3 4 5 6 7 8 9 10 11 12 13 14 15 16 17 18 19 20 21 22 23 24 25 26 27 28 29 30 31 32 33 34 35 36 37 38 39 40 41 42 43 44 45 46 47 48 49 50 51 52 53 54 55 56 57 58 59 60 61 62 63 64 65 66 67 68 69 70 71 72 73 74 75 76 77 78 79 80 81 82 83 84 85 86 87 88 89 90 91 92 93 94 95 96 97 98 99 100 101 102 103 104 105 106 107 108 109 110 111 112 113 114 115 116 117 118 119 120 121 122 123 124 125 126 127 128 129 130 131 132 133 134 135 136 137 138 139 140 141 142 143 144 145 146 147 148 149 150 151 152 153 154 155 156 157 158 159 160 161 162 163 164 165 166 167 168 169 170 171 172 173 174 175 176 177 178 179 180 181 182 183 184 185 186 187 188 189 190 191 192 193 194 195 196 197 198 199 200 201 202 203 204 205 206 207 208 209 210 211 212 213 214 215 216 217 218 219 220 221 222 223 224 225 226 227 228 229 230 231 232 233 234 235 236 237 238 239 240 241 242 243 244 245 246 247 248 249 250 251 252 253 254 255 256 257 258 259 260 261 262 263 264 265 266 267 268 269 270 271 272 273 274 275 276 277 278 279 280 281 282 283 284 285 286 287 288 289 290 291 292 293 294 295 296 297 298 299 300 301 302 303 304 305 306 307 308 309 310 311 312 313 314 315 316 317 318 319 320 321 322 323 324 325 326 327 328 329 330 331 332 333 334 335 336 337 338 339 340 341 342 343 344 345 346 347 348 349 350 351 352 353 354 355 356 357 358 359 360 361 362 363 364 365 366 367 368 369 370 371 372 373 374 375 376 377 378 379 380 381 382 383 384 385 386 387 388 389 390 391 392 393 394 395 396 397 398 399 400 401 402 403 404 405 406 407 408 409 410 411 412 413 414 415 416 417 418 419 420 421 422 423 424 425 426 427 428 429 430 431 432 433 434 435 436 437 438 439 440 441 442 443 444 445 446 447 448 449 450 451 452 453 454 455 456 457 458 459 460 461 462 463 464 465 466 467 468 469 470 471 472 473 474 475 476 477 478 479 480 481 482 483 484 485 486 487 488 489 490 491 492 493 494 495 496 497 498 499 500 501 502 503 504 505 506 507 508 509 510 511 512 513 514 515 516 517 518 519 520 521 522 523 524 525 526 527 528 529 530 531 532 533 534 535 536 537 538 539 540 541 542 543 544 545 546 547 548 549 550 551 552 553 554 555 556 557 558 559 560 561 562 563 564 565 566 567 568 569 570 571 572 573 574 575 576 577 578 579 580 581 </p>
        </polylist>
      </mesh>
    </geometry>
  </library_geometries>
  <library_controllers>
  </library_controllers>
  <library_visual_scenes>
    <visual_scene id="Scene" name="Scene">
      <node id="node" name="" type="NODE">
        <matrix sid="matrix">1 0 0 0 0 1 0 0 0 0 1 0 0 0 0 1</matrix>
        <instance_geometry url="#mesh_0">
          <bind_material>
            <technique_common>
              <instance_material symbol="defaultMaterial" target="#material_0">
              </instance_material>
            </technique_common>
          </bind_material>
        </instance_geometry>
      </node>
    </visual_scene>
  </library_visual_scenes>
  <scene>
    <instance_visual_scene url="#Scene" />
  </scene>
</COLLADA>
