<?xml version="1.0" encoding="UTF-8" standalone="no" ?>
<COLLADA xmlns="http://www.collada.org/2005/11/COLLADASchema" version="1.4.1">
  <asset>
    <contributor>
      <author>Assimp</author>
      <authoring_tool>Assimp Exporter</authoring_tool>
    </contributor>
    <created>2025-12-08T10:04:59</created>
    <modified>2025-12-08T10:04:59</modified>
    <unit name="meter" meter="1" />
    <up_axis>Y_UP</up_axis>
  </asset>
  <library_images>
  </library_images>
  <library_effects>
    <effect id="material_0-fx" name="">
      <profile_COMMON>
        <technique sid="standard">
          <phong>
            <emission>
              <color sid="emission">0   0   0   4.53488209e-41</color>
            </emission>
            <ambient>
              <color sid="ambient">0.498039246   0.498039246   0.498039246   0.0236816406</color>
            </ambient>
            <diffuse>
              <color sid="diffuse">0.498039246   0.498039246   0.498039246   0.0236816406</color>
            </diffuse>
            <specular>
              <color sid="specular">0.498039246   0.498039246   0.498039246   2.55843558e-11</color>
            </specular>
          </phong>
        </technique>
      </profile_COMMON>
    </effect>
  </library_effects>
  <library_materials>
    <material id="material_0" name="">
      <instance_effect url="#material_0-fx"/>
    </material>
  </library_materials>
  <library_geometries>
    <geometry id="mesh_0" name="" >
      <mesh>
        <source id="mesh_0-positions" name="mesh_0-positions">
          <float_array id="mesh_0-positions-array" count="1674"> -0.00313730631 0.0204120297 0.0254845768 -0.00321198464 0.0179745071 0.00455768313 -0.00250941725 -0.00877408031 0.0295473151 -0.00322887977 -0.00919630751 -0.0151686808 -0.000875005906 -0.0261901952 0.0154707804 -0.00321198464 0.0179745071 0.00455768313 -0.000875005906 -0.0261901952 0.0154707804 -0.00250941725 -0.00877408031 0.0295473151 -0.00321198464 0.0179745071 0.00455768313 0.00807789713 -0.0300202034 -0.00103703002 -0.000875005906 -0.0261901952 0.0154707804 -0.00322887977 -0.00919630751 -0.0151686808 0.0597757362 -0.016477121 -0.0828239992 0.0490605757 -0.02846523 -0.0572503135 0.0502287857 -0.0254924465 -0.0830445066 0.0636276901 -0.00584734231 -0.0563613512 0.0597757362 -0.016477121 -0.0828239992 0.06439735 0.00124011829 -0.082886003 0.062949203 0.00833366346 -0.0562930927 0.0636276901 -0.00584734231 -0.0563613512 0.06439735 0.00124011829 -0.082886003 0.0600629225 0.0171699263 -0.0827157348 0.062949203 0.00833366346 -0.0562930927 0.06439735 0.00124011829 -0.082886003 0.0540253781 0.0238154214 -0.0563388765 0.062949203 0.00833366346 -0.0562930927 0.0600629225 0.0171699263 -0.0827157348 0.0453309491 0.0305296388 -0.0828741118 0.0540253781 0.0238154214 -0.0563388765 0.0600629225 0.0171699263 -0.0827157348 0.0414054692 0.0314123854 -0.0563297085 0.0540253781 0.0238154214 -0.0563388765 0.0453309491 0.0305296388 -0.0828741118 0.0262146499 0.0328556113 -0.0828710645 0.0414054692 0.0314123854 -0.0563297085 0.0453309491 0.0305296388 -0.0828741118 0.0201709997 0.0314804986 -0.0589952841 0.00695406599 0.0226093233 -0.083019942 0.011019432 0.02621115 -0.0404730886 0.00662531797 0.0224911049 -0.0377194919 0.011019432 0.02621115 -0.0404730886 0.00695406599 0.0226093233 -0.083019942 -0.00182285253 0.00602902099 -0.035168618 0.00662531797 0.0224911049 -0.0377194919 -0.000583345012 0.00962504279 -0.0828301013 0.00039821025 -0.0150881857 -0.0550518483 0.00950706843 -0.025040416 -0.0829878151 0.0169711933 -0.0303907152 -0.0667689517 0.000846167561 -0.015016295 -0.0826123953 0.00950706843 -0.025040416 -0.0829878151 0.00039821025 -0.0150881857 -0.0550518483 0.0110289501 -0.0227869637 -0.0424342044 0.0265940949 -0.0300567057 -0.0573134199 0.0187853798 -0.0280186292 -0.0830035582 0.00880464073 -0.0202868003 -0.0829882398 0.0110289501 -0.0227869637 -0.0424342044 0.0187853798 -0.0280186292 -0.0830035582 0.0140176285 0.024846049 -0.0776030198 0.0234376732 0.0291369334 -0.0829585344 0.0233332701 0.0291500445 -0.0560430996 0.0384609364 0.0293678623 -0.0584828928 0.0233332701 0.0291500445 -0.0560430996 0.0234376732 0.0291369334 -0.0829585344 0.0464140773 0.0263985693 -0.0739852265 0.05321813 0.0203425828 -0.0829819813 0.0588819273 0.0118171955 -0.0575531423 0.0613723136 -0.0039692875 -0.059679769 0.0588819273 0.0118171955 -0.0575531423 0.0597757362 -0.016477121 -0.0828239992 0.0532920063 -0.0202866886 -0.0621044263 0.0613723136 -0.0039692875 -0.059679769 0.0502287857 -0.0254924465 -0.0830445066 0.0407170281 -0.0286268238 -0.068158403 0.0532920063 -0.0202866886 -0.0621044263 0.0502287857 -0.0254924465 -0.0830445066 0.0060320138 -0.0172168203 -0.041816365 0.0110289501 -0.0227869637 -0.0424342044 0.00880464073 -0.0202868003 -0.0829882398 0.00464560604 -0.0145749385 -0.0696680024 0.0060320138 -0.0172168203 -0.041816365 0.00880464073 -0.0202868003 -0.0829882398 0.00177199719 -0.00706310617 -0.038759049 0.0060320138 -0.0172168203 -0.041816365 0.00464560604 -0.0145749385 -0.0696680024 0.00202582497 -0.00780398445 -0.0829749554 0.00177199719 -0.00706310617 -0.038759049 0.00464560604 -0.0145749385 -0.0696680024 0.00232074596 0.0117594711 -0.0432616733 0.00177199719 -0.00706310617 -0.038759049 0.00202582497 -0.00780398445 -0.0829749554 0.00173389935 0.00757080643 -0.0828210637 0.00232074596 0.0117594711 -0.0432616733 0.00202582497 -0.00780398445 -0.0829749554 0.0109906811 0.0287716556 -0.00592033006 0.00662531797 0.0224911049 -0.0377194919 -0.00307066413 0.0306305811 0.00151099893 0.0109298313 -0.0160028767 0.0268196613 0.00996098481 0.00874768104 0.0293055288 -0.00250941725 -0.00877408031 0.0295473151 0.00996098481 0.00874768104 0.0293055288 -0.00313730631 0.0204120297 0.0254845768 -0.00250941725 -0.00877408031 0.0295473151 0.0110442508 0.027259497 0.0146782659 -0.00313730631 0.0204120297 0.0254845768 0.00996098481 0.00874768104 0.0293055288 0.0110442508 0.027259497 0.0146782659 -0.00307066413 0.0306305811 0.00151099893 -0.00313730631 0.0204120297 0.0254845768 -0.00349765597 -0.0241956785 -0.0150748277 -0.00322887977 -0.00919630751 -0.0151686808 -0.00182285253 0.00602902099 -0.035168618 -0.00337312324 0.0122892875 -0.0132188257 -0.00182285253 0.00602902099 -0.035168618 -0.00322887977 -0.00919630751 -0.0151686808 0.0110431099 0.00965991989 -0.0282025374 0.0109840166 -0.0179650318 -0.023060523 0.0110289501 -0.0227869637 -0.0424342044 0.0110431099 0.00965991989 -0.0282025374 0.011019432 0.02621115 -0.0404730886 0.0109906811 0.0287716556 -0.00592033006 0.0109840166 -0.0179650318 -0.023060523 0.00807789713 -0.0300202034 -0.00103703002 0.0110289501 -0.0227869637 -0.0424342044 0.0464140773 0.0263985693 -0.0739852265 0.0588819273 0.0118171955 -0.0575531423 0.0540253781 0.0238154214 -0.0563388765 0.0588819273 0.0118171955 -0.0575531423 0.062949203 0.00833366346 -0.0562930927 0.0540253781 0.0238154214 -0.0563388765 0.0330097079 -0.0333854705 -0.0812047794 0.0407170281 -0.0286268238 -0.068158403 0.0265940949 -0.0300567057 -0.0573134199 0.0330097079 -0.0333854705 -0.0812047794 0.0490605757 -0.02846523 -0.0572503135 0.0407170281 -0.0286268238 -0.068158403 2.37139539e-05 0.0239423104 0.0167806651 -0.00321198464 0.0179745071 0.00455768313 2.32359398e-05 0.0289261956 0.00167592242 0.000145264916 -0.0146256685 0.0252769999 -4.97951032e-06 -0.0218613073 -0.0203548316 0.00996098481 0.00874768104 0.0293055288 0.00807789713 -0.0300202034 -0.00103703002 -4.97951032e-06 -0.0218613073 -0.0203548316 -0.000875005906 -0.0261901952 0.0154707804 0.000145264916 -0.0146256685 0.0252769999 -0.000875005906 -0.0261901952 0.0154707804 -4.97951032e-06 -0.0218613073 -0.0203548316 2.37139539e-05 0.0239423104 0.0167806651 0.00996098481 0.00874768104 0.0293055288 -4.97951032e-06 -0.0218613073 -0.0203548316 -0.00337312324 0.0122892875 -0.0132188257 0.000221362032 0.0222118013 -0.0188184548 1.13532296e-05 0.00357122975 -0.0298484042 2.32359398e-05 0.0289261956 0.00167592242 -0.00321198464 0.0179745071 0.00455768313 1.13532296e-05 0.00357122975 -0.0298484042 -0.00322887977 -0.00919630751 -0.0151686808 -4.97951032e-06 -0.0218613073 -0.0203548316 1.13532296e-05 0.00357122975 -0.0298484042 -0.00322887977 -0.00919630751 -0.0151686808 1.13532296e-05 0.00357122975 -0.0298484042 -0.00321198464 0.0179745071 0.00455768313 2.32359398e-05 0.0289261956 0.00167592242 1.13532296e-05 0.00357122975 -0.0298484042 0.000221362032 0.0222118013 -0.0188184548 0.0109906811 0.0287716556 -0.00592033006 0.011019432 0.02621115 -0.0404730886 0.00662531797 0.0224911049 -0.0377194919 0.0110289501 -0.0227869637 -0.0424342044 0.00039821025 -0.0150881857 -0.0550518483 0.0169711933 -0.0303907152 -0.0667689517 -0.00349765597 -0.0241956785 -0.0150748277 0.00039821025 -0.0150881857 -0.0550518483 0.0110289501 -0.0227869637 -0.0424342044 -0.00349765597 -0.0241956785 -0.0150748277 -0.00182285253 0.00602902099 -0.035168618 0.00039821025 -0.0150881857 -0.0550518483 -0.00349765597 -0.0241956785 -0.0150748277 0.0110289501 -0.0227869637 -0.0424342044 0.00807789713 -0.0300202034 -0.00103703002 -0.00307066413 0.0306305811 0.00151099893 0.00662531797 0.0224911049 -0.0377194919 -0.00321198464 0.0179745071 0.00455768313 -0.00337312324 0.0122892875 -0.0132188257 -0.00321198464 0.0179745071 0.00455768313 0.00662531797 0.0224911049 -0.0377194919 -0.00337312324 0.0122892875 -0.0132188257 0.00662531797 0.0224911049 -0.0377194919 -0.00182285253 0.00602902099 -0.035168618 -0.00307066413 0.0306305811 0.00151099893 -0.00321198464 0.0179745071 0.00455768313 -0.00313730631 0.0204120297 0.0254845768 0.0109298313 -0.0160028767 0.0268196613 -0.00250941725 -0.00877408031 0.0295473151 -0.000875005906 -0.0261901952 0.0154707804 -0.00322887977 -0.00919630751 -0.0151686808 -0.00348601094 -0.00675668381 0.01627055 -4.97951032e-06 -0.0218613073 -0.0203548316 -0.00337312324 0.0122892875 -0.0132188257 -0.00321198464 0.0179745071 0.00455768313 0.000221362032 0.0222118013 -0.0188184548 2.32359398e-05 0.0289261956 0.00167592242 0.000221362032 0.0222118013 -0.0188184548 -0.00337312324 0.0122892875 -0.0132188257 2.32359398e-05 0.0289261956 0.00167592242 -0.00321198464 0.0179745071 0.00455768313 -0.00337312324 0.0122892875 -0.0132188257 0.05321813 0.0203425828 -0.0829819813 0.0600629225 0.0171699263 -0.0827157348 0.06439735 0.00124011829 -0.082886003 0.0464140773 0.0263985693 -0.0739852265 0.0600629225 0.0171699263 -0.0827157348 0.05321813 0.0203425828 -0.0829819813 0.0464140773 0.0263985693 -0.0739852265 0.0453309491 0.0305296388 -0.0828741118 0.0600629225 0.0171699263 -0.0827157348 0.00173389935 0.00757080643 -0.0828210637 0.00202582497 -0.00780398445 -0.0829749554 -0.000583345012 0.00962504279 -0.0828301013 0.00202582497 -0.00780398445 -0.0829749554 0.000846167561 -0.015016295 -0.0826123953 -0.000583345012 0.00962504279 -0.0828301013 0.0140176285 0.024846049 -0.0776030198 -0.000583345012 0.00962504279 -0.0828301013 0.00695406599 0.0226093233 -0.083019942 0.00173389935 0.00757080643 -0.0828210637 -0.000583345012 0.00962504279 -0.0828301013 0.0140176285 0.024846049 -0.0776030198 0.0330097079 -0.0333854705 -0.0812047794 0.0169711933 -0.0303907152 -0.0667689517 0.0187853798 -0.0280186292 -0.0830035582 0.0330097079 -0.0333854705 -0.0812047794 0.0187853798 -0.0280186292 -0.0830035582 0.0407170281 -0.0286268238 -0.068158403 0.0330097079 -0.0333854705 -0.0812047794 0.0407170281 -0.0286268238 -0.068158403 0.0502287857 -0.0254924465 -0.0830445066 0.0234376732 0.0291369334 -0.0829585344 0.00695406599 0.0226093233 -0.083019942 0.0262146499 0.0328556113 -0.0828710645 0.0140176285 0.024846049 -0.0776030198 0.00695406599 0.0226093233 -0.083019942 0.0234376732 0.0291369334 -0.0829585344 0.00202582497 -0.00780398445 -0.0829749554 0.00880464073 -0.0202868003 -0.0829882398 0.000846167561 -0.015016295 -0.0826123953 0.00880464073 -0.0202868003 -0.0829882398 0.00950706843 -0.025040416 -0.0829878151 0.000846167561 -0.015016295 -0.0826123953 0.00880464073 -0.0202868003 -0.0829882398 0.0187853798 -0.0280186292 -0.0830035582 0.00950706843 -0.025040416 -0.0829878151 0.00232074596 0.0117594711 -0.0432616733 0.0140176285 0.024846049 -0.0776030198 0.011019432 0.02621115 -0.0404730886 0.0110431099 0.00965991989 -0.0282025374 0.00177199719 -0.00706310617 -0.038759049 0.00232074596 0.0117594711 -0.0432616733 0.0110431099 0.00965991989 -0.0282025374 0.0110289501 -0.0227869637 -0.0424342044 0.00177199719 -0.00706310617 -0.038759049 0.00177199719 -0.00706310617 -0.038759049 0.0110289501 -0.0227869637 -0.0424342044 0.0060320138 -0.0172168203 -0.041816365 0.0110431099 0.00965991989 -0.0282025374 0.00232074596 0.0117594711 -0.0432616733 0.011019432 0.02621115 -0.0404730886 -0.00349765597 -0.0241956785 -0.0150748277 0.00807789713 -0.0300202034 -0.00103703002 -0.00322887977 -0.00919630751 -0.0151686808 -0.00337312324 0.0122892875 -0.0132188257 -0.00322887977 -0.00919630751 -0.0151686808 -0.00321198464 0.0179745071 0.00455768313 2.37139539e-05 0.0239423104 0.0167806651 -0.00348601094 -0.00675668381 0.01627055 -0.00321198464 0.0179745071 0.00455768313 2.37139539e-05 0.0239423104 0.0167806651 -4.97951032e-06 -0.0218613073 -0.0203548316 -0.00348601094 -0.00675668381 0.01627055 0.0330097079 -0.0333854705 -0.0812047794 0.0187853798 -0.0280186292 -0.0830035582 0.0265940949 -0.0300567057 -0.0573134199 0.0140176285 0.024846049 -0.0776030198 0.0233332701 0.0291500445 -0.0560430996 0.0201709997 0.0314804986 -0.0589952841 0.00173389935 0.00757080643 -0.0828210637 0.00039821025 -0.0150881857 -0.0550518483 0.00202582497 -0.00780398445 -0.0829749554 0.00202582497 -0.00780398445 -0.0829749554 0.00464560604 -0.0145749385 -0.0696680024 0.00880464073 -0.0202868003 -0.0829882398 0.00173389935 0.00757080643 -0.0828210637 0.0140176285 0.024846049 -0.0776030198 0.00232074596 0.0117594711 -0.0432616733 0.0234376732 0.0291369334 -0.0829585344 0.0262146499 0.0328556113 -0.0828710645 0.0453309491 0.0305296388 -0.0828741118 0.0384609364 0.0293678623 -0.0584828928 0.0234376732 0.0291369334 -0.0829585344 0.0453309491 0.0305296388 -0.0828741118 0.0464140773 0.0263985693 -0.0739852265 0.0384609364 0.0293678623 -0.0584828928 0.0453309491 0.0305296388 -0.0828741118 0.0588819273 0.0118171955 -0.0575531423 0.05321813 0.0203425828 -0.0829819813 0.06439735 0.00124011829 -0.082886003 0.0588819273 0.0118171955 -0.0575531423 0.06439735 0.00124011829 -0.082886003 0.0597757362 -0.016477121 -0.0828239992 0.0613723136 -0.0039692875 -0.059679769 0.0597757362 -0.016477121 -0.0828239992 0.0502287857 -0.0254924465 -0.0830445066 0.0330097079 -0.0333854705 -0.0812047794 0.0502287857 -0.0254924465 -0.0830445066 0.0490605757 -0.02846523 -0.0572503135 0.0201709997 0.0314804986 -0.0589952841 0.0262146499 0.0328556113 -0.0828710645 0.00695406599 0.0226093233 -0.083019942 0.0187853798 -0.0280186292 -0.0830035582 0.0169711933 -0.0303907152 -0.0667689517 0.00950706843 -0.025040416 -0.0829878151 0.0330097079 -0.0333854705 -0.0812047794 0.0265940949 -0.0300567057 -0.0573134199 0.0169711933 -0.0303907152 -0.0667689517 0.0636276901 -0.00584734231 -0.0563613512 0.0490605757 -0.02846523 -0.0572503135 0.0597757362 -0.016477121 -0.0828239992 0.0384609364 0.0293678623 -0.0584828928 0.0540253781 0.0238154214 -0.0563388765 0.0414054692 0.0314123854 -0.0563297085 0.0233332701 0.0291500445 -0.0560430996 0.0414054692 0.0314123854 -0.0563297085 0.0262146499 0.0328556113 -0.0828710645 0.0233332701 0.0291500445 -0.0560430996 0.0262146499 0.0328556113 -0.0828710645 0.0201709997 0.0314804986 -0.0589952841 0.0110442508 0.027259497 0.0146782659 0.0109906811 0.0287716556 -0.00592033006 -0.00307066413 0.0306305811 0.00151099893 0.0110289501 -0.0227869637 -0.0424342044 0.0169711933 -0.0303907152 -0.0667689517 0.0265940949 -0.0300567057 -0.0573134199 0.0407170281 -0.0286268238 -0.068158403 0.0490605757 -0.02846523 -0.0572503135 0.0532920063 -0.0202866886 -0.0621044263 0.0532920063 -0.0202866886 -0.0621044263 0.0490605757 -0.02846523 -0.0572503135 0.0613723136 -0.0039692875 -0.059679769 0.0613723136 -0.0039692875 -0.059679769 0.0490605757 -0.02846523 -0.0572503135 0.0636276901 -0.00584734231 -0.0563613512 0.0613723136 -0.0039692875 -0.059679769 0.0636276901 -0.00584734231 -0.0563613512 0.062949203 0.00833366346 -0.0562930927 0.0613723136 -0.0039692875 -0.059679769 0.062949203 0.00833366346 -0.0562930927 0.0588819273 0.0118171955 -0.0575531423 0.0464140773 0.0263985693 -0.0739852265 0.0540253781 0.0238154214 -0.0563388765 0.0384609364 0.0293678623 -0.0584828928 0.0384609364 0.0293678623 -0.0584828928 0.0414054692 0.0314123854 -0.0563297085 0.0233332701 0.0291500445 -0.0560430996 0.0140176285 0.024846049 -0.0776030198 0.0201709997 0.0314804986 -0.0589952841 0.011019432 0.02621115 -0.0404730886 -0.000583345012 0.00962504279 -0.0828301013 0.00662531797 0.0224911049 -0.0377194919 0.00695406599 0.0226093233 -0.083019942 0.00039821025 -0.0150881857 -0.0550518483 -0.00182285253 0.00602902099 -0.035168618 -0.000583345012 0.00962504279 -0.0828301013 0.000846167561 -0.015016295 -0.0826123953 0.00039821025 -0.0150881857 -0.0550518483 -0.000583345012 0.00962504279 -0.0828301013 -0.00322887977 -0.00919630751 -0.0151686808 -0.00321198464 0.0179745071 0.00455768313 -0.00348601094 -0.00675668381 0.01627055 0.0384609364 0.0293678623 -0.0584828928 0.0262146499 0.0328556113 -0.0828710645 0.0453309491 0.0305296388 -0.0828741118 0.0588819273 0.0118171955 -0.0575531423 0.062949203 0.00833366346 -0.0562930927 0.0600629225 0.0171699263 -0.0827157348 0.0109840166 -0.0179650318 -0.023060523 1.13532296e-05 0.00357122975 -0.0298484042 -4.97951032e-06 -0.0218613073 -0.0203548316 0.0110431099 0.00965991989 -0.0282025374 0.000221362032 0.0222118013 -0.0188184548 1.13532296e-05 0.00357122975 -0.0298484042 0.0110431099 0.00965991989 -0.0282025374 0.0109906811 0.0287716556 -0.00592033006 0.000221362032 0.0222118013 -0.0188184548 2.32359398e-05 0.0289261956 0.00167592242 0.0109906811 0.0287716556 -0.00592033006 0.0110442508 0.027259497 0.0146782659 2.37139539e-05 0.0239423104 0.0167806651 2.32359398e-05 0.0289261956 0.00167592242 0.0110442508 0.027259497 0.0146782659 2.37139539e-05 0.0239423104 0.0167806651 0.0110442508 0.027259497 0.0146782659 0.00996098481 0.00874768104 0.0293055288 0.000145264916 -0.0146256685 0.0252769999 0.00996098481 0.00874768104 0.0293055288 0.0109298313 -0.0160028767 0.0268196613 0.000145264916 -0.0146256685 0.0252769999 0.0109298313 -0.0160028767 0.0268196613 -0.000875005906 -0.0261901952 0.0154707804 0.0109840166 -0.0179650318 -0.023060523 -4.97951032e-06 -0.0218613073 -0.0203548316 0.00807789713 -0.0300202034 -0.00103703002 0.0110431099 0.00965991989 -0.0282025374 1.13532296e-05 0.00357122975 -0.0298484042 0.0109840166 -0.0179650318 -0.023060523 2.32359398e-05 0.0289261956 0.00167592242 0.000221362032 0.0222118013 -0.0188184548 0.0109906811 0.0287716556 -0.00592033006 0.0250244923 0.0053015966 -0.0538999997 0.0241919737 0.00424307538 -0.0808999985 0.023676591 -0.00260329782 -0.0538999997 0.0388926007 0.00510825915 -0.0808999985 0.0241919737 0.00424307538 -0.0808999985 0.0250244923 0.0053015966 -0.0538999997 0.0395419151 0.00399462786 -0.0538999997 0.0388926007 0.00510825915 -0.0808999985 0.0250244923 0.0053015966 -0.0538999997 0.0353018343 -0.00615709973 -0.0808999985 0.0388926007 0.00510825915 -0.0808999985 0.0395419151 0.00399462786 -0.0538999997 0.033970248 -0.00689878827 -0.0538999997 0.0353018343 -0.00615709973 -0.0808999985 0.0395419151 0.00399462786 -0.0538999997 0.0332666337 -0.00720172748 -0.0808999985 0.0353018343 -0.00615709973 -0.0808999985 0.033970248 -0.00689878827 -0.0538999997 0.0317660607 -0.00751103507 -0.0538999997 0.0332666337 -0.00720172748 -0.0808999985 0.033970248 -0.00689878827 -0.0538999997 0.0317660607 -0.00751103554 -0.0808999985 0.0332666337 -0.00720172748 -0.0808999985 0.0317660607 -0.00751103507 -0.0538999997 0.0302339401 -0.007511036 -0.0538999997 0.0317660607 -0.00751103554 -0.0808999985 0.0317660607 -0.00751103507 -0.0538999997 0.0302339401 -0.00751103554 -0.0808999985 0.0317660607 -0.00751103554 -0.0808999985 0.0302339401 -0.007511036 -0.0538999997 0.0287333671 -0.00720172795 -0.0538999997 0.0302339401 -0.00751103554 -0.0808999985 0.0302339401 -0.007511036 -0.0538999997 0.028029751 -0.00689878827 -0.0808999985 0.0302339401 -0.00751103554 -0.0808999985 0.0287333671 -0.00720172795 -0.0538999997 0.0266981665 -0.00615709973 -0.0538999997 0.028029751 -0.00689878827 -0.0808999985 0.0287333671 -0.00720172795 -0.0538999997 0.024305705 -0.00387924747 -0.0808999985 0.028029751 -0.00689878827 -0.0808999985 0.0266981665 -0.00615709973 -0.0538999997 0.024305705 -0.00387924747 -0.0808999985 0.0266981665 -0.00615709973 -0.0538999997 0.023676591 -0.00260329782 -0.0538999997 0.024305705 -0.00387924747 -0.0808999985 0.023676591 -0.00260329782 -0.0538999997 0.0241919737 0.00424307538 -0.0808999985 0.0121675106 0.0292500108 -0.0829109028 0.0657919347 -0.00199171202 -0.0838561952 0.0134461857 -0.0292417221 -0.0841436759 0.0353745148 0.0178717896 -0.0843000039 0.0134461857 -0.0292417221 -0.0841436759 0.0657919347 -0.00199171202 -0.0838561952 0.0532920063 -0.0202866886 -0.0621044263 0.050571762 -0.0236547496 -0.0742543712 0.0615086406 -0.00255355076 -0.0674475804 0.0283696055 -0.00825459976 -0.0704411715 0.024472326 0.00702596921 -0.0794999972 0.0233502239 0.00608412363 -0.0602499992 0.038214393 0.00422613416 -0.070615381 0.0233502239 0.00608412363 -0.0602499992 0.024472326 0.00702596921 -0.0794999972 0.0437061079 0.0202722307 -0.108211324 0.0528920256 0.00896575768 -0.107994013 0.0531752706 -0.00708695082 -0.108192794 0.0154757127 0.0192295685 -0.108194217 0.0370962769 0.000597715436 -0.108199216 0.0265870858 -0.028554 -0.108168319 0.0154757127 0.0192295685 -0.108194217 0.0437061079 0.0202722307 -0.108211324 0.0370962769 0.000597715436 -0.108199216 0.0370962769 0.000597715436 -0.108199216 0.0437061079 0.0202722307 -0.108211324 0.0531752706 -0.00708695082 -0.108192794 0.0265870858 -0.028554 -0.108168319 0.0370962769 0.000597715436 -0.108199216 0.0531752706 -0.00708695082 -0.108192794 0.024824176 -0.00220284751 -0.0628766641 0.0370962769 0.000597715436 -0.108199216 0.0346323512 0.00513743842 -0.0613709092 0.0277323294 0.00546709402 -0.0481519215 0.024824176 -0.00220284751 -0.0628766641 0.0346323512 0.00513743842 -0.0613709092 0.0315952674 -0.00626067165 -0.0689605251 0.0370962769 0.000597715436 -0.108199216 0.024824176 -0.00220284751 -0.0628766641 0.0362310596 -0.00313510001 -0.0484390482 0.0370962769 0.000597715436 -0.108199216 0.0315952674 -0.00626067165 -0.0689605251 0.0362310596 -0.00313510001 -0.0484390482 0.0346323512 0.00513743842 -0.0613709092 0.0370962769 0.000597715436 -0.108199216 0.0158191957 0.00132607296 -0.0475079603 0.0292137936 0.0147816604 -0.0478772186 0.0470575131 0.00297806179 -0.0503995307 0.0158469696 0.0262789018 -0.0509440862 0.0470575131 0.00297806179 -0.0503995307 0.0423133522 0.0289248042 -0.0504613481 0.00264809607 0.0120120728 -0.0505301505 0.0470575131 0.00297806179 -0.0503995307 0.0158469696 0.0262789018 -0.0509440862 0.0540826246 -0.0194692165 -0.0507033132 0.0470575131 0.00297806179 -0.0503995307 0.0403312258 -0.0292107072 -0.0508298092 0.0260206722 -0.0160751771 -0.050318975 0.0403312258 -0.0292107072 -0.0508298092 0.0470575131 0.00297806179 -0.0503995307 0.014401583 -0.0263808798 -0.0511576086 0.0403312258 -0.0292107072 -0.0508298092 0.0260206722 -0.0160751771 -0.050318975 0.00264809607 0.0120120728 -0.0505301505 0.0158191957 0.00132607296 -0.0475079603 0.0470575131 0.00297806179 -0.0503995307 0.06150214 -0.0032336989 -0.0509546027 0.0470575131 0.00297806179 -0.0503995307 0.0540826246 -0.0194692165 -0.0507033132 0.057179071 0.0154039795 -0.050658457 0.0470575131 0.00297806179 -0.0503995307 0.06150214 -0.0032336989 -0.0509546027 0.057179071 0.0154039795 -0.050658457 0.0423133522 0.0289248042 -0.0504613481 0.0470575131 0.00297806179 -0.0503995307 0.0260206722 -0.0160751771 -0.050318975 0.0470575131 0.00297806179 -0.0503995307 0.0292137936 0.0147816604 -0.0478772186 0.0260206722 -0.0160751771 -0.050318975 0.0292137936 0.0147816604 -0.0478772186 0.0158191957 0.00132607296 -0.0475079603 0.0208776537 -0.0285784826 -0.0656000003 0.000758701179 -0.00238219136 -0.0632194877 0.0198714361 -0.0287040435 -0.0549000017 0.0473132394 -0.0243159384 -0.0602500029 0.0208776537 -0.0285784826 -0.0656000003 0.0198714361 -0.0287040435 -0.0549000017 0.00239160261 0.00872112997 -0.0549000017 0.0114373174 0.0217736624 -0.0656000003 0.021026846 0.0278320648 -0.0602499992 0.00239160261 0.00872112997 -0.0549000017 0.000758701179 -0.00238219136 -0.0632194877 0.0114373174 0.0217736624 -0.0656000003 </float_array>
          <technique_common>
            <accessor count="558" offset="0" source="#mesh_0-positions-array" stride="3">
              <param name="X" type="float" />
              <param name="Y" type="float" />
              <param name="Z" type="float" />
            </accessor>
          </technique_common>
        </source>
        <vertices id="mesh_0-vertices">
          <input semantic="POSITION" source="#mesh_0-positions" />
        </vertices>
        <polylist count="186" material="defaultMaterial">
          <input offset="0" semantic="VERTEX" source="#mesh_0-vertices" />
          <vcount>3 3 3 3 3 3 3 3 3 3 3 3 3 3 3 3 3 3 3 3 3 3 3 3 3 3 3 3 3 3 3 3 3 3 3 3 3 3 3 3 3 3 3 3 3 3 3 3 3 3 3 3 3 3 3 3 3 3 3 3 3 3 3 3 3 3 3 3 3 3 3 3 3 3 3 3 3 3 3 3 3 3 3 3 3 3 3 3 3 3 3 3 3 3 3 3 3 3 3 3 3 3 3 3 3 3 3 3 3 3 3 3 3 3 3 3 3 3 3 3 3 3 3 3 3 3 3 3 3 3 3 3 3 3 3 3 3 3 3 3 3 3 3 3 3 3 3 3 3 3 3 3 3 3 3 3 3 3 3 3 3 3 3 3 3 3 3 3 3 3 3 3 3 3 3 3 3 3 3 3 3 3 3 3 3 3 </vcount>
          <p>0 1 2 3 4 5 6 7 8 9 10 11 12 13 14 15 16 17 18 19 20 21 22 23 24 25 26 27 28 29 30 31 32 33 34 35 36 37 38 39 40 41 42 43 44 45 46 47 48 49 50 51 52 53 54 55 56 57 58 59 60 61 62 63 64 65 66 67 68 69 70 71 72 73 74 75 76 77 78 79 80 81 82 83 84 85 86 87 88 89 90 91 92 93 94 95 96 97 98 99 100 101 102 103 104 105 106 107 108 109 110 111 112 113 114 115 116 117 118 119 120 121 122 123 124 125 126 127 128 129 130 131 132 133 134 135 136 137 138 139 140 141 142 143 144 145 146 147 148 149 150 151 152 153 154 155 156 157 158 159 160 161 162 163 164 165 166 167 168 169 170 171 172 173 174 175 176 177 178 179 180 181 182 183 184 185 186 187 188 189 190 191 192 193 194 195 196 197 198 199 200 201 202 203 204 205 206 207 208 209 210 211 212 213 214 215 216 217 218 219 220 221 222 223 224 225 226 227 228 229 230 231 232 233 234 235 236 237 238 239 240 241 242 243 244 245 246 247 248 249 250 251 252 253 254 255 256 257 258 259 260 261 262 263 264 265 266 267 268 269 270 271 272 273 274 275 276 277 278 279 280 281 282 283 284 285 286 287 288 289 290 291 292 293 294 295 296 297 298 299 300 301 302 303 304 305 306 307 308 309 310 311 312 313 314 315 316 317 318 319 320 321 322 323 324 325 326 327 328 329 330 331 332 333 334 335 336 337 338 339 340 341 342 343 344 345 346 347 348 349 350 351 352 353 354 355 356 357 358 359 360 361 362 363 364 365 366 367 368 369 370 371 372 373 374 375 376 377 378 379 380 381 382 383 384 385 386 387 388 389 390 391 392 393 394 395 396 397 398 399 400 401 402 403 404 405 406 407 408 409 410 411 412 413 414 415 416 417 418 419 420 421 422 423 424 425 426 427 428 429 430 431 432 433 434 435 436 437 438 439 440 441 442 443 444 445 446 447 448 449 450 451 452 453 454 455 456 457 458 459 460 461 462 463 464 465 466 467 468 469 470 471 472 473 474 475 476 477 478 479 480 481 482 483 484 485 486 487 488 489 490 491 492 493 494 495 496 497 498 499 500 501 502 503 504 505 506 507 508 509 510 511 512 513 514 515 516 517 518 519 520 521 522 523 524 525 526 527 528 529 530 531 532 533 534 535 536 537 538 539 540 541 542 543 544 545 546 547 548 549 550 551 552 553 554 555 556 557 </p>
        </polylist>
      </mesh>
    </geometry>
  </library_geometries>
  <library_controllers>
  </library_controllers>
  <library_visual_scenes>
    <visual_scene id="Scene" name="Scene">
      <node id="node" name="" type="NODE">
        <matrix sid="matrix">1 0 0 0 0 1 0 0 0 0 1 0 0 0 0 1</matrix>
        <instance_geometry url="#mesh_0">
          <bind_material>
            <technique_common>
              <instance_material symbol="defaultMaterial" target="#material_0">
              </instance_material>
            </technique_common>
          </bind_material>
        </instance_geometry>
      </node>
    </visual_scene>
  </library_visual_scenes>
  <scene>
    <instance_visual_scene url="#Scene" />
  </scene>
</COLLADA>
