<?xml version="1.0" encoding="UTF-8" standalone="no" ?>
<COLLADA xmlns="http://www.collada.org/2005/11/COLLADASchema" version="1.4.1">
  <asset>
    <contributor>
      <author>Assimp</author>
      <authoring_tool>Assimp Exporter</authoring_tool>
    </contributor>
    <created>2025-12-08T10:04:59</created>
    <modified>2025-12-08T10:04:59</modified>
    <unit name="meter" meter="1" />
    <up_axis>Y_UP</up_axis>
  </asset>
  <library_images>
  </library_images>
  <library_effects>
    <effect id="material_0-fx" name="">
      <profile_COMMON>
        <technique sid="standard">
          <phong>
            <emission>
              <color sid="emission">0   0   0   4.53488209e-41</color>
            </emission>
            <ambient>
              <color sid="ambient">0.898039222   0.917647064   0.929411769   -0.021484375</color>
            </ambient>
            <diffuse>
              <color sid="diffuse">0.898039222   0.917647064   0.929411769   -0.021484375</color>
            </diffuse>
            <specular>
              <color sid="specular">0.200000003   0.200000003   0.200000003   2.55843558e-11</color>
            </specular>
          </phong>
        </technique>
      </profile_COMMON>
    </effect>
  </library_effects>
  <library_materials>
    <material id="material_0" name="">
      <instance_effect url="#material_0-fx"/>
    </material>
  </library_materials>
  <library_geometries>
    <geometry id="mesh_0" name="" >
      <mesh>
        <source id="mesh_0-positions" name="mesh_0-positions">
          <float_array id="mesh_0-positions-array" count="4392"> -0.0302205831 0.00340587902 0.0290924162 -0.0374513529 -0.0125117721 0.0286540408 -0.0294237286 -0.0118054012 0.0288971514 -0.0571783744 0.0124976011 0.0160133429 -0.0571908094 -0.0125027895 0.0159950256 -0.0524912067 0.00246089906 0.0217683855 -0.0610974506 0.0124978386 -0.00717828749 -0.0611828901 -0.0125070205 -0.00686171977 -0.0619656444 -1.63327823e-05 0.00334764109 -0.0083009256 -0.0125527112 -0.0154165793 -0.0179321375 -9.96024537e-05 -0.0247974172 -0.0115128942 0.00298260711 -0.0196069814 -0.00673118094 0.0113828732 -0.0129075311 -0.0083009256 -0.0125527112 -0.0154165793 -0.0115128942 0.00298260711 -0.0196069814 -0.0180472583 0.0125179058 0.0248446465 -0.0103531545 -0.0122339427 0.0182097573 -0.0113962917 0.00482308585 0.0193183944 -0.00680284807 0.0124802236 0.0129862651 -0.0113962917 0.00482308585 0.0193183944 -0.0103531545 -0.0122339427 0.0182097573 -0.00539898127 -0.00698802806 -0.00973123405 -0.0083009256 -0.0125527112 -0.0154165793 -0.00673118094 0.0113828732 -0.0129075311 -0.0055328696 -0.0041012587 0.00988367852 -0.00680284807 0.0124802236 0.0129862651 -0.0103531545 -0.0122339427 0.0182097573 -0.0292808507 -0.0124958726 -0.0288926437 -0.0345283709 0.000929693051 -0.0291976575 -0.0328398533 0.0125034889 -0.0296698119 -0.0231215432 0.0125054559 -0.0272660349 -0.0292808507 -0.0124958726 -0.0288926437 -0.0328398533 0.0125034889 -0.0296698119 -0.0231329501 -0.0125014484 -0.0272696875 -0.0292808507 -0.0124958726 -0.0288926437 -0.0231215432 0.0125054559 -0.0272660349 -0.0231329501 -0.0125014484 -0.0272696875 -0.0231215432 0.0125054559 -0.0272660349 -0.0179321375 -9.96024537e-05 -0.0247974172 -0.0421344414 0.0123799918 -0.0275259111 -0.0328398533 0.0125034889 -0.0296698119 -0.0345283709 0.000929693051 -0.0291976575 -0.0595117807 0.0125051411 -0.0117535675 -0.0611828901 -0.0125070205 -0.00686171977 -0.0610974506 0.0124978386 -0.00717828749 -0.0587256141 -0.0124964742 -0.0134569863 -0.0611828901 -0.0125070205 -0.00686171977 -0.0595117807 0.0125051411 -0.0117535675 -0.0558170192 0.0017120589 -0.0182129666 -0.0587256141 -0.0124964742 -0.0134569863 -0.0595117807 0.0125051411 -0.0117535675 -0.0595131963 0.0125093684 0.0117483269 -0.0571908094 -0.0125027895 0.0159950256 -0.0571783744 0.0124976011 0.0160133429 -0.0595153943 -0.0125124669 0.0117433174 -0.0571908094 -0.0125027895 0.0159950256 -0.0595131963 0.0125093684 0.0117483269 -0.0613484569 0.0125200599 0.00634630816 -0.0595153943 -0.0125124669 0.0117433174 -0.0595131963 0.0125093684 0.0117483269 -0.0613484569 0.0125200599 0.00634630816 -0.0619656444 -1.63327823e-05 0.00334764109 -0.0595153943 -0.0125124669 0.0117433174 -0.0358374417 0.0124977445 0.0289986897 -0.0374513529 -0.0125117721 0.0286540408 -0.0302205831 0.00340587902 0.0290924162 -0.0421193615 0.0121999998 0.0275288448 -0.0374513529 -0.0125117721 0.0286540408 -0.0358374417 0.0124977445 0.0289986897 -0.0421207435 -0.0124973664 0.0275282785 -0.0374513529 -0.0125117721 0.0286540408 -0.0421193615 0.0121999998 0.0275288448 -0.0465631858 0.0124946618 0.0256327409 -0.0421207435 -0.0124973664 0.0275282785 -0.0421193615 0.0121999998 0.0275288448 -0.0475887395 -0.0132893473 0.025068786 -0.0421207435 -0.0124973664 0.0275282785 -0.0465631858 0.0124946618 0.0256327409 -0.0475887395 -0.0132893473 0.025068786 -0.0465631858 0.0124946618 0.0256327409 -0.0524912067 0.00246089906 0.0217683855 -0.0180220008 -0.0125263007 0.0248570982 -0.0103531545 -0.0122339427 0.0182097573 -0.0180472583 0.0125179058 0.0248446465 -0.0231651329 0.012512696 0.0272828359 -0.0180220008 -0.0125263007 0.0248570982 -0.0180472583 0.0125179058 0.0248446465 -0.0231361873 -0.0125095965 0.0272702575 -0.0180220008 -0.0125263007 0.0248570982 -0.0231651329 0.012512696 0.0272828359 -0.0231361873 -0.0125095965 0.0272702575 -0.0231651329 0.012512696 0.0272828359 -0.0302205831 0.00340587902 0.0290924162 -0.0231361873 -0.0125095965 0.0272702575 -0.0302205831 0.00340587902 0.0290924162 -0.0294237286 -0.0118054012 0.0288971514 -0.0254124161 0.0123927677 -0.024986051 -0.0195285305 0.0125246132 -0.022209201 -0.0231215432 0.0125054559 -0.0272660349 -0.0254124161 0.0123927677 -0.024986051 -0.0231215432 0.0125054559 -0.0272660349 -0.0328398533 0.0125034889 -0.0296698119 -0.04260787 0.0124892704 -0.0241989493 -0.0328398533 0.0125034889 -0.0296698119 -0.0421344414 0.0123799918 -0.0275259111 -0.0562007539 0.0124945538 -0.0122428732 -0.04260787 0.0124892704 -0.0241989493 -0.0421344414 0.0123799918 -0.0275259111 -0.0562007539 0.0124945538 -0.0122428732 -0.0421344414 0.0123799918 -0.0275259111 -0.0595117807 0.0125051411 -0.0117535675 -0.0562007539 0.0124945538 -0.0122428732 -0.0595117807 0.0125051411 -0.0117535675 -0.0610974506 0.0124978386 -0.00717828749 -0.0589740016 0.0123500004 0.0011535238 -0.0562007539 0.0124945538 -0.0122428732 -0.0610974506 0.0124978386 -0.00717828749 -0.0589740016 0.0123500004 0.0011535238 -0.0610974506 0.0124978386 -0.00717828749 -0.0613484569 0.0125200599 0.00634630816 -0.0589740016 0.0123500004 0.0011535238 -0.0613484569 0.0125200599 0.00634630816 -0.0595131963 0.0125093684 0.0117483269 -0.0562715195 0.0124869924 0.0116019454 -0.0595131963 0.0125093684 0.0117483269 -0.0571783744 0.0124976011 0.0160133429 -0.0562715195 0.0124869924 0.0116019454 -0.0571783744 0.0124976011 0.0160133429 -0.0465631858 0.0124946618 0.0256327409 -0.0447989926 0.012491839 0.0233582575 -0.0562715195 0.0124869924 0.0116019454 -0.0465631858 0.0124946618 0.0256327409 -0.0447989926 0.012491839 0.0233582575 -0.0465631858 0.0124946618 0.0256327409 -0.0358374417 0.0124977445 0.0289986897 -0.0447989926 0.012491839 0.0233582575 -0.0358374417 0.0124977445 0.0289986897 -0.0231651329 0.012512696 0.0272828359 -0.0223357864 0.0123952581 0.0238099396 -0.0231651329 0.012512696 0.0272828359 -0.0180472583 0.0125179058 0.0248446465 -0.0525566265 -0.0124838464 0.0173619632 -0.0571908094 -0.0125027895 0.0159950256 -0.0595153943 -0.0125124669 0.0117433174 -0.0540424027 -0.0122750001 -0.0151085285 -0.0611828901 -0.0125070205 -0.00686171977 -0.0587256141 -0.0124964742 -0.0134569863 -0.0465579852 -0.012350467 -0.0256374422 -0.0540424027 -0.0122750001 -0.0151085285 -0.0511242002 -0.0120125748 -0.0227104798 -0.0450937524 -0.0124870148 0.0231798235 -0.0374513529 -0.0125117721 0.0286540408 -0.0421207435 -0.0124973664 0.0275282785 -0.0197719485 -0.0123427846 -0.0223609675 -0.0292808507 -0.0124958726 -0.0288926437 -0.0231329501 -0.0125014484 -0.0272696875 -0.0511242002 -0.0120125748 -0.0227104798 -0.0540424027 -0.0122750001 -0.0151085285 -0.0587256141 -0.0124964742 -0.0134569863 -0.0450937524 -0.0124870148 0.0231798235 -0.0421207435 -0.0124973664 0.0275282785 -0.0571908094 -0.0125027895 0.0159950256 -0.0287681278 -0.0124828462 -0.0257102698 -0.0292808507 -0.0124958726 -0.0288926437 -0.0197719485 -0.0123427846 -0.0223609675 -0.0412998684 -0.0125078475 -0.0249013957 -0.0292808507 -0.0124958726 -0.0288926437 -0.0287681278 -0.0124828462 -0.0257102698 -0.0513061844 0.00158022845 0.018581707 -0.0450937524 -0.0124870148 0.0231798235 -0.0525566265 -0.0124838464 0.0173619632 -0.0355216451 0.00389336119 -0.0259672999 -0.0412998684 -0.0125078475 -0.0249013957 -0.0287681278 -0.0124828462 -0.0257102698 -0.00428487407 -0.00309752743 -0.00482467283 -0.00755033456 -0.00564067718 -0.00535937259 -0.00681712944 -0.00635077385 0.000204848489 -0.0072450256 0.00292516383 0.00527721224 -0.00819962937 0.00136686047 0.00817974005 -0.0075607365 0.00692101475 0.00600661291 -0.00752543798 -0.00328017352 0.0056923544 -0.00681712944 -0.00635077385 0.000204848489 -0.00775970751 -0.00503055658 0.00680582598 -0.00700943731 0.00794248842 -2.37597396e-05 -0.0075607365 0.00692101475 0.00600661291 -0.0092364233 0.0125431372 -0.0109748608 -0.00700943731 0.00794248842 -2.37597396e-05 -0.0072450256 0.00292516383 0.00527721224 -0.0075607365 0.00692101475 0.00600661291 -0.00726328418 0.00531162135 -0.00435356377 -0.0072450256 0.00292516383 0.00527721224 -0.00700943731 0.00794248842 -2.37597396e-05 -0.00371936313 0.00230911002 -0.00488787936 -0.00726328418 0.00531162135 -0.00435356377 -0.00755033456 -0.00564067718 -0.00535937259 -0.00931583159 -1.71815429e-06 -0.0110070249 -0.00755033456 -0.00564067718 -0.00535937259 -0.00726328418 0.00531162135 -0.00435356377 -0.00726328418 0.00531162135 -0.00435356377 -0.00700943731 0.00794248842 -2.37597396e-05 -0.0092364233 0.0125431372 -0.0109748608 -0.00931583159 -1.71815429e-06 -0.0110070249 -0.00726328418 0.00531162135 -0.00435356377 -0.0092364233 0.0125431372 -0.0109748608 -0.0110830087 0.0125003876 0.014066712 -0.00819962937 0.00136686047 0.00817974005 -0.0107339351 -0.0122386869 0.0136286533 -0.0107339351 -0.0122386869 0.0136286533 -0.00819962937 0.00136686047 0.00817974005 -0.00775970751 -0.00503055658 0.00680582598 -0.00752543798 -0.00328017352 0.0056923544 -0.00775970751 -0.00503055658 0.00680582598 -0.00819962937 0.00136686047 0.00817974005 -0.0162412338 0.000577765459 0.0199817847 -0.0110830087 0.0125003876 0.014066712 -0.0107339351 -0.0122386869 0.0136286533 -0.034665972 0.000522083836 0.0261230003 -0.0450937524 -0.0124870148 0.0231798235 -0.0447989926 0.012491839 0.0233582575 -0.0513061844 0.00158022845 0.018581707 -0.0447989926 0.012491839 0.0233582575 -0.0450937524 -0.0124870148 0.0231798235 -0.0550476089 -5.76715481e-11 0.013738296 -0.0513061844 0.00158022845 0.018581707 -0.0525566265 -0.0124838464 0.0173619632 -0.0569285974 7.83693943e-12 0.0100867506 -0.0562715195 0.0124869924 0.0116019454 -0.0550476089 -5.76715481e-11 0.013738296 -0.0583340153 0.0121999998 0.00571590476 -0.0569285974 7.83693943e-12 0.0100867506 -0.0583424903 -0.0121406885 0.00618465152 -0.0583340153 0.0121999998 0.00571590476 -0.0583424903 -0.0121406885 0.00618465152 -0.0589740016 0.0123500004 0.0011535238 -0.058238592 0.000162564436 -0.00735150231 -0.0589740016 0.0123500004 0.0011535238 -0.0583424903 -0.0121406885 0.00618465152 -0.058238592 0.000162564436 -0.00735150231 -0.0540424027 -0.0122750001 -0.0151085285 -0.0562007539 0.0124945538 -0.0122428732 -0.0511633568 0.000633499294 -0.0188354012 -0.0562007539 0.0124945538 -0.0122428732 -0.0540424027 -0.0122750001 -0.0151085285 -0.0355216451 0.00389336119 -0.0259672999 -0.04260787 0.0124892704 -0.0241989493 -0.0412998684 -0.0125078475 -0.0249013957 -0.0355216451 0.00389336119 -0.0259672999 -0.0287681278 -0.0124828462 -0.0257102698 -0.0254124161 0.0123927677 -0.024986051 -0.0197719485 -0.0123427846 -0.0223609675 -0.0195285305 0.0125246132 -0.022209201 -0.0254124161 0.0123927677 -0.024986051 -0.0146478321 0.0013575881 -0.0187169164 -0.0195285305 0.0125246132 -0.022209201 -0.0197719485 -0.0123427846 -0.0223609675 -0.0146478321 0.0013575881 -0.0187169164 -0.00931583159 -1.71815429e-06 -0.0110070249 -0.0092364233 0.0125431372 -0.0109748608 -0.00349287875 0.00633518724 0.00823857542 -0.00680284807 0.0124802236 0.0129862651 -0.0055328696 -0.0041012587 0.00988367852 -0.000906936184 -0.00564299151 -0.00848233886 -0.00363342953 -0.0105111841 9.40214304e-05 -0.00539898127 -0.00698802806 -0.00973123405 2.53660182e-05 -0.00158850092 0.0055627143 -0.0072450256 0.00292516383 0.00527721224 5.12573934e-05 0.00600821665 0.000810331956 -0.0016939874 0.0104279872 -0.00221335678 5.12573934e-05 0.00600821665 0.000810331956 -0.00371936313 0.00230911002 -0.00488787936 -0.000954273099 0.00245220331 -0.00967951026 -0.00428487407 -0.00309752743 -0.00482467283 -0.000906936184 -0.00564299151 -0.00848233886 3.63525214e-05 -0.00595696829 0.00114108191 -0.000906936184 -0.00564299151 -0.00848233886 -0.00428487407 -0.00309752743 -0.00482467283 -0.000954273099 0.00245220331 -0.00967951026 -0.0016939874 0.0104279872 -0.00221335678 -0.00371936313 0.00230911002 -0.00488787936 -0.000954273099 0.00245220331 -0.00967951026 -0.00371936313 0.00230911002 -0.00488787936 -0.00428487407 -0.00309752743 -0.00482467283 -0.0016939874 0.0104279872 -0.00221335678 -0.00673118094 0.0113828732 -0.0129075311 -0.00680284807 0.0124802236 0.0129862651 -0.000954273099 0.00245220331 -0.00967951026 -0.00673118094 0.0113828732 -0.0129075311 -0.0016939874 0.0104279872 -0.00221335678 -0.0016939874 0.0104279872 -0.00221335678 -0.00680284807 0.0124802236 0.0129862651 -0.00349287875 0.00633518724 0.00823857542 -0.000954273099 0.00245220331 -0.00967951026 -0.00539898127 -0.00698802806 -0.00973123405 -0.00673118094 0.0113828732 -0.0129075311 -0.00363342953 -0.0105111841 9.40214304e-05 -0.0055328696 -0.0041012587 0.00988367852 -0.00539898127 -0.00698802806 -0.00973123405 -0.0513061844 0.00158022845 0.018581707 -0.0524912067 0.00246089906 0.0217683855 -0.0571783744 0.0124976011 0.0160133429 -0.0162412338 0.000577765459 0.0199817847 -0.0103531545 -0.0122339427 0.0182097573 -0.0113962917 0.00482308585 0.0193183944 2.53660182e-05 -0.00158850092 0.0055627143 -0.00752543798 -0.00328017352 0.0056923544 -0.00775970751 -0.00503055658 0.00680582598 2.53660182e-05 -0.00158850092 0.0055627143 -0.0072450256 0.00292516383 0.00527721224 -0.00752543798 -0.00328017352 0.0056923544 2.53660182e-05 -0.00158850092 0.0055627143 -0.00819962937 0.00136686047 0.00817974005 -0.0072450256 0.00292516383 0.00527721224 2.53660182e-05 -0.00158850092 0.0055627143 -0.00752543798 -0.00328017352 0.0056923544 -0.00819962937 0.00136686047 0.00817974005 5.12573934e-05 0.00600821665 0.000810331956 -0.0072450256 0.00292516383 0.00527721224 -0.0075607365 0.00692101475 0.00600661291 5.12573934e-05 0.00600821665 0.000810331956 -0.0072450256 0.00292516383 0.00527721224 -0.00726328418 0.00531162135 -0.00435356377 3.63525214e-05 -0.00595696829 0.00114108191 -0.00752543798 -0.00328017352 0.0056923544 2.53660182e-05 -0.00158850092 0.0055627143 3.63525214e-05 -0.00595696829 0.00114108191 -0.00681712944 -0.00635077385 0.000204848489 -0.00752543798 -0.00328017352 0.0056923544 3.63525214e-05 -0.00595696829 0.00114108191 -0.00428487407 -0.00309752743 -0.00482467283 -0.00681712944 -0.00635077385 0.000204848489 -0.00371936313 0.00230911002 -0.00488787936 -0.00755033456 -0.00564067718 -0.00535937259 -0.00428487407 -0.00309752743 -0.00482467283 5.12573934e-05 0.00600821665 0.000810331956 -0.00726328418 0.00531162135 -0.00435356377 -0.00371936313 0.00230911002 -0.00488787936 -0.0595153943 -0.0125124669 0.0117433174 -0.0619656444 -1.63327823e-05 0.00334764109 -0.0611828901 -0.0125070205 -0.00686171977 -0.0475887395 -0.0132893473 0.025068786 -0.0524912067 0.00246089906 0.0217683855 -0.0571908094 -0.0125027895 0.0159950256 -0.0475887395 -0.0132893473 0.025068786 -0.0571908094 -0.0125027895 0.0159950256 -0.0421207435 -0.0124973664 0.0275282785 -0.0231361873 -0.0125095965 0.0272702575 -0.0294237286 -0.0118054012 0.0288971514 -0.0374513529 -0.0125117721 0.0286540408 -0.0511242002 -0.0120125748 -0.0227104798 -0.0587256141 -0.0124964742 -0.0134569863 -0.0558170192 0.0017120589 -0.0182129666 -0.0412998684 -0.0125078475 -0.0249013957 -0.0465579852 -0.012350467 -0.0256374422 -0.0421344414 0.0123799918 -0.0275259111 -0.0412998684 -0.0125078475 -0.0249013957 -0.0421344414 0.0123799918 -0.0275259111 -0.0345283709 0.000929693051 -0.0291976575 -0.0412998684 -0.0125078475 -0.0249013957 -0.0345283709 0.000929693051 -0.0291976575 -0.0292808507 -0.0124958726 -0.0288926437 -0.0231329501 -0.0125014484 -0.0272696875 -0.0179321375 -9.96024537e-05 -0.0247974172 -0.0083009256 -0.0125527112 -0.0154165793 -0.0055328696 -0.0041012587 0.00988367852 -0.0103531545 -0.0122339427 0.0182097573 -0.0083009256 -0.0125527112 -0.0154165793 -0.0055328696 -0.0041012587 0.00988367852 -0.0083009256 -0.0125527112 -0.0154165793 -0.00539898127 -0.00698802806 -0.00973123405 -0.00681712944 -0.00635077385 0.000204848489 -0.0083009256 -0.0125527112 -0.0154165793 -0.0103531545 -0.0122339427 0.0182097573 -0.00775970751 -0.00503055658 0.00680582598 -0.00681712944 -0.00635077385 0.000204848489 -0.0103531545 -0.0122339427 0.0182097573 -0.0107339351 -0.0122386869 0.0136286533 -0.00775970751 -0.00503055658 0.00680582598 -0.0103531545 -0.0122339427 0.0182097573 -0.0107339351 -0.0122386869 0.0136286533 -0.0103531545 -0.0122339427 0.0182097573 -0.0180220008 -0.0125263007 0.0248570982 -0.0162412338 0.000577765459 0.0199817847 -0.0107339351 -0.0122386869 0.0136286533 -0.0180220008 -0.0125263007 0.0248570982 -0.0162412338 0.000577765459 0.0199817847 -0.0180220008 -0.0125263007 0.0248570982 -0.0231361873 -0.0125095965 0.0272702575 -0.0162412338 0.000577765459 0.0199817847 -0.0231361873 -0.0125095965 0.0272702575 -0.0223357864 0.0123952581 0.0238099396 -0.0277152378 0.00261195889 0.0255047604 -0.0223357864 0.0123952581 0.0238099396 -0.0231361873 -0.0125095965 0.0272702575 -0.0277152378 0.00261195889 0.0255047604 -0.0231361873 -0.0125095965 0.0272702575 -0.034665972 0.000522083836 0.0261230003 -0.034665972 0.000522083836 0.0261230003 -0.0231361873 -0.0125095965 0.0272702575 -0.0374513529 -0.0125117721 0.0286540408 -0.034665972 0.000522083836 0.0261230003 -0.0374513529 -0.0125117721 0.0286540408 -0.0450937524 -0.0124870148 0.0231798235 -0.0450937524 -0.0124870148 0.0231798235 -0.0571908094 -0.0125027895 0.0159950256 -0.0525566265 -0.0124838464 0.0173619632 -0.0550476089 -5.76715481e-11 0.013738296 -0.0525566265 -0.0124838464 0.0173619632 -0.0595153943 -0.0125124669 0.0117433174 -0.0569285974 7.83693943e-12 0.0100867506 -0.0550476089 -5.76715481e-11 0.013738296 -0.0595153943 -0.0125124669 0.0117433174 -0.0583424903 -0.0121406885 0.00618465152 -0.0569285974 7.83693943e-12 0.0100867506 -0.0595153943 -0.0125124669 0.0117433174 -0.0583424903 -0.0121406885 0.00618465152 -0.0595153943 -0.0125124669 0.0117433174 -0.0611828901 -0.0125070205 -0.00686171977 -0.058238592 0.000162564436 -0.00735150231 -0.0583424903 -0.0121406885 0.00618465152 -0.0611828901 -0.0125070205 -0.00686171977 -0.058238592 0.000162564436 -0.00735150231 -0.0611828901 -0.0125070205 -0.00686171977 -0.0540424027 -0.0122750001 -0.0151085285 -0.0511633568 0.000633499294 -0.0188354012 -0.0540424027 -0.0122750001 -0.0151085285 -0.0465579852 -0.012350467 -0.0256374422 -0.0511633568 0.000633499294 -0.0188354012 -0.0465579852 -0.012350467 -0.0256374422 -0.0412998684 -0.0125078475 -0.0249013957 -0.0287681278 -0.0124828462 -0.0257102698 -0.0197719485 -0.0123427846 -0.0223609675 -0.0254124161 0.0123927677 -0.024986051 -0.0146478321 0.0013575881 -0.0187169164 -0.0197719485 -0.0123427846 -0.0223609675 -0.0231329501 -0.0125014484 -0.0272696875 -0.0146478321 0.0013575881 -0.0187169164 -0.0231329501 -0.0125014484 -0.0272696875 -0.0083009256 -0.0125527112 -0.0154165793 -0.0146478321 0.0013575881 -0.0187169164 -0.0083009256 -0.0125527112 -0.0154165793 -0.00931583159 -1.71815429e-06 -0.0110070249 -0.00931583159 -1.71815429e-06 -0.0110070249 -0.0083009256 -0.0125527112 -0.0154165793 -0.00755033456 -0.00564067718 -0.00535937259 -0.00681712944 -0.00635077385 0.000204848489 -0.00755033456 -0.00564067718 -0.00535937259 -0.0083009256 -0.0125527112 -0.0154165793 -0.058238592 0.000162564436 -0.00735150231 -0.0562007539 0.0124945538 -0.0122428732 -0.0589740016 0.0123500004 0.0011535238 -0.0511633568 0.000633499294 -0.0188354012 -0.04260787 0.0124892704 -0.0241989493 -0.0562007539 0.0124945538 -0.0122428732 -0.0511633568 0.000633499294 -0.0188354012 -0.0412998684 -0.0125078475 -0.0249013957 -0.04260787 0.0124892704 -0.0241989493 -0.0355216451 0.00389336119 -0.0259672999 -0.0328398533 0.0125034889 -0.0296698119 -0.04260787 0.0124892704 -0.0241989493 -0.0355216451 0.00389336119 -0.0259672999 -0.0254124161 0.0123927677 -0.024986051 -0.0328398533 0.0125034889 -0.0296698119 -0.0146478321 0.0013575881 -0.0187169164 -0.0092364233 0.0125431372 -0.0109748608 -0.0195285305 0.0125246132 -0.022209201 -0.0110830087 0.0125003876 0.014066712 -0.0092364233 0.0125431372 -0.0109748608 -0.0075607365 0.00692101475 0.00600661291 -0.0110830087 0.0125003876 0.014066712 -0.0075607365 0.00692101475 0.00600661291 -0.00819962937 0.00136686047 0.00817974005 -0.0162412338 0.000577765459 0.0199817847 -0.00680284807 0.0124802236 0.0129862651 -0.0110830087 0.0125003876 0.014066712 -0.0162412338 0.000577765459 0.0199817847 -0.0180472583 0.0125179058 0.0248446465 -0.00680284807 0.0124802236 0.0129862651 -0.0162412338 0.000577765459 0.0199817847 -0.0223357864 0.0123952581 0.0238099396 -0.0180472583 0.0125179058 0.0248446465 -0.0277152378 0.00261195889 0.0255047604 -0.0231651329 0.012512696 0.0272828359 -0.0223357864 0.0123952581 0.0238099396 -0.0277152378 0.00261195889 0.0255047604 -0.034665972 0.000522083836 0.0261230003 -0.0231651329 0.012512696 0.0272828359 -0.034665972 0.000522083836 0.0261230003 -0.0447989926 0.012491839 0.0233582575 -0.0231651329 0.012512696 0.0272828359 -0.0513061844 0.00158022845 0.018581707 -0.0562715195 0.0124869924 0.0116019454 -0.0447989926 0.012491839 0.0233582575 -0.0550476089 -5.76715481e-11 0.013738296 -0.0562715195 0.0124869924 0.0116019454 -0.0513061844 0.00158022845 0.018581707 -0.0569285974 7.83693943e-12 0.0100867506 -0.0595131963 0.0125093684 0.0117483269 -0.0562715195 0.0124869924 0.0116019454 -0.0583340153 0.0121999998 0.00571590476 -0.0595131963 0.0125093684 0.0117483269 -0.0569285974 7.83693943e-12 0.0100867506 -0.0583340153 0.0121999998 0.00571590476 -0.0589740016 0.0123500004 0.0011535238 -0.0595131963 0.0125093684 0.0117483269 -0.0092364233 0.0125431372 -0.0109748608 -0.00680284807 0.0124802236 0.0129862651 -0.00673118094 0.0113828732 -0.0129075311 -0.0110830087 0.0125003876 0.014066712 -0.00680284807 0.0124802236 0.0129862651 -0.0092364233 0.0125431372 -0.0109748608 -0.0092364233 0.0125431372 -0.0109748608 -0.00673118094 0.0113828732 -0.0129075311 -0.0115128942 0.00298260711 -0.0196069814 -0.0092364233 0.0125431372 -0.0109748608 -0.0115128942 0.00298260711 -0.0196069814 -0.0195285305 0.0125246132 -0.022209201 -0.0195285305 0.0125246132 -0.022209201 -0.0115128942 0.00298260711 -0.0196069814 -0.0179321375 -9.96024537e-05 -0.0247974172 -0.0195285305 0.0125246132 -0.022209201 -0.0179321375 -9.96024537e-05 -0.0247974172 -0.0231215432 0.0125054559 -0.0272660349 -0.0465579852 -0.012350467 -0.0256374422 -0.0511242002 -0.0120125748 -0.0227104798 -0.0421344414 0.0123799918 -0.0275259111 -0.0511242002 -0.0120125748 -0.0227104798 -0.0558170192 0.0017120589 -0.0182129666 -0.0421344414 0.0123799918 -0.0275259111 -0.0558170192 0.0017120589 -0.0182129666 -0.0595117807 0.0125051411 -0.0117535675 -0.0421344414 0.0123799918 -0.0275259111 -0.0613484569 0.0125200599 0.00634630816 -0.0610974506 0.0124978386 -0.00717828749 -0.0619656444 -1.63327823e-05 0.00334764109 -0.0465631858 0.0124946618 0.0256327409 -0.0571783744 0.0124976011 0.0160133429 -0.0524912067 0.00246089906 0.0217683855 -0.0465631858 0.0124946618 0.0256327409 -0.0421193615 0.0121999998 0.0275288448 -0.0358374417 0.0124977445 0.0289986897 -0.0231651329 0.012512696 0.0272828359 -0.0358374417 0.0124977445 0.0289986897 -0.0302205831 0.00340587902 0.0290924162 -0.00680284807 0.0124802236 0.0129862651 -0.0180472583 0.0125179058 0.0248446465 -0.0113962917 0.00482308585 0.0193183944 -0.0016939874 0.0104279872 -0.00221335678 -0.00349287875 0.00633518724 0.00823857542 5.12573934e-05 0.00600821665 0.000810331956 2.53660182e-05 -0.00158850092 0.0055627143 5.12573934e-05 0.00600821665 0.000810331956 -0.00349287875 0.00633518724 0.00823857542 2.53660182e-05 -0.00158850092 0.0055627143 -0.00349287875 0.00633518724 0.00823857542 -0.0055328696 -0.0041012587 0.00988367852 2.53660182e-05 -0.00158850092 0.0055627143 -0.0055328696 -0.0041012587 0.00988367852 -0.00752543798 -0.00328017352 0.0056923544 3.63525214e-05 -0.00595696829 0.00114108191 -0.00363342953 -0.0105111841 9.40214304e-05 -0.000906936184 -0.00564299151 -0.00848233886 3.63525214e-05 -0.00595696829 0.00114108191 2.53660182e-05 -0.00158850092 0.0055627143 -0.00363342953 -0.0105111841 9.40214304e-05 2.53660182e-05 -0.00158850092 0.0055627143 -0.0055328696 -0.0041012587 0.00988367852 -0.00363342953 -0.0105111841 9.40214304e-05 -0.000954273099 0.00245220331 -0.00967951026 -0.000906936184 -0.00564299151 -0.00848233886 -0.00539898127 -0.00698802806 -0.00973123405 -0.0397400446 0.0295000002 -0.0184773467 -0.0410556309 0.0195000004 -0.018534787 -0.0395803936 0.0195000004 -0.0221339073 -0.0408959836 0.0295000002 -0.0221913476 -0.0397400446 0.0295000002 -0.0184773467 -0.0395803936 0.0195000004 -0.0221339073 -0.0408959836 0.0295000002 -0.0221913476 -0.0395803936 0.0195000004 -0.0221339073 -0.0410556309 0.0195000004 -0.018534787 -0.0408959836 0.0295000002 -0.0221913476 -0.0410556309 0.0195000004 -0.018534787 -0.0397400446 0.0295000002 -0.0184773467 -0.0272638574 0.026731832 0.0189505387 -0.030462373 0.0246452857 0.0218490344 -0.0254267044 0.0263118464 0.0214624554 -0.0245198701 0.0301859751 -0.00248892303 -0.0284430254 0.0302330181 0.00759453001 -0.038107574 0.0302008633 0.00613931939 -0.0553172566 -0.00749981171 -0.0146498047 -0.0595912486 -0.0063828174 0.00389814982 -0.0400820971 -0.00628649071 -0.0255044624 -0.00809120387 -0.00630593766 0.00673720567 -0.0149231944 -0.00712449662 0.0188369844 -0.0553172566 -0.00749981171 -0.0146498047 -0.00725470437 -0.00667302823 -0.004609711 -0.00809120387 -0.00630593766 0.00673720567 -0.0553172566 -0.00749981171 -0.0146498047 -0.0393562838 -0.00650329283 0.0270857271 -0.0595912486 -0.0063828174 0.00389814982 -0.0553172566 -0.00749981171 -0.0146498047 -0.0203279331 -0.00666799536 -0.023007676 -0.00725470437 -0.00667302823 -0.004609711 -0.0553172566 -0.00749981171 -0.0146498047 -0.0393308997 -0.00749999983 -0.0171414912 -0.0553172566 -0.00749981171 -0.0146498047 -0.0322534032 -0.00749999983 0.0185817108 -0.0393562838 -0.00650329283 0.0270857271 -0.0553172566 -0.00749981171 -0.0146498047 -0.0149231944 -0.00712449662 0.0188369844 -0.0534980036 -0.00587530667 0.0162030347 -0.0424871296 -0.00152507715 0.0245265495 -0.0493127927 0.0140351281 0.0204876978 -0.0573263504 0.000730813015 0.0101466384 -0.0534980036 -0.00587530667 0.0162030347 -0.0493127927 0.0140351281 0.0204876978 -0.0308000129 -0.00601768261 0.025983382 -0.0330647454 0.0140867792 0.0261496399 -0.0424871296 -0.00152507715 0.0245265495 -0.0202286802 0.00698139472 0.0229113549 -0.0330647454 0.0140867792 0.0261496399 -0.0308000129 -0.00601768261 0.025983382 -0.0150242848 -0.00322175398 0.018935062 -0.00930896867 -0.00380337751 0.0113783618 -0.00718552014 0.00409645867 0.00357025606 -0.0150242848 -0.00322175398 0.018935062 -0.0202286802 0.00698139472 0.0229113549 -0.0308000129 -0.00601768261 0.025983382 -0.0234631244 0.0323999971 -0.021956563 -0.0193376299 0.0323999971 -0.0187908076 -0.0193376299 0.0229999982 -0.0187908076 -0.0234631244 0.0229999982 -0.021956563 -0.0234631244 0.0323999971 -0.021956563 -0.0193376299 0.0229999982 -0.0187908076 -0.0289948303 0.0323999971 -0.0147010172 -0.0234631244 0.0323999971 -0.021956563 -0.0234631244 0.0229999982 -0.021956563 -0.0286833458 0.0229999982 -0.0151528595 -0.0289948303 0.0323999971 -0.0147010172 -0.0234631244 0.0229999982 -0.021956563 -0.0251334682 0.0323999971 -0.0113708293 -0.0234631244 0.0323999971 -0.021956563 -0.0289948303 0.0323999971 -0.0147010172 -0.0251334682 0.0323999971 -0.0113708293 -0.0193376299 0.0323999971 -0.0187908076 -0.0234631244 0.0323999971 -0.021956563 -0.0255801622 0.0229999982 -0.0108799497 -0.0193376299 0.0323999971 -0.0187908076 -0.0251334682 0.0323999971 -0.0113708293 -0.0255801622 0.0229999982 -0.0108799497 -0.0193376299 0.0229999982 -0.0187908076 -0.0193376299 0.0323999971 -0.0187908076 -0.0255801622 0.0229999982 -0.0108799497 -0.0289948303 0.0323999971 -0.0147010172 -0.0286833458 0.0229999982 -0.0151528595 -0.0255801622 0.0229999982 -0.0108799497 -0.0251334682 0.0323999971 -0.0113708293 -0.0289948303 0.0323999971 -0.0147010172 -0.0356206335 0.0259803273 0.0227309074 -0.0318323448 0.0259609371 0.0177938361 -0.0409004278 0.0259999968 0.0108357696 -0.0446887128 0.0259999968 0.0157728326 -0.0356206335 0.0259803273 0.0227309074 -0.0409004278 0.0259999968 0.0108357696 -0.0138164954 0.0265955012 -0.00446385331 -0.0135112461 0.0229999982 0.002526392 -0.0135112451 0.0279999971 0.00252639153 -0.0098203076 0.0271830019 -0.004638365 -0.0135112451 0.0279999971 0.00252639153 -0.00951505359 0.026293179 0.00235188962 -0.0098203076 0.0271830019 -0.004638365 -0.0138164954 0.0265955012 -0.00446385331 -0.0135112451 0.0279999971 0.00252639153 -0.00951505359 0.026293179 0.00235188962 -0.0135112451 0.0279999971 0.00252639153 -0.0135112461 0.0229999982 0.002526392 -0.0192527119 0.026970949 0.00272340723 -0.0152565194 0.026293179 0.00254890509 -0.0155617725 0.0279999971 -0.00444135023 -0.0195579641 0.026293179 -0.00426683761 -0.0192527119 0.026970949 0.00272340723 -0.0155617725 0.0279999971 -0.00444135023 -0.0155617725 0.0229999982 -0.00444135023 -0.0155617725 0.0279999971 -0.00444135023 -0.0152565194 0.026293179 0.00254890509 -0.0155617725 0.0229999982 -0.00444135023 -0.0195579641 0.026293179 -0.00426683761 -0.0155617725 0.0279999971 -0.00444135023 -0.0183856301 0.0323999971 -0.0180605296 -0.0142601375 0.0323999971 -0.0148947723 -0.0142601375 0.0229999982 -0.0148947723 -0.0183856301 0.0229999982 -0.0180605296 -0.0183856301 0.0323999971 -0.0180605296 -0.0142601375 0.0229999982 -0.0148947723 -0.0239173379 0.0323999971 -0.0108049801 -0.0183856301 0.0323999971 -0.0180605296 -0.0183856301 0.0229999982 -0.0180605296 -0.0236058533 0.0229999982 -0.0112568252 -0.0239173379 0.0323999971 -0.0108049801 -0.0183856301 0.0229999982 -0.0180605296 -0.020055972 0.0323999971 -0.00747479405 -0.0183856301 0.0323999971 -0.0180605296 -0.0239173379 0.0323999971 -0.0108049801 -0.020055972 0.0323999971 -0.00747479405 -0.0142601375 0.0323999971 -0.0148947723 -0.0183856301 0.0323999971 -0.0180605296 -0.020502666 0.0229999982 -0.00698391488 -0.0142601375 0.0323999971 -0.0148947723 -0.020055972 0.0323999971 -0.00747479405 -0.020502666 0.0229999982 -0.00698391488 -0.0142601375 0.0229999982 -0.0148947723 -0.0142601375 0.0323999971 -0.0148947723 -0.020502666 0.0229999982 -0.00698391488 -0.0239173379 0.0323999971 -0.0108049801 -0.0236058533 0.0229999982 -0.0112568252 -0.020502666 0.0229999982 -0.00698391488 -0.020055972 0.0323999971 -0.00747479405 -0.0239173379 0.0323999971 -0.0108049801 -0.033619944 -0.0259997156 0.00702581182 -0.0303954668 -0.0259999782 0.00664840033 -0.0304777622 0.0308352616 0.00664423918 -0.0383207016 -0.0260000005 0.00462521613 -0.0362067074 -0.0259997156 0.00628198776 -0.0383165739 0.0305705611 0.00462713931 -0.0396632291 0.0304869283 0.00229751179 -0.0383207016 -0.0260000005 0.00462521613 -0.0383165739 0.0305705611 0.00462713931 -0.0396659039 -0.0260000005 0.00229525543 -0.0383207016 -0.0260000005 0.00462521613 -0.0396632291 0.0304869283 0.00229751179 -0.0400431678 -0.0259997156 -0.000374370487 -0.0396659039 -0.0260000005 0.00229525543 -0.0396632291 0.0304869283 0.00229751179 -0.0323855504 -0.0260000005 -0.00702317245 -0.0350840315 -0.0259996634 -0.00674350373 -0.0323877297 0.0271499995 -0.00699826796 -0.0298039187 0.0304993875 -0.00628186436 -0.0323855504 -0.0260000005 -0.00702317245 -0.0323877297 0.0271499995 -0.00699826796 -0.0297993664 -0.0260000005 -0.00628159614 -0.0323855504 -0.0260000005 -0.00702317245 -0.0298039187 0.0304993875 -0.00628186436 -0.0276735108 -0.0259997156 -0.0046232962 -0.0297993664 -0.0260000005 -0.00628159614 -0.0298039187 0.0304993875 -0.00628186436 -0.0393817984 -0.0259965062 -0.00301086367 -0.0357732996 0.0302999988 -0.0063781552 -0.0375077538 -0.0259998199 -0.00551671395 -0.0396672785 0.0302999988 -0.00166233967 -0.0393817984 -0.0259965062 -0.00301086367 -0.0400431678 -0.0259997156 -0.000374370487 -0.0396672785 0.0302999988 -0.00166233967 -0.0400431678 -0.0259997156 -0.000374370487 -0.0396632291 0.0304869283 0.00229751179 -0.0348940119 0.0302999988 0.00660520419 -0.0383165739 0.0305705611 0.00462713931 -0.0362067074 -0.0259997156 0.00628198776 -0.0348940119 0.0302999988 0.00660520419 -0.0362067074 -0.0259997156 0.00628198776 -0.033619944 -0.0259997156 0.00702581182 -0.0348940119 0.0302999988 0.00660520419 -0.033619944 -0.0259997156 0.00702581182 -0.0304777622 0.0308352616 0.00664423918 -0.0281922426 -0.0259997975 0.00516001787 -0.0304777622 0.0308352616 0.00664423918 -0.0303954668 -0.0259999782 0.00664840033 -0.0266099274 -0.0259997156 0.00298551819 -0.0304777622 0.0308352616 0.00664423918 -0.0281922426 -0.0259997975 0.00516001787 -0.0255788919 0.0311770327 -0.00148452341 -0.0304777622 0.0308352616 0.00664423918 -0.0266099274 -0.0259997156 0.00298551819 -0.0259568319 -0.0259997156 0.000374370633 -0.0255788919 0.0311770327 -0.00148452341 -0.0266099274 -0.0259997156 0.00298551819 -0.0259568319 -0.0259997156 0.000374370633 -0.0263294503 -0.0259997156 -0.00229131291 -0.0255788919 0.0311770327 -0.00148452341 -0.0255788919 0.0311770327 -0.00148452341 -0.0263294503 -0.0259997156 -0.00229131291 -0.0276735108 -0.0259997156 -0.0046232962 -0.0255788919 0.0311770327 -0.00148452341 -0.0276735108 -0.0259997156 -0.0046232962 -0.0298039187 0.0304993875 -0.00628186436 -0.0357732996 0.0302999988 -0.0063781552 -0.0323877297 0.0271499995 -0.00699826796 -0.0350840315 -0.0259996634 -0.00674350373 -0.0375077538 -0.0259998199 -0.00551671395 -0.0357732996 0.0302999988 -0.0063781552 -0.0350840315 -0.0259996634 -0.00674350373 -0.0348940119 0.0302999988 0.00660520419 -0.0304777622 0.0308352616 0.00664423918 -0.0383165739 0.0305705611 0.00462713931 -0.0396672785 0.0302999988 -0.00166233967 -0.0396632291 0.0304869283 0.00229751179 -0.0389811061 0.0303480644 0.000565249298 -0.0396672785 0.0302999988 -0.00166233967 -0.0389811061 0.0303480644 0.000565249298 -0.0393817984 -0.0259965062 -0.00301086367 -0.0393817984 -0.0259965062 -0.00301086367 -0.0389811061 0.0303480644 0.000565249298 -0.0298039187 0.0304993875 -0.00628186436 -0.0393817984 -0.0259965062 -0.00301086367 -0.0298039187 0.0304993875 -0.00628186436 -0.0357732996 0.0302999988 -0.0063781552 -0.0357732996 0.0302999988 -0.0063781552 -0.0298039187 0.0304993875 -0.00628186436 -0.0323877297 0.0271499995 -0.00699826796 -0.0255788919 0.0311770327 -0.00148452341 -0.0298039187 0.0304993875 -0.00628186436 -0.0271841213 0.0304323528 -0.00172850292 -0.0255788919 0.0311770327 -0.00148452341 -0.0271841213 0.0304323528 -0.00172850292 -0.0304777622 0.0308352616 0.00664423918 -0.0383857451 -0.0275700875 -0.0027909982 -0.035229817 -0.0166100599 -0.00574434362 -0.0389811061 0.0303480644 0.000565249298 -0.0396632291 0.0304869283 0.00229751179 -0.0386104994 0.0013500005 0.00211917097 -0.0389811061 0.0303480644 0.000565249298 -0.0396632291 0.0304869283 0.00229751179 -0.0383165739 0.0305705611 0.00462713931 -0.0386104994 0.0013500005 0.00211917097 -0.0383165739 0.0305705611 0.00462713931 -0.0376966298 0.00851250067 0.00373069895 -0.0386104994 0.0013500005 0.00211917097 -0.0383165739 0.0305705611 0.00462713931 -0.0328601226 0.0013500005 0.00595082063 -0.0354487821 -0.0274427868 0.00550881727 -0.0383165739 0.0305705611 0.00462713931 -0.0354487821 -0.0274427868 0.00550881727 -0.0366237424 0.0013500005 0.00478210021 -0.0383165739 0.0305705611 0.00462713931 -0.0366237424 0.0013500005 0.00478210021 -0.0376966298 0.00851250067 0.00373069895 -0.0383165739 0.0305705611 0.00462713931 -0.0304777622 0.0308352616 0.00664423918 -0.0328601226 0.0013500005 0.00595082063 -0.0304777622 0.0308352616 0.00664423918 -0.0304771047 -0.0266817771 0.0054948004 -0.0328601226 0.0013500005 0.00595082063 -0.0304777622 0.0308352616 0.00664423918 -0.0278589875 -0.0113983341 0.00325428508 -0.0304771047 -0.0266817771 0.0054948004 -0.0304777622 0.0308352616 0.00664423918 -0.0271841213 0.0304323528 -0.00172850292 -0.0278589875 -0.0113983341 0.00325428508 -0.0270402823 -0.0129749998 0.000644640182 -0.0278589875 -0.0113983341 0.00325428508 -0.0271841213 0.0304323528 -0.00172850292 -0.0298039187 0.0304993875 -0.00628186436 -0.0322282836 -0.0270249508 -0.00596302235 -0.0295097325 -0.0275011845 -0.00488999067 -0.0298039187 0.0304993875 -0.00628186436 -0.0295097325 -0.0275011845 -0.00488999067 -0.0271841213 0.0304323528 -0.00172850292 -0.0278037898 -0.0233027171 -0.00312783336 -0.0271841213 0.0304323528 -0.00172850292 -0.0295097325 -0.0275011845 -0.00488999067 -0.0298039187 0.0304993875 -0.00628186436 -0.035229817 -0.0166100599 -0.00574434362 -0.0322282836 -0.0270249508 -0.00596302235 -0.0298039187 0.0304993875 -0.00628186436 -0.0389811061 0.0303480644 0.000565249298 -0.035229817 -0.0166100599 -0.00574434362 -0.0243660901 -0.0283128694 -0.0185027346 -0.0322282836 -0.0270249508 -0.00596302235 -0.0383857451 -0.0275700875 -0.0027909982 -0.0243660901 -0.0283128694 -0.0185027346 -0.0383857451 -0.0275700875 -0.0027909982 -0.0354487821 -0.0274427868 0.00550881727 -0.0243660901 -0.0283128694 -0.0185027346 -0.0354487821 -0.0274427868 0.00550881727 -0.0304771047 -0.0266817771 0.0054948004 -0.0304771047 -0.0266817771 0.0054948004 -0.0354487821 -0.0274427868 0.00550881727 -0.0328601226 0.0013500005 0.00595082063 -0.0366237424 0.0013500005 0.00478210021 -0.0354487821 -0.0274427868 0.00550881727 -0.0376966298 0.00851250067 0.00373069895 -0.0354487821 -0.0274427868 0.00550881727 -0.0386104994 0.0013500005 0.00211917097 -0.0376966298 0.00851250067 0.00373069895 -0.0354487821 -0.0274427868 0.00550881727 -0.0383857451 -0.0275700875 -0.0027909982 -0.0389811061 0.0303480644 0.000565249298 -0.0354487821 -0.0274427868 0.00550881727 -0.0389811061 0.0303480644 0.000565249298 -0.0386104994 0.0013500005 0.00211917097 -0.0322282836 -0.0270249508 -0.00596302235 -0.035229817 -0.0166100599 -0.00574434362 -0.0383857451 -0.0275700875 -0.0027909982 -0.0243660901 -0.0283128694 -0.0185027346 -0.0304771047 -0.0266817771 0.0054948004 -0.0295097325 -0.0275011845 -0.00488999067 -0.0243660901 -0.0283128694 -0.0185027346 -0.0295097325 -0.0275011845 -0.00488999067 -0.0322282836 -0.0270249508 -0.00596302235 -0.0270402823 -0.0129749998 0.000644640182 -0.0304771047 -0.0266817771 0.0054948004 -0.0278589875 -0.0113983341 0.00325428508 -0.0270402823 -0.0129749998 0.000644640182 -0.0271841213 0.0304323528 -0.00172850292 -0.0304771047 -0.0266817771 0.0054948004 -0.0295097325 -0.0275011845 -0.00488999067 -0.0304771047 -0.0266817771 0.0054948004 -0.0271841213 0.0304323528 -0.00172850292 -0.0433111191 -0.0283136703 -0.0177806038 -0.0243660901 -0.0283128694 -0.0185027346 -0.0264551416 -0.0283303801 0.0188325439 -0.0531363599 -0.0284686107 -0.00428005308 -0.0433111191 -0.0283136703 -0.0177806038 -0.0264551416 -0.0283303801 0.0188325439 -0.0147443153 -0.0283329114 -0.00925923139 -0.0264551416 -0.0283303801 0.0188325439 -0.0243660901 -0.0283128694 -0.0185027346 -0.0194124598 -0.0284682307 0.0153098209 -0.0264551416 -0.0283303801 0.0188325439 -0.0147443153 -0.0283329114 -0.00925923139 -0.0285565518 -0.025547402 -0.0196434148 -0.0197383612 -0.0255211946 -0.0148867313 -0.0243205745 -0.0283624995 -0.015666727 -0.0328351147 -0.0281505529 -0.0197818279 -0.0243660901 -0.0283128694 -0.0185027346 -0.0433111191 -0.0283136703 -0.0177806038 -0.0505376048 -0.0273960177 0.0101127727 -0.0264551416 -0.0283303801 0.0188325439 -0.0428474098 -0.0283802208 0.0174589939 -0.0334087349 -0.0284331515 0.0201428328 -0.0428474098 -0.0283802208 0.0174589939 -0.0264551416 -0.0283303801 0.0188325439 -0.0128513966 -0.0284110848 0.00215166202 -0.0194124598 -0.0284682307 0.0153098209 -0.0147443153 -0.0283329114 -0.00925923139 -0.0505376048 -0.0273960177 0.0101127727 -0.0531363599 -0.0284686107 -0.00428005308 -0.0264551416 -0.0283303801 0.0188325439 -0.0202255901 -0.0254681967 0.0151266465 -0.0264551416 -0.0283303801 0.0188325439 -0.0194124598 -0.0284682307 0.0153098209 -0.0141354455 -0.0269847922 -0.00705621345 -0.0128513966 -0.0284110848 0.00215166202 -0.0147443153 -0.0283329114 -0.00925923139 -0.012551453 -0.0201075803 -0.00352108199 -0.0151583916 -0.0255317055 0.00120953436 -0.016033547 -0.0200475734 0.011005979 -0.012551453 -0.0201075803 -0.00352108199 -0.0147443153 -0.0283329114 -0.00925923139 -0.0151583916 -0.0255317055 0.00120953436 -0.016033547 -0.0200475734 0.011005979 -0.0151583916 -0.0255317055 0.00120953436 -0.0202255901 -0.0254681967 0.0151266465 -0.0327448435 -0.0255435072 0.0198591743 -0.0500441268 -0.0255388636 0.0121541508 -0.0409914851 -0.0200509317 0.0188413896 -0.0260779951 -0.0200492796 0.0190022439 -0.0202255901 -0.0254681967 0.0151266465 -0.0327448435 -0.0255435072 0.0198591743 -0.0260779951 -0.0200492796 0.0190022439 -0.016033547 -0.0200475734 0.011005979 -0.0202255901 -0.0254681967 0.0151266465 -0.0260779951 -0.0200492796 0.0190022439 -0.0327448435 -0.0255435072 0.0198591743 -0.0409914851 -0.0200509317 0.0188413896 -0.0514212139 -0.0200376529 0.00749848224 -0.0409914851 -0.0200509317 0.0188413896 -0.0500441268 -0.0255388636 0.0121541508 -0.0447998717 -0.0253441315 -0.0160087124 -0.0285565518 -0.025547402 -0.0196434148 -0.0328351147 -0.0281505529 -0.0197818279 -0.0447998717 -0.0253441315 -0.0160087124 -0.0197383612 -0.0255211946 -0.0148867313 -0.0285565518 -0.025547402 -0.0196434148 -0.0527951233 -0.0201455615 -0.00580047956 -0.0514212139 -0.0200376529 0.00749848224 -0.0500441268 -0.0255388636 0.0121541508 -0.0464796014 -0.0199999996 -0.0147749903 -0.0527951233 -0.0201455615 -0.00580047956 -0.0447998717 -0.0253441315 -0.0160087124 -0.0367333032 -0.020072313 -0.0201885328 -0.0464796014 -0.0199999996 -0.0147749903 -0.0447998717 -0.0253441315 -0.0160087124 -0.0228478033 -0.0200320855 -0.0174980722 -0.0367333032 -0.020072313 -0.0201885328 -0.0285565518 -0.025547402 -0.0196434148 -0.0228478033 -0.0200320855 -0.0174980722 -0.0197383612 -0.0255211946 -0.0148867313 -0.012551453 -0.0201075803 -0.00352108199 -0.012551453 -0.0201075803 -0.00352108199 -0.0197383612 -0.0255211946 -0.0148867313 -0.0147443153 -0.0283329114 -0.00925923139 -0.0504883602 -0.0255642086 -0.00327033829 -0.0527951233 -0.0201455615 -0.00580047956 -0.0500441268 -0.0255388636 0.0121541508 -0.0504883602 -0.0255642086 -0.00327033829 -0.0447998717 -0.0253441315 -0.0160087124 -0.0527951233 -0.0201455615 -0.00580047956 -0.0228478033 -0.0200320855 -0.0174980722 -0.0285565518 -0.025547402 -0.0196434148 -0.0197383612 -0.0255211946 -0.0148867313 -0.0367333032 -0.020072313 -0.0201885328 -0.0447998717 -0.0253441315 -0.0160087124 -0.0285565518 -0.025547402 -0.0196434148 -0.0539154857 -0.0211637486 -0.00590017065 -0.0514876731 -0.0194724724 -0.0117490971 -0.0546887554 -0.0195006486 0.000708865176 -0.0507011488 -0.019496128 0.0126372054 -0.0535935834 -0.0215089247 0.00887304079 -0.0546887554 -0.0195006486 0.000708865176 -0.0555188358 -0.00764559628 0.0129964948 -0.0575842112 -0.0144227976 0.00846285 -0.0555157922 -0.0214876942 0.0130013349 -0.0526238456 -0.0144227976 0.0170560293 -0.0555188358 -0.00764559628 0.0129964948 -0.0555157922 -0.0214876942 0.0130013349 -0.0466518551 -0.00759921456 0.0222539566 -0.0526238456 -0.0144227976 0.0170560293 -0.0490066893 -0.0214375649 0.0204815678 -0.042352546 -0.0213662256 0.0244143941 -0.0466518551 -0.00759921456 0.0222539566 -0.0490066893 -0.0214375649 0.0204815678 -0.0504866056 -0.0115820542 -0.0192522835 -0.0442703441 -0.0211145468 -0.0236373693 -0.0548572987 -0.0212981869 -0.0142108724 -0.0587725379 -0.0212529507 0.00348032545 -0.0586647093 -0.0107183624 -0.00541414926 -0.0548572987 -0.0212981869 -0.0142108724 -0.0587725379 -0.0212529507 0.00348032545 -0.0555157922 -0.0214876942 0.0130013349 -0.0575842112 -0.0144227976 0.00846285 -0.0490066893 -0.0214375649 0.0204815678 -0.0526238456 -0.0144227976 0.0170560293 -0.0555157922 -0.0214876942 0.0130013349 -0.0324984789 -0.0204380117 0.0261187572 -0.0222070683 -0.0214057937 0.0187201649 -0.0219577868 -0.0180296544 0.0237227678 -0.0587725379 -0.0212529507 0.00348032545 -0.0535935834 -0.0215089247 0.00887304079 -0.0555157922 -0.0214876942 0.0130013349 -0.0548572987 -0.0212981869 -0.0142108724 -0.0442703441 -0.0211145468 -0.0236373693 -0.0514876731 -0.0194724724 -0.0117490971 -0.0587725379 -0.0212529507 0.00348032545 -0.0548572987 -0.0212981869 -0.0142108724 -0.0539154857 -0.0211637486 -0.00590017065 -0.0587725379 -0.0212529507 0.00348032545 -0.0539154857 -0.0211637486 -0.00590017065 -0.0546887554 -0.0195006486 0.000708865176 -0.0490066893 -0.0214375649 0.0204815678 -0.0555157922 -0.0214876942 0.0130013349 -0.0535935834 -0.0215089247 0.00887304079 -0.040540956 -0.0195008162 0.0204846896 -0.042352546 -0.0213662256 0.0244143941 -0.0490066893 -0.0214375649 0.0204815678 -0.0490066893 -0.0214375649 0.0204815678 -0.0535935834 -0.0215089247 0.00887304079 -0.0507011488 -0.019496128 0.0126372054 -0.0426309928 -0.019571295 -0.0193560775 -0.0514876731 -0.0194724724 -0.0117490971 -0.0442703441 -0.0211145468 -0.0236373693 -0.00928070769 -0.0101220347 0.0111575248 -0.015307432 -0.0141833005 0.0190530829 -0.0121353809 -0.0214468278 0.0154920146 -0.00908094924 -0.0214730073 0.010265586 -0.00928070769 -0.0101220347 0.0111575248 -0.0121353809 -0.0214468278 0.0154920146 -0.00703563355 -0.021488633 0.0013591554 -0.00711729005 -0.00759921223 0.00342008122 -0.00928070769 -0.0101220347 0.0111575248 -0.00725267781 -0.0144227976 -0.00361646852 -0.00711729005 -0.00759921223 0.00342008122 -0.00703563355 -0.021488633 0.0013591554 -0.013385281 -0.0214944575 -0.0170664452 -0.00911042187 -0.0102028772 -0.0106212758 -0.0104502235 -0.0215632301 -0.0129076177 -0.0153527334 -0.00759920944 -0.019240208 -0.00911042187 -0.0102028772 -0.0106212758 -0.013385281 -0.0214944575 -0.0170664452 -0.0170165841 -0.0214532111 -0.0205011331 -0.0153527334 -0.00759920944 -0.019240208 -0.013385281 -0.0214944575 -0.0170664452 -0.0234199241 -0.0119384471 -0.0243021585 -0.0153527334 -0.00759920944 -0.019240208 -0.0170165841 -0.0214532111 -0.0205011331 -0.0391349122 -0.00759350182 -0.0254086833 -0.0307318978 -0.0144227967 -0.0259009488 -0.0356772207 -0.0215143748 -0.025861213 -0.0391349122 -0.00759350182 -0.0254086833 -0.0356772207 -0.0215143748 -0.025861213 -0.0442703441 -0.0211145468 -0.0236373693 -0.0391349122 -0.00759350182 -0.0254086833 -0.0442703441 -0.0211145468 -0.0236373693 -0.0504866056 -0.0115820542 -0.0192522835 -0.015307432 -0.0141833005 0.0190530829 -0.0219577868 -0.0180296544 0.0237227678 -0.0222070683 -0.0214057937 0.0187201649 -0.0121353809 -0.0214468278 0.0154920146 -0.015307432 -0.0141833005 0.0190530829 -0.0222070683 -0.0214057937 0.0187201649 -0.00703563355 -0.021488633 0.0013591554 -0.00928070769 -0.0101220347 0.0111575248 -0.00908094924 -0.0214730073 0.010265586 -0.0104502235 -0.0215632301 -0.0129076177 -0.00725267781 -0.0144227976 -0.00361646852 -0.00703563355 -0.021488633 0.0013591554 -0.0104502235 -0.0215632301 -0.0129076177 -0.00911042187 -0.0102028772 -0.0106212758 -0.00725267781 -0.0144227976 -0.00361646852 -0.0356772207 -0.0215143748 -0.025861213 -0.0234199241 -0.0119384471 -0.0243021585 -0.0170165841 -0.0214532111 -0.0205011331 -0.0356772207 -0.0215143748 -0.025861213 -0.0307318978 -0.0144227967 -0.0259009488 -0.0234199241 -0.0119384471 -0.0243021585 -0.0161819793 -0.0194834284 0.0136077106 -0.0121353809 -0.0214468278 0.0154920146 -0.0222070683 -0.0214057937 0.0187201649 -0.0141224638 -0.021464752 -0.0103771649 -0.00908094924 -0.0214730073 0.010265586 -0.011529766 -0.0194816068 -0.00179546443 -0.0174494274 -0.0191076677 -0.0154008605 -0.0170165841 -0.0214532111 -0.0205011331 -0.013385281 -0.0214944575 -0.0170664452 -0.0288661141 -0.0213968754 -0.0230270401 -0.0170165841 -0.0214532111 -0.0205011331 -0.0310931634 -0.0194776617 -0.0217182431 -0.0360758007 -0.0200622454 -0.0230463576 -0.0356772207 -0.0215143748 -0.025861213 -0.0288661141 -0.0213968754 -0.0230270401 -0.0120348372 -0.0198784024 0.00543663977 -0.00908094924 -0.0214730073 0.010265586 -0.00953759346 -0.00300293835 0.00620095851 -0.0120348372 -0.0198784024 0.00543663977 -0.00908094924 -0.0214730073 0.010265586 -0.0121353809 -0.0214468278 0.0154920146 -0.0141224638 -0.021464752 -0.0103771649 -0.00703563355 -0.021488633 0.0013591554 -0.00908094924 -0.0214730073 0.010265586 -0.0356772207 -0.0215143748 -0.025861213 -0.0426309928 -0.019571295 -0.0193560775 -0.0442703441 -0.0211145468 -0.0236373693 -0.0141224638 -0.021464752 -0.0103771649 -0.013385281 -0.0214944575 -0.0170664452 -0.0104502235 -0.0215632301 -0.0129076177 -0.0141224638 -0.021464752 -0.0103771649 -0.0104502235 -0.0215632301 -0.0129076177 -0.00703563355 -0.021488633 0.0013591554 -0.0288661141 -0.0213968754 -0.0230270401 -0.0356772207 -0.0215143748 -0.025861213 -0.0170165841 -0.0214532111 -0.0205011331 -0.0360758007 -0.0200622454 -0.0230463576 -0.0426309928 -0.019571295 -0.0193560775 -0.0356772207 -0.0215143748 -0.025861213 -0.0174494274 -0.0191076677 -0.0154008605 -0.013385281 -0.0214944575 -0.0170664452 -0.0141224638 -0.021464752 -0.0103771649 -0.0128366798 -0.00778876757 -0.0109691564 -0.0141224638 -0.021464752 -0.0103771649 -0.0104502235 -0.0215632301 -0.0129076177 -0.0174494274 -0.0191076677 -0.0154008605 -0.0141224638 -0.021464752 -0.0103771649 -0.011529766 -0.0194816068 -0.00179546443 -0.0166021325 -0.0195000004 0.00672312779 -0.011529766 -0.0194816068 -0.00179546443 -0.0120348372 -0.0198784024 0.00543663977 -0.0356845707 -0.0195000004 -0.0177078843 -0.0426309928 -0.019571295 -0.0193560775 -0.0310931634 -0.0194776617 -0.0217182431 -0.0504281893 -0.0195149165 0.000243570787 -0.0546887554 -0.0195006486 0.000708865176 -0.0514876731 -0.0194724724 -0.0117490971 -0.0387730114 -0.0195000004 0.0169290826 -0.0161819793 -0.0194834284 0.0136077106 -0.0292361174 -0.0194549803 0.0213024803 -0.0387730114 -0.0195000004 0.0169290826 -0.0166021325 -0.0195000004 0.00672312779 -0.0161819793 -0.0194834284 0.0136077106 -0.023578044 -0.0194742065 -0.0195266698 -0.0174494274 -0.0191076677 -0.0154008605 -0.011529766 -0.0194816068 -0.00179546443 -0.0504281893 -0.0195149165 0.000243570787 -0.0426309928 -0.019571295 -0.0193560775 -0.0356845707 -0.0195000004 -0.0177078843 -0.0504281893 -0.0195149165 0.000243570787 -0.0514876731 -0.0194724724 -0.0117490971 -0.0426309928 -0.019571295 -0.0193560775 -0.0387730114 -0.0195000004 0.0169290826 -0.0507011488 -0.019496128 0.0126372054 -0.0504281893 -0.0195149165 0.000243570787 -0.0166021325 -0.0195000004 0.00672312779 -0.0120348372 -0.0198784024 0.00543663977 -0.0161819793 -0.0194834284 0.0136077106 -0.023578044 -0.0194742065 -0.0195266698 -0.011529766 -0.0194816068 -0.00179546443 -0.0356845707 -0.0195000004 -0.0177078843 -0.023578044 -0.0194742065 -0.0195266698 -0.0356845707 -0.0195000004 -0.0177078843 -0.0310931634 -0.0194776617 -0.0217182431 -0.0387730114 -0.0195000004 0.0169290826 -0.040540956 -0.0195008162 0.0204846896 -0.0507011488 -0.019496128 0.0126372054 -0.0387730114 -0.0195000004 0.0169290826 -0.0292361174 -0.0194549803 0.0213024803 -0.040540956 -0.0195008162 0.0204846896 -0.0504281893 -0.0195149165 0.000243570787 -0.0507011488 -0.019496128 0.0126372054 -0.0546887554 -0.0195006486 0.000708865176 -0.0292361174 -0.0194549803 0.0213024803 -0.0161819793 -0.0194834284 0.0136077106 -0.0222070683 -0.0214057937 0.0187201649 -0.0073834816 0.0294387639 -0.00444885576 -0.0087846797 0.029490903 -0.0096415421 -0.00700170873 0.029517727 0.000254927785 -0.0540768728 0.0295002442 -0.0153893959 -0.055543337 0.0294992551 -0.00133074762 -0.029773159 0.0295432676 -0.0126801683 -0.0590020828 0.0252237283 -0.000243482122 -0.055543337 0.0294992551 -0.00133074762 -0.0540768728 0.0295002442 -0.0153893959 -0.0547236055 0.0295007266 0.0142886285 -0.055543337 0.0294992551 -0.00133074762 -0.0590020828 0.0252237283 -0.000243482122 -0.0212027971 0.0294997338 0.0169455595 -0.029773159 0.0295432676 -0.0126801683 -0.055543337 0.0294992551 -0.00133074762 -0.0201736856 0.028878279 -0.0222198479 -0.0289669875 0.0293349773 -0.0257797223 -0.029773159 0.0295432676 -0.0126801683 -0.044669725 0.0295085032 -0.0232394058 -0.029773159 0.0295432676 -0.0126801683 -0.0289669875 0.0293349773 -0.0257797223 -0.019738216 0.0292529948 -0.00547145586 -0.0087846797 0.029490903 -0.0096415421 -0.0126258899 0.0281084217 -0.0162974242 -0.00862174574 0.0145640448 -0.00642695976 -0.00700170873 0.029517727 0.000254927785 -0.0087846797 0.029490903 -0.0096415421 -0.00862174574 0.0145640448 -0.00642695976 -0.0087846797 0.029490903 -0.0096415421 -0.019738216 0.0292529948 -0.00547145586 -0.00892136898 0.0294951312 0.00981005933 -0.0212027971 0.0294997338 0.0169455595 -0.0186392292 0.0290361904 0.0217536688 -0.03075937 0.0293243863 0.0248098094 -0.0212027971 0.0294997338 0.0169455595 -0.0240465011 0.0294098593 0.0244789105 -0.0318573825 0.0294712372 0.0260397084 -0.0212027971 0.0294997338 0.0169455595 -0.0547236055 0.0295007266 0.0142886285 -0.0318573825 0.0294712372 0.0260397084 -0.0240465011 0.0294098593 0.0244789105 -0.0212027971 0.0294997338 0.0169455595 -0.0212027971 0.0294997338 0.0169455595 -0.055543337 0.0294992551 -0.00133074762 -0.0547236055 0.0295007266 0.0142886285 -0.044669725 0.0295085032 -0.0232394058 -0.0540768728 0.0295002442 -0.0153893959 -0.029773159 0.0295432676 -0.0126801683 -0.0440687798 0.0216084793 0.0235261917 -0.0380700566 0.0163512919 0.0255671088 -0.0318573825 0.0294712372 0.0260397084 -0.0440687798 0.0216084793 0.0235261917 -0.0318573825 0.0294712372 0.0260397084 -0.0547236055 0.0295007266 0.0142886285 -0.0481415913 0.0216122754 0.0211360417 -0.0440687798 0.0216084793 0.0235261917 -0.0547236055 0.0295007266 0.0142886285 -0.0517149493 0.0216079131 0.0180485602 -0.0481415913 0.0216122754 0.0211360417 -0.0547236055 0.0295007266 0.0142886285 -0.0121582877 0.0175311938 0.0157245118 -0.00892136898 0.0294951312 0.00981005933 -0.0186392292 0.0290361904 0.0217536688 -0.0199703034 0.0154025387 -0.0226473436 -0.0289669875 0.0293349773 -0.0257797223 -0.0201736856 0.028878279 -0.0222198479 -0.0487661995 0.0216999985 -0.0206743069 -0.0540768728 0.0295002442 -0.0153893959 -0.044669725 0.0295085032 -0.0232394058 -0.0357479043 0.021610627 -0.0258543808 -0.0403790399 0.0216087997 -0.0249308851 -0.044669725 0.0295085032 -0.0232394058 -0.0357479043 0.021610627 -0.0258543808 -0.044669725 0.0295085032 -0.0232394058 -0.0289669875 0.0293349773 -0.0257797223 -0.0582119487 0.0175012704 0.00671818107 -0.0547236055 0.0295007266 0.0142886285 -0.0590020828 0.0252237283 -0.000243482122 -0.0580723733 0.0180614498 -0.00728286337 -0.0590020828 0.0252237283 -0.000243482122 -0.0540768728 0.0295002442 -0.0153893959 -0.00755069824 0.0285683051 0.00524852518 -0.00700170873 0.029517727 0.000254927785 -0.0079235239 0.014368332 0.00242567412 -0.0079235239 0.014368332 0.00242567412 -0.00700170873 0.029517727 0.000254927785 -0.00862174574 0.0145640448 -0.00642695976 -0.0446341522 0.0314754881 -0.00350467628 -0.029773159 0.0295432676 -0.0126801683 -0.0212027971 0.0294997338 0.0169455595 -0.0277553424 0.0314836763 0.0101717627 -0.00892136898 0.0294951312 0.00981005933 -0.019738216 0.0292529948 -0.00547145586 -0.0277553424 0.0314836763 0.0101717627 -0.0212027971 0.0294997338 0.0169455595 -0.00892136898 0.0294951312 0.00981005933 -0.0396424271 0.0314928442 0.0086957328 -0.0212027971 0.0294997338 0.0169455595 -0.0277553424 0.0314836763 0.0101717627 -0.0396424271 0.0314928442 0.0086957328 -0.0446341522 0.0314754881 -0.00350467628 -0.0212027971 0.0294997338 0.0169455595 -0.0546706319 0.0140246293 0.0143660791 -0.0547236055 0.0295007266 0.0142886285 -0.0582119487 0.0175012704 0.00671818107 -0.0546706319 0.0140246293 0.0143660791 -0.0517149493 0.0216079131 0.0180485602 -0.0547236055 0.0295007266 0.0142886285 -0.00806011818 0.0140023232 0.00768394023 -0.00892136898 0.0294951312 0.00981005933 -0.0121582877 0.0175311938 0.0157245118 -0.00806011818 0.0140023232 0.00768394023 -0.00755069824 0.0285683051 0.00524852518 -0.00892136898 0.0294951312 0.00981005933 -0.00700127752 0.0140147116 0.000255793828 -0.00755069824 0.0285683051 0.00524852518 -0.00806011818 0.0140023232 0.00768394023 -0.00700127752 0.0140147116 0.000255793828 -0.00700170873 0.029517727 0.000254927785 -0.00755069824 0.0285683051 0.00524852518 -0.00738368649 0.0142000001 -0.00445022294 -0.00700170873 0.029517727 0.000254927785 -0.00700127752 0.0140147116 0.000255793828 -0.00738368649 0.0142000001 -0.00445022294 -0.0073834816 0.0294387639 -0.00444885576 -0.00700170873 0.029517727 0.000254927785 -0.00881982688 0.0141002936 -0.00957765151 -0.0073834816 0.0294387639 -0.00444885576 -0.00738368649 0.0142000001 -0.00445022294 -0.00881982688 0.0141002936 -0.00957765151 -0.0087846797 0.029490903 -0.0096415421 -0.0073834816 0.0294387639 -0.00444885576 -0.00881982688 0.0141002936 -0.00957765151 -0.0126258899 0.0281084217 -0.0162974242 -0.0087846797 0.029490903 -0.0096415421 -0.0199703034 0.0154025387 -0.0226473436 -0.0201736856 0.028878279 -0.0222198479 -0.0126258899 0.0281084217 -0.0162974242 -0.0282478239 0.0140019124 -0.0256604329 -0.0289669875 0.0293349773 -0.0257797223 -0.0199703034 0.0154025387 -0.0226473436 -0.0282478239 0.0140019124 -0.0256604329 -0.0357479043 0.021610627 -0.0258543808 -0.0289669875 0.0293349773 -0.0257797223 -0.0448137186 0.013727393 -0.0231635161 -0.044669725 0.0295085032 -0.0232394058 -0.0403790399 0.0216087997 -0.0249308851 -0.0448137186 0.013727393 -0.0231635161 -0.0487661995 0.0216999985 -0.0206743069 -0.044669725 0.0295085032 -0.0232394058 -0.053574346 0.0139765562 -0.0160542578 -0.0540768728 0.0295002442 -0.0153893959 -0.0487661995 0.0216999985 -0.0206743069 -0.053574346 0.0139765562 -0.0160542578 -0.0580723733 0.0180614498 -0.00728286337 -0.0540768728 0.0295002442 -0.0153893959 -0.00881982688 0.0141002936 -0.00957765151 -0.00738368649 0.0142000001 -0.00445022294 -0.00700127752 0.0140147116 0.000255793828 -0.053574346 0.0139765562 -0.0160542578 -0.0487661995 0.0216999985 -0.0206743069 -0.0448137186 0.013727393 -0.0231635161 -0.0277553424 0.0314836763 0.0101717627 -0.019738216 0.0292529948 -0.00547145586 -0.029773159 0.0295432676 -0.0126801683 -0.0104869073 0.0143017266 0.0113052502 -0.00755069824 0.0285683051 0.00524852518 -0.0079235239 0.014368332 0.00242567412 -0.0159056522 0.0145002194 0.0185112283 -0.00755069824 0.0285683051 0.00524852518 -0.0104869073 0.0143017266 0.0113052502 -0.0255421363 0.0143015608 0.0243159514 -0.023597952 0.0267016608 0.0232431721 -0.0159056522 0.0145002194 0.0185112283 -0.0449213944 0.0279917531 0.0234345272 -0.03075937 0.0293243863 0.0248098094 -0.0349052623 0.0143009033 0.0250192247 -0.0527690202 0.0148000987 0.0155971032 -0.0563064441 0.0143007059 0.0093702618 -0.0569854081 0.0280000009 0.00661613606 -0.0438620932 0.0143068042 0.0229264684 -0.0527690202 0.0148000987 0.0155971032 -0.0449213944 0.0279917531 0.0234345272 -0.0438620932 0.0143068042 0.0229264684 -0.0449213944 0.0279917531 0.0234345272 -0.0349052623 0.0143009033 0.0250192247 -0.0396424271 0.0314928442 0.0086957328 -0.029773159 0.0295432676 -0.0126801683 -0.0446341522 0.0314754881 -0.00350467628 -0.0583613142 0.0145265264 -0.000227955708 -0.0545244627 0.0143014099 -0.0134178894 -0.0570517629 0.0273742098 -0.00661232369 -0.0221567545 0.0143059278 -0.0230110027 -0.0339418016 0.0273686834 -0.024919726 -0.0333911069 0.0143020442 -0.0251962114 -0.0221567545 0.0143059278 -0.0230110027 -0.0201736856 0.028878279 -0.0222198479 -0.0339418016 0.0273686834 -0.024919726 -0.0119141387 0.0147103667 -0.0140027758 -0.0126258899 0.0281084217 -0.0162974242 -0.0221567545 0.0143059278 -0.0230110027 -0.0221567545 0.0143059278 -0.0230110027 -0.0126258899 0.0281084217 -0.0162974242 -0.0201736856 0.028878279 -0.0222198479 -0.0401425511 0.0143006882 -0.0240556803 -0.0333911069 0.0143020442 -0.0251962114 -0.0339418016 0.0273686834 -0.024919726 -0.0492063947 0.0280000009 -0.0200765897 -0.0401425511 0.0143006882 -0.0240556803 -0.0339418016 0.0273686834 -0.024919726 -0.0463857055 0.0143008837 -0.0213461947 -0.0401425511 0.0143006882 -0.0240556803 -0.0492063947 0.0280000009 -0.0200765897 -0.0463857055 0.0143008837 -0.0213461947 -0.0492063947 0.0280000009 -0.0200765897 -0.0545244627 0.0143014099 -0.0134178894 -0.0492063947 0.0280000009 -0.0200765897 -0.0570517629 0.0273742098 -0.00661232369 -0.0545244627 0.0143014099 -0.0134178894 -0.0583613142 0.0145265264 -0.000227955708 -0.0569854081 0.0280000009 0.00661613606 -0.0563064441 0.0143007059 0.0093702618 -0.0255421363 0.0143015608 0.0243159514 -0.03075937 0.0293243863 0.0248098094 -0.023597952 0.0267016608 0.0232431721 -0.0349052623 0.0143009033 0.0250192247 -0.03075937 0.0293243863 0.0248098094 -0.0255421363 0.0143015608 0.0243159514 -0.0402772799 0.0229999982 0.0239316281 -0.0292339884 0.0229999982 0.00742308702 -0.0385252759 0.0229999982 0.00681221578 -0.0557239391 0.0229999982 0.0132653126 -0.0385252759 0.0229999982 0.00681221578 -0.0384456627 0.0229999982 -0.00900640618 -0.0205305982 0.0229974538 0.0220320635 -0.0292339884 0.0229999982 0.00742308702 -0.0402772799 0.0229999982 0.0239316281 -0.0163121615 0.0230295286 0.0172374528 -0.0292339884 0.0229999982 0.00742308702 -0.0205305982 0.0229974538 0.0220320635 -0.0557239391 0.0229999982 0.0132653126 -0.0402772799 0.0229999982 0.0239316281 -0.0385252759 0.0229999982 0.00681221578 -0.0465902239 0.0229999982 -0.0170529988 -0.0545745529 0.0229999982 -0.00514581706 -0.0557239391 0.0229999982 0.0132653126 -0.0127018588 0.0229263157 -0.0103569617 -0.0465902239 0.0229999982 -0.0170529988 -0.0163121615 0.0230295286 0.0172374528 -0.0163121615 0.0230295286 0.0172374528 -0.0557239391 0.0229999982 0.0132653126 -0.0384456627 0.0229999982 -0.00900640618 -0.0465902239 0.0229999982 -0.0170529988 -0.0557239391 0.0229999982 0.0132653126 -0.0163121615 0.0230295286 0.0172374528 </float_array>
          <technique_common>
            <accessor count="1464" offset="0" source="#mesh_0-positions-array" stride="3">
              <param name="X" type="float" />
              <param name="Y" type="float" />
              <param name="Z" type="float" />
            </accessor>
          </technique_common>
        </source>
        <vertices id="mesh_0-vertices">
          <input semantic="POSITION" source="#mesh_0-positions" />
        </vertices>
        <polylist count="488" material="defaultMaterial">
          <input offset="0" semantic="VERTEX" source="#mesh_0-vertices" />
          <vcount>3 3 3 3 3 3 3 3 3 3 3 3 3 3 3 3 3 3 3 3 3 3 3 3 3 3 3 3 3 3 3 3 3 3 3 3 3 3 3 3 3 3 3 3 3 3 3 3 3 3 3 3 3 3 3 3 3 3 3 3 3 3 3 3 3 3 3 3 3 3 3 3 3 3 3 3 3 3 3 3 3 3 3 3 3 3 3 3 3 3 3 3 3 3 3 3 3 3 3 3 3 3 3 3 3 3 3 3 3 3 3 3 3 3 3 3 3 3 3 3 3 3 3 3 3 3 3 3 3 3 3 3 3 3 3 3 3 3 3 3 3 3 3 3 3 3 3 3 3 3 3 3 3 3 3 3 3 3 3 3 3 3 3 3 3 3 3 3 3 3 3 3 3 3 3 3 3 3 3 3 3 3 3 3 3 3 3 3 3 3 3 3 3 3 3 3 3 3 3 3 3 3 3 3 3 3 3 3 3 3 3 3 3 3 3 3 3 3 3 3 3 3 3 3 3 3 3 3 3 3 3 3 3 3 3 3 3 3 3 3 3 3 3 3 3 3 3 3 3 3 3 3 3 3 3 3 3 3 3 3 3 3 3 3 3 3 3 3 3 3 3 3 3 3 3 3 3 3 3 3 3 3 3 3 3 3 3 3 3 3 3 3 3 3 3 3 3 3 3 3 3 3 3 3 3 3 3 3 3 3 3 3 3 3 3 3 3 3 3 3 3 3 3 3 3 3 3 3 3 3 3 3 3 3 3 3 3 3 3 3 3 3 3 3 3 3 3 3 3 3 3 3 3 3 3 3 3 3 3 3 3 3 3 3 3 3 3 3 3 3 3 3 3 3 3 3 3 3 3 3 3 3 3 3 3 3 3 3 3 3 3 3 3 3 3 3 3 3 3 3 3 3 3 3 3 3 3 3 3 3 3 3 3 3 3 3 3 3 3 3 3 3 3 3 3 3 3 3 3 3 3 3 3 3 3 3 3 3 3 3 3 3 3 3 3 3 3 3 3 3 3 3 3 3 3 3 3 3 3 3 3 3 3 3 3 3 3 3 3 3 3 3 3 3 3 3 3 3 3 3 3 3 3 3 3 3 3 3 </vcount>
          <p>0 1 2 3 4 5 6 7 8 9 10 11 12 13 14 15 16 17 18 19 20 21 22 23 24 25 26 27 28 29 30 31 32 33 34 35 36 37 38 39 40 41 42 43 44 45 46 47 48 49 50 51 52 53 54 55 56 57 58 59 60 61 62 63 64 65 66 67 68 69 70 71 72 73 74 75 76 77 78 79 80 81 82 83 84 85 86 87 88 89 90 91 92 93 94 95 96 97 98 99 100 101 102 103 104 105 106 107 108 109 110 111 112 113 114 115 116 117 118 119 120 121 122 123 124 125 126 127 128 129 130 131 132 133 134 135 136 137 138 139 140 141 142 143 144 145 146 147 148 149 150 151 152 153 154 155 156 157 158 159 160 161 162 163 164 165 166 167 168 169 170 171 172 173 174 175 176 177 178 179 180 181 182 183 184 185 186 187 188 189 190 191 192 193 194 195 196 197 198 199 200 201 202 203 204 205 206 207 208 209 210 211 212 213 214 215 216 217 218 219 220 221 222 223 224 225 226 227 228 229 230 231 232 233 234 235 236 237 238 239 240 241 242 243 244 245 246 247 248 249 250 251 252 253 254 255 256 257 258 259 260 261 262 263 264 265 266 267 268 269 270 271 272 273 274 275 276 277 278 279 280 281 282 283 284 285 286 287 288 289 290 291 292 293 294 295 296 297 298 299 300 301 302 303 304 305 306 307 308 309 310 311 312 313 314 315 316 317 318 319 320 321 322 323 324 325 326 327 328 329 330 331 332 333 334 335 336 337 338 339 340 341 342 343 344 345 346 347 348 349 350 351 352 353 354 355 356 357 358 359 360 361 362 363 364 365 366 367 368 369 370 371 372 373 374 375 376 377 378 379 380 381 382 383 384 385 386 387 388 389 390 391 392 393 394 395 396 397 398 399 400 401 402 403 404 405 406 407 408 409 410 411 412 413 414 415 416 417 418 419 420 421 422 423 424 425 426 427 428 429 430 431 432 433 434 435 436 437 438 439 440 441 442 443 444 445 446 447 448 449 450 451 452 453 454 455 456 457 458 459 460 461 462 463 464 465 466 467 468 469 470 471 472 473 474 475 476 477 478 479 480 481 482 483 484 485 486 487 488 489 490 491 492 493 494 495 496 497 498 499 500 501 502 503 504 505 506 507 508 509 510 511 512 513 514 515 516 517 518 519 520 521 522 523 524 525 526 527 528 529 530 531 532 533 534 535 536 537 538 539 540 541 542 543 544 545 546 547 548 549 550 551 552 553 554 555 556 557 558 559 560 561 562 563 564 565 566 567 568 569 570 571 572 573 574 575 576 577 578 579 580 581 582 583 584 585 586 587 588 589 590 591 592 593 594 595 596 597 598 599 600 601 602 603 604 605 606 607 608 609 610 611 612 613 614 615 616 617 618 619 620 621 622 623 624 625 626 627 628 629 630 631 632 633 634 635 636 637 638 639 640 641 642 643 644 645 646 647 648 649 650 651 652 653 654 655 656 657 658 659 660 661 662 663 664 665 666 667 668 669 670 671 672 673 674 675 676 677 678 679 680 681 682 683 684 685 686 687 688 689 690 691 692 693 694 695 696 697 698 699 700 701 702 703 704 705 706 707 708 709 710 711 712 713 714 715 716 717 718 719 720 721 722 723 724 725 726 727 728 729 730 731 732 733 734 735 736 737 738 739 740 741 742 743 744 745 746 747 748 749 750 751 752 753 754 755 756 757 758 759 760 761 762 763 764 765 766 767 768 769 770 771 772 773 774 775 776 777 778 779 780 781 782 783 784 785 786 787 788 789 790 791 792 793 794 795 796 797 798 799 800 801 802 803 804 805 806 807 808 809 810 811 812 813 814 815 816 817 818 819 820 821 822 823 824 825 826 827 828 829 830 831 832 833 834 835 836 837 838 839 840 841 842 843 844 845 846 847 848 849 850 851 852 853 854 855 856 857 858 859 860 861 862 863 864 865 866 867 868 869 870 871 872 873 874 875 876 877 878 879 880 881 882 883 884 885 886 887 888 889 890 891 892 893 894 895 896 897 898 899 900 901 902 903 904 905 906 907 908 909 910 911 912 913 914 915 916 917 918 919 920 921 922 923 924 925 926 927 928 929 930 931 932 933 934 935 936 937 938 939 940 941 942 943 944 945 946 947 948 949 950 951 952 953 954 955 956 957 958 959 960 961 962 963 964 965 966 967 968 969 970 971 972 973 974 975 976 977 978 979 980 981 982 983 984 985 986 987 988 989 990 991 992 993 994 995 996 997 998 999 1000 1001 1002 1003 1004 1005 1006 1007 1008 1009 1010 1011 1012 1013 1014 1015 1016 1017 1018 1019 1020 1021 1022 1023 1024 1025 1026 1027 1028 1029 1030 1031 1032 1033 1034 1035 1036 1037 1038 1039 1040 1041 1042 1043 1044 1045 1046 1047 1048 1049 1050 1051 1052 1053 1054 1055 1056 1057 1058 1059 1060 1061 1062 1063 1064 1065 1066 1067 1068 1069 1070 1071 1072 1073 1074 1075 1076 1077 1078 1079 1080 1081 1082 1083 1084 1085 1086 1087 1088 1089 1090 1091 1092 1093 1094 1095 1096 1097 1098 1099 1100 1101 1102 1103 1104 1105 1106 1107 1108 1109 1110 1111 1112 1113 1114 1115 1116 1117 1118 1119 1120 1121 1122 1123 1124 1125 1126 1127 1128 1129 1130 1131 1132 1133 1134 1135 1136 1137 1138 1139 1140 1141 1142 1143 1144 1145 1146 1147 1148 1149 1150 1151 1152 1153 1154 1155 1156 1157 1158 1159 1160 1161 1162 1163 1164 1165 1166 1167 1168 1169 1170 1171 1172 1173 1174 1175 1176 1177 1178 1179 1180 1181 1182 1183 1184 1185 1186 1187 1188 1189 1190 1191 1192 1193 1194 1195 1196 1197 1198 1199 1200 1201 1202 1203 1204 1205 1206 1207 1208 1209 1210 1211 1212 1213 1214 1215 1216 1217 1218 1219 1220 1221 1222 1223 1224 1225 1226 1227 1228 1229 1230 1231 1232 1233 1234 1235 1236 1237 1238 1239 1240 1241 1242 1243 1244 1245 1246 1247 1248 1249 1250 1251 1252 1253 1254 1255 1256 1257 1258 1259 1260 1261 1262 1263 1264 1265 1266 1267 1268 1269 1270 1271 1272 1273 1274 1275 1276 1277 1278 1279 1280 1281 1282 1283 1284 1285 1286 1287 1288 1289 1290 1291 1292 1293 1294 1295 1296 1297 1298 1299 1300 1301 1302 1303 1304 1305 1306 1307 1308 1309 1310 1311 1312 1313 1314 1315 1316 1317 1318 1319 1320 1321 1322 1323 1324 1325 1326 1327 1328 1329 1330 1331 1332 1333 1334 1335 1336 1337 1338 1339 1340 1341 1342 1343 1344 1345 1346 1347 1348 1349 1350 1351 1352 1353 1354 1355 1356 1357 1358 1359 1360 1361 1362 1363 1364 1365 1366 1367 1368 1369 1370 1371 1372 1373 1374 1375 1376 1377 1378 1379 1380 1381 1382 1383 1384 1385 1386 1387 1388 1389 1390 1391 1392 1393 1394 1395 1396 1397 1398 1399 1400 1401 1402 1403 1404 1405 1406 1407 1408 1409 1410 1411 1412 1413 1414 1415 1416 1417 1418 1419 1420 1421 1422 1423 1424 1425 1426 1427 1428 1429 1430 1431 1432 1433 1434 1435 1436 1437 1438 1439 1440 1441 1442 1443 1444 1445 1446 1447 1448 1449 1450 1451 1452 1453 1454 1455 1456 1457 1458 1459 1460 1461 1462 1463 </p>
        </polylist>
      </mesh>
    </geometry>
  </library_geometries>
  <library_controllers>
  </library_controllers>
  <library_visual_scenes>
    <visual_scene id="Scene" name="Scene">
      <node id="node" name="" type="NODE">
        <matrix sid="matrix">1 0 0 0 0 1 0 0 0 0 1 0 0 0 0 1</matrix>
        <instance_geometry url="#mesh_0">
          <bind_material>
            <technique_common>
              <instance_material symbol="defaultMaterial" target="#material_0">
              </instance_material>
            </technique_common>
          </bind_material>
        </instance_geometry>
      </node>
    </visual_scene>
  </library_visual_scenes>
  <scene>
    <instance_visual_scene url="#Scene" />
  </scene>
</COLLADA>
