<?xml version="1.0" encoding="UTF-8" standalone="no" ?>
<COLLADA xmlns="http://www.collada.org/2005/11/COLLADASchema" version="1.4.1">
  <asset>
    <contributor>
      <author>Assimp</author>
      <authoring_tool>Assimp Exporter</authoring_tool>
    </contributor>
    <created>2025-12-08T10:04:59</created>
    <modified>2025-12-08T10:04:59</modified>
    <unit name="meter" meter="1" />
    <up_axis>Y_UP</up_axis>
  </asset>
  <library_images>
  </library_images>
  <library_effects>
    <effect id="material_0-fx" name="">
      <profile_COMMON>
        <technique sid="standard">
          <phong>
            <emission>
              <color sid="emission">0   0   0   0</color>
            </emission>
            <ambient>
              <color sid="ambient">0.498039246   0.498039246   0.498039246   0</color>
            </ambient>
            <diffuse>
              <color sid="diffuse">0.498039246   0.498039246   0.498039246   0</color>
            </diffuse>
            <specular>
              <color sid="specular">0.498039246   0.498039246   0.498039246   4.53488209e-41</color>
            </specular>
          </phong>
        </technique>
      </profile_COMMON>
    </effect>
  </library_effects>
  <library_materials>
    <material id="material_0" name="">
      <instance_effect url="#material_0-fx"/>
    </material>
  </library_materials>
  <library_geometries>
    <geometry id="mesh_0" name="" >
      <mesh>
        <source id="mesh_0-positions" name="mesh_0-positions">
          <float_array id="mesh_0-positions-array" count="1647"> -0.0547247082 -0.070914045 0.00621730229 -0.0548587292 -0.0341329649 -0.0735503361 -0.0557217263 -0.0801231563 -0.0271255672 -0.0548216514 -0.0325388461 0.063821502 -0.0547247082 -0.070914045 0.00621730229 -0.0562731586 -0.0682032034 0.0471774712 -0.04500084 -0.031178629 -0.0596002974 -0.0548587292 -0.0341329649 -0.0735503361 -0.0547247082 -0.070914045 0.00621730229 -0.0450278074 -0.0671861246 -0.0118229492 -0.04500084 -0.031178629 -0.0596002974 -0.0547247082 -0.070914045 0.00621730229 -0.0450013503 -0.0463982373 0.0460345186 -0.0547247082 -0.070914045 0.00621730229 -0.0548216514 -0.0325388461 0.063821502 -0.0450003743 0.0210127216 0.0655081794 -0.0548216514 -0.0325388461 0.063821502 -0.0547042154 0.0566839762 0.0410059355 -0.0449981019 0.0681467727 0.00525492569 -0.0450003743 0.0210127216 0.0655081794 -0.0547042154 0.0566839762 0.0410059355 -0.0547172576 0.0602317713 -0.0271441415 -0.0449981019 0.0681467727 0.00525492569 -0.0547042154 0.0566839762 0.0410059355 -0.0450352393 0.0102249784 -0.0641650185 -0.045000542 0.0444105677 -0.0495849997 -0.0547721833 0.0231582746 -0.0635546297 -0.0450003669 0.0631376803 -0.0122084608 -0.0450352393 0.0102249784 -0.0641650185 -0.0451372638 -0.00193528156 -2.32482726e-05 -0.0548052527 0.0447649844 0.0681937262 -0.0556413233 0.054083433 0.0692917183 -0.00160125585 0.0451054238 0.0731164217 -0.0560413226 0.0311602503 0.0769830197 -0.0168609023 0.0242612865 0.0866846293 -0.00567890378 0.0229299888 0.0767091513 -0.0487004519 -0.0400045663 0.0765335187 -0.0548216514 -0.0325388461 0.063821502 -0.0343379267 -0.0482736602 0.0797388107 -0.00550583703 -0.0649723485 0.046167925 -0.0562731586 -0.0682032034 0.0471774712 -0.00370955421 -0.0643173307 0.0612034984 -0.0302835852 -0.0864733681 -0.0298287999 -0.0566193983 -0.0858482495 -0.00503253657 -0.00303971465 -0.0827396587 -0.014642288 -0.0302835852 -0.0864733681 -0.0298287999 -0.00303971465 -0.0827396587 -0.014642288 -0.0557217263 -0.0801231563 -0.0271255672 -0.0044991239 -0.0699431077 -0.0415872335 -0.0557217263 -0.0801231563 -0.0271255672 -0.0302835852 -0.0864733681 -0.0298287999 -0.0338853113 -0.0335322767 -0.0875831619 -0.0548587292 -0.0341329649 -0.0735503361 -0.00289287581 -0.028568184 -0.0787386149 -0.003352097 -0.0114602996 -0.0868066177 -0.055601567 -0.0135010835 -0.0858804211 -0.00698644249 -0.0114019113 -0.0796751454 -0.0210590735 0.00341026555 -0.0911407471 -0.0562052466 0.00498046586 -0.0852983072 -0.00439145509 0.0067481841 -0.0788894445 -0.00360954041 0.0811334997 -0.0213841684 -0.012976408 0.0790781528 -0.042803742 -0.0347534753 0.0902678967 -0.018777309 -0.00384586374 0.0836151689 0.0191570688 -0.0461400039 0.0890641659 -0.00388857909 -0.0223678034 0.0743719265 0.0501094498 -0.0168609023 0.0242612865 0.0866846293 -0.00160125585 0.0451054238 0.0731164217 -0.0351963453 0.0624787733 0.0710876361 -0.0563347526 0.0852736086 0.015185996 -0.0223678034 0.0743719265 0.0501094498 -0.0461400039 0.0890641659 -0.00388857909 -0.0210590735 0.00341026555 -0.0911407471 -0.055483304 0.0232401453 -0.0856932849 -0.0305647999 0.0625965819 -0.0712138861 -0.0168609023 0.0242612865 0.0866846293 -0.0489951968 0.0115873953 0.0855348557 -0.0291625969 -0.0216153152 0.0918099359 -0.00586552452 0.00438989978 -0.0288592149 -0.00572445616 0.0810891986 -0.0014688269 -0.00574380253 0.0133691663 0.0253009479 -0.0044991239 -0.0699431077 -0.0415872335 -0.00550583703 -0.0649723485 0.046167925 -0.00432579452 -0.0795411095 0.019878488 -0.00567890378 0.0229299888 0.0767091513 -0.00572445616 0.0810891986 -0.0014688269 -0.00384586374 0.0836151689 0.0191570688 -0.00570701249 -0.0451442115 -0.0691100135 -0.00586552452 0.00438989978 -0.0288592149 -0.00588226551 -0.0278190002 -0.00158264255 -0.00439145509 0.0067481841 -0.0788894445 -0.00405339245 0.04937898 -0.0663869381 -0.00586552452 0.00438989978 -0.0288592149 -0.00439145509 0.0067481841 -0.0788894445 -0.00586552452 0.00438989978 -0.0288592149 -0.00570701249 -0.0451442115 -0.0691100135 -0.00550583703 -0.0649723485 0.046167925 -0.00588226551 -0.0278190002 -0.00158264255 -0.00567890378 0.0229299888 0.0767091513 -0.00579948071 0.0635530949 -0.0487187095 -0.00572445616 0.0810891986 -0.0014688269 -0.00586552452 0.00438989978 -0.0288592149 -0.00567890378 0.0229299888 0.0767091513 -0.00574380253 0.0133691663 0.0253009479 -0.00572445616 0.0810891986 -0.0014688269 -0.00550583703 -0.0649723485 0.046167925 -0.00570701249 -0.0451442115 -0.0691100135 -0.00588226551 -0.0278190002 -0.00158264255 -0.0044991239 -0.0699431077 -0.0415872335 -0.00570701249 -0.0451442115 -0.0691100135 -0.00550583703 -0.0649723485 0.046167925 -0.00567890378 0.0229299888 0.0767091513 -0.00588226551 -0.0278190002 -0.00158264255 -0.00574380253 0.0133691663 0.0253009479 -0.00579948071 0.0635530949 -0.0487187095 -0.00586552452 0.00438989978 -0.0288592149 -0.00405339245 0.04937898 -0.0663869381 -0.000208407146 -0.00178591674 0.00496956101 -0.00586552452 0.00438989978 -0.0288592149 -0.00574380253 0.0133691663 0.0253009479 -0.000208407146 -0.00178591674 0.00496956101 -0.00574380253 0.0133691663 0.0253009479 -0.00588226551 -0.0278190002 -0.00158264255 -0.000208407146 -0.00178591674 0.00496956101 -0.00588226551 -0.0278190002 -0.00158264255 -0.00586552452 0.00438989978 -0.0288592149 -0.00345327193 0.0596713647 0.0602134652 -0.0223678034 0.0743719265 0.0501094498 -0.0351963453 0.0624787733 0.0710876361 -0.00360954041 0.0811334997 -0.0213841684 -0.0347534753 0.0902678967 -0.018777309 -0.00572445616 0.0810891986 -0.0014688269 -0.0515421592 0.0410959832 -0.0761961341 -0.0305647999 0.0625965819 -0.0712138861 -0.055483304 0.0232401453 -0.0856932849 -0.0487004519 -0.0400045663 0.0765335187 -0.0343379267 -0.0482736602 0.0797388107 -0.0291625969 -0.0216153152 0.0918099359 -0.0302835852 -0.0864733681 -0.0298287999 -0.027080873 -0.0938553736 0.0184512902 -0.0564127602 -0.0824920088 0.0204577036 -0.0338853113 -0.0335322767 -0.0875831619 -0.0187028013 -0.0650107488 -0.062557824 -0.0564249381 -0.0541533083 -0.069751963 -0.0210590735 0.00341026555 -0.0911407471 -0.0338853113 -0.0335322767 -0.0875831619 -0.055601567 -0.0135010835 -0.0858804211 -0.0210590735 0.00341026555 -0.0911407471 -0.055601567 -0.0135010835 -0.0858804211 -0.0562052466 0.00498046586 -0.0852983072 -0.0210590735 0.00341026555 -0.0911407471 -0.0305647999 0.0625965819 -0.0712138861 -0.00618250575 0.0237062443 -0.0820897594 -0.0305647999 0.0625965819 -0.0712138861 -0.0347534753 0.0902678967 -0.018777309 -0.012976408 0.0790781528 -0.042803742 -0.0302835852 -0.0864733681 -0.0298287999 -0.0557217263 -0.0801231563 -0.0271255672 -0.0187028013 -0.0650107488 -0.062557824 -0.00347172422 -0.025994027 0.0842895135 -0.0291625969 -0.0216153152 0.0918099359 -0.0343379267 -0.0482736602 0.0797388107 -0.0338097289 -0.0760329366 0.0564788729 -0.027080873 -0.0938553736 0.0184512902 -0.00421615085 -0.076175198 0.036640618 -0.0564249381 -0.0541533083 -0.069751963 -0.00570701249 -0.0451442115 -0.0691100135 -0.0548587292 -0.0341329649 -0.0735503361 -0.00303971465 -0.0827396587 -0.014642288 -0.0566193983 -0.0858482495 -0.00503253657 -0.0557217263 -0.0801231563 -0.0271255672 -0.00347172422 -0.025994027 0.0842895135 -0.00550583703 -0.0649723485 0.046167925 -0.00567890378 0.0229299888 0.0767091513 -0.0401245132 -0.0535474457 0.0639622137 -0.00550583703 -0.0649723485 0.046167925 -0.00370955421 -0.0643173307 0.0612034984 -0.0338097289 -0.0760329366 0.0564788729 -0.00421615085 -0.076175198 0.036640618 -0.00550583703 -0.0649723485 0.046167925 -0.0338097289 -0.0760329366 0.0564788729 -0.00550583703 -0.0649723485 0.046167925 -0.00370955421 -0.0643173307 0.0612034984 -0.0044991239 -0.0699431077 -0.0415872335 -0.0187028013 -0.0650107488 -0.062557824 -0.00570701249 -0.0451442115 -0.0691100135 -0.0554724261 0.0667032674 -0.0533695593 -0.00405339245 0.04937898 -0.0663869381 -0.00579948071 0.0635530949 -0.0487187095 -0.00360954041 0.0811334997 -0.0213841684 -0.00572445616 0.0810891986 -0.0014688269 -0.00579948071 0.0635530949 -0.0487187095 -0.00345327193 0.0596713647 0.0602134652 -0.00384586374 0.0836151689 0.0191570688 -0.0223678034 0.0743719265 0.0501094498 -0.0549392365 0.0773089156 0.0322866812 -0.00384586374 0.0836151689 0.0191570688 -0.0223678034 0.0743719265 0.0501094498 -0.00347172422 -0.025994027 0.0842895135 -0.00567890378 0.0229299888 0.0767091513 -0.0168609023 0.0242612865 0.0866846293 -0.00402363529 -0.00705454918 0.0836602598 -0.0489951968 0.0115873953 0.0855348557 -0.0168609023 0.0242612865 0.0866846293 -0.00347172422 -0.025994027 0.0842895135 -0.0168609023 0.0242612865 0.0866846293 -0.0489951968 0.0115873953 0.0855348557 -0.00550583703 -0.0649723485 0.046167925 -0.00370955421 -0.0643173307 0.0612034984 -0.0487004519 -0.0400045663 0.0765335187 -0.00421615085 -0.076175198 0.036640618 -0.00432579452 -0.0795411095 0.019878488 -0.00550583703 -0.0649723485 0.046167925 -0.00421615085 -0.076175198 0.036640618 -0.00432579452 -0.0795411095 0.019878488 -0.0564127602 -0.0824920088 0.0204577036 -0.00461425632 -0.0838980973 0.00286317454 -0.00432579452 -0.0795411095 0.019878488 -0.027080873 -0.0938553736 0.0184512902 -0.0044991239 -0.0699431077 -0.0415872335 -0.0302835852 -0.0864733681 -0.0298287999 -0.0187028013 -0.0650107488 -0.062557824 -0.0044991239 -0.0699431077 -0.0415872335 -0.00303971465 -0.0827396587 -0.014642288 -0.0302835852 -0.0864733681 -0.0298287999 -0.0338853113 -0.0335322767 -0.0875831619 -0.00570701249 -0.0451442115 -0.0691100135 -0.0187028013 -0.0650107488 -0.062557824 -0.003352097 -0.0114602996 -0.0868066177 -0.00698644249 -0.0114019113 -0.0796751454 -0.00289287581 -0.028568184 -0.0787386149 -0.0210590735 0.00341026555 -0.0911407471 -0.00289287581 -0.028568184 -0.0787386149 -0.0338853113 -0.0335322767 -0.0875831619 -0.0210590735 0.00341026555 -0.0911407471 -0.003352097 -0.0114602996 -0.0868066177 -0.00289287581 -0.028568184 -0.0787386149 -0.00439145509 0.0067481841 -0.0788894445 -0.00618250575 0.0237062443 -0.0820897594 -0.00405339245 0.04937898 -0.0663869381 -0.00360954041 0.0811334997 -0.0213841684 -0.0554033108 0.0760517269 -0.0364054441 -0.012976408 0.0790781528 -0.042803742 -0.00360954041 0.0811334997 -0.0213841684 -0.00579948071 0.0635530949 -0.0487187095 -0.012976408 0.0790781528 -0.042803742 -0.00439145509 0.0067481841 -0.0788894445 -0.0338853113 -0.0335322767 -0.0875831619 -0.00289287581 -0.028568184 -0.0787386149 -0.00439145509 0.0067481841 -0.0788894445 -0.00570701249 -0.0451442115 -0.0691100135 -0.0338853113 -0.0335322767 -0.0875831619 -0.00461425632 -0.0838980973 0.00286317454 -0.0302835852 -0.0864733681 -0.0298287999 -0.00303971465 -0.0827396587 -0.014642288 -0.00461425632 -0.0838980973 0.00286317454 -0.027080873 -0.0938553736 0.0184512902 -0.0302835852 -0.0864733681 -0.0298287999 -0.00421615085 -0.076175198 0.036640618 -0.027080873 -0.0938553736 0.0184512902 -0.00432579452 -0.0795411095 0.019878488 -0.00347172422 -0.025994027 0.0842895135 -0.0343379267 -0.0482736602 0.0797388107 -0.00370955421 -0.0643173307 0.0612034984 -0.00347172422 -0.025994027 0.0842895135 -0.00370955421 -0.0643173307 0.0612034984 -0.00550583703 -0.0649723485 0.046167925 -0.00402363529 -0.00705454918 0.0836602598 -0.0291625969 -0.0216153152 0.0918099359 -0.00347172422 -0.025994027 0.0842895135 -0.00402363529 -0.00705454918 0.0836602598 -0.0168609023 0.0242612865 0.0866846293 -0.0291625969 -0.0216153152 0.0918099359 -0.00567890378 0.0229299888 0.0767091513 -0.00160125585 0.0451054238 0.0731164217 -0.0168609023 0.0242612865 0.0866846293 -0.00567890378 0.0229299888 0.0767091513 -0.00345327193 0.0596713647 0.0602134652 -0.00160125585 0.0451054238 0.0731164217 -0.00567890378 0.0229299888 0.0767091513 -0.00384586374 0.0836151689 0.0191570688 -0.00345327193 0.0596713647 0.0602134652 -0.00579948071 0.0635530949 -0.0487187095 -0.00405339245 0.04937898 -0.0663869381 -0.012976408 0.0790781528 -0.042803742 -0.0210590735 0.00341026555 -0.0911407471 -0.00618250575 0.0237062443 -0.0820897594 -0.00439145509 0.0067481841 -0.0788894445 -0.0210590735 0.00341026555 -0.0911407471 -0.00439145509 0.0067481841 -0.0788894445 -0.003352097 -0.0114602996 -0.0868066177 -0.00439145509 0.0067481841 -0.0788894445 -0.00698644249 -0.0114019113 -0.0796751454 -0.003352097 -0.0114602996 -0.0868066177 -0.00402363529 -0.00705454918 0.0836602598 -0.00347172422 -0.025994027 0.0842895135 -0.0489951968 0.0115873953 0.0855348557 -0.00461425632 -0.0838980973 0.00286317454 -0.00303971465 -0.0827396587 -0.014642288 -0.00432579452 -0.0795411095 0.019878488 -0.0044991239 -0.0699431077 -0.0415872335 -0.00432579452 -0.0795411095 0.019878488 -0.00303971465 -0.0827396587 -0.014642288 -0.00439145509 0.0067481841 -0.0788894445 -0.00289287581 -0.028568184 -0.0787386149 -0.00698644249 -0.0114019113 -0.0796751454 -0.00461425632 -0.0838980973 0.00286317454 -0.0566193983 -0.0858482495 -0.00503253657 -0.0564127602 -0.0824920088 0.0204577036 -0.0547721833 0.0231582746 -0.0635546297 -0.055483304 0.0232401453 -0.0856932849 -0.0548587292 -0.0341329649 -0.0735503361 -0.0560402907 -0.0701034293 -0.0473887436 -0.0548587292 -0.0341329649 -0.0735503361 -0.0187028013 -0.0650107488 -0.062557824 -0.0564249381 -0.0541533083 -0.069751963 -0.0187028013 -0.0650107488 -0.062557824 -0.0548587292 -0.0341329649 -0.0735503361 -0.0560402907 -0.0701034293 -0.0473887436 -0.0557217263 -0.0801231563 -0.0271255672 -0.0548587292 -0.0341329649 -0.0735503361 -0.0564127602 -0.0824920088 0.0204577036 -0.0562731586 -0.0682032034 0.0471774712 -0.0547247082 -0.070914045 0.00621730229 -0.0401245132 -0.0535474457 0.0639622137 -0.0548216514 -0.0325388461 0.063821502 -0.0562731586 -0.0682032034 0.0471774712 -0.0559186041 -0.0030521804 0.0847363994 -0.0560413226 0.0311602503 0.0769830197 -0.0548052527 0.0447649844 0.0681937262 -0.0559186041 -0.0030521804 0.0847363994 -0.0548052527 0.0447649844 0.0681937262 -0.0548216514 -0.0325388461 0.063821502 -0.0559186041 -0.0030521804 0.0847363994 -0.0548216514 -0.0325388461 0.063821502 -0.0487004519 -0.0400045663 0.0765335187 -0.0555754378 0.0693915263 0.0468696877 -0.0548052527 0.0447649844 0.0681937262 -0.0556413233 0.054083433 0.0692917183 -0.0556135215 0.0536292866 -0.0648999587 -0.055483304 0.0232401453 -0.0856932849 -0.0547721833 0.0231582746 -0.0635546297 -0.0556135215 0.0536292866 -0.0648999587 -0.0547721833 0.0231582746 -0.0635546297 -0.0554724261 0.0667032674 -0.0533695593 -0.0554033108 0.0760517269 -0.0364054441 -0.0461400039 0.0890641659 -0.00388857909 -0.0347534753 0.0902678967 -0.018777309 -0.0555754378 0.0693915263 0.0468696877 -0.0223678034 0.0743719265 0.0501094498 -0.0549392365 0.0773089156 0.0322866812 -0.0559186041 -0.0030521804 0.0847363994 -0.0489951968 0.0115873953 0.0855348557 -0.0560413226 0.0311602503 0.0769830197 -0.0388361439 -0.0220410153 0.0803716257 -0.0559186041 -0.0030521804 0.0847363994 -0.0487004519 -0.0400045663 0.0765335187 -0.0401245132 -0.0535474457 0.0639622137 -0.0343379267 -0.0482736602 0.0797388107 -0.0548216514 -0.0325388461 0.063821502 -0.0401245132 -0.0535474457 0.0639622137 -0.0338097289 -0.0760329366 0.0564788729 -0.0343379267 -0.0482736602 0.0797388107 -0.00421615085 -0.076175198 0.036640618 -0.0562731586 -0.0682032034 0.0471774712 -0.0564127602 -0.0824920088 0.0204577036 -0.0564127602 -0.0824920088 0.0204577036 -0.0547247082 -0.070914045 0.00621730229 -0.0557217263 -0.0801231563 -0.0271255672 -0.0560402907 -0.0701034293 -0.0473887436 -0.0187028013 -0.0650107488 -0.062557824 -0.0564249381 -0.0541533083 -0.069751963 -0.0562052466 0.00498046586 -0.0852983072 -0.00698644249 -0.0114019113 -0.0796751454 -0.0548587292 -0.0341329649 -0.0735503361 -0.00698644249 -0.0114019113 -0.0796751454 -0.055601567 -0.0135010835 -0.0858804211 -0.0548587292 -0.0341329649 -0.0735503361 -0.055601567 -0.0135010835 -0.0858804211 -0.0338853113 -0.0335322767 -0.0875831619 -0.0548587292 -0.0341329649 -0.0735503361 -0.0562052466 0.00498046586 -0.0852983072 -0.055601567 -0.0135010835 -0.0858804211 -0.003352097 -0.0114602996 -0.0868066177 -0.0562052466 0.00498046586 -0.0852983072 -0.003352097 -0.0114602996 -0.0868066177 -0.00698644249 -0.0114019113 -0.0796751454 -0.0338853113 -0.0335322767 -0.0875831619 -0.0564249381 -0.0541533083 -0.069751963 -0.0548587292 -0.0341329649 -0.0735503361 -0.0556135215 0.0536292866 -0.0648999587 -0.0515421592 0.0410959832 -0.0761961341 -0.055483304 0.0232401453 -0.0856932849 -0.0556135215 0.0536292866 -0.0648999587 -0.0305647999 0.0625965819 -0.0712138861 -0.0515421592 0.0410959832 -0.0761961341 -0.0554033108 0.0760517269 -0.0364054441 -0.0554724261 0.0667032674 -0.0533695593 -0.0547172576 0.0602317713 -0.0271441415 -0.00360954041 0.0811334997 -0.0213841684 -0.0347534753 0.0902678967 -0.018777309 -0.0554033108 0.0760517269 -0.0364054441 -0.0555754378 0.0693915263 0.0468696877 -0.0556413233 0.054083433 0.0692917183 -0.0351963453 0.0624787733 0.0710876361 -0.0560413226 0.0311602503 0.0769830197 -0.0556413233 0.054083433 0.0692917183 -0.0548052527 0.0447649844 0.0681937262 -0.0401245132 -0.0535474457 0.0639622137 -0.0562731586 -0.0682032034 0.0471774712 -0.0338097289 -0.0760329366 0.0564788729 -0.0564127602 -0.0824920088 0.0204577036 -0.027080873 -0.0938553736 0.0184512902 -0.0562731586 -0.0682032034 0.0471774712 -0.0566193983 -0.0858482495 -0.00503253657 -0.0564127602 -0.0824920088 0.0204577036 -0.0557217263 -0.0801231563 -0.0271255672 -0.0562052466 0.00498046586 -0.0852983072 -0.0548587292 -0.0341329649 -0.0735503361 -0.055483304 0.0232401453 -0.0856932849 -0.0554033108 0.0760517269 -0.0364054441 -0.0563347526 0.0852736086 0.015185996 -0.0461400039 0.0890641659 -0.00388857909 -0.0554033108 0.0760517269 -0.0364054441 -0.0549392365 0.0773089156 0.0322866812 -0.0563347526 0.0852736086 0.015185996 -0.0555754378 0.0693915263 0.0468696877 -0.0351963453 0.0624787733 0.0710876361 -0.0223678034 0.0743719265 0.0501094498 -0.0555754378 0.0693915263 0.0468696877 -0.0549392365 0.0773089156 0.0322866812 -0.0548052527 0.0447649844 0.0681937262 -0.0560402907 -0.0701034293 -0.0473887436 -0.0187028013 -0.0650107488 -0.062557824 -0.0557217263 -0.0801231563 -0.0271255672 -0.0302835852 -0.0864733681 -0.0298287999 -0.0564127602 -0.0824920088 0.0204577036 -0.0566193983 -0.0858482495 -0.00503253657 -0.0338097289 -0.0760329366 0.0564788729 -0.0562731586 -0.0682032034 0.0471774712 -0.027080873 -0.0938553736 0.0184512902 -0.0338097289 -0.0760329366 0.0564788729 -0.00370955421 -0.0643173307 0.0612034984 -0.0343379267 -0.0482736602 0.0797388107 -0.0388361439 -0.0220410153 0.0803716257 -0.0487004519 -0.0400045663 0.0765335187 -0.0291625969 -0.0216153152 0.0918099359 -0.0388361439 -0.0220410153 0.0803716257 -0.0291625969 -0.0216153152 0.0918099359 -0.0559186041 -0.0030521804 0.0847363994 -0.0559186041 -0.0030521804 0.0847363994 -0.0291625969 -0.0216153152 0.0918099359 -0.0489951968 0.0115873953 0.0855348557 -0.0560413226 0.0311602503 0.0769830197 -0.0489951968 0.0115873953 0.0855348557 -0.0168609023 0.0242612865 0.0866846293 -0.0560413226 0.0311602503 0.0769830197 -0.0168609023 0.0242612865 0.0866846293 -0.0556413233 0.054083433 0.0692917183 -0.0168609023 0.0242612865 0.0866846293 -0.0351963453 0.0624787733 0.0710876361 -0.0556413233 0.054083433 0.0692917183 -0.00345327193 0.0596713647 0.0602134652 -0.0351963453 0.0624787733 0.0710876361 -0.00160125585 0.0451054238 0.0731164217 -0.0549392365 0.0773089156 0.0322866812 -0.0223678034 0.0743719265 0.0501094498 -0.0563347526 0.0852736086 0.015185996 -0.00384586374 0.0836151689 0.0191570688 -0.0347534753 0.0902678967 -0.018777309 -0.0461400039 0.0890641659 -0.00388857909 -0.00572445616 0.0810891986 -0.0014688269 -0.0347534753 0.0902678967 -0.018777309 -0.00384586374 0.0836151689 0.0191570688 -0.0554033108 0.0760517269 -0.0364054441 -0.0347534753 0.0902678967 -0.018777309 -0.0554724261 0.0667032674 -0.0533695593 -0.0556135215 0.0536292866 -0.0648999587 -0.0554724261 0.0667032674 -0.0533695593 -0.0305647999 0.0625965819 -0.0712138861 -0.0554724261 0.0667032674 -0.0533695593 -0.0347534753 0.0902678967 -0.018777309 -0.0305647999 0.0625965819 -0.0712138861 -0.00405339245 0.04937898 -0.0663869381 -0.0305647999 0.0625965819 -0.0712138861 -0.012976408 0.0790781528 -0.042803742 -0.00618250575 0.0237062443 -0.0820897594 -0.0305647999 0.0625965819 -0.0712138861 -0.00405339245 0.04937898 -0.0663869381 -0.0210590735 0.00341026555 -0.0911407471 -0.0562052466 0.00498046586 -0.0852983072 -0.055483304 0.0232401453 -0.0856932849 -0.0450003669 0.0631376803 -0.0122084608 -0.045000542 0.0444105677 -0.0495849997 -0.0450352393 0.0102249784 -0.0641650185 -0.0451372638 -0.00193528156 -2.32482726e-05 -0.0450013503 -0.0463982373 0.0460345186 -0.0450003743 0.0210127216 0.0655081794 -0.0451372638 -0.00193528156 -2.32482726e-05 -0.0450278074 -0.0671861246 -0.0118229492 -0.0450013503 -0.0463982373 0.0460345186 -0.0451372638 -0.00193528156 -2.32482726e-05 -0.0450352393 0.0102249784 -0.0641650185 -0.04500084 -0.031178629 -0.0596002974 -0.0451372638 -0.00193528156 -2.32482726e-05 -0.04500084 -0.031178629 -0.0596002974 -0.0450278074 -0.0671861246 -0.0118229492 -0.0451372638 -0.00193528156 -2.32482726e-05 -0.0450003743 0.0210127216 0.0655081794 -0.0449981019 0.0681467727 0.00525492569 -0.0450003669 0.0631376803 -0.0122084608 -0.0451372638 -0.00193528156 -2.32482726e-05 -0.0547172576 0.0602317713 -0.0271441415 -0.0450003743 0.0210127216 0.0655081794 -0.0450013503 -0.0463982373 0.0460345186 -0.0548216514 -0.0325388461 0.063821502 -0.0450003669 0.0631376803 -0.0122084608 -0.0547172576 0.0602317713 -0.0271441415 -0.045000542 0.0444105677 -0.0495849997 -0.0451372638 -0.00193528156 -2.32482726e-05 -0.0449981019 0.0681467727 0.00525492569 -0.0547172576 0.0602317713 -0.0271441415 -0.0450013503 -0.0463982373 0.0460345186 -0.0450278074 -0.0671861246 -0.0118229492 -0.0547247082 -0.070914045 0.00621730229 -0.0547721833 0.0231582746 -0.0635546297 -0.045000542 0.0444105677 -0.0495849997 -0.0547172576 0.0602317713 -0.0271441415 -0.0450352393 0.0102249784 -0.0641650185 -0.0547721833 0.0231582746 -0.0635546297 -0.04500084 -0.031178629 -0.0596002974 -0.0547721833 0.0231582746 -0.0635546297 -0.0548587292 -0.0341329649 -0.0735503361 -0.04500084 -0.031178629 -0.0596002974 -0.0548052527 0.0447649844 0.0681937262 -0.0547172576 0.0602317713 -0.0271441415 -0.0547042154 0.0566839762 0.0410059355 -0.0548052527 0.0447649844 0.0681937262 -0.0547042154 0.0566839762 0.0410059355 -0.0548216514 -0.0325388461 0.063821502 -0.0554033108 0.0760517269 -0.0364054441 -0.0548052527 0.0447649844 0.0681937262 -0.0549392365 0.0773089156 0.0322866812 -0.0554033108 0.0760517269 -0.0364054441 -0.0547172576 0.0602317713 -0.0271441415 -0.0548052527 0.0447649844 0.0681937262 -0.0554724261 0.0667032674 -0.0533695593 -0.0547721833 0.0231582746 -0.0635546297 -0.0547172576 0.0602317713 -0.0271441415 </float_array>
          <technique_common>
            <accessor count="549" offset="0" source="#mesh_0-positions-array" stride="3">
              <param name="X" type="float" />
              <param name="Y" type="float" />
              <param name="Z" type="float" />
            </accessor>
          </technique_common>
        </source>
        <vertices id="mesh_0-vertices">
          <input semantic="POSITION" source="#mesh_0-positions" />
        </vertices>
        <polylist count="183" material="defaultMaterial">
          <input offset="0" semantic="VERTEX" source="#mesh_0-vertices" />
          <vcount>3 3 3 3 3 3 3 3 3 3 3 3 3 3 3 3 3 3 3 3 3 3 3 3 3 3 3 3 3 3 3 3 3 3 3 3 3 3 3 3 3 3 3 3 3 3 3 3 3 3 3 3 3 3 3 3 3 3 3 3 3 3 3 3 3 3 3 3 3 3 3 3 3 3 3 3 3 3 3 3 3 3 3 3 3 3 3 3 3 3 3 3 3 3 3 3 3 3 3 3 3 3 3 3 3 3 3 3 3 3 3 3 3 3 3 3 3 3 3 3 3 3 3 3 3 3 3 3 3 3 3 3 3 3 3 3 3 3 3 3 3 3 3 3 3 3 3 3 3 3 3 3 3 3 3 3 3 3 3 3 3 3 3 3 3 3 3 3 3 3 3 3 3 3 3 3 3 3 3 3 3 3 3 </vcount>
          <p>0 1 2 3 4 5 6 7 8 9 10 11 12 13 14 15 16 17 18 19 20 21 22 23 24 25 26 27 28 29 30 31 32 33 34 35 36 37 38 39 40 41 42 43 44 45 46 47 48 49 50 51 52 53 54 55 56 57 58 59 60 61 62 63 64 65 66 67 68 69 70 71 72 73 74 75 76 77 78 79 80 81 82 83 84 85 86 87 88 89 90 91 92 93 94 95 96 97 98 99 100 101 102 103 104 105 106 107 108 109 110 111 112 113 114 115 116 117 118 119 120 121 122 123 124 125 126 127 128 129 130 131 132 133 134 135 136 137 138 139 140 141 142 143 144 145 146 147 148 149 150 151 152 153 154 155 156 157 158 159 160 161 162 163 164 165 166 167 168 169 170 171 172 173 174 175 176 177 178 179 180 181 182 183 184 185 186 187 188 189 190 191 192 193 194 195 196 197 198 199 200 201 202 203 204 205 206 207 208 209 210 211 212 213 214 215 216 217 218 219 220 221 222 223 224 225 226 227 228 229 230 231 232 233 234 235 236 237 238 239 240 241 242 243 244 245 246 247 248 249 250 251 252 253 254 255 256 257 258 259 260 261 262 263 264 265 266 267 268 269 270 271 272 273 274 275 276 277 278 279 280 281 282 283 284 285 286 287 288 289 290 291 292 293 294 295 296 297 298 299 300 301 302 303 304 305 306 307 308 309 310 311 312 313 314 315 316 317 318 319 320 321 322 323 324 325 326 327 328 329 330 331 332 333 334 335 336 337 338 339 340 341 342 343 344 345 346 347 348 349 350 351 352 353 354 355 356 357 358 359 360 361 362 363 364 365 366 367 368 369 370 371 372 373 374 375 376 377 378 379 380 381 382 383 384 385 386 387 388 389 390 391 392 393 394 395 396 397 398 399 400 401 402 403 404 405 406 407 408 409 410 411 412 413 414 415 416 417 418 419 420 421 422 423 424 425 426 427 428 429 430 431 432 433 434 435 436 437 438 439 440 441 442 443 444 445 446 447 448 449 450 451 452 453 454 455 456 457 458 459 460 461 462 463 464 465 466 467 468 469 470 471 472 473 474 475 476 477 478 479 480 481 482 483 484 485 486 487 488 489 490 491 492 493 494 495 496 497 498 499 500 501 502 503 504 505 506 507 508 509 510 511 512 513 514 515 516 517 518 519 520 521 522 523 524 525 526 527 528 529 530 531 532 533 534 535 536 537 538 539 540 541 542 543 544 545 546 547 548 </p>
        </polylist>
      </mesh>
    </geometry>
  </library_geometries>
  <library_controllers>
  </library_controllers>
  <library_visual_scenes>
    <visual_scene id="Scene" name="Scene">
      <node id="node" name="" type="NODE">
        <matrix sid="matrix">1 0 0 0 0 1 0 0 0 0 1 0 0 0 0 1</matrix>
        <instance_geometry url="#mesh_0">
          <bind_material>
            <technique_common>
              <instance_material symbol="defaultMaterial" target="#material_0">
              </instance_material>
            </technique_common>
          </bind_material>
        </instance_geometry>
      </node>
    </visual_scene>
  </library_visual_scenes>
  <scene>
    <instance_visual_scene url="#Scene" />
  </scene>
</COLLADA>
