<?xml version="1.0" encoding="UTF-8" standalone="no" ?>
<COLLADA xmlns="http://www.collada.org/2005/11/COLLADASchema" version="1.4.1">
  <asset>
    <contributor>
      <author>Assimp</author>
      <authoring_tool>Assimp Exporter</authoring_tool>
    </contributor>
    <created>2025-12-08T10:04:59</created>
    <modified>2025-12-08T10:04:59</modified>
    <unit name="meter" meter="1" />
    <up_axis>Y_UP</up_axis>
  </asset>
  <library_images>
  </library_images>
  <library_effects>
    <effect id="material_0-fx" name="">
      <profile_COMMON>
        <technique sid="standard">
          <phong>
            <emission>
              <color sid="emission">0   0   0   4.53488209e-41</color>
            </emission>
            <ambient>
              <color sid="ambient">0.498039246   0.498039246   0.498039246   0</color>
            </ambient>
            <diffuse>
              <color sid="diffuse">0.498039246   0.498039246   0.498039246   0</color>
            </diffuse>
            <specular>
              <color sid="specular">0.498039246   0.498039246   0.498039246   2.55843558e-11</color>
            </specular>
          </phong>
        </technique>
      </profile_COMMON>
    </effect>
  </library_effects>
  <library_materials>
    <material id="material_0" name="">
      <instance_effect url="#material_0-fx"/>
    </material>
  </library_materials>
  <library_geometries>
    <geometry id="mesh_0" name="" >
      <mesh>
        <source id="mesh_0-positions" name="mesh_0-positions">
          <float_array id="mesh_0-positions-array" count="4257"> 0.118529558 0.0350219533 0.23668924 0.12110766 0.027122125 0.287605315 0.119562119 -0.042819161 0.289110065 0.109499626 -0.0542795025 0.262584239 0.119562119 -0.042819161 0.289110065 0.120513417 -0.0383530557 0.243718669 0.117755041 -0.00382228405 0.208447188 0.120513417 -0.0383530557 0.243718669 0.118529558 0.0350219533 0.23668924 0.120513417 -0.0383530557 0.243718669 0.119562119 -0.042819161 0.289110065 0.12110766 0.027122125 0.287605315 0.10959255 0.0541099645 0.257299572 0.12110766 0.027122125 0.287605315 0.118529558 0.0350219533 0.23668924 -0.109898724 0.0518264323 0.288908511 -0.109832056 -0.0388530977 0.28897056 -0.110264562 -0.0454966612 0.252439678 -0.11030858 0.0418569297 0.250617802 -0.109898724 0.0518264323 0.288908511 -0.110264562 -0.0454966612 0.252439678 -0.121462218 0.060991928 0.288831741 -0.11030858 0.0418569297 0.250617802 -0.110264562 -0.0454966612 0.252439678 -0.121485911 -0.0609951913 0.288908035 -0.121462218 0.060991928 0.288831741 -0.110264562 -0.0454966612 0.252439678 -0.121485911 -0.0609951913 0.288908035 -0.109898724 0.0518264323 0.288908511 -0.121462218 0.060991928 0.288831741 -0.121485911 -0.0609951913 0.288908035 -0.110264562 -0.0454966612 0.252439678 -0.109832056 -0.0388530977 0.28897056 -0.121485911 -0.0609951913 0.288908035 -0.109832056 -0.0388530977 0.28897056 -0.109898724 0.0518264323 0.288908511 -0.121462218 0.060991928 0.288831741 -0.109898724 0.0518264323 0.288908511 -0.11030858 0.0418569297 0.250617802 -0.0572138503 -0.0710000023 0.00524678733 -0.0532918274 -0.0610000007 -0.0103192599 -0.078452073 -0.0610000007 0.0956416652 -0.0816732198 -0.0710000023 0.109462596 -0.0572138503 -0.0710000023 0.00524678733 -0.078452073 -0.0610000007 0.0956416652 0.0775561035 -0.0710000023 0.0917598605 0.0782911405 -0.0610000007 0.0949953496 0.0538903624 -0.0610096008 -0.00974483788 0.0538171008 -0.0710000023 -0.00936440006 0.0775561035 -0.0710000023 0.0917598605 0.0538903624 -0.0610096008 -0.00974483788 0.121488445 -0.0710000023 0.208959073 0.121567674 -0.0610798895 0.273018092 0.105941996 -0.0709861815 0.266669154 0.0825153887 -0.0709308684 0.112943433 0.121488445 -0.0710000023 0.208959073 0.105497718 -0.0710000023 0.210844263 -0.0700190291 -0.0710000023 -0.0103902481 -0.0572138503 -0.0710000023 0.00524678733 -0.0816732198 -0.0710000023 0.109462596 0.108352549 -0.0610001981 0.225614861 0.121567674 -0.0610798895 0.273018092 0.121488445 -0.0710000023 0.208959073 0.108352549 -0.0610001981 0.225614861 0.105941996 -0.0709861815 0.266669154 0.121488445 -0.0710000023 0.208959073 0.0570319071 -0.0685905367 0.108852722 0.0775561035 -0.0710000023 0.0917598605 0.121488445 -0.0710000023 0.208959073 0.121488445 -0.0710000023 0.208959073 0.0775561035 -0.0710000023 0.0917598605 0.0538171008 -0.0710000023 -0.00936440006 -0.0688757822 -0.0709997192 0.10158623 -0.00608076621 -0.0619673878 0.101319239 -0.0816732198 -0.0710000023 0.109462596 -0.00597506249 -0.0701350719 0.00578860845 -0.0816732198 -0.0710000023 0.109462596 -0.00608076621 -0.0619673878 0.101319239 -0.00597506249 -0.0701350719 0.00578860845 -0.0572138503 -0.0710000023 0.00524678733 -0.0700190291 -0.0710000023 -0.0103902481 -0.121489204 -0.0710000023 0.20916453 -0.105498359 -0.0710000023 0.210847497 -0.109857753 -0.0709408373 0.272901416 -0.121489204 -0.0710000023 0.20916453 -0.0700190291 -0.0710000023 -0.0103902481 -0.105498359 -0.0710000023 0.210847497 -0.105498359 -0.0710000023 0.210847497 -0.0700190291 -0.0710000023 -0.0103902481 -0.0816732198 -0.0710000023 0.109462596 0.00599655742 -0.0622195303 0.10135325 0.0570319071 -0.0685905367 0.108852722 -0.0816732198 -0.0710000023 0.109462596 0.105497718 -0.0710000023 0.210844263 0.121488445 -0.0710000023 0.208959073 0.105941996 -0.0709861815 0.266669154 0.00178801769 -0.0709992349 0.288975477 0.105941996 -0.0709861815 0.266669154 0.121567674 -0.0610798895 0.273018092 0.00178801769 -0.0709992349 0.288975477 -0.109857753 -0.0709408373 0.272901416 0.105941996 -0.0709861815 0.266669154 0.0570319071 -0.0685905367 0.108852722 0.121488445 -0.0710000023 0.208959073 0.0825153887 -0.0709308684 0.112943433 0.00599655742 -0.0622195303 0.10135325 -0.0816732198 -0.0710000023 0.109462596 -0.00597506249 -0.0701350719 0.00578860845 -0.00597506249 -0.0701350719 0.00578860845 -0.0700190291 -0.0710000023 -0.0103902481 0.0538171008 -0.0710000023 -0.00936440006 0.00615312392 -0.0610000007 0.0055947355 0.0570319071 -0.0685905367 0.108852722 0.00599655742 -0.0622195303 0.10135325 0.108352549 -0.0610001981 0.225614861 0.105941996 -0.0709861815 0.266669154 0.121567674 -0.0610798895 0.273018092 -0.122576065 -0.0610027686 0.216716513 -0.0817249417 -0.0610237271 0.109642863 -0.0709001273 -0.0610000007 -0.00665359898 0.00615312392 -0.0610000007 0.0055947355 -0.0532918274 -0.0610000007 -0.0103192599 -0.00597506249 -0.0701350719 0.00578860845 0.00615312392 -0.0610000007 0.0055947355 -0.00597506249 -0.0701350719 0.00578860845 -0.00608076621 -0.0619673878 0.101319239 -0.0709001273 -0.0610000007 -0.00665359898 -0.00608076621 -0.0619673878 0.101319239 -0.078452073 -0.0610000007 0.0956416652 0.120442495 -0.0610000007 0.204492763 0.0782911405 -0.0610000007 0.0949953496 0.00599655742 -0.0622195303 0.10135325 -0.105497725 -0.0610000007 0.210848376 -0.122576065 -0.0610027686 0.216716513 -0.10563875 -0.0609998479 0.288188338 -0.0709001273 -0.0610000007 -0.00665359898 -0.078452073 -0.0610000007 0.0956416652 -0.0532918274 -0.0610000007 -0.0103192599 0.120442495 -0.0610000007 0.204492763 0.0538903624 -0.0610096008 -0.00974483788 0.0782911405 -0.0610000007 0.0949953496 0.120442495 -0.0610000007 0.204492763 0.0570319071 -0.0685905367 0.108852722 0.0825153887 -0.0709308684 0.112943433 0.120442495 -0.0610000007 0.204492763 0.00599655742 -0.0622195303 0.10135325 0.0570319071 -0.0685905367 0.108852722 0.120442495 -0.0610000007 0.204492763 0.0825153887 -0.0709308684 0.112943433 0.108352549 -0.0610001981 0.225614861 0.120442495 -0.0610000007 0.204492763 0.108352549 -0.0610001981 0.225614861 0.121567674 -0.0610798895 0.273018092 -0.105497725 -0.0610000007 0.210848376 -0.0817249417 -0.0610237271 0.109642863 -0.122576065 -0.0610027686 0.216716513 0.0589013249 -0.0610000007 0.289004713 0.121567674 -0.0610798895 0.273018092 -0.10563875 -0.0609998479 0.288188338 -0.0817249417 -0.0610237271 0.109642863 0.00615312392 -0.0610000007 0.0055947355 -0.00608076621 -0.0619673878 0.101319239 -0.0817249417 -0.0610237271 0.109642863 0.0570319071 -0.0685905367 0.108852722 0.00615312392 -0.0610000007 0.0055947355 0.00615312392 -0.0610000007 0.0055947355 0.0538903624 -0.0610096008 -0.00974483788 -0.0532918274 -0.0610000007 -0.0103192599 -0.0709001273 -0.0610000007 -0.00665359898 -0.0817249417 -0.0610237271 0.109642863 -0.00608076621 -0.0619673878 0.101319239 -0.122576065 -0.0610027686 0.216716513 -0.0709001273 -0.0610000007 -0.00665359898 -0.0700190291 -0.0710000023 -0.0103902481 -0.122576065 -0.0610027686 0.216716513 -0.0700190291 -0.0710000023 -0.0103902481 -0.121489204 -0.0710000023 0.20916453 -0.0700190291 -0.0710000023 -0.0103902481 -0.0532918274 -0.0610000007 -0.0103192599 0.0538171008 -0.0710000023 -0.00936440006 0.0538171008 -0.0710000023 -0.00936440006 -0.0532918274 -0.0610000007 -0.0103192599 0.0538903624 -0.0610096008 -0.00974483788 0.121488445 -0.0710000023 0.208959073 0.0538171008 -0.0710000023 -0.00936440006 0.0538903624 -0.0610096008 -0.00974483788 0.120442495 -0.0610000007 0.204492763 0.121488445 -0.0710000023 0.208959073 0.0538903624 -0.0610096008 -0.00974483788 0.0589013249 -0.0610000007 0.289004713 -0.10563875 -0.0609998479 0.288188338 0.00178801769 -0.0709992349 0.288975477 0.0589013249 -0.0610000007 0.289004713 0.00178801769 -0.0709992349 0.288975477 0.121567674 -0.0610798895 0.273018092 -0.10563875 -0.0609998479 0.288188338 -0.121489204 -0.0710000023 0.20916453 -0.109857753 -0.0709408373 0.272901416 -0.10563875 -0.0609998479 0.288188338 -0.122576065 -0.0610027686 0.216716513 -0.121489204 -0.0710000023 0.20916453 -0.0709001273 -0.0610000007 -0.00665359898 -0.0532918274 -0.0610000007 -0.0103192599 -0.0700190291 -0.0710000023 -0.0103902481 0.120442495 -0.0610000007 0.204492763 0.121567674 -0.0610798895 0.273018092 0.121488445 -0.0710000023 0.208959073 -0.10563875 -0.0609998479 0.288188338 -0.109857753 -0.0709408373 0.272901416 0.00178801769 -0.0709992349 0.288975477 -0.0817249417 -0.0610237271 0.109642863 -0.105498359 -0.0710000023 0.210847497 -0.0816732198 -0.0710000023 0.109462596 -0.105497725 -0.0610000007 0.210848376 -0.105498359 -0.0710000023 0.210847497 -0.0817249417 -0.0610237271 0.109642863 -0.105497725 -0.0610000007 0.210848376 -0.10563875 -0.0609998479 0.288188338 -0.105498359 -0.0710000023 0.210847497 -0.10563875 -0.0609998479 0.288188338 -0.109857753 -0.0709408373 0.272901416 -0.105498359 -0.0710000023 0.210847497 -0.10563875 -0.0609998479 0.288188338 0.121567674 -0.0610798895 0.273018092 -0.109857753 -0.0709408373 0.272901416 -0.109857753 -0.0709408373 0.272901416 0.121567674 -0.0610798895 0.273018092 0.105941996 -0.0709861815 0.266669154 0.108352549 -0.0610001981 0.225614861 0.105497718 -0.0710000023 0.210844263 0.105941996 -0.0709861815 0.266669154 0.108352549 -0.0610001981 0.225614861 0.0825153887 -0.0709308684 0.112943433 0.105497718 -0.0710000023 0.210844263 0.00615312392 -0.0610000007 0.0055947355 0.0538171008 -0.0710000023 -0.00936440006 0.0538903624 -0.0610096008 -0.00974483788 0.00615312392 -0.0610000007 0.0055947355 -0.00597506249 -0.0701350719 0.00578860845 0.0538171008 -0.0710000023 -0.00936440006 -0.0817249417 -0.0610237271 0.109642863 -0.0816732198 -0.0710000023 0.109462596 0.0570319071 -0.0685905367 0.108852722 -0.00597506249 -0.0701350719 0.00578860845 -0.0532918274 -0.0610000007 -0.0103192599 -0.0572138503 -0.0710000023 0.00524678733 -0.0688757822 -0.0709997192 0.10158623 -0.078452073 -0.0610000007 0.0956416652 -0.00608076621 -0.0619673878 0.101319239 -0.0688757822 -0.0709997192 0.10158623 -0.0816732198 -0.0710000023 0.109462596 -0.078452073 -0.0610000007 0.0956416652 0.00599655742 -0.0622195303 0.10135325 0.0782911405 -0.0610000007 0.0949953496 0.0570319071 -0.0685905367 0.108852722 0.0570319071 -0.0685905367 0.108852722 0.0782911405 -0.0610000007 0.0949953496 0.0775561035 -0.0710000023 0.0917598605 0.00615312392 -0.0610000007 0.0055947355 0.00599655742 -0.0622195303 0.10135325 -0.00597506249 -0.0701350719 0.00578860845 0.121496901 0.0709979311 0.288998216 0.0875682235 0.0709997416 0.215811223 0.031777177 0.0709996596 0.215797022 0.0106402412 0.0687665194 0.269948602 0.121496901 0.0709979311 0.288998216 0.031777177 0.0709996596 0.215797022 -0.0485276654 0.0709857196 -0.00258135539 -0.0699928477 0.0709825605 -0.0104858261 0.0700007752 0.0709996819 -0.0104755694 -0.087501958 0.0703450814 0.215177044 0.0700007752 0.0709996819 -0.0104755694 -0.121483967 0.070998393 0.208943501 -0.121483967 0.070998393 0.208943501 0.0700007752 0.0709996819 -0.0104755694 -0.0699928477 0.0709825605 -0.0104858261 0.0874131918 0.0709974766 0.128941074 0.0875682235 0.0709997416 0.215811223 0.0700007752 0.0709996819 -0.0104755694 0.121492021 0.0709894672 0.208980009 0.0700007752 0.0709996819 -0.0104755694 0.0875682235 0.0709997416 0.215811223 0.115673468 0.0684521571 0.259375304 0.121496901 0.0709979311 0.288998216 0.121492021 0.0709894672 0.208980009 0.0283702314 0.0709998906 0.274298638 0.121496901 0.0709979311 0.288998216 0.031777177 0.0709996596 0.215797022 0.0305591822 0.070991911 0.0985671803 0.0700007752 0.0709996819 -0.0104755694 0.0874131918 0.0709974766 0.128941074 -0.00020806909 0.0708233342 0.184357077 -0.087501958 0.0703450814 0.215177044 -0.115833916 0.0709999725 0.27238822 0.0299630333 0.0709885433 0.0785107836 0.0874131918 0.0709974766 0.128941074 0.0700007752 0.0709996819 -0.0104755694 -0.0219274405 0.0680014566 0.0784833282 0.0299630333 0.0709885433 0.0785107836 0.0700007752 0.0709996819 -0.0104755694 -0.0349212289 0.0696639642 0.0984023735 -0.0219274405 0.0680014566 0.0784833282 0.0700007752 0.0709996819 -0.0104755694 -0.0349212289 0.0696639642 0.0984023735 0.0700007752 0.0709996819 -0.0104755694 0.0305591822 0.070991911 0.0985671803 0.0874131918 0.0709974766 0.128941074 0.0700007752 0.0709996819 -0.0104755694 -0.087501958 0.0703450814 0.215177044 0.121492021 0.0709894672 0.208980009 0.0875682235 0.0709997416 0.215811223 0.121496901 0.0709979311 0.288998216 -0.115833916 0.0709999725 0.27238822 -0.087501958 0.0703450814 0.215177044 -0.121483967 0.070998393 0.208943501 -0.115833916 0.0709999725 0.27238822 0.121496901 0.0709979311 0.288998216 0.031777177 0.0709996596 0.215797022 -0.00020806909 0.0708233342 0.184357077 -0.115833916 0.0709999725 0.27238822 0.031777177 0.0709996596 0.215797022 -0.0216738246 0.0687487498 0.214827776 -0.0870118886 0.0689777136 0.27098456 -0.087501958 0.0703450814 0.215177044 0.0874999911 0.0690001398 0.215834275 0.0106402412 0.0687665194 0.269948602 0.0354688279 0.0656958744 0.220271021 0.0872885883 0.0689999983 0.270846099 0.0106402412 0.0687665194 0.269948602 0.0874999911 0.0690001398 0.215834275 0.0874999464 0.0689999983 0.129001185 -0.0834081098 0.068997398 0.113500796 0.0875993297 0.0609972067 0.113510206 -0.087490432 0.0689326674 0.128876075 -0.0834081098 0.068997398 0.113500796 0.0874999464 0.0689999983 0.129001185 0.0699948668 0.0610088333 -0.0104916738 0.0875993297 0.0609972067 0.113510206 0.0572638139 0.0610009804 0.00539313117 0.079816319 0.0610016584 0.101464741 0.0572638139 0.0610009804 0.00539313117 0.0875993297 0.0609972067 0.113510206 -0.121493608 0.0614475869 0.208980113 -0.080596596 0.060953185 0.101699837 -0.0874978155 0.0610012487 0.288998932 -0.0699995309 0.0610046983 -0.0104934406 -0.0572764762 0.0610011071 0.0055182525 -0.080596596 0.060953185 0.101699837 -0.0699995309 0.0610046983 -0.0104934406 0.0572638139 0.0610009804 0.00539313117 -0.0572764762 0.0610011071 0.0055182525 -0.0162631683 0.061003644 0.000198875918 0.0572638139 0.0610009804 0.00539313117 -0.0699995309 0.0610046983 -0.0104934406 0.0144623388 0.06101932 -0.00439297501 -0.0699995309 0.0610046983 -0.0104934406 0.0572638139 0.0610009804 0.00539313117 0.121497899 0.0610045046 0.288996637 -0.0874978155 0.0610012487 0.288998932 -0.0242858995 0.0610013045 0.271039635 -0.0120075969 0.0631903559 0.234850034 0.121497899 0.0610045046 0.288996637 -0.0242858995 0.0610013045 0.271039635 -0.0242858995 0.0610013045 0.271039635 -0.0874978155 0.0610012487 0.288998932 -0.0870118886 0.0689777136 0.27098456 -0.0874978155 0.0610012487 0.288998932 -0.080596596 0.060953185 0.101699837 -0.087490432 0.0689326674 0.128876075 0.0875841007 0.0610025637 0.270892113 0.115673468 0.0684521571 0.259375304 0.121497899 0.0610045046 0.288996637 0.0875841007 0.0610025637 0.270892113 0.0875993297 0.0609972067 0.113510206 0.121497899 0.0610045046 0.288996637 0.121485591 0.0610011406 0.208945841 0.121497899 0.0610045046 0.288996637 0.0875993297 0.0609972067 0.113510206 0.0875841007 0.0610025637 0.270892113 0.121497899 0.0610045046 0.288996637 0.0106402412 0.0687665194 0.269948602 0.121497899 0.0610045046 0.288996637 0.0354688279 0.0656958744 0.220271021 0.0106402412 0.0687665194 0.269948602 -0.0120075969 0.0631903559 0.234850034 0.0354688279 0.0656958744 0.220271021 0.121497899 0.0610045046 0.288996637 -0.0120075969 0.0631903559 0.234850034 -0.00020806909 0.0708233342 0.184357077 0.0354688279 0.0656958744 0.220271021 -0.0120075969 0.0631903559 0.234850034 -0.0216738246 0.0687487498 0.214827776 -0.00020806909 0.0708233342 0.184357077 -0.121493362 0.0610240065 0.28764984 -0.121493608 0.0614475869 0.208980113 -0.0874978155 0.0610012487 0.288998932 -0.080596596 0.060953185 0.101699837 0.079816319 0.0610016584 0.101464741 0.0875993297 0.0609972067 0.113510206 -0.0699995309 0.0610046983 -0.0104934406 0.0699948668 0.0610088333 -0.0104916738 0.0572638139 0.0610009804 0.00539313117 -0.0745913237 0.0679996163 0.101390041 -0.080596596 0.060953185 0.101699837 -0.0572993755 0.0679999217 0.00554833142 -0.0572993755 0.0679999217 0.00554833142 -0.080596596 0.060953185 0.101699837 -0.0572764762 0.0610011071 0.0055182525 0.0573052056 0.0679999888 0.00559251802 0.079816319 0.0610016584 0.101464741 0.0785365552 0.0680000037 0.101463452 0.0573052056 0.0679999888 0.00559251802 0.0572638139 0.0610009804 0.00539313117 0.079816319 0.0610016584 0.101464741 0.0573052056 0.0679999888 0.00559251802 -0.0572764762 0.0610011071 0.0055182525 0.0572638139 0.0610009804 0.00539313117 0.0573052056 0.0679999888 0.00559251802 -0.0572993755 0.0679999217 0.00554833142 -0.0572764762 0.0610011071 0.0055182525 0.0785365552 0.0680000037 0.101463452 -0.080596596 0.060953185 0.101699837 -0.0745913237 0.0679996163 0.101390041 0.0785365552 0.0680000037 0.101463452 0.079816319 0.0610016584 0.101464741 -0.080596596 0.060953185 0.101699837 0.0759484097 0.0679994076 0.0963130668 0.079816319 0.0610016584 0.101464741 0.0785365552 0.0680000037 0.101463452 -0.0699995309 0.0610046983 -0.0104934406 -0.121483967 0.070998393 0.208943501 -0.0699928477 0.0709825605 -0.0104858261 -0.0699995309 0.0610046983 -0.0104934406 -0.121493608 0.0614475869 0.208980113 -0.121483967 0.070998393 0.208943501 0.0699948668 0.0610088333 -0.0104916738 -0.0699928477 0.0709825605 -0.0104858261 0.0700007752 0.0709996819 -0.0104755694 -0.0699995309 0.0610046983 -0.0104934406 -0.0699928477 0.0709825605 -0.0104858261 0.0699948668 0.0610088333 -0.0104916738 0.121485591 0.0610011406 0.208945841 0.0700007752 0.0709996819 -0.0104755694 0.121492021 0.0709894672 0.208980009 0.121485591 0.0610011406 0.208945841 0.0699948668 0.0610088333 -0.0104916738 0.0700007752 0.0709996819 -0.0104755694 0.121497899 0.0610045046 0.288996637 0.121492021 0.0709894672 0.208980009 0.121496901 0.0709979311 0.288998216 0.121485591 0.0610011406 0.208945841 0.121492021 0.0709894672 0.208980009 0.121497899 0.0610045046 0.288996637 -0.121499628 0.0705000237 0.288999915 -0.0874978155 0.0610012487 0.288998932 0.121496901 0.0709979311 0.288998216 0.121497899 0.0610045046 0.288996637 0.121496901 0.0709979311 0.288998216 -0.0874978155 0.0610012487 0.288998932 -0.121499628 0.0705000237 0.288999915 -0.121483967 0.070998393 0.208943501 -0.121493608 0.0614475869 0.208980113 -0.121499628 0.0705000237 0.288999915 -0.121493608 0.0614475869 0.208980113 -0.121493362 0.0610240065 0.28764984 -0.121499628 0.0705000237 0.288999915 -0.121493362 0.0610240065 0.28764984 -0.0874978155 0.0610012487 0.288998932 -0.121499628 0.0705000237 0.288999915 -0.115833916 0.0709999725 0.27238822 -0.121483967 0.070998393 0.208943501 -0.121499628 0.0705000237 0.288999915 0.121496901 0.0709979311 0.288998216 -0.115833916 0.0709999725 0.27238822 -0.0699995309 0.0610046983 -0.0104934406 -0.080596596 0.060953185 0.101699837 -0.121493608 0.0614475869 0.208980113 0.121485591 0.0610011406 0.208945841 0.0875993297 0.0609972067 0.113510206 0.0699948668 0.0610088333 -0.0104916738 0.0785365552 0.0680000037 0.101463452 -0.0745913237 0.0679996163 0.101390041 -0.0349212289 0.0696639642 0.0984023735 0.0785365552 0.0680000037 0.101463452 -0.0349212289 0.0696639642 0.0984023735 0.0305591822 0.070991911 0.0985671803 -0.0745913237 0.0679996163 0.101390041 -0.0572993755 0.0679999217 0.00554833142 -0.0349212289 0.0696639642 0.0984023735 0.0785365552 0.0680000037 0.101463452 0.0305591822 0.070991911 0.0985671803 0.0299630333 0.0709885433 0.0785107836 0.0573052056 0.0679999888 0.00559251802 -0.0219274405 0.0680014566 0.0784833282 -0.0572993755 0.0679999217 0.00554833142 0.0785365552 0.0680000037 0.101463452 0.0299630333 0.0709885433 0.0785107836 -0.0219274405 0.0680014566 0.0784833282 0.0573052056 0.0679999888 0.00559251802 0.0785365552 0.0680000037 0.101463452 -0.0219274405 0.0680014566 0.0784833282 -0.0874978155 0.0610012487 0.288998932 -0.087501958 0.0703450814 0.215177044 -0.0870118886 0.0689777136 0.27098456 -0.0874978155 0.0610012487 0.288998932 -0.087490432 0.0689326674 0.128876075 -0.087501958 0.0703450814 0.215177044 0.0354688279 0.0656958744 0.220271021 -0.00020806909 0.0708233342 0.184357077 0.031777177 0.0709996596 0.215797022 0.0875841007 0.0610025637 0.270892113 0.0106402412 0.0687665194 0.269948602 0.0872885883 0.0689999983 0.270846099 0.0875841007 0.0610025637 0.270892113 0.0874999464 0.0689999983 0.129001185 0.0875993297 0.0609972067 0.113510206 0.0874999464 0.0689999983 0.129001185 0.0875682235 0.0709997416 0.215811223 0.0874131918 0.0709974766 0.128941074 0.0874999464 0.0689999983 0.129001185 0.0874999911 0.0690001398 0.215834275 0.0875682235 0.0709997416 0.215811223 0.0875841007 0.0610025637 0.270892113 0.0874999911 0.0690001398 0.215834275 0.0874999464 0.0689999983 0.129001185 0.0875841007 0.0610025637 0.270892113 0.0872885883 0.0689999983 0.270846099 0.0874999911 0.0690001398 0.215834275 -0.0242858995 0.0610013045 0.271039635 -0.0870118886 0.0689777136 0.27098456 -0.0216738246 0.0687487498 0.214827776 -0.087490432 0.0689326674 0.128876075 0.0874999464 0.0689999983 0.129001185 0.0874131918 0.0709974766 0.128941074 -0.087490432 0.0689326674 0.128876075 0.0874131918 0.0709974766 0.128941074 -0.087501958 0.0703450814 0.215177044 -0.0216738246 0.0687487498 0.214827776 -0.087501958 0.0703450814 0.215177044 -0.00020806909 0.0708233342 0.184357077 0.0874999911 0.0690001398 0.215834275 0.0354688279 0.0656958744 0.220271021 0.031777177 0.0709996596 0.215797022 0.0874999911 0.0690001398 0.215834275 0.031777177 0.0709996596 0.215797022 0.0875682235 0.0709997416 0.215811223 0.0299630333 0.0709885433 0.0785107836 0.0305591822 0.070991911 0.0985671803 0.0874131918 0.0709974766 0.128941074 -0.0572993755 0.0679999217 0.00554833142 -0.0219274405 0.0680014566 0.0784833282 -0.0349212289 0.0696639642 0.0984023735 -0.080596596 0.060953185 0.101699837 -0.0834081098 0.068997398 0.113500796 -0.087490432 0.0689326674 0.128876075 -0.080596596 0.060953185 0.101699837 0.0875993297 0.0609972067 0.113510206 -0.0834081098 0.068997398 0.113500796 -0.0120075969 0.0631903559 0.234850034 -0.0242858995 0.0610013045 0.271039635 -0.0216738246 0.0687487498 0.214827776 -0.0925000012 0.0590227358 0.109495714 -0.0925000012 -0.0600429103 0.109474011 -0.0649841428 0.0105211129 0.109499991 0.092352286 0.0600132644 0.109457925 -0.0649841428 0.0105211129 0.109499991 0.0189426262 0.020950269 0.107904755 0.092352286 0.0600132644 0.109457925 -0.0925000012 0.0590227358 0.109495714 -0.0649841428 0.0105211129 0.109499991 0.0924999937 -0.0587114654 0.109493986 0.092352286 0.0600132644 0.109457925 0.0189426262 0.020950269 0.107904755 0.0329132155 -0.0196938124 0.108413592 -0.0649841428 0.0105211129 0.109499991 0.0924999937 -0.0587114654 0.109493986 0.0329132155 -0.0196938124 0.108413592 0.0924999937 -0.0587114654 0.109493986 0.0189426262 0.020950269 0.107904755 0.0924999937 -0.0587114654 0.109493986 -0.0649841428 0.0105211129 0.109499991 -0.0925000012 -0.0600429103 0.109474011 0.0926475227 -0.0603645444 0.107559472 -0.0925000012 -0.0600429103 0.109474011 -0.0383640155 -0.0600007884 0.101486236 -0.0923513547 0.0607717261 0.107490771 -0.0925000012 -0.0600429103 0.109474011 -0.0925000012 0.0590227358 0.109495714 -0.0922500864 -0.0588573329 0.107498512 -0.0925000012 -0.0600429103 0.109474011 -0.0923513547 0.0607717261 0.107490771 0.0924949571 0.0588613823 0.107498102 0.0924999937 -0.0587114654 0.109493986 0.0926475227 -0.0603645444 0.107559472 0.0924949571 0.0588613823 0.107498102 0.092352286 0.0600132644 0.109457925 0.0924999937 -0.0587114654 0.109493986 -0.0922500864 -0.0588573329 0.107498512 -0.0383640155 -0.0600007884 0.101486236 -0.0925000012 -0.0600429103 0.109474011 -0.0922500864 -0.0588573329 0.107498512 0.0926475227 -0.0603645444 0.107559472 -0.0383640155 -0.0600007884 0.101486236 -0.0922500864 -0.0588573329 0.107498512 -0.0923513547 0.0607717261 0.107490771 0.0189426262 0.020950269 0.107904755 0.0924949571 0.0588613823 0.107498102 0.0926475227 -0.0603645444 0.107559472 0.0189426262 0.020950269 0.107904755 -0.0922500864 -0.0588573329 0.107498512 0.0329132155 -0.0196938124 0.108413592 0.0926475227 -0.0603645444 0.107559472 -0.0922500864 -0.0588573329 0.107498512 0.0189426262 0.020950269 0.107904755 0.0329132155 -0.0196938124 0.108413592 0.0926475227 -0.0603645444 0.107559472 0.0329132155 -0.0196938124 0.108413592 0.0189426262 0.020950269 0.107904755 0.0924949571 0.0588613823 0.107498102 0.0189426262 0.020950269 0.107904755 -0.0923513547 0.0607717261 0.107490771 -0.0507304966 0.0597250201 0.101488627 0.0924949571 0.0588613823 0.107498102 -0.0923513547 0.0607717261 0.107490771 -0.0507304966 0.0597250201 0.101488627 -0.0923513547 0.0607717261 0.107490771 0.092352286 0.0600132644 0.109457925 -0.0923513547 0.0607717261 0.107490771 -0.0925000012 0.0590227358 0.109495714 0.092352286 0.0600132644 0.109457925 0.0926475227 -0.0603645444 0.107559472 0.0924999937 -0.0587114654 0.109493986 -0.0925000012 -0.0600429103 0.109474011 -0.0507304966 0.0597250201 0.101488627 0.092352286 0.0600132644 0.109457925 0.0924949571 0.0588613823 0.107498102 0.0329132155 -0.0196938124 0.108413592 0.0189426262 0.020950269 0.107904755 -0.0649841428 0.0105211129 0.109499991 -0.0649943203 0.0609669015 0.00499833375 -0.0508107394 0.0609994121 -0.00403762329 -0.064982146 0.0609729663 -0.00999875925 0.0649387315 0.0609855987 -0.00999669079 0.0193309281 0.0609998256 -0.00209552469 0.0649960265 0.0609514788 0.00499873981 0.0649960265 0.0609514788 0.00499873981 0.0193309281 0.0609998256 -0.00209552469 -0.0649943203 0.0609669015 0.00499833375 -0.019101724 0.0609994605 -0.0029345965 0.0193309281 0.0609998256 -0.00209552469 -0.064982146 0.0609729663 -0.00999875925 0.0649387315 0.0609855987 -0.00999669079 -0.064982146 0.0609729663 -0.00999875925 0.0193309281 0.0609998256 -0.00209552469 -0.019101724 0.0609994605 -0.0029345965 -0.0649943203 0.0609669015 0.00499833375 0.0193309281 0.0609998256 -0.00209552469 -0.019101724 0.0609994605 -0.0029345965 -0.064982146 0.0609729663 -0.00999875925 -0.0508107394 0.0609994121 -0.00403762329 -0.019101724 0.0609994605 -0.0029345965 -0.0508107394 0.0609994121 -0.00403762329 -0.0649943203 0.0609669015 0.00499833375 -0.0276767053 0.0318608396 -0.00942026917 -0.0460992008 0.0169152636 0.00492332084 -0.0343424268 -0.0267503951 -0.00983751193 0.023006117 0.0349109285 -0.00968190283 0.0127643216 -0.0400574394 0.00472664135 0.0491764247 0.0171761755 0.00497613382 0.0414768271 -0.0237955861 -0.00992929935 0.023006117 0.0349109285 -0.00968190283 0.0649387315 0.0609855987 -0.00999669079 0.064982146 -0.0609729253 -0.00999875367 -0.0646009296 -0.0609888136 -0.00999447703 -0.0343424268 -0.0267503951 -0.00983751193 0.064982146 -0.0609729253 -0.00999875367 -0.0343424268 -0.0267503951 -0.00983751193 0.0414768271 -0.0237955861 -0.00992929935 0.023006117 0.0349109285 -0.00968190283 -0.064982146 0.0609729663 -0.00999875925 0.0649387315 0.0609855987 -0.00999669079 0.023006117 0.0349109285 -0.00968190283 -0.0276767053 0.0318608396 -0.00942026917 -0.064982146 0.0609729663 -0.00999875925 0.064982146 -0.0609729253 -0.00999875367 0.0414768271 -0.0237955861 -0.00992929935 0.0649387315 0.0609855987 -0.00999669079 -0.0276767053 0.0318608396 -0.00942026917 -0.0343424268 -0.0267503951 -0.00983751193 -0.064982146 0.0609729663 -0.00999875925 -0.0646009296 -0.0609888136 -0.00999447703 -0.064982146 0.0609729663 -0.00999875925 -0.0343424268 -0.0267503951 -0.00983751193 -0.0646009296 -0.0609888136 -0.00999447703 -0.0649943203 0.0609669015 0.00499833375 -0.064982146 0.0609729663 -0.00999875925 -0.0649935305 -0.060953781 0.00499810651 -0.0649943203 0.0609669015 0.00499833375 -0.0646009296 -0.0609888136 -0.00999447703 0.0649326816 -0.0609855726 0.0049964441 -0.0646009296 -0.0609888136 -0.00999447703 0.064982146 -0.0609729253 -0.00999875367 0.0649326816 -0.0609855726 0.0049964441 -0.0649935305 -0.060953781 0.00499810651 -0.0646009296 -0.0609888136 -0.00999447703 0.0649326816 -0.0609855726 0.0049964441 0.064982146 -0.0609729253 -0.00999875367 0.0649960265 0.0609514788 0.00499873981 0.064982146 -0.0609729253 -0.00999875367 0.0649387315 0.0609855987 -0.00999669079 0.0649960265 0.0609514788 0.00499873981 0.0491764247 0.0171761755 0.00497613382 -0.0460992008 0.0169152636 0.00492332084 -0.0276767053 0.0318608396 -0.00942026917 0.0414768271 -0.0237955861 -0.00992929935 -0.0343424268 -0.0267503951 -0.00983751193 0.0127643216 -0.0400574394 0.00472664135 0.0127643216 -0.0400574394 0.00472664135 -0.0343424268 -0.0267503951 -0.00983751193 -0.0460992008 0.0169152636 0.00492332084 -0.0649935305 -0.060953781 0.00499810651 -0.0460992008 0.0169152636 0.00492332084 -0.0649943203 0.0609669015 0.00499833375 0.0649326816 -0.0609855726 0.0049964441 0.0491764247 0.0171761755 0.00497613382 0.0127643216 -0.0400574394 0.00472664135 0.0649326816 -0.0609855726 0.0049964441 0.0649960265 0.0609514788 0.00499873981 0.0491764247 0.0171761755 0.00497613382 -0.0649935305 -0.060953781 0.00499810651 0.0127643216 -0.0400574394 0.00472664135 -0.0460992008 0.0169152636 0.00492332084 0.0649326816 -0.0609855726 0.0049964441 0.0127643216 -0.0400574394 0.00472664135 -0.0649935305 -0.060953781 0.00499810651 0.0491764247 0.0171761755 0.00497613382 -0.0649943203 0.0609669015 0.00499833375 -0.0460992008 0.0169152636 0.00492332084 0.0491764247 0.0171761755 0.00497613382 0.0649960265 0.0609514788 0.00499873981 -0.0649943203 0.0609669015 0.00499833375 -0.019101724 0.0609994605 -0.0029345965 -0.0166530553 0.0444744453 -2.71809949e-05 -0.0168223847 0.045438502 -0.0049285111 -0.019101724 0.0609994605 -0.0029345965 -0.0168223847 0.045438502 -0.0049285111 0.0193309281 0.0609998256 -0.00209552469 -0.125649035 0.00795761496 0.233789563 -0.0983407944 0.0257363766 0.27761963 -0.0613577999 0.0305884816 0.224270865 -0.126188308 0.00663040718 0.28125456 -0.0612295344 -0.0351224095 0.266654313 -0.0983407944 0.0257363766 0.27761963 -0.0633143187 -0.0155193759 0.215928391 -0.0660703778 -0.0103608137 0.248002052 -0.0660398751 0.00227785343 0.258875191 -0.0638010725 0.0246380474 0.276818991 -0.0660398751 0.00227785343 0.258875191 -0.0660266206 0.00867526792 0.240638599 -0.0638010725 0.0246380474 0.276818991 -0.0660266206 0.00867526792 0.240638599 -0.0633143187 -0.0155193759 0.215928391 -0.0660266206 0.00867526792 0.240638599 -0.0660703778 -0.0103608137 0.248002052 -0.0633143187 -0.0155193759 0.215928391 -0.0648873299 -0.0285530835 0.261947125 -0.0633143187 -0.0155193759 0.215928391 -0.0660398751 0.00227785343 0.258875191 -0.0648873299 -0.0285530835 0.261947125 -0.0660398751 0.00227785343 0.258875191 -0.0638010725 0.0246380474 0.276818991 -0.126188308 0.00663040718 0.28125456 -0.0983407944 0.0257363766 0.27761963 -0.125649035 0.00795761496 0.233789563 -0.11579898 -0.0250921492 0.222910985 -0.0612295344 -0.0351224095 0.266654313 -0.126188308 0.00663040718 0.28125456 -0.0638010725 0.0246380474 0.276818991 -0.0612295344 -0.0351224095 0.266654313 -0.0613577999 0.0305884816 0.224270865 -0.0648873299 -0.0285530835 0.261947125 -0.0613577999 0.0305884816 0.224270865 -0.0633143187 -0.0155193759 0.215928391 -0.0638010725 0.0246380474 0.276818991 -0.0983407944 0.0257363766 0.27761963 -0.0612295344 -0.0351224095 0.266654313 -0.11579898 -0.0250921492 0.222910985 -0.0613577999 0.0305884816 0.224270865 -0.0612295344 -0.0351224095 0.266654313 -0.0648873299 -0.0285530835 0.261947125 -0.0638010725 0.0246380474 0.276818991 -0.0613577999 0.0305884816 0.224270865 -0.0638010725 0.0246380474 0.276818991 -0.0633143187 -0.0155193759 0.215928391 -0.0613577999 0.0305884816 0.224270865 -0.0638010725 0.0246380474 0.276818991 -0.0613577999 0.0305884816 0.224270865 -0.0983407944 0.0257363766 0.27761963 -0.0660266206 0.00867526792 0.240638599 -0.0660398751 0.00227785343 0.258875191 -0.125649035 0.00795761496 0.233789563 -0.0660703778 -0.0103608137 0.248002052 -0.125649035 0.00795761496 0.233789563 -0.126188308 0.00663040718 0.28125456 -0.0660398751 0.00227785343 0.258875191 -0.0660703778 -0.0103608137 0.248002052 -0.126188308 0.00663040718 0.28125456 -0.0660398751 0.00227785343 0.258875191 -0.126188308 0.00663040718 0.28125456 -0.125649035 0.00795761496 0.233789563 -0.0660266206 0.00867526792 0.240638599 -0.125649035 0.00795761496 0.233789563 -0.0660703778 -0.0103608137 0.248002052 -0.11579898 -0.0250921492 0.222910985 -0.126188308 0.00663040718 0.28125456 -0.125649035 0.00795761496 0.233789563 -0.11579898 -0.0250921492 0.222910985 -0.125649035 0.00795761496 0.233789563 -0.0613577999 0.0305884816 0.224270865 0.063254647 -0.0318713747 0.267726898 0.0661131516 -0.00376752275 0.258946061 0.061710041 0.0223143231 0.218172044 0.06613639 0.000383392995 0.23818557 0.063254647 -0.0318713747 0.267726898 0.0661131516 -0.00376752275 0.258946061 0.122926004 0.000371596921 0.283566296 0.063254647 -0.0318713747 0.267726898 0.119674452 -0.0356661677 0.246413872 0.0612551793 0.0239195507 0.27946192 0.122926004 0.000371596921 0.283566296 0.109597042 0.0375331528 0.239072695 0.0612551793 0.0239195507 0.27946192 0.0661131516 -0.00376752275 0.258946061 0.063254647 -0.0318713747 0.267726898 0.0602823831 -0.0187065266 0.216431737 0.061710041 0.0223143231 0.218172044 0.109597042 0.0375331528 0.239072695 0.0602823831 -0.0187065266 0.216431737 0.063254647 -0.0318713747 0.267726898 0.061710041 0.0223143231 0.218172044 0.0602823831 -0.0187065266 0.216431737 0.119674452 -0.0356661677 0.246413872 0.063254647 -0.0318713747 0.267726898 0.0612551793 0.0239195507 0.27946192 0.063254647 -0.0318713747 0.267726898 0.122926004 0.000371596921 0.283566296 0.0612551793 0.0239195507 0.27946192 0.109597042 0.0375331528 0.239072695 0.061710041 0.0223143231 0.218172044 0.121830314 -0.00327890995 0.211355761 0.119674452 -0.0356661677 0.246413872 0.0602823831 -0.0187065266 0.216431737 0.121830314 -0.00327890995 0.211355761 0.0602823831 -0.0187065266 0.216431737 0.109597042 0.0375331528 0.239072695 0.126847789 0.0058198981 0.256409675 0.06613639 0.000383392995 0.23818557 0.0661131516 -0.00376752275 0.258946061 0.126847789 0.0058198981 0.256409675 0.119674452 -0.0356661677 0.246413872 0.121830314 -0.00327890995 0.211355761 0.126847789 0.0058198981 0.256409675 0.122926004 0.000371596921 0.283566296 0.119674452 -0.0356661677 0.246413872 0.126847789 0.0058198981 0.256409675 0.121830314 -0.00327890995 0.211355761 0.109597042 0.0375331528 0.239072695 0.126847789 0.0058198981 0.256409675 0.109597042 0.0375331528 0.239072695 0.122926004 0.000371596921 0.283566296 0.0612551793 0.0239195507 0.27946192 0.061710041 0.0223143231 0.218172044 0.0661131516 -0.00376752275 0.258946061 0.0660014004 -0.00765621942 0.258382857 0.0660014004 -0.00766436616 0.25838536 0.0660014004 -0.00766077079 0.258380681 0.0660014004 -0.00726106763 0.258811951 0.0660014004 -0.00726921437 0.258814484 0.0660014004 -0.007265619 0.258809805 0.0660014004 -0.0078058145 0.258211195 0.0660014004 -0.00781396125 0.258213729 0.0660014004 -0.00781036587 0.25820905 0.0260402374 0.0259198956 0.282004654 -0.0255778451 0.0339417532 0.282004863 0.109918922 0.0241452828 0.284559071 -0.112862617 -0.0338024125 0.28417334 0.0260402374 0.0259198956 0.282004654 0.110718913 -0.0334569216 0.281991005 -0.0152677977 -0.0253583305 0.282624871 0.0260402374 0.0259198956 0.282004654 -0.112862617 -0.0338024125 0.28417334 -0.112976782 0.0340111107 0.282001346 -0.0255778451 0.0339417532 0.282004863 -0.0366481058 0.0260256268 0.282000184 -0.102808952 0.0256592315 0.286340922 -0.112976782 0.0340111107 0.282001346 -0.0366481058 0.0260256268 0.282000184 0.0225254707 -0.0010587268 0.282069564 0.0260402374 0.0259198956 0.282004654 -0.0152677977 -0.0253583305 0.282624871 0.0225254707 -0.0010587268 0.282069564 -0.0255778451 0.0339417532 0.282004863 0.0260402374 0.0259198956 0.282004654 -0.102808952 0.0256592315 0.286340922 -0.112862617 -0.0338024125 0.28417334 -0.112976782 0.0340111107 0.282001346 -0.0984882414 -0.0262130667 0.286998898 -0.112862617 -0.0338024125 0.28417334 0.029783247 -0.0262210388 0.287025958 0.00731846457 0.0189910736 0.28689605 0.029783247 -0.0262210388 0.287025958 -0.0252207238 0.0339957848 0.286997616 0.0336500444 0.0259955078 0.286999404 0.100286365 0.0260156225 0.287000239 -0.0252207238 0.0339957848 0.286997616 -0.0252207238 0.0339957848 0.286997616 0.029783247 -0.0262210388 0.287025958 -0.0152677977 -0.0253583305 0.282624871 -0.0252207238 0.0339957848 0.286997616 -0.0152677977 -0.0253583305 0.282624871 -0.0255778451 0.0339417532 0.282004863 0.029783247 -0.0262210388 0.287025958 0.0225254707 -0.0010587268 0.282069564 -0.0152677977 -0.0253583305 0.282624871 0.00731846457 0.0189910736 0.28689605 0.0225254707 -0.0010587268 0.282069564 0.029783247 -0.0262210388 0.287025958 0.00731846457 0.0189910736 0.28689605 -0.0252207238 0.0339957848 0.286997616 -0.0255778451 0.0339417532 0.282004863 -0.0984882414 -0.0262130667 0.286998898 -0.102808952 0.0256592315 0.286340922 -0.112862617 -0.0338024125 0.28417334 -0.0252207238 0.0339957848 0.286997616 -0.0984882414 -0.0262130667 0.286998898 0.029783247 -0.0262210388 0.287025958 0.0336500444 0.0259955078 0.286999404 -0.0252207238 0.0339957848 0.286997616 0.029783247 -0.0262210388 0.287025958 -0.102808952 0.0256592315 0.286340922 -0.0366481058 0.0260256268 0.282000184 -0.0255778451 0.0339417532 0.282004863 -0.0984882414 -0.0262130667 0.286998898 -0.0152677977 -0.0253583305 0.282624871 -0.112862617 -0.0338024125 0.28417334 0.100286365 0.0260156225 0.287000239 0.0260402374 0.0259198956 0.282004654 0.109918922 0.0241452828 0.284559071 0.0336500444 0.0259955078 0.286999404 0.0260402374 0.0259198956 0.282004654 0.100286365 0.0260156225 0.287000239 -0.0252207238 0.0339957848 0.286997616 -0.0255778451 0.0339417532 0.282004863 -0.112976782 0.0340111107 0.282001346 0.100286365 0.0260156225 0.287000239 -0.0255778451 0.0339417532 0.282004863 -0.0252207238 0.0339957848 0.286997616 0.029783247 -0.0262210388 0.287025958 0.110718913 -0.0334569216 0.281991005 0.0260402374 0.0259198956 0.282004654 0.0336500444 0.0259955078 0.286999404 0.029783247 -0.0262210388 0.287025958 0.0260402374 0.0259198956 0.282004654 0.029783247 -0.0262210388 0.287025958 0.109918922 0.0241452828 0.284559071 0.110718913 -0.0334569216 0.281991005 -0.0252207238 0.0339957848 0.286997616 -0.0255778451 0.0339417532 0.282004863 -0.0984882414 -0.0262130667 0.286998898 -0.0252207238 0.0339957848 0.286997616 -0.102808952 0.0256592315 0.286340922 -0.0255778451 0.0339417532 0.282004863 -0.0984882414 -0.0262130667 0.286998898 -0.0255778451 0.0339417532 0.282004863 -0.0152677977 -0.0253583305 0.282624871 0.029783247 -0.0262210388 0.287025958 -0.112862617 -0.0338024125 0.28417334 0.110718913 -0.0334569216 0.281991005 -0.0252207238 0.0339957848 0.286997616 -0.112976782 0.0340111107 0.282001346 -0.102808952 0.0256592315 0.286340922 0.100286365 0.0260156225 0.287000239 0.109918922 0.0241452828 0.284559071 -0.0255778451 0.0339417532 0.282004863 0.00731846457 0.0189910736 0.28689605 -0.0255778451 0.0339417532 0.282004863 0.0225254707 -0.0010587268 0.282069564 0.0500000007 0.0610000007 0.109499998 0.0500000007 0.0610000007 0.2095 0.0500000007 -0.0390000008 0.2095 0.0500000007 -0.0390000008 0.109499998 0.0500000007 0.0610000007 0.109499998 0.0500000007 -0.0390000008 0.2095 -0.0500000007 0.0610000044 0.109500006 -0.0500000007 0.060999997 0.2095 0.0500000007 0.0610000007 0.2095 -0.0500000007 0.0610000044 0.109500006 0.0500000007 0.0610000007 0.2095 0.0500000007 0.0610000007 0.109499998 -0.0500000007 -0.0390000008 0.109499991 -0.0500000007 -0.0390000008 0.2095 -0.0500000007 0.060999997 0.2095 -0.0500000007 -0.0390000008 0.109499991 -0.0500000007 0.060999997 0.2095 -0.0500000007 0.0610000044 0.109500006 -0.0500000007 -0.0390000008 0.2095 0.0500000007 -0.0390000008 0.109499998 0.0500000007 -0.0390000008 0.2095 -0.0500000007 -0.0390000008 0.109499991 0.0500000007 -0.0390000008 0.109499998 -0.0500000007 -0.0390000008 0.2095 -0.0500000007 -0.0390000008 0.2095 0.0500000007 0.0610000007 0.2095 -0.0500000007 0.060999997 0.2095 -0.0500000007 -0.0390000008 0.2095 0.0500000007 -0.0390000008 0.2095 0.0500000007 0.0610000007 0.2095 -0.0500000007 -0.0390000008 0.109499991 -0.0500000007 0.0610000044 0.109500006 0.0500000007 -0.0390000008 0.109499998 -0.0500000007 0.0610000044 0.109500006 0.0500000007 0.0610000007 0.109499998 0.0500000007 -0.0390000008 0.109499998 -0.00494023738 0.0693681017 0.456020057 -0.0353246145 0.0252890978 0.503123701 -0.0370776504 0.0604574867 0.462803662 -0.034811303 -0.0249464568 0.508620262 0.0363224298 -0.0254304968 0.499349445 0.00129401952 -0.0266904905 0.513278782 0.0354802907 -0.0371174254 0.500214696 0.00129401952 -0.0266904905 0.513278782 0.0363224298 -0.0254304968 0.499349445 -0.0632070526 -0.0270415433 0.483023405 -0.0353246145 0.0252890978 0.503123701 -0.0371491089 -0.0231557954 0.500048697 0.0719864741 -0.0256823208 0.470535725 0.0354802907 -0.0371174254 0.500214696 0.0363224298 -0.0254304968 0.499349445 0.0354040414 0.0244478043 0.495270103 -0.0353246145 0.0252890978 0.503123701 0.0368781611 0.0611049756 0.456450701 0.0368781611 0.0611049756 0.456450701 -0.0353246145 0.0252890978 0.503123701 -0.00494023738 0.0693681017 0.456020057 0.0354040414 0.0244478043 0.495270103 0.0363224298 -0.0254304968 0.499349445 -0.034811303 -0.0249464568 0.508620262 0.0354040414 0.0244478043 0.495270103 -0.034811303 -0.0249464568 0.508620262 -0.0353246145 0.0252890978 0.503123701 -0.0259903651 -0.0939516723 0.479858905 -0.0632070526 -0.0270415433 0.483023405 -0.034811303 -0.0249464568 0.508620262 -0.0259903651 -0.0939516723 0.479858905 -0.034811303 -0.0249464568 0.508620262 0.00129401952 -0.0266904905 0.513278782 -0.0259903651 -0.0939516723 0.479858905 0.00129401952 -0.0266904905 0.513278782 0.0354802907 -0.0371174254 0.500214696 0.0417827927 -0.0875306502 0.468344778 0.0354802907 -0.0371174254 0.500214696 0.0719864741 -0.0256823208 0.470535725 0.0417827927 -0.0875306502 0.468344778 -0.0259903651 -0.0939516723 0.479858905 0.0354802907 -0.0371174254 0.500214696 -0.0595940091 -0.0555926748 0.346969217 -0.042930007 -0.0802060887 0.377880216 -0.0404455513 -0.0918607488 0.347286791 -0.0486194715 -0.0959085375 0.422810078 0.0461574271 -0.0976235569 0.424851656 0.0546120629 -0.0876742229 0.428634435 0.0632702708 -0.0775815621 0.395308256 0.0416235812 -0.0880598202 0.369408101 -0.042930007 -0.0802060887 0.377880216 0.0434446335 0.025037149 0.492036223 0.0719864741 -0.0256823208 0.470535725 0.0363224298 -0.0254304968 0.499349445 -0.0698881298 -0.0540126897 0.4203462 -0.042930007 -0.0802060887 0.377880216 -0.0595940091 -0.0555926748 0.346969217 -0.0594013445 -0.0797113478 0.401026994 -0.042930007 -0.0802060887 0.377880216 -0.0486194715 -0.0959085375 0.422810078 -0.0486194715 -0.0959085375 0.422810078 -0.0259903651 -0.0939516723 0.479858905 0.0461574271 -0.0976235569 0.424851656 0.0546120629 -0.0876742229 0.428634435 0.0461574271 -0.0976235569 0.424851656 0.0417827927 -0.0875306502 0.468344778 -0.0234509092 -0.10832499 0.349357635 -0.042930007 -0.0802060887 0.377880216 0.0416235812 -0.0880598202 0.369408101 0.0402652211 -0.0982455462 0.347059935 -0.0234509092 -0.10832499 0.349357635 0.0416235812 -0.0880598202 0.369408101 -0.0652688816 0.0246876311 0.433623314 -0.0353246145 0.0252890978 0.503123701 -0.0632070526 -0.0270415433 0.483023405 -0.0652688816 0.0246876311 0.433623314 -0.0632070526 -0.0270415433 0.483023405 -0.0698881298 -0.0540126897 0.4203462 -0.0698881298 -0.0540126897 0.4203462 -0.0632070526 -0.0270415433 0.483023405 -0.0259903651 -0.0939516723 0.479858905 -0.0652688816 0.0246876311 0.433623314 -0.0370776504 0.0604574867 0.462803662 -0.0353246145 0.0252890978 0.503123701 -0.0349301398 -0.0870369077 0.310049236 0.0402652211 -0.0982455462 0.347059935 0.00457962928 -0.0965598226 0.310350776 0.0461574271 -0.0976235569 0.424851656 -0.0259903651 -0.0939516723 0.479858905 0.0417827927 -0.0875306502 0.468344778 0.0546120629 -0.0876742229 0.428634435 0.0417827927 -0.0875306502 0.468344778 0.0719864741 -0.0256823208 0.470535725 0.0718577206 -0.00177098333 0.420462549 0.0434446335 0.025037149 0.492036223 0.0368781611 0.0611049756 0.456450701 0.0718577206 -0.00177098333 0.420462549 0.0719864741 -0.0256823208 0.470535725 0.0434446335 0.025037149 0.492036223 0.0632702708 -0.0775815621 0.395308256 0.0546120629 -0.0876742229 0.428634435 0.0719864741 -0.0256823208 0.470535725 0.0613570921 -0.0502854809 0.349271804 0.0632702708 -0.0775815621 0.395308256 0.0719864741 -0.0256823208 0.470535725 0.0613570921 -0.0502854809 0.349271804 0.0416235812 -0.0880598202 0.369408101 0.0632702708 -0.0775815621 0.395308256 0.0464271344 -0.0839900449 0.321468592 0.0402652211 -0.0982455462 0.347059935 0.0613570921 -0.0502854809 0.349271804 0.0464271344 -0.0839900449 0.321468592 0.00457962928 -0.0965598226 0.310350776 0.0402652211 -0.0982455462 0.347059935 -0.0698881298 -0.0540126897 0.4203462 -0.0486194715 -0.0959085375 0.422810078 -0.042930007 -0.0802060887 0.377880216 -0.0710865855 0.012956297 0.449826449 -0.0698881298 -0.0540126897 0.4203462 -0.0595940091 -0.0555926748 0.346969217 -0.0349301398 -0.0870369077 0.310049236 -0.0404455513 -0.0918607488 0.347286791 0.0402652211 -0.0982455462 0.347059935 -0.0698881298 -0.0540126897 0.4203462 -0.0259903651 -0.0939516723 0.479858905 -0.0486194715 -0.0959085375 0.422810078 0.0464699715 -0.0932897255 0.368397772 0.0632702708 -0.0775815621 0.395308256 -0.0554036647 -0.0928529277 0.366909206 -0.0554036647 -0.0928529277 0.366909206 0.0632702708 -0.0775815621 0.395308256 -0.0594013445 -0.0797113478 0.401026994 0.0536137037 -0.0682611465 0.492212474 0.0497197397 -0.0967298821 0.419604421 0.0632702708 -0.0775815621 0.395308256 0.00151538802 -0.110164113 0.35986653 0.0464271344 -0.0839900449 0.321468592 0.0464699715 -0.0932897255 0.368397772 0.00151538802 -0.110164113 0.35986653 0.0464699715 -0.0932897255 0.368397772 -0.0554036647 -0.0928529277 0.366909206 -0.0554036647 -0.0928529277 0.366909206 -0.0595940091 -0.0555926748 0.346969217 -0.0349301398 -0.0870369077 0.310049236 -0.0554036647 -0.0928529277 0.366909206 -0.0349301398 -0.0870369077 0.310049236 0.00457962928 -0.0965598226 0.310350776 -0.0724654347 -0.0459667705 0.422050387 -0.0598229952 -0.0576023869 0.484647751 -0.0710865855 0.012956297 0.449826449 -0.0724654347 -0.0459667705 0.422050387 -0.0486194715 -0.0959085375 0.422810078 -0.0598229952 -0.0576023869 0.484647751 -0.0220014434 -0.0204482339 0.514991045 -0.0710865855 0.012956297 0.449826449 -0.0598229952 -0.0576023869 0.484647751 -0.00180487707 -0.0959896892 0.47930032 -0.0220014434 -0.0204482339 0.514991045 -0.0598229952 -0.0576023869 0.484647751 -0.0129860025 -0.113064498 0.428693742 -0.00180487707 -0.0959896892 0.47930032 -0.0598229952 -0.0576023869 0.484647751 -0.0129860025 -0.113064498 0.428693742 -0.0598229952 -0.0576023869 0.484647751 -0.0486194715 -0.0959085375 0.422810078 -0.00539998803 0.0566758849 0.486289889 -0.0710865855 0.012956297 0.449826449 -0.0220014434 -0.0204482339 0.514991045 -0.00539998803 0.0566758849 0.486289889 -0.0370776504 0.0604574867 0.462803662 -0.0710865855 0.012956297 0.449826449 -0.00539998803 0.0566758849 0.486289889 -0.00494023738 0.0693681017 0.456020057 -0.0370776504 0.0604574867 0.462803662 -0.00539998803 0.0566758849 0.486289889 0.0368781611 0.0611049756 0.456450701 -0.00494023738 0.0693681017 0.456020057 0.0583658181 0.0384622812 0.472503066 0.0368781611 0.0611049756 0.456450701 -0.00539998803 0.0566758849 0.486289889 0.0249288157 -0.0277152434 0.514865935 -0.00539998803 0.0566758849 0.486289889 -0.0220014434 -0.0204482339 0.514991045 0.0249288157 -0.0277152434 0.514865935 -0.0220014434 -0.0204482339 0.514991045 -0.00180487707 -0.0959896892 0.47930032 0.0536137037 -0.0682611465 0.492212474 0.0632702708 -0.0775815621 0.395308256 0.0718577206 -0.00177098333 0.420462549 0.0583658181 0.0384622812 0.472503066 0.0536137037 -0.0682611465 0.492212474 0.0718577206 -0.00177098333 0.420462549 0.0249288157 -0.0277152434 0.514865935 0.0536137037 -0.0682611465 0.492212474 0.0583658181 0.0384622812 0.472503066 0.0464271344 -0.0839900449 0.321468592 0.0613570921 -0.0502854809 0.349271804 0.0632702708 -0.0775815621 0.395308256 0.0464699715 -0.0932897255 0.368397772 0.0464271344 -0.0839900449 0.321468592 0.0632702708 -0.0775815621 0.395308256 0.0613570921 -0.0502854809 0.349271804 0.0718577206 -0.00177098333 0.420462549 0.0632702708 -0.0775815621 0.395308256 0.0583658181 0.0384622812 0.472503066 0.0718577206 -0.00177098333 0.420462549 0.0368781611 0.0611049756 0.456450701 0.0249288157 -0.0277152434 0.514865935 0.0583658181 0.0384622812 0.472503066 -0.00539998803 0.0566758849 0.486289889 0.0249288157 -0.0277152434 0.514865935 -0.00180487707 -0.0959896892 0.47930032 0.0536137037 -0.0682611465 0.492212474 -0.0129860025 -0.113064498 0.428693742 0.0497197397 -0.0967298821 0.419604421 0.0536137037 -0.0682611465 0.492212474 -0.0129860025 -0.113064498 0.428693742 0.0536137037 -0.0682611465 0.492212474 -0.00180487707 -0.0959896892 0.47930032 -0.0710865855 0.012956297 0.449826449 -0.0370776504 0.0604574867 0.462803662 -0.0652688816 0.0246876311 0.433623314 -0.0724654347 -0.0459667705 0.422050387 -0.0594013445 -0.0797113478 0.401026994 -0.0486194715 -0.0959085375 0.422810078 -0.0724654347 -0.0459667705 0.422050387 -0.0710865855 0.012956297 0.449826449 -0.0595940091 -0.0555926748 0.346969217 -0.0724654347 -0.0459667705 0.422050387 -0.0595940091 -0.0555926748 0.346969217 -0.0554036647 -0.0928529277 0.366909206 -0.0724654347 -0.0459667705 0.422050387 -0.0554036647 -0.0928529277 0.366909206 -0.0594013445 -0.0797113478 0.401026994 0.00151538802 -0.110164113 0.35986653 0.00457962928 -0.0965598226 0.310350776 0.0464271344 -0.0839900449 0.321468592 0.00151538802 -0.110164113 0.35986653 -0.0554036647 -0.0928529277 0.366909206 0.00457962928 -0.0965598226 0.310350776 0.0434446335 0.025037149 0.492036223 0.0363224298 -0.0254304968 0.499349445 0.0354040414 0.0244478043 0.495270103 -0.0356377177 -0.0255090371 0.458074749 -0.0353246145 0.0252890978 0.503123701 -0.034811303 -0.0249464568 0.508620262 -0.0129860025 -0.113064498 0.428693742 -0.0486194715 -0.0959085375 0.422810078 0.0497197397 -0.0967298821 0.419604421 0.0497197397 -0.0967298821 0.419604421 -0.0486194715 -0.0959085375 0.422810078 0.0546120629 -0.0876742229 0.428634435 0.0497197397 -0.0967298821 0.419604421 0.0546120629 -0.0876742229 0.428634435 0.0632702708 -0.0775815621 0.395308256 -0.0594013445 -0.0797113478 0.401026994 0.0632702708 -0.0775815621 0.395308256 -0.042930007 -0.0802060887 0.377880216 -0.0349301398 -0.0870369077 0.310049236 -0.0595940091 -0.0555926748 0.346969217 -0.0404455513 -0.0918607488 0.347286791 -0.0234509092 -0.10832499 0.349357635 -0.0404455513 -0.0918607488 0.347286791 -0.042930007 -0.0802060887 0.377880216 -0.0356377177 -0.0255090371 0.458074749 -0.0632070526 -0.0270415433 0.483023405 -0.0371491089 -0.0231557954 0.500048697 -0.0356377177 -0.0255090371 0.458074749 -0.034811303 -0.0249464568 0.508620262 -0.0632070526 -0.0270415433 0.483023405 0.0434446335 0.025037149 0.492036223 0.0354040414 0.0244478043 0.495270103 0.0368781611 0.0611049756 0.456450701 -0.0356377177 -0.0255090371 0.458074749 -0.0371491089 -0.0231557954 0.500048697 -0.0353246145 0.0252890978 0.503123701 0.0613570921 -0.0502854809 0.349271804 0.0402652211 -0.0982455462 0.347059935 0.0416235812 -0.0880598202 0.369408101 0.0402652211 -0.0982455462 0.347059935 -0.0404455513 -0.0918607488 0.347286791 -0.0234509092 -0.10832499 0.349357635 0.0613570921 -0.0502854809 0.349271804 0.0719864741 -0.0256823208 0.470535725 0.0718577206 -0.00177098333 0.420462549 -0.0710865855 0.012956297 0.449826449 -0.0652688816 0.0246876311 0.433623314 -0.0698881298 -0.0540126897 0.4203462 -0.0267958269 -0.0139512494 0.287 -0.0306860358 0.00254801032 0.467000008 -0.0304563083 0.000342850632 0.287 -0.0261373501 -0.0151490159 0.467000008 -0.0306860358 0.00254801032 0.467000008 -0.0267958269 -0.0139512494 0.287 -0.0191227198 -0.0231153965 0.287 -0.0261373501 -0.0151490159 0.467000008 -0.0267958269 -0.0139512494 0.287 -0.0156062385 -0.0258669462 0.467000008 -0.0261373501 -0.0151490159 0.467000008 -0.0191227198 -0.0231153965 0.287 -0.00998303574 -0.0285130255 0.287 -0.0156062385 -0.0258669462 0.467000008 -0.0191227198 -0.0231153965 0.287 -0.00121435442 -0.0301857423 0.467000008 -0.0156062385 -0.0258669462 0.467000008 -0.00998303574 -0.0285130255 0.287 0.00498805428 -0.0297955181 0.287 -0.00121435442 -0.0301857423 0.467000008 -0.00998303574 -0.0285130255 0.287 0.0134779522 -0.0270369835 0.467000008 -0.00121435442 -0.0301857423 0.467000008 0.00498805428 -0.0297955181 0.287 0.0244965851 -0.0191973299 0.287 0.0134779522 -0.0270369835 0.467000008 0.00498805428 -0.0297955181 0.287 0.027265586 -0.0138684735 0.467000008 0.0134779522 -0.0270369835 0.467000008 0.0244965851 -0.0191973299 0.287 0.0298579335 0.00665209722 0.287 0.027265586 -0.0138684735 0.467000008 0.0244965851 -0.0191973299 0.287 0.0298786163 0.00446340628 0.467000008 0.027265586 -0.0138684735 0.467000008 0.0298579335 0.00665209722 0.287 0.0240325704 0.0183054432 0.467000008 0.0298786163 0.00446340628 0.467000008 0.0298579335 0.00665209722 0.287 0.0142670963 0.0276599023 0.287 0.0240325704 0.0183054432 0.467000008 0.0298579335 0.00665209722 0.287 0.0085137682 0.0293813292 0.467000008 0.0240325704 0.0183054432 0.467000008 0.0142670963 0.0276599023 0.287 -0.0121290861 0.0280825868 0.287 0.0085137682 0.0293813292 0.467000008 0.0142670963 0.0276599023 0.287 -0.0176212937 0.0256536566 0.467000008 0.0085137682 0.0293813292 0.467000008 -0.0121290861 0.0280825868 0.287 -0.0261373483 0.0151490159 0.287 -0.0176212937 0.0256536566 0.467000008 -0.0121290861 0.0280825868 0.287 -0.0261373483 0.0151490159 0.287 -0.0306860358 0.00254801032 0.467000008 -0.0176212937 0.0256536566 0.467000008 -0.0261373483 0.0151490159 0.287 -0.0304563083 0.000342850632 0.287 -0.0306860358 0.00254801032 0.467000008 0.00498805428 -0.0297955181 0.287 -0.00998303574 -0.0285130255 0.287 -0.0267958269 -0.0139512494 0.287 -0.00998303574 -0.0285130255 0.287 -0.0191227198 -0.0231153965 0.287 -0.0267958269 -0.0139512494 0.287 0.0244965851 -0.0191973299 0.287 0.00498805428 -0.0297955181 0.287 -0.0267958269 -0.0139512494 0.287 0.0298579335 0.00665209722 0.287 0.0244965851 -0.0191973299 0.287 -0.0267958269 -0.0139512494 0.287 0.0142670963 0.0276599023 0.287 0.0298579335 0.00665209722 0.287 -0.0267958269 -0.0139512494 0.287 -0.0121290861 0.0280825868 0.287 0.0142670963 0.0276599023 0.287 -0.0267958269 -0.0139512494 0.287 -0.0261373483 0.0151490159 0.287 -0.0267958269 -0.0139512494 0.287 -0.0304563083 0.000342850632 0.287 -0.0261373483 0.0151490159 0.287 -0.0121290861 0.0280825868 0.287 -0.0267958269 -0.0139512494 0.287 -0.0176212937 0.0256536566 0.467000008 0.0240325704 0.0183054432 0.467000008 0.0085137682 0.0293813292 0.467000008 -0.0176212937 0.0256536566 0.467000008 0.0298786163 0.00446340628 0.467000008 0.0240325704 0.0183054432 0.467000008 -0.0176212937 0.0256536566 0.467000008 0.027265586 -0.0138684735 0.467000008 0.0298786163 0.00446340628 0.467000008 -0.0176212937 0.0256536566 0.467000008 -0.00121435442 -0.0301857423 0.467000008 0.0134779522 -0.0270369835 0.467000008 -0.0176212937 0.0256536566 0.467000008 0.0134779522 -0.0270369835 0.467000008 0.027265586 -0.0138684735 0.467000008 -0.0176212937 0.0256536566 0.467000008 -0.0156062385 -0.0258669462 0.467000008 -0.00121435442 -0.0301857423 0.467000008 -0.0176212937 0.0256536566 0.467000008 -0.0306860358 0.00254801032 0.467000008 -0.0261373501 -0.0151490159 0.467000008 -0.0176212937 0.0256536566 0.467000008 -0.0261373501 -0.0151490159 0.467000008 -0.0156062385 -0.0258669462 0.467000008 </float_array>
          <technique_common>
            <accessor count="1419" offset="0" source="#mesh_0-positions-array" stride="3">
              <param name="X" type="float" />
              <param name="Y" type="float" />
              <param name="Z" type="float" />
            </accessor>
          </technique_common>
        </source>
        <vertices id="mesh_0-vertices">
          <input semantic="POSITION" source="#mesh_0-positions" />
        </vertices>
        <polylist count="473" material="defaultMaterial">
          <input offset="0" semantic="VERTEX" source="#mesh_0-vertices" />
          <vcount>3 3 3 3 3 3 3 3 3 3 3 3 3 3 3 3 3 3 3 3 3 3 3 3 3 3 3 3 3 3 3 3 3 3 3 3 3 3 3 3 3 3 3 3 3 3 3 3 3 3 3 3 3 3 3 3 3 3 3 3 3 3 3 3 3 3 3 3 3 3 3 3 3 3 3 3 3 3 3 3 3 3 3 3 3 3 3 3 3 3 3 3 3 3 3 3 3 3 3 3 3 3 3 3 3 3 3 3 3 3 3 3 3 3 3 3 3 3 3 3 3 3 3 3 3 3 3 3 3 3 3 3 3 3 3 3 3 3 3 3 3 3 3 3 3 3 3 3 3 3 3 3 3 3 3 3 3 3 3 3 3 3 3 3 3 3 3 3 3 3 3 3 3 3 3 3 3 3 3 3 3 3 3 3 3 3 3 3 3 3 3 3 3 3 3 3 3 3 3 3 3 3 3 3 3 3 3 3 3 3 3 3 3 3 3 3 3 3 3 3 3 3 3 3 3 3 3 3 3 3 3 3 3 3 3 3 3 3 3 3 3 3 3 3 3 3 3 3 3 3 3 3 3 3 3 3 3 3 3 3 3 3 3 3 3 3 3 3 3 3 3 3 3 3 3 3 3 3 3 3 3 3 3 3 3 3 3 3 3 3 3 3 3 3 3 3 3 3 3 3 3 3 3 3 3 3 3 3 3 3 3 3 3 3 3 3 3 3 3 3 3 3 3 3 3 3 3 3 3 3 3 3 3 3 3 3 3 3 3 3 3 3 3 3 3 3 3 3 3 3 3 3 3 3 3 3 3 3 3 3 3 3 3 3 3 3 3 3 3 3 3 3 3 3 3 3 3 3 3 3 3 3 3 3 3 3 3 3 3 3 3 3 3 3 3 3 3 3 3 3 3 3 3 3 3 3 3 3 3 3 3 3 3 3 3 3 3 3 3 3 3 3 3 3 3 3 3 3 3 3 3 3 3 3 3 3 3 3 3 3 3 3 3 3 3 3 3 3 3 3 3 3 3 3 3 3 3 3 3 3 3 3 3 3 3 3 3 3 3 3 3 3 3 </vcount>
          <p>0 1 2 3 4 5 6 7 8 9 10 11 12 13 14 15 16 17 18 19 20 21 22 23 24 25 26 27 28 29 30 31 32 33 34 35 36 37 38 39 40 41 42 43 44 45 46 47 48 49 50 51 52 53 54 55 56 57 58 59 60 61 62 63 64 65 66 67 68 69 70 71 72 73 74 75 76 77 78 79 80 81 82 83 84 85 86 87 88 89 90 91 92 93 94 95 96 97 98 99 100 101 102 103 104 105 106 107 108 109 110 111 112 113 114 115 116 117 118 119 120 121 122 123 124 125 126 127 128 129 130 131 132 133 134 135 136 137 138 139 140 141 142 143 144 145 146 147 148 149 150 151 152 153 154 155 156 157 158 159 160 161 162 163 164 165 166 167 168 169 170 171 172 173 174 175 176 177 178 179 180 181 182 183 184 185 186 187 188 189 190 191 192 193 194 195 196 197 198 199 200 201 202 203 204 205 206 207 208 209 210 211 212 213 214 215 216 217 218 219 220 221 222 223 224 225 226 227 228 229 230 231 232 233 234 235 236 237 238 239 240 241 242 243 244 245 246 247 248 249 250 251 252 253 254 255 256 257 258 259 260 261 262 263 264 265 266 267 268 269 270 271 272 273 274 275 276 277 278 279 280 281 282 283 284 285 286 287 288 289 290 291 292 293 294 295 296 297 298 299 300 301 302 303 304 305 306 307 308 309 310 311 312 313 314 315 316 317 318 319 320 321 322 323 324 325 326 327 328 329 330 331 332 333 334 335 336 337 338 339 340 341 342 343 344 345 346 347 348 349 350 351 352 353 354 355 356 357 358 359 360 361 362 363 364 365 366 367 368 369 370 371 372 373 374 375 376 377 378 379 380 381 382 383 384 385 386 387 388 389 390 391 392 393 394 395 396 397 398 399 400 401 402 403 404 405 406 407 408 409 410 411 412 413 414 415 416 417 418 419 420 421 422 423 424 425 426 427 428 429 430 431 432 433 434 435 436 437 438 439 440 441 442 443 444 445 446 447 448 449 450 451 452 453 454 455 456 457 458 459 460 461 462 463 464 465 466 467 468 469 470 471 472 473 474 475 476 477 478 479 480 481 482 483 484 485 486 487 488 489 490 491 492 493 494 495 496 497 498 499 500 501 502 503 504 505 506 507 508 509 510 511 512 513 514 515 516 517 518 519 520 521 522 523 524 525 526 527 528 529 530 531 532 533 534 535 536 537 538 539 540 541 542 543 544 545 546 547 548 549 550 551 552 553 554 555 556 557 558 559 560 561 562 563 564 565 566 567 568 569 570 571 572 573 574 575 576 577 578 579 580 581 582 583 584 585 586 587 588 589 590 591 592 593 594 595 596 597 598 599 600 601 602 603 604 605 606 607 608 609 610 611 612 613 614 615 616 617 618 619 620 621 622 623 624 625 626 627 628 629 630 631 632 633 634 635 636 637 638 639 640 641 642 643 644 645 646 647 648 649 650 651 652 653 654 655 656 657 658 659 660 661 662 663 664 665 666 667 668 669 670 671 672 673 674 675 676 677 678 679 680 681 682 683 684 685 686 687 688 689 690 691 692 693 694 695 696 697 698 699 700 701 702 703 704 705 706 707 708 709 710 711 712 713 714 715 716 717 718 719 720 721 722 723 724 725 726 727 728 729 730 731 732 733 734 735 736 737 738 739 740 741 742 743 744 745 746 747 748 749 750 751 752 753 754 755 756 757 758 759 760 761 762 763 764 765 766 767 768 769 770 771 772 773 774 775 776 777 778 779 780 781 782 783 784 785 786 787 788 789 790 791 792 793 794 795 796 797 798 799 800 801 802 803 804 805 806 807 808 809 810 811 812 813 814 815 816 817 818 819 820 821 822 823 824 825 826 827 828 829 830 831 832 833 834 835 836 837 838 839 840 841 842 843 844 845 846 847 848 849 850 851 852 853 854 855 856 857 858 859 860 861 862 863 864 865 866 867 868 869 870 871 872 873 874 875 876 877 878 879 880 881 882 883 884 885 886 887 888 889 890 891 892 893 894 895 896 897 898 899 900 901 902 903 904 905 906 907 908 909 910 911 912 913 914 915 916 917 918 919 920 921 922 923 924 925 926 927 928 929 930 931 932 933 934 935 936 937 938 939 940 941 942 943 944 945 946 947 948 949 950 951 952 953 954 955 956 957 958 959 960 961 962 963 964 965 966 967 968 969 970 971 972 973 974 975 976 977 978 979 980 981 982 983 984 985 986 987 988 989 990 991 992 993 994 995 996 997 998 999 1000 1001 1002 1003 1004 1005 1006 1007 1008 1009 1010 1011 1012 1013 1014 1015 1016 1017 1018 1019 1020 1021 1022 1023 1024 1025 1026 1027 1028 1029 1030 1031 1032 1033 1034 1035 1036 1037 1038 1039 1040 1041 1042 1043 1044 1045 1046 1047 1048 1049 1050 1051 1052 1053 1054 1055 1056 1057 1058 1059 1060 1061 1062 1063 1064 1065 1066 1067 1068 1069 1070 1071 1072 1073 1074 1075 1076 1077 1078 1079 1080 1081 1082 1083 1084 1085 1086 1087 1088 1089 1090 1091 1092 1093 1094 1095 1096 1097 1098 1099 1100 1101 1102 1103 1104 1105 1106 1107 1108 1109 1110 1111 1112 1113 1114 1115 1116 1117 1118 1119 1120 1121 1122 1123 1124 1125 1126 1127 1128 1129 1130 1131 1132 1133 1134 1135 1136 1137 1138 1139 1140 1141 1142 1143 1144 1145 1146 1147 1148 1149 1150 1151 1152 1153 1154 1155 1156 1157 1158 1159 1160 1161 1162 1163 1164 1165 1166 1167 1168 1169 1170 1171 1172 1173 1174 1175 1176 1177 1178 1179 1180 1181 1182 1183 1184 1185 1186 1187 1188 1189 1190 1191 1192 1193 1194 1195 1196 1197 1198 1199 1200 1201 1202 1203 1204 1205 1206 1207 1208 1209 1210 1211 1212 1213 1214 1215 1216 1217 1218 1219 1220 1221 1222 1223 1224 1225 1226 1227 1228 1229 1230 1231 1232 1233 1234 1235 1236 1237 1238 1239 1240 1241 1242 1243 1244 1245 1246 1247 1248 1249 1250 1251 1252 1253 1254 1255 1256 1257 1258 1259 1260 1261 1262 1263 1264 1265 1266 1267 1268 1269 1270 1271 1272 1273 1274 1275 1276 1277 1278 1279 1280 1281 1282 1283 1284 1285 1286 1287 1288 1289 1290 1291 1292 1293 1294 1295 1296 1297 1298 1299 1300 1301 1302 1303 1304 1305 1306 1307 1308 1309 1310 1311 1312 1313 1314 1315 1316 1317 1318 1319 1320 1321 1322 1323 1324 1325 1326 1327 1328 1329 1330 1331 1332 1333 1334 1335 1336 1337 1338 1339 1340 1341 1342 1343 1344 1345 1346 1347 1348 1349 1350 1351 1352 1353 1354 1355 1356 1357 1358 1359 1360 1361 1362 1363 1364 1365 1366 1367 1368 1369 1370 1371 1372 1373 1374 1375 1376 1377 1378 1379 1380 1381 1382 1383 1384 1385 1386 1387 1388 1389 1390 1391 1392 1393 1394 1395 1396 1397 1398 1399 1400 1401 1402 1403 1404 1405 1406 1407 1408 1409 1410 1411 1412 1413 1414 1415 1416 1417 1418 </p>
        </polylist>
      </mesh>
    </geometry>
  </library_geometries>
  <library_controllers>
  </library_controllers>
  <library_visual_scenes>
    <visual_scene id="Scene" name="Scene">
      <node id="node" name="" type="NODE">
        <matrix sid="matrix">1 0 0 0 0 1 0 0 0 0 1 0 0 0 0 1</matrix>
        <instance_geometry url="#mesh_0">
          <bind_material>
            <technique_common>
              <instance_material symbol="defaultMaterial" target="#material_0">
              </instance_material>
            </technique_common>
          </bind_material>
        </instance_geometry>
      </node>
    </visual_scene>
  </library_visual_scenes>
  <scene>
    <instance_visual_scene url="#Scene" />
  </scene>
</COLLADA>
