<?xml version="1.0" encoding="UTF-8" standalone="no" ?>
<COLLADA xmlns="http://www.collada.org/2005/11/COLLADASchema" version="1.4.1">
  <asset>
    <contributor>
      <author>Assimp</author>
      <authoring_tool>Assimp Exporter</authoring_tool>
    </contributor>
    <created>2025-12-08T10:04:59</created>
    <modified>2025-12-08T10:04:59</modified>
    <unit name="meter" meter="1" />
    <up_axis>Y_UP</up_axis>
  </asset>
  <library_images>
  </library_images>
  <library_effects>
    <effect id="material_0-fx" name="">
      <profile_COMMON>
        <technique sid="standard">
          <phong>
            <emission>
              <color sid="emission">0   0   0   4.53488209e-41</color>
            </emission>
            <ambient>
              <color sid="ambient">0.831372559   0.839215696   0.831372559   -0.021484375</color>
            </ambient>
            <diffuse>
              <color sid="diffuse">0.831372559   0.839215696   0.831372559   -0.021484375</color>
            </diffuse>
            <specular>
              <color sid="specular">0.200000003   0.200000003   0.200000003   2.55843558e-11</color>
            </specular>
          </phong>
        </technique>
      </profile_COMMON>
    </effect>
  </library_effects>
  <library_materials>
    <material id="material_0" name="">
      <instance_effect url="#material_0-fx"/>
    </material>
  </library_materials>
  <library_geometries>
    <geometry id="mesh_0" name="" >
      <mesh>
        <source id="mesh_0-positions" name="mesh_0-positions">
          <float_array id="mesh_0-positions-array" count="4077"> 0.0265232529 0.00396223459 -0.0299809109 0.0270268656 -0.00484999968 -0.0275004227 0.0266215485 0.00265000062 -0.027244946 0.0171388369 0.0033499999 0.0231086109 0.0242676158 8.78784249e-06 0.0157931503 0.00892076269 6.18858903e-05 0.0274199583 -0.0198984314 -1.5898815e-05 0.0205371082 -0.0204476509 0.00225166883 0.0206825659 -0.00655085128 0.00015166626 0.0279819239 -0.0284707639 0.00246103294 0.00583450729 -0.0204476509 0.00225166883 0.0206825659 -0.0198984314 -1.5898815e-05 0.0205371082 -0.0268752109 -0.000286260183 0.00951493811 -0.0284707639 0.00246103294 0.00583450729 -0.0198984314 -1.5898815e-05 0.0205371082 -0.0282261893 5.88767701e-10 0.00278004026 -0.0284707639 0.00246103294 0.00583450729 -0.0268752109 -0.000286260183 0.00951493811 -0.0280650109 1.35108385e-05 -0.00548718963 -0.0284707639 0.00246103294 0.00583450729 -0.0282261893 5.88767701e-10 0.00278004026 -0.020634966 0.0023807562 -0.0205000378 -0.0245886575 7.52686828e-05 -0.0154556632 -0.00962161738 0.00014808659 -0.0272271447 -0.0112269372 0.00399071258 -0.0265034661 -0.020634966 0.0023807562 -0.0205000378 -0.00962161738 0.00014808659 -0.0272271447 0.0186768863 0.00379878865 -0.0227646437 0.00175565842 0.00399147766 -0.0289672557 0.00516262604 3.4028013e-05 -0.028861139 0.0207745638 -6.72693432e-06 -0.0184940025 0.0186768863 0.00379878865 -0.0227646437 0.00516262604 3.4028013e-05 -0.028861139 0.0237475336 -0.000174062749 -0.0138131436 0.0186768863 0.00379878865 -0.0227646437 0.0207745638 -6.72693432e-06 -0.0184940025 0.0278883372 9.2694303e-05 -0.00704471255 0.0186768863 0.00379878865 -0.0227646437 0.0237475336 -0.000174062749 -0.0138131436 0.0307 0.00399999879 -0.0359999985 0.0265232529 0.00396223459 -0.0299809109 0.0251101498 0.00399957458 -0.0244886242 0.0309986658 0.00399439689 -1.71970041e-05 0.0307 0.00399999879 -0.0359999985 0.0251101498 0.00399957458 -0.0244886242 0.0205714814 0.0039999052 -0.0311862063 0.0265232529 0.00396223459 -0.0299809109 0.0307 0.00399999879 -0.0359999985 0.0205714814 0.0039999052 -0.0311862063 0.00175565842 0.00399147766 -0.0289672557 0.0186768863 0.00379878865 -0.0227646437 -0.0306899045 0.00400514761 -0.0361527018 0.00175565842 0.00399147766 -0.0289672557 0.0205714814 0.0039999052 -0.0311862063 -0.0253672525 0.00399840111 -0.0319456607 0.00175565842 0.00399147766 -0.0289672557 -0.0306899045 0.00400514761 -0.0361527018 -0.0253672525 0.00399840111 -0.0319456607 -0.0112269372 0.00399071258 -0.0265034661 0.00175565842 0.00399147766 -0.0289672557 -0.0306899045 0.00400514761 -0.0361527018 0.0205714814 0.0039999052 -0.0311862063 0.0307 0.00399999879 -0.0359999985 0.0212262031 0.00400504936 -0.0239585266 0.0205714814 0.0039999052 -0.0311862063 0.0186768863 0.00379878865 -0.0227646437 -0.0197084174 0.00399975805 -0.0252375808 -0.0112269372 0.00399071258 -0.0265034661 -0.0253672525 0.00399840111 -0.0319456607 -0.0309955161 0.00399373425 0.0033740697 -0.0197084174 0.00399975805 -0.0252375808 -0.0306899045 0.00400514761 -0.0361527018 -0.0289126802 0.00382319023 0.0111933863 -0.0263367817 0.00401140656 0.0163438302 -0.0309955161 0.00399373425 0.0033740697 -0.01868614 0.00399231073 0.0247349907 -0.0139134461 0.00400435226 0.0277042761 -0.0263367817 0.00401140656 0.0163438302 -0.00848898944 0.00399268791 0.0298149064 -0.00281435321 0.00402660808 0.0308669861 -0.0139134461 0.00400435226 0.0277042761 0.00341733987 0.00337528414 0.028598072 -0.00281435321 0.00402660808 0.0308669861 0.0120240794 0.0039828294 0.0286609456 0.0186770186 0.00399142643 0.0247418862 0.00341733987 0.00337528414 0.028598072 0.0120240794 0.0039828294 0.0286609456 0.0186770186 0.00399142643 0.0247418862 0.0171388369 0.0033499999 0.0231086109 0.00341733987 0.00337528414 0.028598072 0.0248370394 0.00395789696 0.0187714733 0.0171388369 0.0033499999 0.0231086109 0.0186770186 0.00399142643 0.0247418862 0.0289894417 0.00388749968 0.00491083413 0.0309986658 0.00399439689 -1.71970041e-05 0.0212262031 0.00400504936 -0.0239585266 0.0212262031 0.00400504936 -0.0239585266 0.0309986658 0.00399439689 -1.71970041e-05 0.0251101498 0.00399957458 -0.0244886242 0.0309999995 0.00370000117 -0.0359999985 0.0307 0.00399999879 -0.0359999985 0.0309986658 0.00399439689 -1.71970041e-05 -0.0189157184 -6.31821167e-05 -0.00686914474 -0.0196321625 -0.00246250071 0.00346788671 -0.0200738087 -0.0049788109 0.000858212064 -0.000141505181 -0.00150781276 0.0268133357 0.00892076269 6.18858903e-05 0.0274199583 -0.00655085128 0.00015166626 0.0279819239 -0.0222167578 -0.00282076141 0.0170670636 -0.0198984314 -1.5898815e-05 0.0205371082 -0.0165685769 -0.00485967007 0.0117288409 0.0189493131 -0.00329374988 -0.0136489207 0.0207745638 -6.72693432e-06 -0.0184940025 0.0237475336 -0.000174062749 -0.0138131436 -0.00295271003 -0.00250665122 -0.0267281774 0.00516262604 3.4028013e-05 -0.028861139 0.00335476035 -0.0049832263 -0.0252489448 -0.0164278168 -0.0020656155 -0.0236445852 -0.0154987648 7.11735504e-10 -0.0206572767 -0.0120004229 -0.00491323089 -0.0192476045 -0.0239532106 -0.0049707396 -0.0149301942 -0.0179111212 -0.000362815656 -0.0157658458 -0.0205106642 -0.00263750087 -0.0124920523 -0.00738217309 -0.00189419952 0.0210402124 -0.00655085128 0.00015166626 0.0279819239 -0.0104341451 -0.00493919803 0.0264005587 -0.0152931577 -2.61785117e-05 -0.0128738498 -0.0280650109 1.35108385e-05 -0.00548718963 -0.0189157184 -6.31821167e-05 -0.00686914474 0.0187906977 -2.61008263e-05 -0.00683174003 0.0207745638 -6.72693432e-06 -0.0184940025 0.00800106768 -2.3732824e-05 -0.018465016 0.0278883372 9.2694303e-05 -0.00704471255 0.0237475336 -0.000174062749 -0.0138131436 0.0242676158 8.78784249e-06 0.0157931503 -0.0250425171 -0.000120931545 0.0028772431 -0.0280650109 1.35108385e-05 -0.00548718963 -0.0282261893 5.88767701e-10 0.00278004026 -0.0260457098 -0.000376778655 -0.00578204496 -0.0245886575 7.52686828e-05 -0.0154556632 -0.0280650109 1.35108385e-05 -0.00548718963 -0.0179111212 -0.000362815656 -0.0157658458 -0.0245886575 7.52686828e-05 -0.0154556632 -0.0280650109 1.35108385e-05 -0.00548718963 -0.0154987648 7.11735504e-10 -0.0206572767 -0.00962161738 0.00014808659 -0.0272271447 -0.0245886575 7.52686828e-05 -0.0154556632 -0.0154987648 7.11735504e-10 -0.0206572767 0.0207745638 -6.72693432e-06 -0.0184940025 -0.00962161738 0.00014808659 -0.0272271447 -0.0154987648 7.11735504e-10 -0.0206572767 -0.0280650109 1.35108385e-05 -0.00548718963 0.0207745638 -6.72693432e-06 -0.0184940025 -0.0154987648 7.11735504e-10 -0.0206572767 -0.0245886575 7.52686828e-05 -0.0154556632 -0.0280650109 1.35108385e-05 -0.00548718963 -0.00597664155 -0.000261950045 -0.0220778529 -0.00962161738 0.00014808659 -0.0272271447 0.0207745638 -6.72693432e-06 -0.0184940025 -0.00597664155 -0.000261950045 -0.0220778529 0.00516262604 3.4028013e-05 -0.028861139 -0.00962161738 0.00014808659 -0.0272271447 -0.00597664155 -0.000261950045 -0.0220778529 0.0207745638 -6.72693432e-06 -0.0184940025 0.00516262604 3.4028013e-05 -0.028861139 0.0051310421 -0.000358523248 -0.0230397694 0.00516262604 3.4028013e-05 -0.028861139 0.0207745638 -6.72693432e-06 -0.0184940025 0.0132979592 -0.000281355897 -0.0189720578 0.00516262604 3.4028013e-05 -0.028861139 0.0207745638 -6.72693432e-06 -0.0184940025 0.0217271242 -0.00171756884 0.00832489319 0.0279252641 -1.92680109e-05 0.00697091408 0.0242676158 8.78784249e-06 0.0157931503 0.012033388 -0.000448403938 0.0203721393 0.0242676158 8.78784249e-06 0.0157931503 0.0176338889 -0.00343805552 0.0227944497 0.0176338889 -0.00343805552 0.0227944497 0.00892076269 6.18858903e-05 0.0274199583 0.0242676158 8.78784249e-06 0.0157931503 0.00526375789 -0.00136829645 0.024877809 0.00892076269 6.18858903e-05 0.0274199583 0.0242676158 8.78784249e-06 0.0157931503 -0.000141505181 -0.00150781276 0.0268133357 -0.00655085128 0.00015166626 0.0279819239 0.00341733987 0.00337528414 0.028598072 -0.000141505181 -0.00150781276 0.0268133357 0.00341733987 0.00337528414 0.028598072 0.00892076269 6.18858903e-05 0.0274199583 -0.00655085128 0.00015166626 0.0279819239 0.00892076269 6.18858903e-05 0.0274199583 0.0242676158 8.78784249e-06 0.0157931503 -0.00738217309 -0.00189419952 0.0210402124 -0.00655085128 0.00015166626 0.0279819239 0.0242676158 8.78784249e-06 0.0157931503 -0.0198984314 -1.5898815e-05 0.0205371082 -0.00655085128 0.00015166626 0.0279819239 0.0242676158 8.78784249e-06 0.0157931503 -0.0268752109 -0.000286260183 0.00951493811 -0.0198984314 -1.5898815e-05 0.0205371082 0.0242676158 8.78784249e-06 0.0157931503 -0.0225599036 -0.000538425636 0.00522375945 -0.0282261893 5.88767701e-10 0.00278004026 -0.0268752109 -0.000286260183 0.00951493811 0.0163908545 -2.85227488e-05 0.0124875838 0.0242676158 8.78784249e-06 0.0157931503 0.0187906977 -2.61008263e-05 -0.00683174003 0.0187906977 -2.61008263e-05 -0.00683174003 0.0242676158 8.78784249e-06 0.0157931503 0.0207745638 -6.72693432e-06 -0.0184940025 0.0237475336 -0.000174062749 -0.0138131436 0.0207745638 -6.72693432e-06 -0.0184940025 0.0242676158 8.78784249e-06 0.0157931503 -0.017855525 -2.43595132e-05 0.00899362471 -0.0196321625 -0.00246250071 0.00346788671 -0.0282261893 5.88767701e-10 0.00278004026 -0.0189157184 -6.31821167e-05 -0.00686914474 -0.0282261893 5.88767701e-10 0.00278004026 -0.0196321625 -0.00246250071 0.00346788671 -0.0189157184 -6.31821167e-05 -0.00686914474 -0.0280650109 1.35108385e-05 -0.00548718963 -0.0282261893 5.88767701e-10 0.00278004026 -0.017855525 -2.43595132e-05 0.00899362471 -0.0282261893 5.88767701e-10 0.00278004026 0.0242676158 8.78784249e-06 0.0157931503 -0.00127418758 -4.86922181e-05 0.020086661 -0.017855525 -2.43595132e-05 0.00899362471 0.0242676158 8.78784249e-06 0.0157931503 -0.00127418758 -4.86922181e-05 0.020086661 0.0242676158 8.78784249e-06 0.0157931503 0.0163908545 -2.85227488e-05 0.0124875838 0.0227460358 -0.00010761177 -0.000386212487 0.0278883372 9.2694303e-05 -0.00704471255 0.0242676158 8.78784249e-06 0.0157931503 0.0227460358 -0.00010761177 -0.000386212487 0.0279252641 -1.92680109e-05 0.00697091408 0.0278883372 9.2694303e-05 -0.00704471255 0.0227460358 -0.00010761177 -0.000386212487 0.0242676158 8.78784249e-06 0.0157931503 0.0279252641 -1.92680109e-05 0.00697091408 -0.00578611018 -3.78713594e-05 -0.0192746986 0.0207745638 -6.72693432e-06 -0.0184940025 -0.0152931577 -2.61785117e-05 -0.0128738498 -0.0152931577 -2.61785117e-05 -0.0128738498 0.0207745638 -6.72693432e-06 -0.0184940025 -0.0280650109 1.35108385e-05 -0.00548718963 -0.0282261893 5.88767701e-10 0.00278004026 -0.0268752109 -0.000286260183 0.00951493811 0.0242676158 8.78784249e-06 0.0157931503 0.0136269247 0.0300083254 -0.0400668234 -0.0307 0.0398757346 -0.0399999991 -0.00926184654 0.0442017205 -0.0400244929 -0.0140370466 0.0365093425 -0.0406592563 -0.00926184654 0.0442017205 -0.0400244929 -0.0307 0.0398757346 -0.0399999991 -0.0129627381 0.0280281641 -0.0400229283 -0.0140370466 0.0365093425 -0.0406592563 -0.0307 0.0398757346 -0.0399999991 0.0106820194 0.0243264772 -0.0400436334 -0.0129627381 0.0280281641 -0.0400229283 -0.0307 0.0398757346 -0.0399999991 0.0106820194 0.0243264772 -0.0400436334 -0.0307 0.0398757346 -0.0399999991 0.0136269247 0.0300083254 -0.0400668234 -0.0198145844 0.0430965126 -0.0400021859 -0.0249998383 0.017290879 -0.0400122888 -0.0197056755 0.0345242098 -0.0400079228 -0.00479332078 0.057699997 -0.0399999991 -0.0307 0.0398757346 -0.0399999991 0.0129998634 0.0579996854 -0.0400353521 0.0249996111 0.0459998883 -0.0400089622 0.0129998634 0.0579996854 -0.0400353521 -0.0307 0.0398757346 -0.0399999991 0.0198037513 0.0430148207 -0.0400056094 0.0249996111 0.0459998883 -0.0400089622 -0.0307 0.0398757346 -0.0399999991 0.022824293 0.033729583 -0.0400115773 0.0249996111 0.0459998883 -0.0400089622 -0.0307 0.0398757346 -0.0399999991 0.0194014702 0.0254636481 -0.0400100276 0.0249996111 0.0459998883 -0.0400089622 -0.0307 0.0398757346 -0.0399999991 0.0250036959 0.0167356953 -0.0400107689 0.0249996111 0.0459998883 -0.0400089622 -0.0307 0.0398757346 -0.0399999991 0.0307 0.0094908122 -0.0399659239 0.0250036959 0.0167356953 -0.0400107689 -0.0307 0.0398757346 -0.0399999991 0.0310004447 0.013937165 -0.0496991202 0.0250036959 0.0167356953 -0.0400107689 0.0307 0.0094908122 -0.0399659239 -0.0220211782 0.0330557898 -0.0420750007 -0.0307 0.0398757346 -0.0399999991 -0.0197056755 0.0345242098 -0.0400079228 -0.0220211782 0.0330557898 -0.0420750007 -0.0249998383 0.017290879 -0.0400122888 -0.0307 0.0398757346 -0.0399999991 -0.0220211782 0.0330557898 -0.0420750007 -0.0197056755 0.0345242098 -0.0400079228 -0.0249998383 0.017290879 -0.0400122888 -0.0198145844 0.0430965126 -0.0400021859 -0.0197056755 0.0345242098 -0.0400079228 -0.0307 0.0398757346 -0.0399999991 -0.00725425081 0.0542366654 -0.0400045477 -0.0307 0.0398757346 -0.0399999991 -0.00479332078 0.057699997 -0.0399999991 -0.00657033408 0.0520665608 -0.0464670025 -0.0307 0.0398757346 -0.0399999991 -0.00725425081 0.0542366654 -0.0400045477 -0.0095215207 0.0520207286 -0.0410022922 -0.00725425081 0.0542366654 -0.0400045477 -0.00479332078 0.057699997 -0.0399999991 -0.0095215207 0.0520207286 -0.0410022922 -0.00479332078 0.057699997 -0.0399999991 -0.0307 0.0398757346 -0.0399999991 -0.0095215207 0.0520207286 -0.0410022922 -0.0307 0.0398757346 -0.0399999991 -0.00657033408 0.0520665608 -0.0464670025 0.00859862566 0.0546568185 -0.0400088876 -0.00479332078 0.057699997 -0.0399999991 -0.0307 0.0398757346 -0.0399999991 -0.00100711512 0.0136443749 -0.0402249992 -0.0309990775 0.00808111299 -0.0400084704 -0.0307 0.0398757346 -0.0399999991 -0.000359927886 0.0112015866 -0.0401500016 -0.00100711512 0.0136443749 -0.0402249992 -0.0307 0.0398757346 -0.0399999991 -0.00105688325 0.0551287532 -0.0401551127 -0.0307 0.0398757346 -0.0399999991 -0.00479332078 0.057699997 -0.0399999991 -0.0128757358 0.057699997 -0.0399999991 -0.0307 0.0398757346 -0.0399999991 -0.00479332078 0.057699997 -0.0399999991 -0.0196484122 0.0402738824 -0.0400525033 -0.0198145844 0.0430965126 -0.0400021859 -0.0307 0.0398757346 -0.0399999991 -0.0198145844 0.0430965126 -0.0400021859 -0.0307 0.0398757346 -0.0399999991 -0.0249998383 0.017290879 -0.0400122888 -0.0249999799 0.0460000038 -0.0402837321 -0.0249998383 0.017290879 -0.0400122888 -0.0307 0.0398757346 -0.0399999991 -0.020737296 0.0251869299 -0.0477350391 -0.0307 0.0398757346 -0.0399999991 -0.018261943 0.0260999557 -0.0400372148 -0.0309990775 0.00808111299 -0.0400084704 0.0307 0.0094908122 -0.0399659239 -0.0307 0.0398757346 -0.0399999991 -0.000359927886 0.0112015866 -0.0401500016 -0.0307 0.0398757346 -0.0399999991 -0.0309990775 0.00808111299 -0.0400084704 -0.0309999995 -0.000999999815 -0.0500000007 -0.0310003031 0.0139060989 -0.0499651842 -0.0279959105 0.0140983472 -0.0499999821 0.0307 -0.000999999931 -0.0500000007 -0.0309999995 -0.000999999815 -0.0500000007 -0.0279959105 0.0140983472 -0.0499999821 -0.0246641785 0.0124373594 -0.0500016361 0.0307 -0.000999999931 -0.0500000007 -0.0279959105 0.0140983472 -0.0499999821 0.0267799292 0.0144466572 -0.0499987602 0.0307 -0.000999999931 -0.0500000007 0.00652878359 0.0102612162 -0.0499997735 0.0310004447 0.013937165 -0.0496991202 0.0307 -0.000999999931 -0.0500000007 0.0267799292 0.0144466572 -0.0499987602 0.0247000009 0.0458757356 -0.0500000007 0.0267799292 0.0144466572 -0.0499987602 0.0232347809 0.0341293812 -0.0498500019 0.0171054862 0.0497161783 -0.0499856509 0.0247000009 0.0458757356 -0.0500000007 0.0232347809 0.0341293812 -0.0498500019 -0.0231666248 0.0353864282 -0.0498500019 -0.0246641785 0.0124373594 -0.0500016361 -0.0249995794 0.0459992513 -0.0499766432 0.0217692424 0.024817612 -0.0497750007 0.0267799292 0.0144466572 -0.0499987602 0.00652878359 0.0102612162 -0.0499997735 0.0217692424 0.024817612 -0.0497750007 0.0232347809 0.0341293812 -0.0498500019 0.0267799292 0.0144466572 -0.0499987602 -0.0206650998 0.0197289567 -0.0499983542 -0.0246641785 0.0124373594 -0.0500016361 -0.0231666248 0.0353864282 -0.0498500019 0.00652878359 0.0102612162 -0.0499997735 0.0307 -0.000999999931 -0.0500000007 -0.0246641785 0.0124373594 -0.0500016361 -0.0110982098 0.0538194627 -0.0498500019 -0.0249995794 0.0459992513 -0.0499766432 -0.0128757358 0.057699997 -0.0500000007 -0.0110982098 0.0538194627 -0.0498500019 -0.0231666248 0.0353864282 -0.0498500019 -0.0249995794 0.0459992513 -0.0499766432 0.0128757358 0.057699997 -0.0500000007 0.0247000009 0.0458757356 -0.0500000007 0.0171054862 0.0497161783 -0.0499856509 0.00998839643 0.0545442924 -0.048868753 0.0128757358 0.057699997 -0.0500000007 0.0171054862 0.0497161783 -0.0499856509 -0.000156772585 0.0569627434 -0.0491375029 0.0128757358 0.057699997 -0.0500000007 0.00998839643 0.0545442924 -0.048868753 -0.000156772585 0.0569627434 -0.0491375029 -0.0128757358 0.057699997 -0.0500000007 0.0128757358 0.057699997 -0.0500000007 -0.000156772585 0.0569627434 -0.0491375029 -0.0110982098 0.0538194627 -0.0498500019 -0.0128757358 0.057699997 -0.0500000007 -0.0309990719 -0.0049996404 -0.0460003577 0.0307 -0.000999999931 -0.0500000007 0.0309998337 -0.00486778654 -0.0473621674 -9.49744499e-05 -0.00452224398 -0.0464775339 -0.0309990719 -0.0049996404 -0.0460003577 -0.0309999995 -0.000999999815 -0.0500000007 -9.49744499e-05 -0.00452224398 -0.0464775339 -0.0309999995 -0.000999999815 -0.0500000007 0.0307 -0.000999999931 -0.0500000007 -9.49744499e-05 -0.00452224398 -0.0464775339 0.0307 -0.000999999931 -0.0500000007 -0.0309990719 -0.0049996404 -0.0460003577 -0.017855525 -2.43595132e-05 0.00899362471 -0.00982944667 -0.00494247116 0.0175792389 -0.0165685769 -0.00485967007 0.0117288409 -0.00127418758 -4.86922181e-05 0.020086661 -0.00982944667 -0.00494247116 0.0175792389 -0.017855525 -2.43595132e-05 0.00899362471 -0.00127418758 -4.86922181e-05 0.020086661 0.0163908545 -2.85227488e-05 0.0124875838 0.00736454502 -0.00367499935 0.0185384601 0.0163908545 -2.85227488e-05 0.0124875838 0.0187906977 -2.61008263e-05 -0.00683174003 0.0202229619 -0.00485176919 1.15861631e-05 0.0187906977 -2.61008263e-05 -0.00683174003 0.0137248328 -0.00250000064 -0.0145474728 0.0165049508 -0.00496859383 -0.0113179013 0.0187906977 -2.61008263e-05 -0.00683174003 0.00800106768 -2.3732824e-05 -0.018465016 0.0137248328 -0.00250000064 -0.0145474728 0.00800106768 -2.3732824e-05 -0.018465016 0.0207745638 -6.72693432e-06 -0.0184940025 0.00122984115 -0.00494064158 -0.0199657362 -0.00578611018 -3.78713594e-05 -0.0192746986 0.00122984115 -0.00494064158 -0.0199657362 0.0207745638 -6.72693432e-06 -0.0184940025 -0.00578611018 -3.78713594e-05 -0.0192746986 -0.0152931577 -2.61785117e-05 -0.0128738498 -0.0119870258 -0.00494273938 -0.0159994438 -0.0225599036 -0.000538425636 0.00522375945 -0.023263488 -0.00464374851 0.012598712 -0.0268752109 -0.000286260183 0.00951493811 -0.0250425171 -0.000120931545 0.0028772431 -0.0287857577 -0.00452656997 -0.000970633526 -0.0227233898 -0.00434375042 -0.00101850962 -0.0250425171 -0.000120931545 0.0028772431 -0.024936514 -0.00484999828 0.00288848602 -0.0287857577 -0.00452656997 -0.000970633526 -0.0310035255 -0.00487397378 0.00141138083 -0.0227233898 -0.00434375042 -0.00101850962 -0.0287857577 -0.00452656997 -0.000970633526 -0.0239532106 -0.0049707396 -0.0149301942 -0.0187880322 -0.00449375017 -0.0179889798 -0.0179111212 -0.000362815656 -0.0157658458 -0.0164278168 -0.0020656155 -0.0236445852 -0.0120004229 -0.00491323089 -0.0192476045 -0.0187880322 -0.00449375017 -0.0179889798 -0.00597664155 -0.000261950045 -0.0220778529 -0.0120004229 -0.00491323089 -0.0192476045 -0.00960223097 -0.00462189736 -0.0267222244 0.0132979592 -0.000281355897 -0.0189720578 0.0161787588 -0.00206949003 -0.0230061375 0.0153472684 -0.00499254884 -0.0173734501 0.0217271242 -0.00171756884 0.00832489319 0.0279252641 -1.92680109e-05 0.00697091408 0.0225156825 -0.00494458014 0.0119697005 0.0228337571 -0.00253491383 0.0164972227 0.0171860363 -0.00205823476 0.0150904581 0.0225156825 -0.00494458014 0.0119697005 0.012033388 -0.000448403938 0.0203721393 0.0130448453 -0.00498495903 0.0163773317 0.0176338889 -0.00343805552 0.0227944497 0.012033388 -0.000448403938 0.0203721393 0.00790443737 -0.00499382243 0.0299106836 0.0130448453 -0.00498495903 0.0163773317 -0.0184353963 -0.00486601749 0.021400908 -0.00982944667 -0.00494247116 0.0175792389 -0.0120610818 -0.00191758934 0.0199274402 -0.000141505181 -0.00150781276 0.0268133357 -0.00217218581 -0.00471099606 0.0227793064 0.00169720512 -0.00393124996 0.0271173138 -0.0309990775 0.00808111299 -0.0400084704 -8.25891981e-13 0.00600000052 -0.0394641012 0.0307 0.0094908122 -0.0399659239 -0.0307 0.00485373475 -0.0384142138 0.0309999529 0.00486590061 -0.0385341048 -8.25891981e-13 0.00600000052 -0.0394641012 0.0307 0.00413629785 -0.0370352753 0.0309999529 0.00486590061 -0.0385341048 -0.0307 0.00485373475 -0.0384142138 0.0307 0.00413629785 -0.0370352753 -0.0307 0.00485373475 -0.0384142138 -0.0306899045 0.00400514761 -0.0361527018 0.0307 0.00413629785 -0.0370352753 -0.0306899045 0.00400514761 -0.0361527018 0.0307 0.00399999879 -0.0359999985 -0.0310035255 -0.00487397378 0.00141138083 -0.0309955161 0.00399373425 0.0033740697 -0.0309990719 -0.0049996404 -0.0460003577 -0.0309990775 0.00808111299 -0.0400084704 -0.0309990719 -0.0049996404 -0.0460003577 -0.0309955161 0.00399373425 0.0033740697 -0.0309990775 0.00808111299 -0.0400084704 -0.0309999995 -0.000999999815 -0.0500000007 -0.0309990719 -0.0049996404 -0.0460003577 -0.0309990775 0.00808111299 -0.0400084704 -0.0310003031 0.0139060989 -0.0499651842 -0.0309999995 -0.000999999815 -0.0500000007 0.0310004447 0.013937165 -0.0496991202 0.0309999529 0.00486590061 -0.0385341048 0.0309998337 -0.00486778654 -0.0473621674 0.0309989676 -0.00445271656 2.69118809e-05 0.0309999995 0.00370000117 -0.0359999985 0.0309986658 0.00399439689 -1.71970041e-05 0.0309989676 -0.00445271656 2.69118809e-05 0.0309999529 0.00486590061 -0.0385341048 0.0309999995 0.00370000117 -0.0359999985 0.0309989676 -0.00445271656 2.69118809e-05 0.0309998337 -0.00486778654 -0.0473621674 0.0309999529 0.00486590061 -0.0385341048 0.0307 0.00413629785 -0.0370352753 0.0307 0.00399999879 -0.0359999985 0.0309999995 0.00370000117 -0.0359999985 0.0307 0.00413629785 -0.0370352753 0.0309999995 0.00370000117 -0.0359999985 0.0309999529 0.00486590061 -0.0385341048 0.0307 0.0094908122 -0.0399659239 -8.25891981e-13 0.00600000052 -0.0394641012 0.0309999529 0.00486590061 -0.0385341048 0.0310004447 0.013937165 -0.0496991202 0.0307 0.0094908122 -0.0399659239 0.0309999529 0.00486590061 -0.0385341048 -0.0249998383 0.017290879 -0.0400122888 -0.0310003031 0.0139060989 -0.0499651842 -0.0307 0.0398757346 -0.0399999991 -0.0309990775 0.00808111299 -0.0400084704 -0.0307 0.0398757346 -0.0399999991 -0.0310003031 0.0139060989 -0.0499651842 -0.0309990775 0.00808111299 -0.0400084704 -0.0309955161 0.00399373425 0.0033740697 -0.0306899045 0.00400514761 -0.0361527018 -0.0309990775 0.00808111299 -0.0400084704 -0.0306899045 0.00400514761 -0.0361527018 -0.0307 0.00485373475 -0.0384142138 -0.0309990775 0.00808111299 -0.0400084704 -0.0307 0.00485373475 -0.0384142138 -8.25891981e-13 0.00600000052 -0.0394641012 -0.0200738087 -0.0049788109 0.000858212064 -0.0268752109 -0.000286260183 0.00951493811 -0.023263488 -0.00464374851 0.012598712 -0.0225599036 -0.000538425636 0.00522375945 -0.0268752109 -0.000286260183 0.00951493811 -0.0200738087 -0.0049788109 0.000858212064 -0.0225599036 -0.000538425636 0.00522375945 -0.0200738087 -0.0049788109 0.000858212064 -0.023263488 -0.00464374851 0.012598712 -0.0250425171 -0.000120931545 0.0028772431 -0.0227233898 -0.00434375042 -0.00101850962 -0.024936514 -0.00484999828 0.00288848602 0.0051310421 -0.000358523248 -0.0230397694 0.0111323902 -0.00476332335 -0.0255765729 0.0153472684 -0.00499254884 -0.0173734501 0.0161787588 -0.00206949003 -0.0230061375 0.0153472684 -0.00499254884 -0.0173734501 0.0165049508 -0.00496859383 -0.0113179013 0.0189493131 -0.00329374988 -0.0136489207 0.0237475336 -0.000174062749 -0.0138131436 0.0165049508 -0.00496859383 -0.0113179013 0.0189493131 -0.00329374988 -0.0136489207 0.0165049508 -0.00496859383 -0.0113179013 0.0153472684 -0.00499254884 -0.0173734501 0.0189493131 -0.00329374988 -0.0136489207 0.0153472684 -0.00499254884 -0.0173734501 0.0207745638 -6.72693432e-06 -0.0184940025 0.0153472684 -0.00499254884 -0.0173734501 0.0165049508 -0.00496859383 -0.0113179013 0.0207745638 -6.72693432e-06 -0.0184940025 0.0165049508 -0.00496859383 -0.0113179013 0.0237475336 -0.000174062749 -0.0138131436 0.0207745638 -6.72693432e-06 -0.0184940025 0.0227460358 -0.00010761177 -0.000386212487 0.0276982915 -0.00196695956 0.000322334934 0.0292797014 -0.0049551595 0.0103022624 0.0130448453 -0.00498495903 0.0163773317 0.0225156825 -0.00494458014 0.0119697005 0.0171860363 -0.00205823476 0.0150904581 0.0130448453 -0.00498495903 0.0163773317 0.0171860363 -0.00205823476 0.0150904581 0.0228337571 -0.00253491383 0.0164972227 0.012033388 -0.000448403938 0.0203721393 0.0176338889 -0.00343805552 0.0227944497 0.00790443737 -0.00499382243 0.0299106836 0.00526375789 -0.00136829645 0.024877809 0.00884284638 -0.00360946101 0.0230589788 0.00790443737 -0.00499382243 0.0299106836 -0.00738217309 -0.00189419952 0.0210402124 -0.00982944667 -0.00494247116 0.0175792389 0.00790443737 -0.00499382243 0.0299106836 -0.0165685769 -0.00485967007 0.0117288409 -0.023263488 -0.00464374851 0.012598712 -0.0200738087 -0.0049788109 0.000858212064 -0.0222167578 -0.00282076141 0.0170670636 -0.0165685769 -0.00485967007 0.0117288409 -0.0184353963 -0.00486601749 0.021400908 -0.0222167578 -0.00282076141 0.0170670636 -0.0184353963 -0.00486601749 0.021400908 -0.023263488 -0.00464374851 0.012598712 -0.0222167578 -0.00282076141 0.0170670636 -0.023263488 -0.00464374851 0.012598712 -0.0165685769 -0.00485967007 0.0117288409 0.0163908545 -2.85227488e-05 0.0124875838 0.0202229619 -0.00485176919 1.15861631e-05 0.0130448453 -0.00498495903 0.0163773317 0.0163908545 -2.85227488e-05 0.0124875838 0.0130448453 -0.00498495903 0.0163773317 0.00736454502 -0.00367499935 0.0185384601 -0.00127418758 -4.86922181e-05 0.020086661 0.00736454502 -0.00367499935 0.0185384601 -0.00982944667 -0.00494247116 0.0175792389 -0.017855525 -2.43595132e-05 0.00899362471 -0.0165685769 -0.00485967007 0.0117288409 -0.0196321625 -0.00246250071 0.00346788671 -0.0165685769 -0.00485967007 0.0117288409 -0.0200738087 -0.0049788109 0.000858212064 -0.0196321625 -0.00246250071 0.00346788671 -0.0152931577 -2.61785117e-05 -0.0128738498 -0.0189157184 -6.31821167e-05 -0.00686914474 -0.0200738087 -0.0049788109 0.000858212064 -0.0152931577 -2.61785117e-05 -0.0128738498 -0.0200738087 -0.0049788109 0.000858212064 -0.0119870258 -0.00494273938 -0.0159994438 -0.00578611018 -3.78713594e-05 -0.0192746986 -0.0119870258 -0.00494273938 -0.0159994438 0.00122984115 -0.00494064158 -0.0199657362 0.00800106768 -2.3732824e-05 -0.018465016 0.00122984115 -0.00494064158 -0.0199657362 0.0137248328 -0.00250000064 -0.0145474728 0.0153472684 -0.00499254884 -0.0173734501 0.0137248328 -0.00250000064 -0.0145474728 0.00122984115 -0.00494064158 -0.0199657362 0.0153472684 -0.00499254884 -0.0173734501 0.0165049508 -0.00496859383 -0.0113179013 0.0137248328 -0.00250000064 -0.0145474728 0.0187906977 -2.61008263e-05 -0.00683174003 0.0165049508 -0.00496859383 -0.0113179013 0.0202229619 -0.00485176919 1.15861631e-05 0.0106820194 0.0243264772 -0.0400436334 0.00794154219 0.0218379106 -0.0479587652 0.00112074136 0.0192663074 -0.0478142165 -0.00926184654 0.0442017205 -0.0400244929 -0.00435751723 0.0469428226 -0.0479287952 0.00569885084 0.0469972789 -0.0449802577 0.0136269247 0.0300083254 -0.0400668234 0.00569885084 0.0469972789 -0.0449802577 0.0133925555 0.0389294289 -0.0451725461 0.0106820194 0.0243264772 -0.0400436334 0.00112074136 0.0192663074 -0.0478142165 -0.00890454836 0.0222530663 -0.0476973392 0.0136269247 0.0300083254 -0.0400668234 -0.00926184654 0.0442017205 -0.0400244929 0.00569885084 0.0469972789 -0.0449802577 0.0106820194 0.0243264772 -0.0400436334 -0.00890454836 0.0222530663 -0.0476973392 -0.0129627381 0.0280281641 -0.0400229283 -0.0263485573 -0.00501868222 0.0163420625 -0.0287857577 -0.00452656997 -0.000970633526 -0.024936514 -0.00484999828 0.00288848602 0.00790443737 -0.00499382243 0.0299106836 -0.00982944667 -0.00494247116 0.0175792389 0.00736454502 -0.00367499935 0.0185384601 -0.0239532106 -0.0049707396 -0.0149301942 -0.0187880322 -0.00449375017 -0.0179889798 -0.0119870258 -0.00494273938 -0.0159994438 -0.0120004229 -0.00491323089 -0.0192476045 -0.0119870258 -0.00494273938 -0.0159994438 -0.0187880322 -0.00449375017 -0.0179889798 -0.0120004229 -0.00491323089 -0.0192476045 0.00122984115 -0.00494064158 -0.0199657362 -0.0119870258 -0.00494273938 -0.0159994438 -0.0120004229 -0.00491323089 -0.0192476045 -0.0309990719 -0.0049996404 -0.0460003577 0.00122984115 -0.00494064158 -0.0199657362 0.0153472684 -0.00499254884 -0.0173734501 0.00122984115 -0.00494064158 -0.0199657362 -0.0309990719 -0.0049996404 -0.0460003577 0.0165049508 -0.00496859383 -0.0113179013 -0.0309990719 -0.0049996404 -0.0460003577 0.0202229619 -0.00485176919 1.15861631e-05 0.0130448453 -0.00498495903 0.0163773317 0.0202229619 -0.00485176919 1.15861631e-05 -0.0309990719 -0.0049996404 -0.0460003577 -0.0263485573 -0.00501868222 0.0163420625 -0.023263488 -0.00464374851 0.012598712 -0.0184353963 -0.00486601749 0.021400908 -0.0263485573 -0.00501868222 0.0163420625 -0.0309990719 -0.0049996404 -0.0460003577 -0.0200738087 -0.0049788109 0.000858212064 -0.0263485573 -0.00501868222 0.0163420625 -0.0200738087 -0.0049788109 0.000858212064 -0.023263488 -0.00464374851 0.012598712 -0.0165685769 -0.00485967007 0.0117288409 -0.00982944667 -0.00494247116 0.0175792389 -0.0184353963 -0.00486601749 0.021400908 -0.00738217309 -0.00189419952 0.0210402124 -0.0104341451 -0.00493919803 0.0264005587 -0.00982944667 -0.00494247116 0.0175792389 -0.0263485573 -0.00501868222 0.0163420625 -0.0184353963 -0.00486601749 0.021400908 -0.00982944667 -0.00494247116 0.0175792389 -0.00738217309 -0.00189419952 0.0210402124 0.00790443737 -0.00499382243 0.0299106836 -0.0104341451 -0.00493919803 0.0264005587 -0.008450686 -0.00500660995 0.0298275165 -0.0104341451 -0.00493919803 0.0264005587 0.00790443737 -0.00499382243 0.0299106836 -0.0263485573 -0.00501868222 0.0163420625 -0.00982944667 -0.00494247116 0.0175792389 -0.0104341451 -0.00493919803 0.0264005587 -0.008450686 -0.00500660995 0.0298275165 0.00790443737 -0.00499382243 0.0299106836 -0.00217218581 -0.00471099606 0.0227793064 -0.008450686 -0.00500660995 0.0298275165 -0.00217218581 -0.00471099606 0.0227793064 0.00169720512 -0.00393124996 0.0271173138 -0.008450686 -0.00500660995 0.0298275165 0.00169720512 -0.00393124996 0.0271173138 0.00790443737 -0.00499382243 0.0299106836 0.00169720512 -0.00393124996 0.0271173138 -0.00217218581 -0.00471099606 0.0227793064 0.00790443737 -0.00499382243 0.0299106836 0.00790443737 -0.00499382243 0.0299106836 0.00736454502 -0.00367499935 0.0185384601 0.0130448453 -0.00498495903 0.0163773317 0.0176338889 -0.00343805552 0.0227944497 0.0189859737 -0.00502664829 0.0245279316 0.00790443737 -0.00499382243 0.0299106836 0.0130448453 -0.00498495903 0.0163773317 -0.0309990719 -0.0049996404 -0.0460003577 0.0225156825 -0.00494458014 0.0119697005 0.0189859737 -0.00502664829 0.0245279316 -0.0309990719 -0.0049996404 -0.0460003577 0.0292797014 -0.0049551595 0.0103022624 0.0189859737 -0.00502664829 0.0245279316 0.0225156825 -0.00494458014 0.0119697005 -0.0309990719 -0.0049996404 -0.0460003577 0.0111323902 -0.00476332335 -0.0255765729 -0.0309990719 -0.0049996404 -0.0460003577 0.0153472684 -0.00499254884 -0.0173734501 0.0153472684 -0.00499254884 -0.0173734501 -0.0309990719 -0.0049996404 -0.0460003577 0.0165049508 -0.00496859383 -0.0113179013 -0.0120004229 -0.00491323089 -0.0192476045 -0.00960223097 -0.00462189736 -0.0267222244 -0.0309990719 -0.0049996404 -0.0460003577 -0.0239532106 -0.0049707396 -0.0149301942 -0.0309990719 -0.0049996404 -0.0460003577 -0.0187880322 -0.00449375017 -0.0179889798 -0.0263397321 -0.00499189692 -0.0247916002 -0.0309990719 -0.0049996404 -0.0460003577 -0.0238694604 -0.00499889906 -0.0322283432 -0.0191862956 -0.00497828564 -0.0296808854 -0.0238694604 -0.00499889906 -0.0322283432 -0.0309990719 -0.0049996404 -0.0460003577 -0.0120004229 -0.00491323089 -0.0192476045 -0.0187880322 -0.00449375017 -0.0179889798 -0.0309990719 -0.0049996404 -0.0460003577 0.0292797014 -0.0049551595 0.0103022624 -0.0309990719 -0.0049996404 -0.0460003577 0.0309989676 -0.00445271656 2.69118809e-05 -0.0263485573 -0.00501868222 0.0163420625 -0.024936514 -0.00484999828 0.00288848602 -0.0309990719 -0.0049996404 -0.0460003577 -0.024936514 -0.00484999828 0.00288848602 -0.0227233898 -0.00434375042 -0.00101850962 -0.0309990719 -0.0049996404 -0.0460003577 -0.0310035255 -0.00487397378 0.00141138083 -0.0309990719 -0.0049996404 -0.0460003577 -0.0227233898 -0.00434375042 -0.00101850962 0.0192799643 -0.00499307923 -0.0295235738 -0.0309990719 -0.0049996404 -0.0460003577 0.0239812378 -0.00499588717 -0.0320586078 0.0192860216 -0.00497986469 -0.0259680897 -0.0309990719 -0.0049996404 -0.0460003577 0.0192799643 -0.00499307923 -0.0295235738 0.0192860216 -0.00497986469 -0.0259680897 0.0270268656 -0.00484999968 -0.0275004227 -0.0309990719 -0.0049996404 -0.0460003577 0.0239812378 -0.00499588717 -0.0320586078 -0.0309990719 -0.0049996404 -0.0460003577 0.0270268656 -0.00484999968 -0.0275004227 -0.0191862956 -0.00497828564 -0.0296808854 -0.0309990719 -0.0049996404 -0.0460003577 -0.0263397321 -0.00499189692 -0.0247916002 -0.0200738087 -0.0049788109 0.000858212064 -0.0309990719 -0.0049996404 -0.0460003577 -0.0119870258 -0.00494273938 -0.0159994438 -0.0239532106 -0.0049707396 -0.0149301942 -0.0119870258 -0.00494273938 -0.0159994438 -0.0309990719 -0.0049996404 -0.0460003577 0.0309989676 -0.00445271656 2.69118809e-05 -0.0309990719 -0.0049996404 -0.0460003577 0.0309998337 -0.00486778654 -0.0473621674 0.0176338889 -0.00343805552 0.0227944497 0.0130448453 -0.00498495903 0.0163773317 0.0189859737 -0.00502664829 0.0245279316 0.0189859737 -0.00502664829 0.0245279316 0.0130448453 -0.00498495903 0.0163773317 0.0228337571 -0.00253491383 0.0164972227 0.0189859737 -0.00502664829 0.0245279316 0.0228337571 -0.00253491383 0.0164972227 0.0225156825 -0.00494458014 0.0119697005 0.0300779287 0.00189799175 0.00778811704 0.0309989676 -0.00445271656 2.69118809e-05 0.0309986658 0.00399439689 -1.71970041e-05 0.0300779287 0.00189799175 0.00778811704 0.0248370394 0.00395789696 0.0187714733 0.0292797014 -0.0049551595 0.0103022624 0.0189859737 -0.00502664829 0.0245279316 0.0248370394 0.00395789696 0.0187714733 0.0186770186 0.00399142643 0.0247418862 0.0189859737 -0.00502664829 0.0245279316 0.0186770186 0.00399142643 0.0247418862 0.0120240794 0.0039828294 0.0286609456 0.0028603191 -0.000499999849 0.0308677573 0.00790443737 -0.00499382243 0.0299106836 0.0120240794 0.0039828294 0.0286609456 -0.0028603191 -0.00469999947 0.0308677573 0.0028603191 -0.000499999849 0.0308677573 -0.00281435321 0.00402660808 0.0308669861 -0.0028603191 -0.00469999947 0.0308677573 -0.00281435321 0.00402660808 0.0308669861 -0.00848898944 0.00399268791 0.0298149064 -0.0028603191 -0.00469999947 0.0308677573 -0.00848898944 0.00399268791 0.0298149064 -0.008450686 -0.00500660995 0.0298275165 -0.008450686 -0.00500660995 0.0298275165 -0.00848898944 0.00399268791 0.0298149064 -0.0139134461 0.00400435226 0.0277042761 -0.0138178887 -0.0047000004 0.0277500618 -0.008450686 -0.00500660995 0.0298275165 -0.0139134461 0.00400435226 0.0277042761 -0.0138178887 -0.0047000004 0.0277500618 -0.0139134461 0.00400435226 0.0277042761 -0.01868614 0.00399231073 0.0247349907 -0.0216032192 -0.00105146412 0.0223463122 -0.0138178887 -0.0047000004 0.0277500618 -0.01868614 0.00399231073 0.0247349907 -0.0216032192 -0.00105146412 0.0223463122 -0.0263367817 0.00401140656 0.0163438302 -0.0263485573 -0.00501868222 0.0163420625 -0.0263485573 -0.00501868222 0.0163420625 -0.0263367817 0.00401140656 0.0163438302 -0.0289126802 0.00382319023 0.0111933863 -0.0310035255 -0.00487397378 0.00141138083 -0.0289126802 0.00382319023 0.0111933863 -0.0309955161 0.00399373425 0.0033740697 0.0279252641 -1.92680109e-05 0.00697091408 0.0242676158 8.78784249e-06 0.0157931503 0.0289894417 0.00388749968 0.00491083413 0.0279252641 -1.92680109e-05 0.00697091408 0.0289894417 0.00388749968 0.00491083413 0.0278883372 9.2694303e-05 -0.00704471255 0.0212262031 0.00400504936 -0.0239585266 0.0186768863 0.00379878865 -0.0227646437 0.0278883372 9.2694303e-05 -0.00704471255 -0.0263367817 0.00401140656 0.0163438302 -0.0204476509 0.00225166883 0.0206825659 -0.0284707639 0.00246103294 0.00583450729 -0.0139134461 0.00400435226 0.0277042761 -0.0204476509 0.00225166883 0.0206825659 -0.0263367817 0.00401140656 0.0163438302 -0.0139134461 0.00400435226 0.0277042761 -0.00655085128 0.00015166626 0.0279819239 -0.0204476509 0.00225166883 0.0206825659 -0.00281435321 0.00402660808 0.0308669861 -0.00655085128 0.00015166626 0.0279819239 -0.0139134461 0.00400435226 0.0277042761 0.00341733987 0.00337528414 0.028598072 -0.00655085128 0.00015166626 0.0279819239 -0.00281435321 0.00402660808 0.0308669861 0.00341733987 0.00337528414 0.028598072 0.0171388369 0.0033499999 0.0231086109 0.00892076269 6.18858903e-05 0.0274199583 0.0248370394 0.00395789696 0.0187714733 0.0242676158 8.78784249e-06 0.0157931503 0.0171388369 0.0033499999 0.0231086109 0.0289894417 0.00388749968 0.00491083413 0.0242676158 8.78784249e-06 0.0157931503 0.0248370394 0.00395789696 0.0187714733 0.0289894417 0.00388749968 0.00491083413 0.0212262031 0.00400504936 -0.0239585266 0.0278883372 9.2694303e-05 -0.00704471255 0.00175565842 0.00399147766 -0.0289672557 -0.0112269372 0.00399071258 -0.0265034661 -0.00962161738 0.00014808659 -0.0272271447 -0.0197084174 0.00399975805 -0.0252375808 -0.020634966 0.0023807562 -0.0205000378 -0.0112269372 0.00399071258 -0.0265034661 -0.0197084174 0.00399975805 -0.0252375808 -0.0245886575 7.52686828e-05 -0.0154556632 -0.020634966 0.0023807562 -0.0205000378 -0.0197084174 0.00399975805 -0.0252375808 -0.0280650109 1.35108385e-05 -0.00548718963 -0.0245886575 7.52686828e-05 -0.0154556632 -0.0309955161 0.00399373425 0.0033740697 -0.0280650109 1.35108385e-05 -0.00548718963 -0.0197084174 0.00399975805 -0.0252375808 -0.0309955161 0.00399373425 0.0033740697 -0.0284707639 0.00246103294 0.00583450729 -0.0280650109 1.35108385e-05 -0.00548718963 -0.0263367817 0.00401140656 0.0163438302 -0.0284707639 0.00246103294 0.00583450729 -0.0309955161 0.00399373425 0.0033740697 -0.0161997639 0.0166118294 -0.0484250002 -0.0240080412 0.0293062013 -0.048004292 -0.0170178246 0.0496435314 -0.0480000004 -0.0170178246 0.0496435314 -0.0480000004 0.00998839643 0.0545442924 -0.048868753 0.0171054862 0.0497161783 -0.0499856509 0.0174633283 0.01769544 -0.0480011627 0.0171054862 0.0497161783 -0.0499856509 0.0220162049 0.0408830717 -0.0479881614 -0.00682812417 0.0112732705 -0.0488687493 0.000428370811 0.0139865205 -0.0479778871 -0.000442264893 0.0105062705 -0.0483724549 0.00854814984 0.0120156566 -0.0480000004 -0.000442264893 0.0105062705 -0.0483724549 0.00163446681 0.0122626582 -0.0476943851 0.00854814984 0.0120156566 -0.0480000004 0.00163446681 0.0122626582 -0.0476943851 0.0174633283 0.01769544 -0.0480011627 0.00163446681 0.0122626582 -0.0476943851 0.000428370811 0.0139865205 -0.0479778871 0.0174633283 0.01769544 -0.0480011627 0.00757416384 0.0150989071 -0.0459802113 0.00854814984 0.0120156566 -0.0480000004 0.0174633283 0.01769544 -0.0480011627 0.0192325953 0.0332521982 -0.0479847193 0.0174633283 0.01769544 -0.0480011627 0.0220162049 0.0408830717 -0.0479881614 0.0232177824 0.0326395519 -0.048793748 0.0192325953 0.0332521982 -0.0479847193 0.0220162049 0.0408830717 -0.0479881614 0.021209795 0.0258409064 -0.0479961038 0.0192325953 0.0332521982 -0.0479847193 0.0232177824 0.0326395519 -0.048793748 0.0177873839 0.040858116 -0.0479635932 0.0220162049 0.0408830717 -0.0479881614 0.0174633283 0.01769544 -0.0480011627 0.00835057069 0.0516725406 -0.0460000001 0.00998839643 0.0545442924 -0.048868753 -0.0170178246 0.0496435314 -0.0480000004 0.00550298486 0.0545076393 -0.0479858071 0.00835057069 0.0516725406 -0.0460000001 -0.0170178246 0.0496435314 -0.0480000004 0.00550298486 0.0545076393 -0.0479858071 -0.000156772585 0.0569627434 -0.0491375029 0.00998839643 0.0545442924 -0.048868753 -0.0095215207 0.0520207286 -0.0410022922 -0.00657033408 0.0520665608 -0.0464670025 -0.0170178246 0.0496435314 -0.0480000004 -0.0095215207 0.0520207286 -0.0410022922 -0.0170178246 0.0496435314 -0.0480000004 -0.00968577433 0.0544503443 -0.0479909033 0.00550298486 0.0545076393 -0.0479858071 -0.0170178246 0.0496435314 -0.0480000004 -0.000156772585 0.0569627434 -0.0491375029 -0.00968577433 0.0544503443 -0.0479909033 -0.000156772585 0.0569627434 -0.0491375029 -0.0170178246 0.0496435314 -0.0480000004 -0.00657033408 0.0520665608 -0.0464670025 -0.00968577433 0.0544503443 -0.0479909033 -0.0170178246 0.0496435314 -0.0480000004 -0.0201865453 0.0321334042 -0.0479940362 -0.0240080412 0.0293062013 -0.048004292 -0.020367695 0.0441120081 -0.0480980165 -0.0201865453 0.0321334042 -0.0479940362 -0.0170178246 0.0496435314 -0.0480000004 -0.0240080412 0.0293062013 -0.048004292 -0.020737296 0.0251869299 -0.0477350391 -0.0170178246 0.0496435314 -0.0480000004 -0.0240080412 0.0293062013 -0.048004292 -0.00819296949 0.0134222982 -0.0478875004 -0.00682812417 0.0112732705 -0.0488687493 0.0174633283 0.01769544 -0.0480011627 -0.00682812417 0.0112732705 -0.0488687493 0.0174633283 0.01769544 -0.0480011627 0.000428370811 0.0139865205 -0.0479778871 -0.0170178246 0.0496435314 -0.0480000004 -0.00890454836 0.0222530663 -0.0476973392 0.00112074136 0.0192663074 -0.0478142165 -0.0170178246 0.0496435314 -0.0480000004 -0.00435751723 0.0469428226 -0.0479287952 -0.00890454836 0.0222530663 -0.0476973392 0.0174633283 0.01769544 -0.0480011627 0.00794154219 0.0218379106 -0.0479587652 -0.0170178246 0.0496435314 -0.0480000004 -0.0170178246 0.0496435314 -0.0480000004 0.00794154219 0.0218379106 -0.0479587652 -0.00435751723 0.0469428226 -0.0479287952 0.0174633283 0.01769544 -0.0480011627 0.00112074136 0.0192663074 -0.0478142165 0.00794154219 0.0218379106 -0.0479587652 -0.00682812417 0.0112732705 -0.0488687493 -0.0161997639 0.0166118294 -0.0484250002 0.0174633283 0.01769544 -0.0480011627 -0.0148223732 0.0185267087 -0.0479249991 0.0174633283 0.01769544 -0.0480011627 -0.0161997639 0.0166118294 -0.0484250002 -0.0148223732 0.0185267087 -0.0479249991 -0.0161997639 0.0166118294 -0.0484250002 -0.0170178246 0.0496435314 -0.0480000004 -0.0148223732 0.0185267087 -0.0479249991 -0.0170178246 0.0496435314 -0.0480000004 0.0174633283 0.01769544 -0.0480011627 0.0174633283 0.01769544 -0.0480011627 -0.0170178246 0.0496435314 -0.0480000004 0.00112074136 0.0192663074 -0.0478142165 -0.0201865453 0.0321334042 -0.0479940362 -0.020367695 0.0441120081 -0.0480980165 -0.0170178246 0.0496435314 -0.0480000004 -0.0135770086 0.0480041951 -0.0479340479 -0.0170178246 0.0496435314 -0.0480000004 -0.0164384879 0.048956424 -0.0415951572 0.0140018398 0.0468814075 -0.0479399264 0.0171054862 0.0497161783 -0.0499856509 0.0174633283 0.01769544 -0.0480011627 0.0148453722 0.0499478243 -0.0403233208 -0.0170178246 0.0496435314 -0.0480000004 0.0171054862 0.0497161783 -0.0499856509 0.021209795 0.0258409064 -0.0479961038 0.0174633283 0.01769544 -0.0480011627 0.0192325953 0.0332521982 -0.0479847193 0.0162386745 0.018090995 -0.0412061624 0.0132904258 0.0194147527 -0.0479586311 0.0174633283 0.01769544 -0.0480011627 0.0148453722 0.0499478243 -0.0403233208 0.0140018398 0.0468814075 -0.0479399264 -0.0170178246 0.0496435314 -0.0480000004 0.0140018398 0.0468814075 -0.0479399264 0.0174633283 0.01769544 -0.0480011627 -0.0170178246 0.0496435314 -0.0480000004 -0.020367695 0.0441120081 -0.0480980165 -0.0240080412 0.0293062013 -0.048004292 -0.0231666248 0.0353864282 -0.0498500019 -0.0240080412 0.0293062013 -0.048004292 -0.0206650998 0.0197289567 -0.0499983542 -0.0231666248 0.0353864282 -0.0498500019 -0.020367695 0.0441120081 -0.0480980165 -0.0110982098 0.0538194627 -0.0498500019 -0.0170178246 0.0496435314 -0.0480000004 -0.00968577433 0.0544503443 -0.0479909033 -0.0170178246 0.0496435314 -0.0480000004 -0.0110982098 0.0538194627 -0.0498500019 -0.00968577433 0.0544503443 -0.0479909033 -0.0110982098 0.0538194627 -0.0498500019 -0.000156772585 0.0569627434 -0.0491375029 0.0220162049 0.0408830717 -0.0479881614 0.0171054862 0.0497161783 -0.0499856509 0.0232347809 0.0341293812 -0.0498500019 0.021209795 0.0258409064 -0.0479961038 0.0232177824 0.0326395519 -0.048793748 0.0217692424 0.024817612 -0.0497750007 0.0232177824 0.0326395519 -0.048793748 0.0220162049 0.0408830717 -0.0479881614 0.0232347809 0.0341293812 -0.0498500019 0.021209795 0.0258409064 -0.0479961038 0.0217692424 0.024817612 -0.0497750007 0.0174633283 0.01769544 -0.0480011627 -0.00682812417 0.0112732705 -0.0488687493 -0.0206650998 0.0197289567 -0.0499983542 -0.0161997639 0.0166118294 -0.0484250002 0.00854814984 0.0120156566 -0.0480000004 0.00652878359 0.0102612162 -0.0499997735 -0.000442264893 0.0105062705 -0.0483724549 0.00854814984 0.0120156566 -0.0480000004 0.0174633283 0.01769544 -0.0480011627 0.00652878359 0.0102612162 -0.0499997735 -0.00682812417 0.0112732705 -0.0488687493 -0.0246641785 0.0124373594 -0.0500016361 -0.0206650998 0.0197289567 -0.0499983542 -0.0161997639 0.0166118294 -0.0484250002 -0.0206650998 0.0197289567 -0.0499983542 -0.0240080412 0.0293062013 -0.048004292 -0.020367695 0.0441120081 -0.0480980165 -0.0231666248 0.0353864282 -0.0498500019 -0.0110982098 0.0538194627 -0.0498500019 0.0232177824 0.0326395519 -0.048793748 0.0232347809 0.0341293812 -0.0498500019 0.0217692424 0.024817612 -0.0497750007 0.0174633283 0.01769544 -0.0480011627 0.0217692424 0.024817612 -0.0497750007 0.00652878359 0.0102612162 -0.0499997735 -0.0129627381 0.0280281641 -0.0400229283 -0.00890454836 0.0222530663 -0.0476973392 -0.0140370466 0.0365093425 -0.0406592563 -0.0140370466 0.0365093425 -0.0406592563 -0.00435751723 0.0469428226 -0.0479287952 -0.00926184654 0.0442017205 -0.0400244929 0.0106820194 0.0243264772 -0.0400436334 0.0136269247 0.0300083254 -0.0400668234 0.00794154219 0.0218379106 -0.0479587652 -0.0140370466 0.0365093425 -0.0406592563 -0.00890454836 0.0222530663 -0.0476973392 -0.00435751723 0.0469428226 -0.0479287952 0.00569885084 0.0469972789 -0.0449802577 -0.00435751723 0.0469428226 -0.0479287952 0.00794154219 0.0218379106 -0.0479587652 0.0133925555 0.0389294289 -0.0451725461 0.00569885084 0.0469972789 -0.0449802577 0.00794154219 0.0218379106 -0.0479587652 0.0136269247 0.0300083254 -0.0400668234 0.0133925555 0.0389294289 -0.0451725461 0.00794154219 0.0218379106 -0.0479587652 -0.000443629746 0.0136936288 -0.0476999991 0.000428370811 0.0139865205 -0.0479778871 -0.00100711512 0.0136443749 -0.0402249992 -0.000443629746 0.0136936288 -0.0476999991 -0.00100711512 0.0136443749 -0.0402249992 -0.000442264893 0.0105062705 -0.0483724549 -0.000359927886 0.0112015866 -0.0401500016 0.00163446681 0.0122626582 -0.0476943851 -0.000442264893 0.0105062705 -0.0483724549 -0.0196484122 0.0402738824 -0.0400525033 -0.0198145844 0.0430965126 -0.0400021859 -0.020367695 0.0441120081 -0.0480980165 -0.00105688325 0.0551287532 -0.0401551127 0.00550298486 0.0545076393 -0.0479858071 0.00118808064 0.053574115 -0.043998532 -0.0250061136 0.0164865293 -0.0496084541 -0.0249998383 0.017290879 -0.0400122888 -0.0249995794 0.0459992513 -0.0499766432 -0.0249999799 0.0460000038 -0.0402837321 -0.0249995794 0.0459992513 -0.0499766432 -0.0249998383 0.017290879 -0.0400122888 0.0130000003 0.0580000021 -0.0496999994 -0.0130000003 0.0580000021 -0.0496999994 -0.0130000003 0.0580000021 -0.0403000005 0.0130000003 0.0580000021 -0.0496999994 -0.0130000003 0.0580000021 -0.0403000005 0.0129998634 0.0579996854 -0.0400353521 0.0250000004 0.0180000011 -0.0496999994 0.0250000004 0.0460000001 -0.0496999994 0.0249996111 0.0459998883 -0.0400089622 0.0250000004 0.0180000011 -0.0496999994 0.0249996111 0.0459998883 -0.0400089622 0.0250036959 0.0167356953 -0.0400107689 0.0250000004 0.0460000001 -0.0496999994 0.0130000003 0.0580000021 -0.0496999994 0.0129998634 0.0579996854 -0.0400353521 0.0250000004 0.0460000001 -0.0496999994 0.0129998634 0.0579996854 -0.0400353521 0.0249996111 0.0459998883 -0.0400089622 -0.0249999799 0.0460000038 -0.0402837321 -0.0130000003 0.0580000021 -0.0496999994 -0.0249995794 0.0459992513 -0.0499766432 -0.0249999799 0.0460000038 -0.0402837321 -0.0130000003 0.0580000021 -0.0403000005 -0.0130000003 0.0580000021 -0.0496999994 0.0310004447 0.013937165 -0.0496991202 0.0309998337 -0.00486778654 -0.0473621674 0.0307 -0.000999999931 -0.0500000007 0.0250000004 0.0180000011 -0.0496999994 0.0250036959 0.0167356953 -0.0400107689 0.0267799292 0.0144466572 -0.0499987602 0.0250000004 0.0180000011 -0.0496999994 0.0247000009 0.0458757356 -0.0500000007 0.0250000004 0.0460000001 -0.0496999994 0.0250000004 0.0180000011 -0.0496999994 0.0267799292 0.0144466572 -0.0499987602 0.0247000009 0.0458757356 -0.0500000007 -0.0216032192 -0.00105146412 0.0223463122 -0.01868614 0.00399231073 0.0247349907 -0.0263367817 0.00401140656 0.0163438302 0.0028603191 -0.000499999849 0.0308677573 0.0120240794 0.0039828294 0.0286609456 -0.00281435321 0.00402660808 0.0308669861 0.0300779287 0.00189799175 0.00778811704 0.0289894417 0.00388749968 0.00491083413 0.0248370394 0.00395789696 0.0187714733 0.0300779287 0.00189799175 0.00778811704 0.0309986658 0.00399439689 -1.71970041e-05 0.0289894417 0.00388749968 0.00491083413 -0.0263485573 -0.00501868222 0.0163420625 -0.0310035255 -0.00487397378 0.00141138083 -0.0287857577 -0.00452656997 -0.000970633526 0.0300779287 0.00189799175 0.00778811704 0.0292797014 -0.0049551595 0.0103022624 0.0309989676 -0.00445271656 2.69118809e-05 0.0189859737 -0.00502664829 0.0245279316 0.0292797014 -0.0049551595 0.0103022624 0.0248370394 0.00395789696 0.0187714733 0.0189859737 -0.00502664829 0.0245279316 0.0120240794 0.0039828294 0.0286609456 0.00790443737 -0.00499382243 0.0299106836 0.0028603191 -0.000499999849 0.0308677573 -0.008450686 -0.00500660995 0.0298275165 0.00790443737 -0.00499382243 0.0299106836 -0.0028603191 -0.00469999947 0.0308677573 -0.008450686 -0.00500660995 0.0298275165 0.0028603191 -0.000499999849 0.0308677573 -0.0138178887 -0.0047000004 0.0277500618 -0.0104341451 -0.00493919803 0.0264005587 -0.008450686 -0.00500660995 0.0298275165 -0.0216032192 -0.00105146412 0.0223463122 -0.0263485573 -0.00501868222 0.0163420625 -0.0138178887 -0.0047000004 0.0277500618 -0.0138178887 -0.0047000004 0.0277500618 -0.0263485573 -0.00501868222 0.0163420625 -0.0104341451 -0.00493919803 0.0264005587 -0.0263485573 -0.00501868222 0.0163420625 -0.0289126802 0.00382319023 0.0111933863 -0.0310035255 -0.00487397378 0.00141138083 0.0310004447 0.013937165 -0.0496991202 0.0267799292 0.0144466572 -0.0499987602 0.0250036959 0.0167356953 -0.0400107689 -0.0130000003 0.0580000021 -0.0403000005 -0.0128757358 0.057699997 -0.0399999991 -0.00479332078 0.057699997 -0.0399999991 -0.0130000003 0.0580000021 -0.0403000005 -0.00479332078 0.057699997 -0.0399999991 0.0129998634 0.0579996854 -0.0400353521 -0.0130000003 0.0580000021 -0.0403000005 -0.0307 0.0398757346 -0.0399999991 -0.0128757358 0.057699997 -0.0399999991 -0.0249999799 0.0460000038 -0.0402837321 -0.0307 0.0398757346 -0.0399999991 -0.0130000003 0.0580000021 -0.0403000005 -0.0250061136 0.0164865293 -0.0496084541 -0.0279959105 0.0140983472 -0.0499999821 -0.0249998383 0.017290879 -0.0400122888 0.0130000003 0.0580000021 -0.0496999994 0.0247000009 0.0458757356 -0.0500000007 0.0128757358 0.057699997 -0.0500000007 0.0250000004 0.0460000001 -0.0496999994 0.0247000009 0.0458757356 -0.0500000007 0.0130000003 0.0580000021 -0.0496999994 -0.0130000003 0.0580000021 -0.0496999994 0.0128757358 0.057699997 -0.0500000007 -0.0128757358 0.057699997 -0.0500000007 0.0130000003 0.0580000021 -0.0496999994 0.0128757358 0.057699997 -0.0500000007 -0.0130000003 0.0580000021 -0.0496999994 -0.0130000003 0.0580000021 -0.0496999994 -0.0128757358 0.057699997 -0.0500000007 -0.0249995794 0.0459992513 -0.0499766432 -0.0250061136 0.0164865293 -0.0496084541 -0.0249995794 0.0459992513 -0.0499766432 -0.0246641785 0.0124373594 -0.0500016361 -0.0250061136 0.0164865293 -0.0496084541 -0.0246641785 0.0124373594 -0.0500016361 -0.0279959105 0.0140983472 -0.0499999821 -0.0249998383 0.017290879 -0.0400122888 -0.0279959105 0.0140983472 -0.0499999821 -0.0310003031 0.0139060989 -0.0499651842 -0.0309990775 0.00808111299 -0.0400084704 0.000428370811 0.0139865205 -0.0479778871 0.00163446681 0.0122626582 -0.0476943851 -0.00100711512 0.0136443749 -0.0402249992 0.000428370811 0.0139865205 -0.0479778871 -0.0309990775 0.00808111299 -0.0400084704 -0.000359927886 0.0112015866 -0.0401500016 -0.000442264893 0.0105062705 -0.0483724549 -0.00100711512 0.0136443749 -0.0402249992 -0.000359927886 0.0112015866 -0.0401500016 -0.0309990775 0.00808111299 -0.0400084704 0.00163446681 0.0122626582 -0.0476943851 -0.000443629746 0.0136936288 -0.0476999991 -0.000442264893 0.0105062705 -0.0483724549 0.000428370811 0.0139865205 -0.0479778871 0.022824293 0.033729583 -0.0400115773 0.0192325953 0.0332521982 -0.0479847193 0.0232177824 0.0326395519 -0.048793748 0.0198037513 0.0430148207 -0.0400056094 0.0220162049 0.0408830717 -0.0479881614 0.0177873839 0.040858116 -0.0479635932 0.0148453722 0.0499478243 -0.0403233208 0.0171054862 0.0497161783 -0.0499856509 0.0140018398 0.0468814075 -0.0479399264 0.00859862566 0.0546568185 -0.0400088876 0.00835057069 0.0516725406 -0.0460000001 0.00550298486 0.0545076393 -0.0479858071 0.00859862566 0.0546568185 -0.0400088876 0.00550298486 0.0545076393 -0.0479858071 0.00998839643 0.0545442924 -0.048868753 0.00859862566 0.0546568185 -0.0400088876 0.00998839643 0.0545442924 -0.048868753 0.00835057069 0.0516725406 -0.0460000001 -0.0095215207 0.0520207286 -0.0410022922 -0.00968577433 0.0544503443 -0.0479909033 -0.00725425081 0.0542366654 -0.0400045477 -0.00657033408 0.0520665608 -0.0464670025 -0.00725425081 0.0542366654 -0.0400045477 -0.00968577433 0.0544503443 -0.0479909033 -0.0196484122 0.0402738824 -0.0400525033 -0.0201865453 0.0321334042 -0.0479940362 -0.0198145844 0.0430965126 -0.0400021859 -0.0201865453 0.0321334042 -0.0479940362 -0.020367695 0.0441120081 -0.0480980165 -0.0198145844 0.0430965126 -0.0400021859 -0.0196484122 0.0402738824 -0.0400525033 -0.020367695 0.0441120081 -0.0480980165 -0.0201865453 0.0321334042 -0.0479940362 -0.0220211782 0.0330557898 -0.0420750007 -0.0197056755 0.0345242098 -0.0400079228 -0.0201865453 0.0321334042 -0.0479940362 -0.0263397321 -0.00499189692 -0.0247916002 -0.0306899045 0.00400514761 -0.0361527018 -0.0197084174 0.00399975805 -0.0252375808 -0.0191862956 -0.00497828564 -0.0296808854 -0.0197084174 0.00399975805 -0.0252375808 -0.0253672525 0.00399840111 -0.0319456607 -0.0191862956 -0.00497828564 -0.0296808854 -0.0253672525 0.00399840111 -0.0319456607 -0.0238694604 -0.00499889906 -0.0322283432 -0.0263397321 -0.00499189692 -0.0247916002 -0.0253672525 0.00399840111 -0.0319456607 -0.0306899045 0.00400514761 -0.0361527018 -0.0263397321 -0.00499189692 -0.0247916002 -0.0238694604 -0.00499889906 -0.0322283432 -0.0253672525 0.00399840111 -0.0319456607 -0.0191862956 -0.00497828564 -0.0296808854 -0.0263397321 -0.00499189692 -0.0247916002 -0.0197084174 0.00399975805 -0.0252375808 0.0251101498 0.00399957458 -0.0244886242 0.0265232529 0.00396223459 -0.0299809109 0.0266215485 0.00265000062 -0.027244946 0.0239812378 -0.00499588717 -0.0320586078 0.0265232529 0.00396223459 -0.0299809109 0.0205714814 0.0039999052 -0.0311862063 0.0192860216 -0.00497986469 -0.0259680897 0.0192799643 -0.00499307923 -0.0295235738 0.0205714814 0.0039999052 -0.0311862063 0.0192860216 -0.00497986469 -0.0259680897 0.0205714814 0.0039999052 -0.0311862063 0.0212262031 0.00400504936 -0.0239585266 0.0192799643 -0.00499307923 -0.0295235738 0.0239812378 -0.00499588717 -0.0320586078 0.0205714814 0.0039999052 -0.0311862063 0.0192860216 -0.00497986469 -0.0259680897 0.0212262031 0.00400504936 -0.0239585266 0.0251101498 0.00399957458 -0.0244886242 0.0192860216 -0.00497986469 -0.0259680897 0.0251101498 0.00399957458 -0.0244886242 0.0270268656 -0.00484999968 -0.0275004227 0.0251101498 0.00399957458 -0.0244886242 0.0266215485 0.00265000062 -0.027244946 0.0270268656 -0.00484999968 -0.0275004227 0.0239812378 -0.00499588717 -0.0320586078 0.0270268656 -0.00484999968 -0.0275004227 0.0265232529 0.00396223459 -0.0299809109 </float_array>
          <technique_common>
            <accessor count="1359" offset="0" source="#mesh_0-positions-array" stride="3">
              <param name="X" type="float" />
              <param name="Y" type="float" />
              <param name="Z" type="float" />
            </accessor>
          </technique_common>
        </source>
        <vertices id="mesh_0-vertices">
          <input semantic="POSITION" source="#mesh_0-positions" />
        </vertices>
        <polylist count="453" material="defaultMaterial">
          <input offset="0" semantic="VERTEX" source="#mesh_0-vertices" />
          <vcount>3 3 3 3 3 3 3 3 3 3 3 3 3 3 3 3 3 3 3 3 3 3 3 3 3 3 3 3 3 3 3 3 3 3 3 3 3 3 3 3 3 3 3 3 3 3 3 3 3 3 3 3 3 3 3 3 3 3 3 3 3 3 3 3 3 3 3 3 3 3 3 3 3 3 3 3 3 3 3 3 3 3 3 3 3 3 3 3 3 3 3 3 3 3 3 3 3 3 3 3 3 3 3 3 3 3 3 3 3 3 3 3 3 3 3 3 3 3 3 3 3 3 3 3 3 3 3 3 3 3 3 3 3 3 3 3 3 3 3 3 3 3 3 3 3 3 3 3 3 3 3 3 3 3 3 3 3 3 3 3 3 3 3 3 3 3 3 3 3 3 3 3 3 3 3 3 3 3 3 3 3 3 3 3 3 3 3 3 3 3 3 3 3 3 3 3 3 3 3 3 3 3 3 3 3 3 3 3 3 3 3 3 3 3 3 3 3 3 3 3 3 3 3 3 3 3 3 3 3 3 3 3 3 3 3 3 3 3 3 3 3 3 3 3 3 3 3 3 3 3 3 3 3 3 3 3 3 3 3 3 3 3 3 3 3 3 3 3 3 3 3 3 3 3 3 3 3 3 3 3 3 3 3 3 3 3 3 3 3 3 3 3 3 3 3 3 3 3 3 3 3 3 3 3 3 3 3 3 3 3 3 3 3 3 3 3 3 3 3 3 3 3 3 3 3 3 3 3 3 3 3 3 3 3 3 3 3 3 3 3 3 3 3 3 3 3 3 3 3 3 3 3 3 3 3 3 3 3 3 3 3 3 3 3 3 3 3 3 3 3 3 3 3 3 3 3 3 3 3 3 3 3 3 3 3 3 3 3 3 3 3 3 3 3 3 3 3 3 3 3 3 3 3 3 3 3 3 3 3 3 3 3 3 3 3 3 3 3 3 3 3 3 3 3 3 3 3 3 3 3 3 3 3 3 3 3 3 3 3 3 3 3 3 3 3 3 3 3 3 3 3 3 3 </vcount>
          <p>0 1 2 3 4 5 6 7 8 9 10 11 12 13 14 15 16 17 18 19 20 21 22 23 24 25 26 27 28 29 30 31 32 33 34 35 36 37 38 39 40 41 42 43 44 45 46 47 48 49 50 51 52 53 54 55 56 57 58 59 60 61 62 63 64 65 66 67 68 69 70 71 72 73 74 75 76 77 78 79 80 81 82 83 84 85 86 87 88 89 90 91 92 93 94 95 96 97 98 99 100 101 102 103 104 105 106 107 108 109 110 111 112 113 114 115 116 117 118 119 120 121 122 123 124 125 126 127 128 129 130 131 132 133 134 135 136 137 138 139 140 141 142 143 144 145 146 147 148 149 150 151 152 153 154 155 156 157 158 159 160 161 162 163 164 165 166 167 168 169 170 171 172 173 174 175 176 177 178 179 180 181 182 183 184 185 186 187 188 189 190 191 192 193 194 195 196 197 198 199 200 201 202 203 204 205 206 207 208 209 210 211 212 213 214 215 216 217 218 219 220 221 222 223 224 225 226 227 228 229 230 231 232 233 234 235 236 237 238 239 240 241 242 243 244 245 246 247 248 249 250 251 252 253 254 255 256 257 258 259 260 261 262 263 264 265 266 267 268 269 270 271 272 273 274 275 276 277 278 279 280 281 282 283 284 285 286 287 288 289 290 291 292 293 294 295 296 297 298 299 300 301 302 303 304 305 306 307 308 309 310 311 312 313 314 315 316 317 318 319 320 321 322 323 324 325 326 327 328 329 330 331 332 333 334 335 336 337 338 339 340 341 342 343 344 345 346 347 348 349 350 351 352 353 354 355 356 357 358 359 360 361 362 363 364 365 366 367 368 369 370 371 372 373 374 375 376 377 378 379 380 381 382 383 384 385 386 387 388 389 390 391 392 393 394 395 396 397 398 399 400 401 402 403 404 405 406 407 408 409 410 411 412 413 414 415 416 417 418 419 420 421 422 423 424 425 426 427 428 429 430 431 432 433 434 435 436 437 438 439 440 441 442 443 444 445 446 447 448 449 450 451 452 453 454 455 456 457 458 459 460 461 462 463 464 465 466 467 468 469 470 471 472 473 474 475 476 477 478 479 480 481 482 483 484 485 486 487 488 489 490 491 492 493 494 495 496 497 498 499 500 501 502 503 504 505 506 507 508 509 510 511 512 513 514 515 516 517 518 519 520 521 522 523 524 525 526 527 528 529 530 531 532 533 534 535 536 537 538 539 540 541 542 543 544 545 546 547 548 549 550 551 552 553 554 555 556 557 558 559 560 561 562 563 564 565 566 567 568 569 570 571 572 573 574 575 576 577 578 579 580 581 582 583 584 585 586 587 588 589 590 591 592 593 594 595 596 597 598 599 600 601 602 603 604 605 606 607 608 609 610 611 612 613 614 615 616 617 618 619 620 621 622 623 624 625 626 627 628 629 630 631 632 633 634 635 636 637 638 639 640 641 642 643 644 645 646 647 648 649 650 651 652 653 654 655 656 657 658 659 660 661 662 663 664 665 666 667 668 669 670 671 672 673 674 675 676 677 678 679 680 681 682 683 684 685 686 687 688 689 690 691 692 693 694 695 696 697 698 699 700 701 702 703 704 705 706 707 708 709 710 711 712 713 714 715 716 717 718 719 720 721 722 723 724 725 726 727 728 729 730 731 732 733 734 735 736 737 738 739 740 741 742 743 744 745 746 747 748 749 750 751 752 753 754 755 756 757 758 759 760 761 762 763 764 765 766 767 768 769 770 771 772 773 774 775 776 777 778 779 780 781 782 783 784 785 786 787 788 789 790 791 792 793 794 795 796 797 798 799 800 801 802 803 804 805 806 807 808 809 810 811 812 813 814 815 816 817 818 819 820 821 822 823 824 825 826 827 828 829 830 831 832 833 834 835 836 837 838 839 840 841 842 843 844 845 846 847 848 849 850 851 852 853 854 855 856 857 858 859 860 861 862 863 864 865 866 867 868 869 870 871 872 873 874 875 876 877 878 879 880 881 882 883 884 885 886 887 888 889 890 891 892 893 894 895 896 897 898 899 900 901 902 903 904 905 906 907 908 909 910 911 912 913 914 915 916 917 918 919 920 921 922 923 924 925 926 927 928 929 930 931 932 933 934 935 936 937 938 939 940 941 942 943 944 945 946 947 948 949 950 951 952 953 954 955 956 957 958 959 960 961 962 963 964 965 966 967 968 969 970 971 972 973 974 975 976 977 978 979 980 981 982 983 984 985 986 987 988 989 990 991 992 993 994 995 996 997 998 999 1000 1001 1002 1003 1004 1005 1006 1007 1008 1009 1010 1011 1012 1013 1014 1015 1016 1017 1018 1019 1020 1021 1022 1023 1024 1025 1026 1027 1028 1029 1030 1031 1032 1033 1034 1035 1036 1037 1038 1039 1040 1041 1042 1043 1044 1045 1046 1047 1048 1049 1050 1051 1052 1053 1054 1055 1056 1057 1058 1059 1060 1061 1062 1063 1064 1065 1066 1067 1068 1069 1070 1071 1072 1073 1074 1075 1076 1077 1078 1079 1080 1081 1082 1083 1084 1085 1086 1087 1088 1089 1090 1091 1092 1093 1094 1095 1096 1097 1098 1099 1100 1101 1102 1103 1104 1105 1106 1107 1108 1109 1110 1111 1112 1113 1114 1115 1116 1117 1118 1119 1120 1121 1122 1123 1124 1125 1126 1127 1128 1129 1130 1131 1132 1133 1134 1135 1136 1137 1138 1139 1140 1141 1142 1143 1144 1145 1146 1147 1148 1149 1150 1151 1152 1153 1154 1155 1156 1157 1158 1159 1160 1161 1162 1163 1164 1165 1166 1167 1168 1169 1170 1171 1172 1173 1174 1175 1176 1177 1178 1179 1180 1181 1182 1183 1184 1185 1186 1187 1188 1189 1190 1191 1192 1193 1194 1195 1196 1197 1198 1199 1200 1201 1202 1203 1204 1205 1206 1207 1208 1209 1210 1211 1212 1213 1214 1215 1216 1217 1218 1219 1220 1221 1222 1223 1224 1225 1226 1227 1228 1229 1230 1231 1232 1233 1234 1235 1236 1237 1238 1239 1240 1241 1242 1243 1244 1245 1246 1247 1248 1249 1250 1251 1252 1253 1254 1255 1256 1257 1258 1259 1260 1261 1262 1263 1264 1265 1266 1267 1268 1269 1270 1271 1272 1273 1274 1275 1276 1277 1278 1279 1280 1281 1282 1283 1284 1285 1286 1287 1288 1289 1290 1291 1292 1293 1294 1295 1296 1297 1298 1299 1300 1301 1302 1303 1304 1305 1306 1307 1308 1309 1310 1311 1312 1313 1314 1315 1316 1317 1318 1319 1320 1321 1322 1323 1324 1325 1326 1327 1328 1329 1330 1331 1332 1333 1334 1335 1336 1337 1338 1339 1340 1341 1342 1343 1344 1345 1346 1347 1348 1349 1350 1351 1352 1353 1354 1355 1356 1357 1358 </p>
        </polylist>
      </mesh>
    </geometry>
  </library_geometries>
  <library_controllers>
  </library_controllers>
  <library_visual_scenes>
    <visual_scene id="Scene" name="Scene">
      <node id="node" name="" type="NODE">
        <matrix sid="matrix">1 0 0 0 0 1 0 0 0 0 1 0 0 0 0 1</matrix>
        <instance_geometry url="#mesh_0">
          <bind_material>
            <technique_common>
              <instance_material symbol="defaultMaterial" target="#material_0">
              </instance_material>
            </technique_common>
          </bind_material>
        </instance_geometry>
      </node>
    </visual_scene>
  </library_visual_scenes>
  <scene>
    <instance_visual_scene url="#Scene" />
  </scene>
</COLLADA>
