<?xml version="1.0" encoding="UTF-8" standalone="no" ?>
<COLLADA xmlns="http://www.collada.org/2005/11/COLLADASchema" version="1.4.1">
  <asset>
    <contributor>
      <author>Assimp</author>
      <authoring_tool>Assimp Exporter</authoring_tool>
    </contributor>
    <created>2025-12-08T10:04:59</created>
    <modified>2025-12-08T10:04:59</modified>
    <unit name="meter" meter="1" />
    <up_axis>Y_UP</up_axis>
  </asset>
  <library_images>
  </library_images>
  <library_effects>
    <effect id="material_0-fx" name="">
      <profile_COMMON>
        <technique sid="standard">
          <phong>
            <emission>
              <color sid="emission">0   0   0   4.53488209e-41</color>
            </emission>
            <ambient>
              <color sid="ambient">0.498039246   0.498039246   0.498039246   0.0236816406</color>
            </ambient>
            <diffuse>
              <color sid="diffuse">0.498039246   0.498039246   0.498039246   0.0236816406</color>
            </diffuse>
            <specular>
              <color sid="specular">0.498039246   0.498039246   0.498039246   2.55843558e-11</color>
            </specular>
          </phong>
        </technique>
      </profile_COMMON>
    </effect>
  </library_effects>
  <library_materials>
    <material id="material_0" name="">
      <instance_effect url="#material_0-fx"/>
    </material>
  </library_materials>
  <library_geometries>
    <geometry id="mesh_0" name="" >
      <mesh>
        <source id="mesh_0-positions" name="mesh_0-positions">
          <float_array id="mesh_0-positions-array" count="4338"> -0.000753430533 -0.0277829301 0.0080910055 -9.96431572e-06 -0.0151214181 0.0245030317 3.89260458e-05 -0.0237105768 0.0159274265 0.00331788324 -0.0175478831 0.0252326299 0.00323228096 -0.0245816056 0.0180048998 0.00349898566 0.0161746014 0.000171102904 0.00349541032 -0.0162885711 -0.00238808175 0.00349898566 0.0161746014 0.000171102904 0.00339835812 -0.0308562927 0.00448348699 0.0030407852 0.0125080459 0.0290018804 0.00331788324 -0.0175478831 0.0252326299 0.00349898566 0.0161746014 0.000171102904 0.00323980022 0.0263604429 0.0159467161 0.00349898566 0.0161746014 0.000171102904 0.00351224164 0.024015151 0.00758890668 0.00346924504 0.00958138332 0.014168405 0.00349898566 0.0161746014 0.000171102904 0.00348060741 -0.0149873411 0.00656754849 0.00339835812 -0.0308562927 0.00448348699 0.00349898566 0.0161746014 0.000171102904 0.00323228096 -0.0245816056 0.0180048998 0.00323980022 0.0263604429 0.0159467161 0.0030407852 0.0125080459 0.0290018804 0.00349898566 0.0161746014 0.000171102904 2.92293298e-05 -0.00496251835 0.0156388748 0.00346924504 0.00958138332 0.014168405 0.00348060741 -0.0149873411 0.00656754849 -0.0177759454 0.0302709695 -0.0516862497 -0.00762377959 0.0235994328 -0.0390337333 -0.0145649118 0.0288179759 -0.0769282877 -0.00994351879 0.0254777465 -0.0830282867 -0.0211178176 0.0314851217 -0.0829866678 -0.0145649118 0.0288179759 -0.0769282877 -0.0308990907 0.0334954746 -0.0563924015 -0.0211178176 0.0314851217 -0.0829866678 -0.0292894058 0.0331367888 -0.0775462389 -0.0211178176 0.0314851217 -0.0829866678 -0.0177759454 0.0302709695 -0.0516862497 -0.0145649118 0.0288179759 -0.0769282877 -0.0308990907 0.0334954746 -0.0563924015 -0.0177759454 0.0302709695 -0.0516862497 -0.0211178176 0.0314851217 -0.0829866678 -0.0441766791 0.0306810942 -0.0821680501 -0.0308990907 0.0334954746 -0.0563924015 -0.0292894058 0.0331367888 -0.0775462389 -0.040883664 0.0314848945 -0.0565126091 -0.0308990907 0.0334954746 -0.0563924015 -0.0441766791 0.0306810942 -0.0821680501 -0.0525065884 0.0250271 -0.0563257076 -0.0441766791 0.0306810942 -0.0821680501 -0.0525050499 0.0250290427 -0.0829953328 -0.0571017563 0.020192584 -0.0829913393 -0.0525065884 0.0250271 -0.0563257076 -0.0525050499 0.0250290427 -0.0829953328 -0.0570897311 0.0202058423 -0.0565030426 -0.0525065884 0.0250271 -0.0563257076 -0.0571017563 0.020192584 -0.0829913393 -0.0603478067 0.0153739899 -0.0780221522 -0.0571017563 0.020192584 -0.0829913393 -0.0628644824 0.0086012641 -0.0830173418 -0.0594062991 0.0169260576 -0.0749976858 -0.0570897311 0.0202058423 -0.0565030426 -0.0571017563 0.020192584 -0.0829913393 -0.0606275499 0.0145330066 -0.0566731356 -0.0570897311 0.0202058423 -0.0565030426 -0.0594062991 0.0169260576 -0.0749976858 -0.0606275499 0.0145330066 -0.0566731356 -0.0594062991 0.0169260576 -0.0749976858 -0.0603478067 0.0153739899 -0.0780221522 -0.0629459918 0.00827312656 -0.0565009341 -0.0606275499 0.0145330066 -0.0566731356 -0.0603478067 0.0153739899 -0.0780221522 -0.064397797 -0.00122129149 -0.0828606635 -0.0629459918 0.00827312656 -0.0565009341 -0.0628644824 0.0086012641 -0.0830173418 -0.0629459918 0.00827312656 -0.0565009341 -0.0603478067 0.0153739899 -0.0780221522 -0.0628644824 0.0086012641 -0.0830173418 -0.0641678125 -0.00243716338 -0.0565868877 -0.0629459918 0.00827312656 -0.0565009341 -0.064397797 -0.00122129149 -0.0828606635 -0.0617581941 -0.0121248094 -0.0830229521 -0.0641678125 -0.00243716338 -0.0565868877 -0.064397797 -0.00122129149 -0.0828606635 -0.0619465671 -0.011456335 -0.0564479195 -0.0641678125 -0.00243716338 -0.0565868877 -0.0617581941 -0.0121248094 -0.0830229521 -0.0594489686 -0.0170328822 -0.076946415 -0.0619465671 -0.011456335 -0.0564479195 -0.0617581941 -0.0121248094 -0.0830229521 -0.0590005368 -0.0174616165 -0.0565029569 -0.0619465671 -0.011456335 -0.0564479195 -0.0594489686 -0.0170328822 -0.076946415 -0.0549181625 -0.0227359086 -0.0566731356 -0.0590005368 -0.0174616165 -0.0565029569 -0.0594489686 -0.0170328822 -0.076946415 -0.0549152419 -0.0227386151 -0.0829967931 -0.0594489686 -0.0170328822 -0.076946415 -0.0617581941 -0.0121248094 -0.0830229521 -0.0549152419 -0.0227386151 -0.0829967931 -0.0549181625 -0.0227359086 -0.0566731356 -0.0594489686 -0.0170328822 -0.076946415 -0.0473122597 -0.0292442385 -0.0779082403 -0.0549181625 -0.0227359086 -0.0566731356 -0.0549152419 -0.0227386151 -0.0829967931 -0.049858544 -0.0270783193 -0.0563120022 -0.0549181625 -0.0227359086 -0.0566731356 -0.0473122597 -0.0292442385 -0.0779082403 -0.0440142006 -0.0303254873 -0.0567581952 -0.049858544 -0.0270783193 -0.0563120022 -0.0473122597 -0.0292442385 -0.0779082403 -0.0376466736 -0.0323235355 -0.0830074474 -0.0440142006 -0.0303254873 -0.0567581952 -0.0473122597 -0.0292442385 -0.0779082403 -0.0369083993 -0.0324956775 -0.056375768 -0.0440142006 -0.0303254873 -0.0567581952 -0.0376466736 -0.0323235355 -0.0830074474 -0.0234425887 -0.0322094634 -0.0551997684 -0.0236044209 -0.0321537815 -0.083024323 -0.0168346185 -0.029815089 -0.0506159216 -0.0305474587 -0.0329504088 -0.0774753019 -0.0234425887 -0.0322094634 -0.0551997684 -0.0369083993 -0.0324956775 -0.056375768 -0.0305474587 -0.0329504088 -0.0774753019 -0.0236044209 -0.0321537815 -0.083024323 -0.0234425887 -0.0322094634 -0.0551997684 -0.0139688738 -0.0283340942 -0.0778743923 -0.0168346185 -0.029815089 -0.0506159216 -0.0236044209 -0.0321537815 -0.083024323 -0.0124583086 -0.0274067968 -0.0455890968 -0.0168346185 -0.029815089 -0.0506159216 -0.0139688738 -0.0283340942 -0.0778743923 -0.00707972609 -0.0227331016 -0.0829879865 -0.0124583086 -0.0274067968 -0.0455890968 -0.0139688738 -0.0283340942 -0.0778743923 -0.00597116537 -0.0219272133 -0.0404463857 -0.0109831449 -0.026645869 -0.0329420455 -0.0124583086 -0.0274067968 -0.0455890968 -0.00140826334 -0.0155499326 -0.0829795748 -0.00597116537 -0.0219272133 -0.0404463857 -0.00707972609 -0.0227331016 -0.0829879865 -0.00597116537 -0.0219272133 -0.0404463857 -0.0124583086 -0.0274067968 -0.0455890968 -0.00707972609 -0.0227331016 -0.0829879865 0.000159898264 -0.0110557005 -0.043360319 -0.00597116537 -0.0219272133 -0.0404463857 -0.00140826334 -0.0155499326 -0.0829795748 0.00161994819 -0.00499125384 -0.0829962268 0.000159898264 -0.0110557005 -0.043360319 -0.00140826334 -0.0155499326 -0.0829795748 0.00189144455 -0.00420227414 -0.0380141065 0.000159898264 -0.0110557005 -0.043360319 0.00161994819 -0.00499125384 -0.0829962268 0.00215832493 0.000875635596 -0.0778020546 0.00189144455 -0.00420227414 -0.0380141065 0.00161994819 -0.00499125384 -0.0829962268 0.000683842343 0.00982993376 -0.0393634886 0.00189144455 -0.00420227414 -0.0380141065 0.00215832493 0.000875635596 -0.0778020546 0.000947144348 0.00826746318 -0.0829884931 0.000683842343 0.00982993376 -0.0393634886 0.00215832493 0.000875635596 -0.0778020546 -0.00278234971 0.0177824367 -0.0825104639 0.000683842343 0.00982993376 -0.0393634886 0.000947144348 0.00826746318 -0.0829884931 -0.00994351879 0.0254777465 -0.0830282867 -0.0145649118 0.0288179759 -0.0769282877 -0.00762377959 0.0235994328 -0.0390337333 -0.00278234971 0.0177824367 -0.0825104639 -0.00994351879 0.0254777465 -0.0830282867 -0.00762377959 0.0235994328 -0.0390337333 -0.0296859816 0.0301099457 -0.0595152564 -0.0187853798 0.0280186292 -0.0830035582 -0.0206487216 0.02808832 -0.0541837141 -0.0124098491 0.0236303341 -0.0426724702 -0.0206487216 0.02808832 -0.0541837141 -0.0187853798 0.0280186292 -0.0830035582 -0.00880464166 0.0202868003 -0.0829882398 -0.0124098491 0.0236303341 -0.0426724702 -0.0187853798 0.0280186292 -0.0830035582 -0.0233332701 -0.0291500445 -0.0560430996 -0.0223580245 -0.0288885459 -0.082871154 -0.0322065987 -0.0301059801 -0.0730018616 -0.0381059647 -0.0292649996 -0.0574603975 -0.0233332701 -0.0291500445 -0.0560430996 -0.0322065987 -0.0301059801 -0.0730018616 -0.0408453122 -0.0284416527 -0.0829659924 -0.0381059647 -0.0292649996 -0.0574603975 -0.0322065987 -0.0301059801 -0.0730018616 -0.0461845547 -0.0260346401 -0.0579139739 -0.0381059647 -0.0292649996 -0.0574603975 -0.0408453122 -0.0284416527 -0.0829659924 -0.0526028648 -0.0209701676 -0.0573409721 -0.0461845547 -0.0260346401 -0.0579139739 -0.0408453122 -0.0284416527 -0.0829659924 -0.0578691103 -0.0134173511 -0.0575566329 -0.0526028648 -0.0209701676 -0.0573409721 -0.0603580102 -0.00711188605 -0.0828634948 -0.0605766997 -0.00557825342 -0.0573002733 -0.0578691103 -0.0134173511 -0.0575566329 -0.0603580102 -0.00711188605 -0.0828634948 -0.0609560013 0.00162416731 -0.0573100336 -0.0605766997 -0.00557825342 -0.0573002733 -0.0603580102 -0.00711188605 -0.0828634948 -0.0599184223 0.00799030531 -0.0829865709 -0.0609560013 0.00162416731 -0.0573100336 -0.0603580102 -0.00711188605 -0.0828634948 -0.0606047958 0.00485346001 -0.0573100336 -0.0609560013 0.00162416731 -0.0573100336 -0.0599184223 0.00799030531 -0.0829865709 -0.0599210672 0.00799052231 -0.0568252876 -0.0606047958 0.00485346001 -0.0573100336 -0.0599184223 0.00799030531 -0.0829865709 -0.0564749129 0.0157393105 -0.0805859417 -0.0599210672 0.00799052231 -0.0568252876 -0.0599184223 0.00799030531 -0.0829865709 -0.0527398139 0.020610936 -0.0828434825 -0.0576166026 0.0141641209 -0.058848802 -0.0564749129 0.0157393105 -0.0805859417 -0.0527783185 0.0205657929 -0.0568808764 -0.0527398139 0.020610936 -0.0828434825 -0.0458363667 0.0263781715 -0.05724914 -0.0527783185 0.0205657929 -0.0568808764 -0.0576166026 0.0141641209 -0.058848802 -0.0527398139 0.020610936 -0.0828434825 -0.0365038142 0.0294960123 -0.0571160987 -0.0458363667 0.0263781715 -0.05724914 -0.0379499123 0.0292512905 -0.0830254927 -0.0379499123 0.0292512905 -0.0830254927 -0.0187853798 0.0280186292 -0.0830035582 -0.0296859816 0.0301099457 -0.0595152564 -0.0365038142 0.0294960123 -0.0571160987 -0.0379499123 0.0292512905 -0.0830254927 -0.0296859816 0.0301099457 -0.0595152564 -0.00801114272 0.0193326194 -0.0425211452 -0.0124098491 0.0236303341 -0.0426724702 -0.00880464166 0.0202868003 -0.0829882398 -0.004635341 0.0145472875 -0.0690323338 -0.00801114272 0.0193326194 -0.0425211452 -0.00880464166 0.0202868003 -0.0829882398 -0.00202582567 0.00780398492 -0.0829749554 -0.00212776498 0.00809905399 -0.0400010049 -0.004635341 0.0145472875 -0.0690323338 -0.000869635667 0.00158901815 -0.0427699536 -0.00212776498 0.00809905399 -0.0400010049 -0.00202582567 0.00780398492 -0.0829749554 -0.00194488105 -0.0077532311 -0.0772242993 -0.000869635667 0.00158901815 -0.0427699536 -0.00202582567 0.00780398492 -0.0829749554 -0.00534903677 -0.0157474801 -0.0665617585 -0.00194488105 -0.0077532311 -0.0772242993 -0.00906024501 -0.0206065401 -0.0829067975 -0.00187867414 -0.00802985765 -0.0396088026 -0.00194488105 -0.0077532311 -0.0772242993 -0.00534903677 -0.0157474801 -0.0665617585 -0.00187867414 -0.00802985765 -0.0396088026 -0.000869635667 0.00158901815 -0.0427699536 -0.00194488105 -0.0077532311 -0.0772242993 -0.00992755964 -0.0214336179 -0.0389388129 -0.00534903677 -0.0157474801 -0.0665617585 -0.00906024501 -0.0206065401 -0.0829067975 -0.00992755964 -0.0214336179 -0.0389388129 -0.00906024501 -0.0206065401 -0.0829067975 -0.0223580245 -0.0288885459 -0.082871154 0.00387116359 -0.0278706402 -0.0123963347 0.00339835812 -0.0308562927 0.00448348699 -0.00397298904 -0.0308556724 -0.00127010536 0.00164070504 0.0307279155 0.000710888067 0.00347045646 0.0304343048 -0.00368334563 -0.0109938532 0.0308267716 -0.0016503972 -0.010982763 0.0273522288 0.0144093838 0.00164070504 0.0307279155 0.000710888067 -0.0109938532 0.0308267716 -0.0016503972 -0.0111742793 0.0182258114 0.023530988 0.00323980022 0.0263604429 0.0159467161 -0.010982763 0.0273522288 0.0144093838 -0.01084207 0.00754343625 0.0300785936 -0.0108882785 -0.00973751675 0.0290858913 0.00155079423 -0.00556096388 0.030203389 -0.01084207 0.00754343625 0.0300785936 0.00155079423 -0.00556096388 0.030203389 0.0030407852 0.0125080459 0.0290018804 -0.0109883621 -0.0209534261 0.0224028807 0.00331788324 -0.0175478831 0.0252326299 -0.0108882785 -0.00973751675 0.0290858913 0.00155079423 -0.00556096388 0.030203389 -0.0108882785 -0.00973751675 0.0290858913 0.00331788324 -0.0175478831 0.0252326299 -0.0109532205 -0.0283908583 0.0116157494 0.00323228096 -0.0245816056 0.0180048998 -0.0109883621 -0.0209534261 0.0224028807 -0.0109883621 -0.0209534261 0.0224028807 0.00323228096 -0.0245816056 0.0180048998 0.00331788324 -0.0175478831 0.0252326299 -0.0109532205 -0.0283908583 0.0116157494 -0.00397298904 -0.0308556724 -0.00127010536 0.00339835812 -0.0308562927 0.00448348699 0.00348327472 0.0160640907 -0.0262138974 0.00347045646 0.0304343048 -0.00368334563 0.00349898566 0.0161746014 0.000171102904 0.000409347907 0.000918904494 -0.029138511 0.00348327472 0.0160640907 -0.0262138974 0.00349898566 0.0161746014 0.000171102904 0.00164070504 0.0307279155 0.000710888067 0.00349898566 0.0161746014 0.000171102904 0.00347045646 0.0304343048 -0.00368334563 0.00387116359 -0.0278706402 -0.0123963347 0.00349541032 -0.0162885711 -0.00238808175 0.00339835812 -0.0308562927 0.00448348699 0.0034885155 0.0113409907 -0.0124640167 0.000425545295 -0.007194167 -0.0151489088 0.00349898566 0.0161746014 0.000171102904 0.00348327472 0.0160640907 -0.0262138974 0.00349898566 0.0161746014 0.000171102904 0.00349541032 -0.0162885711 -0.00238808175 0.000425545295 -0.007194167 -0.0151489088 0.00349541032 -0.0162885711 -0.00238808175 0.00349898566 0.0161746014 0.000171102904 0.00343080098 -0.00989292655 -0.0224094372 0.00349898566 0.0161746014 0.000171102904 0.00349541032 -0.0162885711 -0.00238808175 -0.0109975711 -0.00360960374 -0.0287301056 -0.0109964283 0.0145131107 -0.0250562895 -0.0109938532 0.0308267716 -0.0016503972 -0.0110735837 0.0252065305 -0.0425202549 -0.0109975711 -0.00360960374 -0.0287301056 -0.0109938532 0.0308267716 -0.0016503972 -0.0109921889 0.00492227357 -0.0339363404 -0.0109975711 -0.00360960374 -0.0287301056 -0.0110735837 0.0252065305 -0.0425202549 -0.0109958528 -0.024471892 -0.015378614 -0.010997056 -0.0173087995 -0.0230308902 -0.0109921889 0.00492227357 -0.0339363404 -0.0109958528 -0.024471892 -0.015378614 -0.0109921889 0.00492227357 -0.0339363404 -0.0109831449 -0.026645869 -0.0329420455 -0.0110024083 -0.0287623424 -0.0016128195 -0.0109958528 -0.024471892 -0.015378614 -0.0109831449 -0.026645869 -0.0329420455 -0.010997056 -0.0173087995 -0.0230308902 -0.0109975711 -0.00360960374 -0.0287301056 -0.0109921889 0.00492227357 -0.0339363404 -0.0109830089 0.0234292634 -0.0169334225 -0.0109938532 0.0308267716 -0.0016503972 -0.0109964283 0.0145131107 -0.0250562895 -0.0599210672 0.00799052231 -0.0568252876 -0.0629459918 0.00827312656 -0.0565009341 -0.0641678125 -0.00243716338 -0.0565868877 -0.0458363667 0.0263781715 -0.05724914 -0.040883664 0.0314848945 -0.0565126091 -0.0525065884 0.0250271 -0.0563257076 -0.0526028648 -0.0209701676 -0.0573409721 -0.0590005368 -0.0174616165 -0.0565029569 -0.049858544 -0.0270783193 -0.0563120022 -0.0578691103 -0.0134173511 -0.0575566329 -0.0590005368 -0.0174616165 -0.0565029569 -0.0526028648 -0.0209701676 -0.0573409721 -0.0578691103 -0.0134173511 -0.0575566329 -0.0619465671 -0.011456335 -0.0564479195 -0.0590005368 -0.0174616165 -0.0565029569 -0.0527783185 0.0205657929 -0.0568808764 -0.0629459918 0.00827312656 -0.0565009341 -0.0599210672 0.00799052231 -0.0568252876 -0.0527783185 0.0205657929 -0.0568808764 -0.0570897311 0.0202058423 -0.0565030426 -0.0629459918 0.00827312656 -0.0565009341 -0.0527783185 0.0205657929 -0.0568808764 -0.0525065884 0.0250271 -0.0563257076 -0.0570897311 0.0202058423 -0.0565030426 -0.0599210672 0.00799052231 -0.0568252876 -0.0641678125 -0.00243716338 -0.0565868877 -0.0619465671 -0.011456335 -0.0564479195 -0.0365038142 0.0294960123 -0.0571160987 -0.0308990907 0.0334954746 -0.0563924015 -0.040883664 0.0314848945 -0.0565126091 -0.0365038142 0.0294960123 -0.0571160987 -0.040883664 0.0314848945 -0.0565126091 -0.0458363667 0.0263781715 -0.05724914 -0.00992755964 -0.0214336179 -0.0389388129 -0.0124583086 -0.0274067968 -0.0455890968 -0.0109831449 -0.026645869 -0.0329420455 -0.0109921889 0.00492227357 -0.0339363404 -0.00992755964 -0.0214336179 -0.0389388129 -0.0109831449 -0.026645869 -0.0329420455 -2.61247214e-06 -0.0286739878 -0.00175780861 -9.96431572e-06 -0.0151214181 0.0245030317 0.000425545295 -0.007194167 -0.0151489088 -5.42065718e-05 -0.0195984524 -0.0212924443 -0.000319190614 -0.027821105 -0.00734924618 -5.46144156e-06 -0.0119696734 -0.0261759032 -0.000199634786 -0.00301813707 0.0291121677 -7.34909408e-05 0.0113952234 0.0265145209 -1.09906728e-06 0.0287304297 -0.0017523166 -4.07771986e-05 0.0145507455 -0.0250146296 0.000409347907 0.000918904494 -0.029138511 -5.46144156e-06 -0.0119696734 -0.0261759032 6.24699396e-06 0.0252247527 -0.00956092868 -1.09906728e-06 0.0287304297 -0.0017523166 -1.17240452e-05 0.0264626276 -0.0115552805 -0.000124991682 0.0265931133 0.0118219722 -1.09906728e-06 0.0287304297 -0.0017523166 0.00164070504 0.0307279155 0.000710888067 0.00132656225 0.0205667987 0.0148494672 -0.000124991682 0.0265931133 0.0118219722 -1.09906728e-06 0.0287304297 -0.0017523166 -0.000124991682 0.0265931133 0.0118219722 -1.09906728e-06 0.0287304297 -0.0017523166 -7.34909408e-05 0.0113952234 0.0265145209 -2.61247214e-06 -0.0286739878 -0.00175780861 -0.000753430533 -0.0277829301 0.0080910055 -9.96431572e-06 -0.0151214181 0.0245030317 -5.42065718e-05 -0.0195984524 -0.0212924443 0.00343080098 -0.00989292655 -0.0224094372 -5.46144156e-06 -0.0119696734 -0.0261759032 -5.46144156e-06 -0.0119696734 -0.0261759032 -2.61247214e-06 -0.0286739878 -0.00175780861 0.000425545295 -0.007194167 -0.0151489088 -1.09906728e-06 0.0287304297 -0.0017523166 2.92293298e-05 -0.00496251835 0.0156388748 -9.96431572e-06 -0.0151214181 0.0245030317 0.000425545295 -0.007194167 -0.0151489088 -9.96431572e-06 -0.0151214181 0.0245030317 2.92293298e-05 -0.00496251835 0.0156388748 3.10209361e-05 0.0162822474 -0.0028425029 0.00346924504 0.00958138332 0.014168405 -1.09906728e-06 0.0287304297 -0.0017523166 -1.09906728e-06 0.0287304297 -0.0017523166 0.00346924504 0.00958138332 0.014168405 2.92293298e-05 -0.00496251835 0.0156388748 3.10209361e-05 0.0162822474 -0.0028425029 -5.46144156e-06 -0.0119696734 -0.0261759032 0.000425545295 -0.007194167 -0.0151489088 3.10209361e-05 0.0162822474 -0.0028425029 -1.17240452e-05 0.0264626276 -0.0115552805 -5.46144156e-06 -0.0119696734 -0.0261759032 -1.17240452e-05 0.0264626276 -0.0115552805 -4.07771986e-05 0.0145507455 -0.0250146296 -5.46144156e-06 -0.0119696734 -0.0261759032 -0.000199634786 -0.00301813707 0.0291121677 -1.09906728e-06 0.0287304297 -0.0017523166 -9.96431572e-06 -0.0151214181 0.0245030317 -5.46144156e-06 -0.0119696734 -0.0261759032 -0.000319190614 -0.027821105 -0.00734924618 -2.61247214e-06 -0.0286739878 -0.00175780861 3.10209361e-05 0.0162822474 -0.0028425029 -1.09906728e-06 0.0287304297 -0.0017523166 -1.17240452e-05 0.0264626276 -0.0115552805 -0.00222084578 0.0250848513 -0.0231246185 -0.0109938532 0.0308267716 -0.0016503972 0.00347045646 0.0304343048 -0.00368334563 -0.00121154916 -0.0180133879 -0.03544138 0.00387116359 -0.0278706402 -0.0123963347 -0.00397298904 -0.0308556724 -0.00127010536 -0.00121154916 -0.0180133879 -0.03544138 0.00189144455 -0.00420227414 -0.0380141065 0.00387116359 -0.0278706402 -0.0123963347 0.00348327472 0.0160640907 -0.0262138974 0.00189144455 -0.00420227414 -0.0380141065 0.000683842343 0.00982993376 -0.0393634886 -0.0110735837 0.0252065305 -0.0425202549 -0.0109938532 0.0308267716 -0.0016503972 -0.00762377959 0.0235994328 -0.0390337333 -0.00121154916 -0.0180133879 -0.03544138 -0.00597116537 -0.0219272133 -0.0404463857 0.000159898264 -0.0110557005 -0.043360319 -0.00278234971 0.0177824367 -0.0825104639 -0.00762377959 0.0235994328 -0.0390337333 0.000683842343 0.00982993376 -0.0393634886 -0.00222084578 0.0250848513 -0.0231246185 -0.00762377959 0.0235994328 -0.0390337333 -0.0109938532 0.0308267716 -0.0016503972 -0.00121154916 -0.0180133879 -0.03544138 -0.0109831449 -0.026645869 -0.0329420455 -0.00597116537 -0.0219272133 -0.0404463857 -0.00121154916 -0.0180133879 -0.03544138 -0.00397298904 -0.0308556724 -0.00127010536 -0.0109831449 -0.026645869 -0.0329420455 -0.00222084578 0.0250848513 -0.0231246185 0.00348327472 0.0160640907 -0.0262138974 -0.00762377959 0.0235994328 -0.0390337333 0.00348327472 0.0160640907 -0.0262138974 0.000683842343 0.00982993376 -0.0393634886 -0.00762377959 0.0235994328 -0.0390337333 -0.00121154916 -0.0180133879 -0.03544138 0.000159898264 -0.0110557005 -0.043360319 0.00189144455 -0.00420227414 -0.0380141065 0.00387116359 -0.0278706402 -0.0123963347 0.00189144455 -0.00420227414 -0.0380141065 0.00349541032 -0.0162885711 -0.00238808175 0.00348327472 0.0160640907 -0.0262138974 0.00349541032 -0.0162885711 -0.00238808175 0.00189144455 -0.00420227414 -0.0380141065 -0.00222084578 0.0250848513 -0.0231246185 0.00347045646 0.0304343048 -0.00368334563 0.00348327472 0.0160640907 -0.0262138974 0.00155079423 -0.00556096388 0.030203389 0.00331788324 -0.0175478831 0.0252326299 0.0030407852 0.0125080459 0.0290018804 0.00164070504 0.0307279155 0.000710888067 0.00323980022 0.0263604429 0.0159467161 0.00351224164 0.024015151 0.00758890668 -0.0109532205 -0.0283908583 0.0116157494 0.00339835812 -0.0308562927 0.00448348699 0.00323228096 -0.0245816056 0.0180048998 -0.01084207 0.00754343625 0.0300785936 0.0030407852 0.0125080459 0.0290018804 -0.0111742793 0.0182258114 0.023530988 -0.0111742793 0.0182258114 0.023530988 0.0030407852 0.0125080459 0.0290018804 0.00323980022 0.0263604429 0.0159467161 -0.010982763 0.0273522288 0.0144093838 0.00323980022 0.0263604429 0.0159467161 0.00164070504 0.0307279155 0.000710888067 3.10209361e-05 0.0162822474 -0.0028425029 0.0034885155 0.0113409907 -0.0124640167 0.00349898566 0.0161746014 0.000171102904 3.10209361e-05 0.0162822474 -0.0028425029 0.00349898566 0.0161746014 0.000171102904 0.00346924504 0.00958138332 0.014168405 -0.000319190614 -0.027821105 -0.00734924618 -2.61247214e-06 -0.0286739878 -0.00175780861 0.00387116359 -0.0278706402 -0.0123963347 -2.61247214e-06 -0.0286739878 -0.00175780861 0.00339835812 -0.0308562927 0.00448348699 0.00349541032 -0.0162885711 -0.00238808175 -0.00906024501 -0.0206065401 -0.0829067975 -0.00140826334 -0.0155499326 -0.0829795748 -0.00707972609 -0.0227331016 -0.0829879865 -0.0527398139 0.020610936 -0.0828434825 -0.0599184223 0.00799030531 -0.0829865709 -0.0525050499 0.0250290427 -0.0829953328 -0.0599184223 0.00799030531 -0.0829865709 -0.0571017563 0.020192584 -0.0829913393 -0.0525050499 0.0250290427 -0.0829953328 -0.0603580102 -0.00711188605 -0.0828634948 -0.0617581941 -0.0121248094 -0.0830229521 -0.064397797 -0.00122129149 -0.0828606635 -0.0603580102 -0.00711188605 -0.0828634948 -0.0549152419 -0.0227386151 -0.0829967931 -0.0617581941 -0.0121248094 -0.0830229521 -0.0599184223 0.00799030531 -0.0829865709 -0.0628644824 0.0086012641 -0.0830173418 -0.0571017563 0.020192584 -0.0829913393 -0.0603580102 -0.00711188605 -0.0828634948 -0.0408453122 -0.0284416527 -0.0829659924 -0.0549152419 -0.0227386151 -0.0829967931 -0.0408453122 -0.0284416527 -0.0829659924 -0.0376466736 -0.0323235355 -0.0830074474 -0.0549152419 -0.0227386151 -0.0829967931 -0.00906024501 -0.0206065401 -0.0829067975 0.00161994819 -0.00499125384 -0.0829962268 -0.00140826334 -0.0155499326 -0.0829795748 -0.00906024501 -0.0206065401 -0.0829067975 -0.00202582567 0.00780398492 -0.0829749554 0.00161994819 -0.00499125384 -0.0829962268 -0.00202582567 0.00780398492 -0.0829749554 0.000947144348 0.00826746318 -0.0829884931 0.00161994819 -0.00499125384 -0.0829962268 -0.0379499123 0.0292512905 -0.0830254927 -0.0211178176 0.0314851217 -0.0829866678 -0.0187853798 0.0280186292 -0.0830035582 -0.0379499123 0.0292512905 -0.0830254927 -0.0527398139 0.020610936 -0.0828434825 -0.0441766791 0.0306810942 -0.0821680501 -0.0527398139 0.020610936 -0.0828434825 -0.0525050499 0.0250290427 -0.0829953328 -0.0441766791 0.0306810942 -0.0821680501 -0.0599184223 0.00799030531 -0.0829865709 -0.064397797 -0.00122129149 -0.0828606635 -0.0628644824 0.0086012641 -0.0830173418 -0.0223580245 -0.0288885459 -0.082871154 -0.00707972609 -0.0227331016 -0.0829879865 -0.0236044209 -0.0321537815 -0.083024323 -0.00906024501 -0.0206065401 -0.0829067975 -0.00707972609 -0.0227331016 -0.0829879865 -0.0223580245 -0.0288885459 -0.082871154 -0.00202582567 0.00780398492 -0.0829749554 -0.00278234971 0.0177824367 -0.0825104639 0.000947144348 0.00826746318 -0.0829884931 -0.00202582567 0.00780398492 -0.0829749554 -0.00880464166 0.0202868003 -0.0829882398 -0.00278234971 0.0177824367 -0.0825104639 -0.00880464166 0.0202868003 -0.0829882398 -0.00994351879 0.0254777465 -0.0830282867 -0.00278234971 0.0177824367 -0.0825104639 -0.00880464166 0.0202868003 -0.0829882398 -0.0187853798 0.0280186292 -0.0830035582 -0.00994351879 0.0254777465 -0.0830282867 -0.0109921889 0.00492227357 -0.0339363404 -0.00187867414 -0.00802985765 -0.0396088026 -0.00992755964 -0.0214336179 -0.0389388129 -0.00992755964 -0.0214336179 -0.0389388129 -0.00187867414 -0.00802985765 -0.0396088026 -0.00534903677 -0.0157474801 -0.0665617585 -0.0153929964 -0.025798196 -0.0515888371 -0.0124583086 -0.0274067968 -0.0455890968 -0.00992755964 -0.0214336179 -0.0389388129 -0.00212776498 0.00809905399 -0.0400010049 -0.00801114272 0.0193326194 -0.0425211452 -0.004635341 0.0145472875 -0.0690323338 -0.0109921889 0.00492227357 -0.0339363404 -0.00212776498 0.00809905399 -0.0400010049 -0.00187867414 -0.00802985765 -0.0396088026 -0.0109921889 0.00492227357 -0.0339363404 -0.0110735837 0.0252065305 -0.0425202549 -0.00212776498 0.00809905399 -0.0400010049 -0.00187867414 -0.00802985765 -0.0396088026 -0.00212776498 0.00809905399 -0.0400010049 -0.000869635667 0.00158901815 -0.0427699536 -0.0110735837 0.0252065305 -0.0425202549 -0.0124098491 0.0236303341 -0.0426724702 -0.00801114272 0.0193326194 -0.0425211452 -0.0110735837 0.0252065305 -0.0425202549 -0.00801114272 0.0193326194 -0.0425211452 -0.00212776498 0.00809905399 -0.0400010049 0.000425545295 -0.007194167 -0.0151489088 0.00348060741 -0.0149873411 0.00656754849 0.00349541032 -0.0162885711 -0.00238808175 0.000425545295 -0.007194167 -0.0151489088 2.92293298e-05 -0.00496251835 0.0156388748 0.00348060741 -0.0149873411 0.00656754849 3.10209361e-05 0.0162822474 -0.0028425029 0.000425545295 -0.007194167 -0.0151489088 0.0034885155 0.0113409907 -0.0124640167 -0.0379499123 0.0292512905 -0.0830254927 -0.0187853798 0.0280186292 -0.0830035582 -0.0292894058 0.0331367888 -0.0775462389 -0.0564749129 0.0157393105 -0.0805859417 -0.0603478067 0.0153739899 -0.0780221522 -0.0599210672 0.00799052231 -0.0568252876 -0.0564749129 0.0157393105 -0.0805859417 -0.0594062991 0.0169260576 -0.0749976858 -0.0603478067 0.0153739899 -0.0780221522 -0.0576166026 0.0141641209 -0.058848802 -0.0599210672 0.00799052231 -0.0568252876 -0.0603478067 0.0153739899 -0.0780221522 -0.0576166026 0.0141641209 -0.058848802 -0.0603478067 0.0153739899 -0.0780221522 -0.0564749129 0.0157393105 -0.0805859417 -0.0599184223 0.00799030531 -0.0829865709 -0.064397797 -0.00122129149 -0.0828606635 -0.0603580102 -0.00711188605 -0.0828634948 -0.0233332701 -0.0291500445 -0.0560430996 -0.0139688738 -0.0283340942 -0.0778743923 -0.0223580245 -0.0288885459 -0.082871154 -0.0153929964 -0.025798196 -0.0515888371 -0.0139688738 -0.0283340942 -0.0778743923 -0.0233332701 -0.0291500445 -0.0560430996 -0.00992755964 -0.0214336179 -0.0389388129 -0.0223580245 -0.0288885459 -0.082871154 -0.0139688738 -0.0283340942 -0.0778743923 -0.0153929964 -0.025798196 -0.0515888371 -0.00992755964 -0.0214336179 -0.0389388129 -0.0139688738 -0.0283340942 -0.0778743923 -0.000869635667 0.00158901815 -0.0427699536 0.00215832493 0.000875635596 -0.0778020546 -0.00202582567 0.00780398492 -0.0829749554 -0.00202582567 0.00780398492 -0.0829749554 -0.004635341 0.0145472875 -0.0690323338 -0.00880464166 0.0202868003 -0.0829882398 -0.00906024501 -0.0206065401 -0.0829067975 -0.00194488105 -0.0077532311 -0.0772242993 -0.00202582567 0.00780398492 -0.0829749554 -0.0223580245 -0.0288885459 -0.082871154 -0.0236044209 -0.0321537815 -0.083024323 -0.0376466736 -0.0323235355 -0.0830074474 -0.0322065987 -0.0301059801 -0.0730018616 -0.0223580245 -0.0288885459 -0.082871154 -0.0376466736 -0.0323235355 -0.0830074474 -0.0408453122 -0.0284416527 -0.0829659924 -0.0322065987 -0.0301059801 -0.0730018616 -0.0376466736 -0.0323235355 -0.0830074474 -0.0603580102 -0.00711188605 -0.0828634948 -0.0526028648 -0.0209701676 -0.0573409721 -0.0408453122 -0.0284416527 -0.0829659924 -0.0527398139 0.020610936 -0.0828434825 -0.0564749129 0.0157393105 -0.0805859417 -0.0599184223 0.00799030531 -0.0829865709 -0.0379499123 0.0292512905 -0.0830254927 -0.0458363667 0.0263781715 -0.05724914 -0.0527398139 0.020610936 -0.0828434825 -0.0379499123 0.0292512905 -0.0830254927 -0.0292894058 0.0331367888 -0.0775462389 -0.0211178176 0.0314851217 -0.0829866678 -0.0379499123 0.0292512905 -0.0830254927 -0.0441766791 0.0306810942 -0.0821680501 -0.0292894058 0.0331367888 -0.0775462389 -0.0376466736 -0.0323235355 -0.0830074474 -0.0473122597 -0.0292442385 -0.0779082403 -0.0549152419 -0.0227386151 -0.0829967931 -0.0305474587 -0.0329504088 -0.0774753019 -0.0376466736 -0.0323235355 -0.0830074474 -0.0236044209 -0.0321537815 -0.083024323 -0.00707972609 -0.0227331016 -0.0829879865 -0.0139688738 -0.0283340942 -0.0778743923 -0.0236044209 -0.0321537815 -0.083024323 0.000947144348 0.00826746318 -0.0829884931 0.00215832493 0.000875635596 -0.0778020546 0.00161994819 -0.00499125384 -0.0829962268 -0.0187853798 0.0280186292 -0.0830035582 -0.0211178176 0.0314851217 -0.0829866678 -0.00994351879 0.0254777465 -0.0830282867 -0.0124098491 0.0236303341 -0.0426724702 -0.00762377959 0.0235994328 -0.0390337333 -0.0177759454 0.0302709695 -0.0516862497 -0.0296859816 0.0301099457 -0.0595152564 -0.0177759454 0.0302709695 -0.0516862497 -0.0308990907 0.0334954746 -0.0563924015 -0.0525065884 0.0250271 -0.0563257076 -0.040883664 0.0314848945 -0.0565126091 -0.0441766791 0.0306810942 -0.0821680501 -0.0629459918 0.00827312656 -0.0565009341 -0.0570897311 0.0202058423 -0.0565030426 -0.0606275499 0.0145330066 -0.0566731356 -0.049858544 -0.0270783193 -0.0563120022 -0.0590005368 -0.0174616165 -0.0565029569 -0.0549181625 -0.0227359086 -0.0566731356 -0.0461845547 -0.0260346401 -0.0579139739 -0.049858544 -0.0270783193 -0.0563120022 -0.0440142006 -0.0303254873 -0.0567581952 -0.0461845547 -0.0260346401 -0.0579139739 -0.0440142006 -0.0303254873 -0.0567581952 -0.0369083993 -0.0324956775 -0.056375768 -0.0233332701 -0.0291500445 -0.0560430996 -0.0369083993 -0.0324956775 -0.056375768 -0.0234425887 -0.0322094634 -0.0551997684 -0.0153929964 -0.025798196 -0.0515888371 -0.0233332701 -0.0291500445 -0.0560430996 -0.0234425887 -0.0322094634 -0.0551997684 -0.0110024083 -0.0287623424 -0.0016128195 -0.0109831449 -0.026645869 -0.0329420455 -0.00397298904 -0.0308556724 -0.00127010536 -0.0110024083 -0.0287623424 -0.0016128195 -0.00397298904 -0.0308556724 -0.00127010536 -0.0109532205 -0.0283908583 0.0116157494 -0.0365038142 0.0294960123 -0.0571160987 -0.0296859816 0.0301099457 -0.0595152564 -0.0308990907 0.0334954746 -0.0563924015 -0.0296859816 0.0301099457 -0.0595152564 -0.0206487216 0.02808832 -0.0541837141 -0.0177759454 0.0302709695 -0.0516862497 -0.0124098491 0.0236303341 -0.0426724702 -0.0177759454 0.0302709695 -0.0516862497 -0.0206487216 0.02808832 -0.0541837141 -0.0110735837 0.0252065305 -0.0425202549 -0.00762377959 0.0235994328 -0.0390337333 -0.0124098491 0.0236303341 -0.0426724702 -0.0527783185 0.0205657929 -0.0568808764 -0.0458363667 0.0263781715 -0.05724914 -0.0525065884 0.0250271 -0.0563257076 -0.0527783185 0.0205657929 -0.0568808764 -0.0599210672 0.00799052231 -0.0568252876 -0.0576166026 0.0141641209 -0.058848802 -0.0599210672 0.00799052231 -0.0568252876 -0.0609560013 0.00162416731 -0.0573100336 -0.0606047958 0.00485346001 -0.0573100336 -0.0599210672 0.00799052231 -0.0568252876 -0.0619465671 -0.011456335 -0.0564479195 -0.0609560013 0.00162416731 -0.0573100336 -0.0609560013 0.00162416731 -0.0573100336 -0.0619465671 -0.011456335 -0.0564479195 -0.0605766997 -0.00557825342 -0.0573002733 -0.0605766997 -0.00557825342 -0.0573002733 -0.0619465671 -0.011456335 -0.0564479195 -0.0578691103 -0.0134173511 -0.0575566329 -0.0526028648 -0.0209701676 -0.0573409721 -0.049858544 -0.0270783193 -0.0563120022 -0.0461845547 -0.0260346401 -0.0579139739 -0.0461845547 -0.0260346401 -0.0579139739 -0.0369083993 -0.0324956775 -0.056375768 -0.0381059647 -0.0292649996 -0.0574603975 -0.0381059647 -0.0292649996 -0.0574603975 -0.0369083993 -0.0324956775 -0.056375768 -0.0233332701 -0.0291500445 -0.0560430996 -0.0153929964 -0.025798196 -0.0515888371 -0.0168346185 -0.029815089 -0.0506159216 -0.0124583086 -0.0274067968 -0.0455890968 -0.0153929964 -0.025798196 -0.0515888371 -0.0234425887 -0.0322094634 -0.0551997684 -0.0168346185 -0.029815089 -0.0506159216 -0.0594062991 0.0169260576 -0.0749976858 -0.0571017563 0.020192584 -0.0829913393 -0.0603478067 0.0153739899 -0.0780221522 0.00348060741 -0.0149873411 0.00656754849 0.00349898566 0.0161746014 0.000171102904 0.00349541032 -0.0162885711 -0.00238808175 0.00164070504 0.0307279155 0.000710888067 0.00351224164 0.024015151 0.00758890668 0.00349898566 0.0161746014 0.000171102904 -0.0322065987 -0.0301059801 -0.0730018616 -0.0369083993 -0.0324956775 -0.056375768 -0.0376466736 -0.0323235355 -0.0830074474 -0.0322065987 -0.0301059801 -0.0730018616 -0.0376466736 -0.0323235355 -0.0830074474 -0.0305474587 -0.0329504088 -0.0774753019 -0.0322065987 -0.0301059801 -0.0730018616 -0.0305474587 -0.0329504088 -0.0774753019 -0.0369083993 -0.0324956775 -0.056375768 -0.00751682697 0.0290538631 -0.00149375258 -1.09906728e-06 0.0287304297 -0.0017523166 -0.000124991682 0.0265931133 0.0118219722 -4.07771986e-05 0.0145507455 -0.0250146296 -0.0109830089 0.0234292634 -0.0169334225 -0.0109964283 0.0145131107 -0.0250562895 -4.07771986e-05 0.0145507455 -0.0250146296 -0.0109964283 0.0145131107 -0.0250562895 0.000409347907 0.000918904494 -0.029138511 -5.46144156e-06 -0.0119696734 -0.0261759032 0.000409347907 0.000918904494 -0.029138511 -0.0109975711 -0.00360960374 -0.0287301056 -5.42065718e-05 -0.0195984524 -0.0212924443 -5.46144156e-06 -0.0119696734 -0.0261759032 -0.010997056 -0.0173087995 -0.0230308902 -5.42065718e-05 -0.0195984524 -0.0212924443 -0.010997056 -0.0173087995 -0.0230308902 -0.0109958528 -0.024471892 -0.015378614 -0.000319190614 -0.027821105 -0.00734924618 -0.0110024083 -0.0287623424 -0.0016128195 -2.61247214e-06 -0.0286739878 -0.00175780861 -2.61247214e-06 -0.0286739878 -0.00175780861 -0.0110024083 -0.0287623424 -0.0016128195 -0.000753430533 -0.0277829301 0.0080910055 -5.46144156e-06 -0.0119696734 -0.0261759032 -0.0109975711 -0.00360960374 -0.0287301056 -0.010997056 -0.0173087995 -0.0230308902 -0.000319190614 -0.027821105 -0.00734924618 -0.0109958528 -0.024471892 -0.015378614 -0.0110024083 -0.0287623424 -0.0016128195 -0.0110024083 -0.0287623424 -0.0016128195 -0.0109532205 -0.0283908583 0.0116157494 -0.000753430533 -0.0277829301 0.0080910055 -0.0109532205 -0.0283908583 0.0116157494 -0.0109883621 -0.0209534261 0.0224028807 -0.000753430533 -0.0277829301 0.0080910055 -0.00637616357 -0.0220714603 0.0187581014 -0.000753430533 -0.0277829301 0.0080910055 -0.0109883621 -0.0209534261 0.0224028807 -0.00637616357 -0.0220714603 0.0187581014 -0.0109883621 -0.0209534261 0.0224028807 -9.96431572e-06 -0.0151214181 0.0245030317 -0.0109883621 -0.0209534261 0.0224028807 -0.0108882785 -0.00973751675 0.0290858913 -9.96431572e-06 -0.0151214181 0.0245030317 -0.000199634786 -0.00301813707 0.0291121677 -9.96431572e-06 -0.0151214181 0.0245030317 -0.0108882785 -0.00973751675 0.0290858913 -0.000199634786 -0.00301813707 0.0291121677 -0.0108882785 -0.00973751675 0.0290858913 -0.01084207 0.00754343625 0.0300785936 -0.000199634786 -0.00301813707 0.0291121677 -0.01084207 0.00754343625 0.0300785936 -7.34909408e-05 0.0113952234 0.0265145209 -7.34909408e-05 0.0113952234 0.0265145209 -0.01084207 0.00754343625 0.0300785936 -0.0111742793 0.0182258114 0.023530988 -0.000124991682 0.0265931133 0.0118219722 -0.0111742793 0.0182258114 0.023530988 -0.010982763 0.0273522288 0.0144093838 -0.00751682697 0.0290538631 -0.00149375258 -0.000124991682 0.0265931133 0.0118219722 -0.010982763 0.0273522288 0.0144093838 -0.00751682697 0.0290538631 -0.00149375258 -0.010982763 0.0273522288 0.0144093838 -0.0109938532 0.0308267716 -0.0016503972 -0.00751682697 0.0290538631 -0.00149375258 -0.0109938532 0.0308267716 -0.0016503972 -0.0109830089 0.0234292634 -0.0169334225 -0.00751682697 0.0290538631 -0.00149375258 -0.0109830089 0.0234292634 -0.0169334225 -1.17240452e-05 0.0264626276 -0.0115552805 -0.0109975711 -0.00360960374 -0.0287301056 0.000409347907 0.000918904494 -0.029138511 -0.0109964283 0.0145131107 -0.0250562895 -5.42065718e-05 -0.0195984524 -0.0212924443 -0.0109958528 -0.024471892 -0.015378614 -0.000319190614 -0.027821105 -0.00734924618 -0.00637616357 -0.0220714603 0.0187581014 -9.96431572e-06 -0.0151214181 0.0245030317 -0.000753430533 -0.0277829301 0.0080910055 -0.000124991682 0.0265931133 0.0118219722 -7.34909408e-05 0.0113952234 0.0265145209 -0.0111742793 0.0182258114 0.023530988 -0.00751682697 0.0290538631 -0.00149375258 -1.17240452e-05 0.0264626276 -0.0115552805 -1.09906728e-06 0.0287304297 -0.0017523166 -1.17240452e-05 0.0264626276 -0.0115552805 -0.0109830089 0.0234292634 -0.0169334225 -4.07771986e-05 0.0145507455 -0.0250146296 -0.0242933258 0.00385780446 -0.0538999997 -0.0324123725 0.00825217366 -0.0808999985 -0.0330170766 0.00811185967 -0.0538999997 -0.024079591 0.00345977931 -0.0808999985 -0.0324123725 0.00825217366 -0.0808999985 -0.0242933258 0.00385780446 -0.0538999997 -0.0234508943 -0.000116265175 -0.0538999997 -0.024079591 0.00345977931 -0.0808999985 -0.0242933258 0.00385780446 -0.0538999997 -0.0235403497 -0.000877083978 -0.0808999985 -0.024079591 0.00345977931 -0.0808999985 -0.0234508943 -0.000116265175 -0.0538999997 -0.0238710139 -0.00236499659 -0.0538999997 -0.0235403497 -0.000877083978 -0.0808999985 -0.0234508943 -0.000116265175 -0.0538999997 -0.0277236495 -0.00765622035 -0.0808999985 -0.0235403497 -0.000877083978 -0.0808999985 -0.0238710139 -0.00236499659 -0.0538999997 -0.0289829224 -0.00811185967 -0.0538999997 -0.0277236495 -0.00765622035 -0.0808999985 -0.0238710139 -0.00236499659 -0.0538999997 -0.0375226997 -0.00443065772 -0.0808999985 -0.0277236495 -0.00765622035 -0.0808999985 -0.0289829224 -0.00811185967 -0.0538999997 -0.0381616727 -0.00321642752 -0.0538999997 -0.0375226997 -0.00443065772 -0.0808999985 -0.0289829224 -0.00811185967 -0.0538999997 -0.0384596512 0.000877083919 -0.0808999985 -0.0375226997 -0.00443065772 -0.0808999985 -0.0381616727 -0.00321642752 -0.0538999997 -0.038128987 0.00236499659 -0.0538999997 -0.0384596512 0.000877083919 -0.0808999985 -0.0381616727 -0.00321642752 -0.0538999997 -0.0378877781 0.00309209037 -0.0808999985 -0.0384596512 0.000877083919 -0.0808999985 -0.038128987 0.00236499659 -0.0538999997 -0.0378877781 0.00309209037 -0.0808999985 -0.038128987 0.00236499659 -0.0538999997 -0.0330170766 0.00811185967 -0.0538999997 -0.0378877781 0.00309209037 -0.0808999985 -0.0330170766 0.00811185967 -0.0538999997 -0.0324123725 0.00825217366 -0.0808999985 -0.043428544 -0.0276431926 -0.0838631615 -0.0588400029 -0.0152477464 -0.0819022432 -0.0588526987 -0.012312769 -0.0842928216 -0.0215548687 -0.0291660018 -0.083001852 -0.043428544 -0.0276431926 -0.0838631615 -0.00129658077 -0.00532870833 -0.084287405 -0.00129658077 -0.00532870833 -0.084287405 -0.043428544 -0.0276431926 -0.0838631615 -0.0588526987 -0.012312769 -0.0842928216 -0.0293336269 0.0304037873 -0.0842923298 -0.0024058281 0.010465635 -0.0830413699 -0.00129658077 -0.00532870833 -0.084287405 -0.041600246 0.0280311145 -0.0827931464 -0.0293336269 0.0304037873 -0.0842923298 -0.00129658077 -0.00532870833 -0.084287405 -0.0594669804 0.0144927409 -0.0823367909 -0.041600246 0.0280311145 -0.0827931464 -0.00129658077 -0.00532870833 -0.084287405 -0.0613993071 0.00544339232 -0.0842962489 -0.0594669804 0.0144927409 -0.0823367909 -0.00129658077 -0.00532870833 -0.084287405 -0.0613993071 0.00544339232 -0.0842962489 -0.00129658077 -0.00532870833 -0.084287405 -0.0588526987 -0.012312769 -0.0842928216 -0.0215548687 -0.0291660018 -0.083001852 -0.00129658077 -0.00532870833 -0.084287405 -0.00499993982 -0.0158615615 -0.0821142793 -0.00129658077 -0.00532870833 -0.084287405 -0.052795507 -0.00166347751 -0.0843000039 -0.0198501181 -0.0207668934 -0.0843000039 -0.00129658077 -0.00532870833 -0.084287405 -0.0288563799 0.0202801544 -0.0843000039 -0.052795507 -0.00166347751 -0.0843000039 -0.0293336269 0.0304037873 -0.0842923298 -0.0144795887 0.0253186505 -0.0818916857 -0.0024058281 0.010465635 -0.0830413699 -0.0613993071 0.00544339232 -0.0842962489 -0.0588400029 -0.0152477464 -0.0819022432 -0.0594669804 0.0144927409 -0.0823367909 -0.0613993071 0.00544339232 -0.0842962489 -0.0588526987 -0.012312769 -0.0842928216 -0.0588400029 -0.0152477464 -0.0819022432 -0.041600246 0.0280311145 -0.0827931464 -0.0144795887 0.0253186505 -0.0818916857 -0.0293336269 0.0304037873 -0.0842923298 -0.0578691103 -0.0134173511 -0.0575566329 -0.05941559 -0.0103595164 -0.0679688603 -0.0545174144 -0.0186983123 -0.0713526979 -0.0579344146 0.0140451714 -0.0682488009 -0.0610716604 0.00390825048 -0.07700409 -0.05941559 -0.0103595164 -0.0679688603 -0.0610716604 0.00390825048 -0.07700409 -0.0545174144 -0.0186983123 -0.0713526979 -0.05941559 -0.0103595164 -0.0679688603 -0.0466921702 -0.026070198 -0.0679250807 -0.0545174144 -0.0186983123 -0.0713526979 -0.0377429351 -0.029246483 -0.0717796087 -0.0341916047 0.00812639482 -0.0602499992 -0.0239464305 0.00468069036 -0.0794999972 -0.0239174627 0.00437000999 -0.0602499992 -0.0367149264 0.00709201442 -0.0794999972 -0.0239464305 0.00468069036 -0.0794999972 -0.0341916047 0.00812639482 -0.0602499992 -0.0387793779 0.000695876195 -0.0602499992 -0.0367149264 0.00709201442 -0.0794999972 -0.0341916047 0.00812639482 -0.0602499992 -0.0374799222 -0.00520872511 -0.0794999972 -0.0367149264 0.00709201442 -0.0794999972 -0.0387793779 0.000695876195 -0.0602499992 -0.0367066376 -0.00622395007 -0.0602499992 -0.0374799222 -0.00520872511 -0.0794999972 -0.0387793779 0.000695876195 -0.0602499992 -0.0318649672 -0.00781966187 -0.0794999972 -0.0374799222 -0.00520872511 -0.0794999972 -0.0367066376 -0.00622395007 -0.0602499992 -0.0272991247 -0.00739533175 -0.0602499992 -0.0318649672 -0.00781966187 -0.0794999972 -0.0367066376 -0.00622395007 -0.0602499992 -0.0270996913 -0.00715984544 -0.0794999972 -0.0318649672 -0.00781966187 -0.0794999972 -0.0272991247 -0.00739533175 -0.0602499992 -0.0236974247 -0.00277044857 -0.0794999972 -0.0270996913 -0.00715984544 -0.0794999972 -0.0272991247 -0.00739533175 -0.0602499992 -0.0234748106 -0.0020915363 -0.0602499992 -0.0236974247 -0.00277044857 -0.0794999972 -0.0272991247 -0.00739533175 -0.0602499992 -0.0234748106 -0.0020915363 -0.0602499992 -0.0239464305 0.00468069036 -0.0794999972 -0.0236974247 -0.00277044857 -0.0794999972 -0.0234748106 -0.0020915363 -0.0602499992 -0.0239174627 0.00437000999 -0.0602499992 -0.0239464305 0.00468069036 -0.0794999972 -0.0377727523 0.0236375947 -0.108162694 -0.0130292708 0.0153739825 -0.108194724 -0.0513429977 0.00887783617 -0.108199552 -0.00740297139 0.00306413718 -0.10820277 -0.0513429977 0.00887783617 -0.108199552 -0.0130292708 0.0153739825 -0.108194724 -0.0390136316 -0.0227835793 -0.108197846 -0.00740297139 0.00306413718 -0.10820277 -0.0181612857 -0.0198274776 -0.108215131 -0.0340913571 -0.00519986032 -0.108199239 -0.0513429977 0.00887783617 -0.108199552 -0.00740297139 0.00306413718 -0.10820277 -0.0340913571 -0.00519986032 -0.108199239 -0.00740297139 0.00306413718 -0.10820277 -0.0390136316 -0.0227835793 -0.108197846 -0.0541794039 -0.00755219022 -0.108191162 -0.0340913571 -0.00519986032 -0.108199239 -0.0390136316 -0.0227835793 -0.108197846 -0.0541794039 -0.00755219022 -0.108191162 -0.0513429977 0.00887783617 -0.108199552 -0.0340913571 -0.00519986032 -0.108199239 -0.0279604252 0.0052500735 -0.107603319 -0.0340913571 -0.00519986032 -0.108199239 -0.0251642577 -0.00196773489 -0.106994599 -0.0256071258 0.00284072733 -0.0480015799 -0.0279604252 0.0052500735 -0.107603319 -0.0251642577 -0.00196773489 -0.106994599 -0.028284559 -0.00557895424 -0.0507396683 -0.0251642577 -0.00196773489 -0.106994599 -0.0340913571 -0.00519986032 -0.108199239 -0.0319119357 -0.005978534 -0.0482682288 -0.028284559 -0.00557895424 -0.0507396683 -0.0340913571 -0.00519986032 -0.108199239 -0.0303801969 0.00592833199 -0.107179806 -0.0340913571 -0.00519986032 -0.108199239 -0.0279604252 0.0052500735 -0.107603319 -0.0363836326 -0.00268667657 -0.10651698 -0.0340913571 -0.00519986032 -0.108199239 -0.0303801969 0.00592833199 -0.107179806 -0.0355487205 -0.00391255412 -0.0483373329 -0.0340913571 -0.00519986032 -0.108199239 -0.0363836326 -0.00268667657 -0.10651698 -0.0348083973 0.00471087219 -0.0481928624 -0.0363836326 -0.00268667657 -0.10651698 -0.0303801969 0.00592833199 -0.107179806 -0.0370659754 0.00139936816 -0.0481754281 -0.0363836326 -0.00268667657 -0.10651698 -0.0348083973 0.00471087219 -0.0481928624 -0.0319683701 0.00596681004 -0.0482011288 -0.0348083973 0.00471087219 -0.0481928624 -0.0303801969 0.00592833199 -0.107179806 -0.028284559 -0.00557895424 -0.0507396683 -0.0256071258 0.00284072733 -0.0480015799 -0.0251642577 -0.00196773489 -0.106994599 -0.0319119357 -0.005978534 -0.0482682288 -0.0256071258 0.00284072733 -0.0480015799 -0.028284559 -0.00557895424 -0.0507396683 -0.0319683701 0.00596681004 -0.0482011288 -0.0279604252 0.0052500735 -0.107603319 -0.0256071258 0.00284072733 -0.0480015799 -0.0319683701 0.00596681004 -0.0482011288 -0.0303801969 0.00592833199 -0.107179806 -0.0279604252 0.0052500735 -0.107603319 -0.0370659754 0.00139936816 -0.0481754281 -0.0355487205 -0.00391255412 -0.0483373329 -0.0363836326 -0.00268667657 -0.10651698 -0.0355487205 -0.00391255412 -0.0483373329 -0.0319119357 -0.005978534 -0.0482682288 -0.0340913571 -0.00519986032 -0.108199239 -0.0353128463 0.02675776 -0.0475000031 -0.0301916692 0.027660666 -0.0475000031 -0.0301916692 0.027660666 -0.0569000021 -0.0353128463 0.02675776 -0.0569000021 -0.0353128463 0.02675776 -0.0475000031 -0.0301916692 0.027660666 -0.0569000021 -0.0337006152 0.0177775901 -0.0475000031 -0.0353128463 0.02675776 -0.0475000031 -0.0353128463 0.02675776 -0.0569000021 -0.0338233151 0.0183125008 -0.0569000021 -0.0337006152 0.0177775901 -0.0475000031 -0.0353128463 0.02675776 -0.0569000021 -0.0286366455 0.018374674 -0.0475000031 -0.0353128463 0.02675776 -0.0475000031 -0.0337006152 0.0177775901 -0.0475000031 -0.0286366455 0.018374674 -0.0475000031 -0.0301916692 0.027660666 -0.0475000031 -0.0353128463 0.02675776 -0.0475000031 -0.02857651 0.0177136995 -0.0569000021 -0.0301916692 0.027660666 -0.0475000031 -0.0286366455 0.018374674 -0.0475000031 -0.02857651 0.0177136995 -0.0569000021 -0.0301916692 0.027660666 -0.0569000021 -0.0301916692 0.027660666 -0.0475000031 -0.02857651 0.0177136995 -0.0569000021 -0.0337006152 0.0177775901 -0.0475000031 -0.0338233151 0.0183125008 -0.0569000021 -0.02857651 0.0177136995 -0.0569000021 -0.0286366455 0.018374674 -0.0475000031 -0.0337006152 0.0177775901 -0.0475000031 -0.01010234 0.011634049 -0.0979635715 -0.00769191794 -0.00681641093 -0.0942660794 -0.0217906851 -0.022481015 -0.0983896926 -0.0546094999 0.00377883133 -0.0957964137 -0.0478839427 0.0167970266 -0.0945932567 -0.0344581082 0.0237756744 -0.0976153016 -0.041221682 0.0257157926 -0.0475000031 -0.0361005031 0.0266186986 -0.0475000031 -0.0361005031 0.0266186986 -0.0569000021 -0.041221682 0.0257157926 -0.0569000021 -0.041221682 0.0257157926 -0.0475000031 -0.0361005031 0.0266186986 -0.0569000021 -0.0396094508 0.0167356208 -0.0475000031 -0.041221682 0.0257157926 -0.0475000031 -0.041221682 0.0257157926 -0.0569000021 -0.0397321507 0.0172705334 -0.0569000021 -0.0396094508 0.0167356208 -0.0475000031 -0.041221682 0.0257157926 -0.0569000021 -0.0345454812 0.017332701 -0.0475000031 -0.041221682 0.0257157926 -0.0475000031 -0.0396094508 0.0167356208 -0.0475000031 -0.0345454812 0.017332701 -0.0475000031 -0.0361005031 0.0266186986 -0.0475000031 -0.041221682 0.0257157926 -0.0475000031 -0.0344853438 0.0166717302 -0.0569000021 -0.0361005031 0.0266186986 -0.0475000031 -0.0345454812 0.017332701 -0.0475000031 -0.0344853438 0.0166717302 -0.0569000021 -0.0361005031 0.0266186986 -0.0569000021 -0.0361005031 0.0266186986 -0.0475000031 -0.0344853438 0.0166717302 -0.0569000021 -0.0396094508 0.0167356208 -0.0475000031 -0.0397321507 0.0172705334 -0.0569000021 -0.0344853438 0.0166717302 -0.0569000021 -0.0345454812 0.017332701 -0.0475000031 -0.0396094508 0.0167356208 -0.0475000031 -0.00712320907 -0.00325056096 -0.104042925 -0.029567685 -0.0236874316 -0.102942809 -0.0165515635 -0.0192115661 -0.105358072 -0.0165470429 -0.0059525324 -0.0504011326 -0.0141897816 -0.0251568574 -0.0504007936 -0.00418785634 -0.0138931423 -0.0526184998 -0.0329884514 0.0301917717 -0.0510214381 -0.0516437478 0.0221180692 -0.0504170321 -0.0399240144 0.0126352785 -0.0503902696 -0.0330438167 -0.0301371366 -0.0508879311 -0.0165470429 -0.0059525324 -0.0504011326 -0.0495309643 -0.0241562407 -0.0504687279 -0.040723078 -0.0117034158 -0.0477048829 -0.0450232551 -0.00645228801 -0.050399553 -0.0165470429 -0.0059525324 -0.0504011326 -0.0215404108 -0.0118831098 -0.0484363772 -0.040723078 -0.0117034158 -0.0477048829 -0.0165470429 -0.0059525324 -0.0504011326 -0.0152005544 0.00134000101 -0.0503985099 -0.000750881736 -0.000778094574 -0.0505710766 -0.0059781461 0.0166603941 -0.0504158512 -0.0109653678 0.0224145986 -0.0505051576 -0.0152005544 0.00134000101 -0.0503985099 -0.0059781461 0.0166603941 -0.0504158512 -0.0450232551 -0.00645228801 -0.050399553 -0.0495309643 -0.0241562407 -0.0504687279 -0.0165470429 -0.0059525324 -0.0504011326 -0.0602288581 -0.00717527978 -0.0503926091 -0.0450232551 -0.00645228801 -0.050399553 -0.0399240144 0.0126352785 -0.0503902696 -0.0602288581 -0.00717527978 -0.0503926091 -0.0399240144 0.0126352785 -0.0503902696 -0.0516437478 0.0221180692 -0.0504170321 -0.0238197409 -0.0291344766 -0.050902199 -0.0165470429 -0.0059525324 -0.0504011326 -0.0330438167 -0.0301371366 -0.0508879311 -0.000750881736 -0.000778094574 -0.0505710766 -0.0165470429 -0.0059525324 -0.0504011326 -0.00418785634 -0.0138931423 -0.0526184998 -0.0602288581 -0.00717527978 -0.0503926091 -0.0495309643 -0.0241562407 -0.0504687279 -0.0450232551 -0.00645228801 -0.050399553 -0.0238197409 -0.0291344766 -0.050902199 -0.0141897816 -0.0251568574 -0.0504007936 -0.0165470429 -0.0059525324 -0.0504011326 -0.0407601297 0.0285012517 -0.063486509 -0.0516437478 0.0221180692 -0.0504170321 -0.0329884514 0.0301917717 -0.0510214381 -0.0584110804 0.0124539938 -0.0619997755 -0.0602288581 -0.00717527978 -0.0503926091 -0.0516437478 0.0221180692 -0.0504170321 -0.0608357973 0.00370853767 -0.0634518489 -0.0602288581 -0.00717527978 -0.0503926091 -0.0584110804 0.0124539938 -0.0619997755 -0.0605884828 -0.00700298836 -0.063911058 -0.0602288581 -0.00717527978 -0.0503926091 -0.0608357973 0.00370853767 -0.0634518489 -0.053730756 -0.0203973949 -0.0634912252 -0.0495309643 -0.0241562407 -0.0504687279 -0.0602288581 -0.00717527978 -0.0503926091 -0.00207124348 0.00868273247 -0.0646088347 -0.0059781461 0.0166603941 -0.0504158512 -0.000750881736 -0.000778094574 -0.0505710766 -0.0225909855 0.0123943621 -0.047526978 -0.0165470429 -0.0059525324 -0.0504011326 -0.0152005544 0.00134000101 -0.0503985099 -0.0507764816 0.0228994042 -0.0658686012 -0.0516437478 0.0221180692 -0.0504170321 -0.0407601297 0.0285012517 -0.063486509 -0.0507764816 0.0228994042 -0.0658686012 -0.0584110804 0.0124539938 -0.0619997755 -0.0516437478 0.0221180692 -0.0504170321 -0.053730756 -0.0203973949 -0.0634912252 -0.0602288581 -0.00717527978 -0.0503926091 -0.0605884828 -0.00700298836 -0.063911058 -0.0415233895 -0.028210884 -0.0659794956 -0.0495309643 -0.0241562407 -0.0504687279 -0.053730756 -0.0203973949 -0.0634912252 -0.0415233895 -0.028210884 -0.0659794956 -0.0330438167 -0.0301371366 -0.0508879311 -0.0495309643 -0.0241562407 -0.0504687279 -0.0131026367 -0.0246850848 -0.0658747256 -0.0141897816 -0.0251568574 -0.0504007936 -0.0238197409 -0.0291344766 -0.050902199 -0.0131026367 -0.0246850848 -0.0658747256 -0.00418785634 -0.0138931423 -0.0526184998 -0.0141897816 -0.0251568574 -0.0504007936 -0.040723078 -0.0117034158 -0.0477048829 -0.0399240144 0.0126352785 -0.0503902696 -0.0450232551 -0.00645228801 -0.050399553 -0.0225909855 0.0123943621 -0.047526978 -0.0215404108 -0.0118831098 -0.0484363772 -0.0165470429 -0.0059525324 -0.0504011326 -0.00207124348 0.00868273247 -0.0646088347 -0.0109653678 0.0224145986 -0.0505051576 -0.0059781461 0.0166603941 -0.0504158512 -0.0225909855 0.0123943621 -0.047526978 -0.040723078 -0.0117034158 -0.0477048829 -0.0215404108 -0.0118831098 -0.0484363772 -0.0225909855 0.0123943621 -0.047526978 -0.0399240144 0.0126352785 -0.0503902696 -0.040723078 -0.0117034158 -0.0477048829 -0.018735189 0.0221967772 -0.0544449054 -0.0249090437 0.0256377477 -0.0529290512 -0.0247094166 0.0212765653 -0.0526365675 -0.0461258031 0.0247978605 -0.0656000003 -0.0298718177 0.0292705912 -0.0656000003 -0.0288389586 0.0295160059 -0.0549000017 -0.0471423268 0.024148481 -0.0549000017 -0.0461258031 0.0247978605 -0.0656000003 -0.0288389586 0.0295160059 -0.0549000017 -0.0535167456 0.0179565065 -0.0656000003 -0.0461258031 0.0247978605 -0.0656000003 -0.0471423268 0.024148481 -0.0549000017 -0.0535167456 0.0179565065 -0.0549000017 -0.0535167456 0.0179565065 -0.0656000003 -0.0471423268 0.024148481 -0.0549000017 -0.056154158 0.0140252775 -0.0656000003 -0.0535167456 0.0179565065 -0.0656000003 -0.0535167456 0.0179565065 -0.0549000017 -0.056154158 0.0140252775 -0.0549000017 -0.056154158 0.0140252775 -0.0656000003 -0.0535167456 0.0179565065 -0.0549000017 -0.0594662763 0.00577882957 -0.0656000003 -0.056154158 0.0140252775 -0.0656000003 -0.056154158 0.0140252775 -0.0549000017 -0.0596816614 0.00459197024 -0.0549000017 -0.0594662763 0.00577882957 -0.0656000003 -0.056154158 0.0140252775 -0.0549000017 -0.0582590997 -0.0106645413 -0.0656000003 -0.0594662763 0.00577882957 -0.0656000003 -0.0596816614 0.00459197024 -0.0549000017 -0.0577275492 -0.0119343651 -0.0549000017 -0.0582590997 -0.0106645413 -0.0656000003 -0.0596816614 0.00459197024 -0.0549000017 -0.0490631126 -0.0223060846 -0.0656000003 -0.0582590997 -0.0106645413 -0.0656000003 -0.0577275492 -0.0119343651 -0.0549000017 -0.0490631126 -0.0223060846 -0.0549000017 -0.0490631126 -0.0223060846 -0.0656000003 -0.0577275492 -0.0119343651 -0.0549000017 -0.0431062877 -0.0261319317 -0.0656000003 -0.0490631126 -0.0223060846 -0.0656000003 -0.0490631126 -0.0223060846 -0.0549000017 -0.0431062877 -0.0261319317 -0.0549000017 -0.0431062877 -0.0261319317 -0.0656000003 -0.0490631126 -0.0223060846 -0.0549000017 -0.0360437334 -0.0282441005 -0.0656000003 -0.0431062877 -0.0261319317 -0.0656000003 -0.0431062877 -0.0261319317 -0.0549000017 -0.0359917134 -0.0282580405 -0.0549000017 -0.0360437334 -0.0282441005 -0.0656000003 -0.0431062877 -0.0261319317 -0.0549000017 -0.0288477745 -0.0287194699 -0.0656000003 -0.0360437334 -0.0282441005 -0.0656000003 -0.0359917134 -0.0282580405 -0.0549000017 -0.0235291049 -0.0280697271 -0.0549000017 -0.0288477745 -0.0287194699 -0.0656000003 -0.0359917134 -0.0282580405 -0.0549000017 -0.0201408863 -0.0269407406 -0.0656000003 -0.0288477745 -0.0287194699 -0.0656000003 -0.0235291049 -0.0280697271 -0.0549000017 -0.00743797468 -0.0178475864 -0.0549000017 -0.0201408863 -0.0269407406 -0.0656000003 -0.0235291049 -0.0280697271 -0.0549000017 -0.00555023318 -0.0150337862 -0.0656000003 -0.0201408863 -0.0269407406 -0.0656000003 -0.00743797468 -0.0178475864 -0.0549000017 -0.00243302505 -0.00278663496 -0.0549000017 -0.00555023318 -0.0150337862 -0.0656000003 -0.00743797468 -0.0178475864 -0.0549000017 -0.00236211321 0.00605494948 -0.0656000003 -0.00555023318 -0.0150337862 -0.0656000003 -0.00243302505 -0.00278663496 -0.0549000017 -0.00356706395 0.00954766106 -0.0549000017 -0.00236211321 0.00605494948 -0.0656000003 -0.00243302505 -0.00278663496 -0.0549000017 -0.00795615278 0.0172748696 -0.0656000003 -0.00236211321 0.00605494948 -0.0656000003 -0.00356706395 0.00954766106 -0.0549000017 -0.0113670202 0.021407241 -0.0549000017 -0.00795615278 0.0172748696 -0.0656000003 -0.00356706395 0.00954766106 -0.0549000017 -0.0141424909 0.0236547738 -0.0656000003 -0.00795615278 0.0172748696 -0.0656000003 -0.0113670202 0.021407241 -0.0549000017 -0.0141424909 0.0236547738 -0.0656000003 -0.0113670202 0.021407241 -0.0549000017 -0.0288389586 0.0295160059 -0.0549000017 -0.0141424909 0.0236547738 -0.0656000003 -0.0288389586 0.0295160059 -0.0549000017 -0.0298718177 0.0292705912 -0.0656000003 -0.0206960533 0.0168385524 -0.0544449016 -0.0268539228 0.0203080401 -0.0527169965 -0.0261451062 0.0157399699 -0.052476041 -0.0406500064 -0.00805598591 -0.0569000021 -0.0166016873 -0.0264422689 -0.0569000021 -0.00907485187 0.00236868137 -0.0569000021 -0.0352360867 0.0291854907 -0.0569000021 -0.0166016873 -0.0264422689 -0.0569000021 -0.00907485187 0.00236868137 -0.0569000021 -0.0577600487 -0.016025342 -0.0569000021 -0.0166016873 -0.0264422689 -0.0569000021 -0.0352360867 0.0291854907 -0.0569000021 -0.0136591755 -0.0188416913 -0.0919880942 -0.00488265743 -0.00260359072 -0.0902257189 -0.000736760499 -0.00212533353 -0.0940790996 -0.015109566 0.021036312 -0.0890098661 -0.0237156134 0.0247588046 -0.0926276445 -0.00611365493 0.0170776788 -0.0950229913 -0.0121218823 0.0175137911 -0.09514606 -0.015109566 0.021036312 -0.0890098661 -0.00611365493 0.0170776788 -0.0950229913 -0.0171304662 -0.0268259123 -0.0938351527 -0.0239099637 -0.024865685 -0.0925492048 -0.0136591755 -0.0188416913 -0.0919880942 -0.0496942177 -0.0242017023 -0.0949339941 -0.0353474393 -0.0253759921 -0.0887115523 -0.0318612643 -0.0303847361 -0.0943852514 -0.0562571473 0.0161646679 -0.0950416103 -0.0562445484 0.00649145152 -0.0891367421 -0.0605082512 0.00659572985 -0.0949660614 -0.0492035747 0.0181411877 -0.0909988582 -0.0562571473 0.0161646679 -0.0950416103 -0.0451182388 0.0264483262 -0.0951936841 -0.0361105055 0.0250756312 -0.094692409 -0.0451182388 0.0264483262 -0.0951936841 -0.0292686932 0.0300746914 -0.0935274884 -0.021766305 0.0287372544 -0.0883371159 -0.0237156134 0.0247588046 -0.0926276445 -0.0292686932 0.0300746914 -0.0935274884 -0.0318612643 -0.0303847361 -0.0943852514 -0.0239099637 -0.024865685 -0.0925492048 -0.0171304662 -0.0268259123 -0.0938351527 -0.00602863217 -0.0173329543 -0.0935264304 -0.0171304662 -0.0268259123 -0.0938351527 -0.0136591755 -0.0188416913 -0.0919880942 -0.021766305 0.0287372544 -0.0883371159 -0.00611365493 0.0170776788 -0.0950229913 -0.0237156134 0.0247588046 -0.0926276445 -0.00279502943 0.0104692476 -0.0948788151 -0.0121218823 0.0175137911 -0.09514606 -0.00611365493 0.0170776788 -0.0950229913 -0.00279502943 0.0104692476 -0.0948788151 -0.000736760499 -0.00212533353 -0.0940790996 -0.00488265743 -0.00260359072 -0.0902257189 -0.00970874541 0.0214728191 -0.0847403333 -0.00611365493 0.0170776788 -0.0950229913 -0.021766305 0.0287372544 -0.0883371159 -0.0388122238 0.029075006 -0.0872271284 -0.0292686932 0.0300746914 -0.0935274884 -0.0451182388 0.0264483262 -0.0951936841 -0.0532943457 0.0200739186 -0.0898000002 -0.0476571769 0.0248285942 -0.0898000002 -0.0451182388 0.0264483262 -0.0951936841 -0.0532943457 0.0200739186 -0.0898000002 -0.0451182388 0.0264483262 -0.0951936841 -0.0562571473 0.0161646679 -0.0950416103 -0.0498244576 -0.0176764745 -0.0891806781 -0.0496942177 -0.0242017023 -0.0949339941 -0.0584225841 -0.0129006365 -0.0941615924 -0.0380527712 -0.0263213329 -0.0845204145 -0.0318612643 -0.0303847361 -0.0943852514 -0.0496942177 -0.0242017023 -0.0949339941 -0.0540418327 0.0198214091 -0.0846231431 -0.0562571473 0.0161646679 -0.0950416103 -0.0605082512 0.00659572985 -0.0949660614 -0.0540418327 0.0198214091 -0.0846231431 -0.0532943457 0.0200739186 -0.0898000002 -0.0562571473 0.0161646679 -0.0950416103 -0.0540418327 0.0198214091 -0.0846231431 -0.0476571769 0.0248285942 -0.0898000002 -0.0532943457 0.0200739186 -0.0898000002 -0.0476571769 0.0248285942 -0.0898000002 -0.0388122238 0.029075006 -0.0872271284 -0.0451182388 0.0264483262 -0.0951936841 -0.00970874541 0.0214728191 -0.0847403333 -0.000736760499 -0.00212533353 -0.0940790996 -0.00279502943 0.0104692476 -0.0948788151 -0.060791906 -0.00117166853 -0.0917861834 -0.0540418327 0.0198214091 -0.0846231431 -0.0605082512 0.00659572985 -0.0949660614 -0.0540418327 0.0198214091 -0.0846231431 -0.0388122238 0.029075006 -0.0872271284 -0.0476571769 0.0248285942 -0.0898000002 -0.00970874541 0.0214728191 -0.0847403333 -0.00279502943 0.0104692476 -0.0948788151 -0.00611365493 0.0170776788 -0.0950229913 </float_array>
          <technique_common>
            <accessor count="1446" offset="0" source="#mesh_0-positions-array" stride="3">
              <param name="X" type="float" />
              <param name="Y" type="float" />
              <param name="Z" type="float" />
            </accessor>
          </technique_common>
        </source>
        <vertices id="mesh_0-vertices">
          <input semantic="POSITION" source="#mesh_0-positions" />
        </vertices>
        <polylist count="482" material="defaultMaterial">
          <input offset="0" semantic="VERTEX" source="#mesh_0-vertices" />
          <vcount>3 3 3 3 3 3 3 3 3 3 3 3 3 3 3 3 3 3 3 3 3 3 3 3 3 3 3 3 3 3 3 3 3 3 3 3 3 3 3 3 3 3 3 3 3 3 3 3 3 3 3 3 3 3 3 3 3 3 3 3 3 3 3 3 3 3 3 3 3 3 3 3 3 3 3 3 3 3 3 3 3 3 3 3 3 3 3 3 3 3 3 3 3 3 3 3 3 3 3 3 3 3 3 3 3 3 3 3 3 3 3 3 3 3 3 3 3 3 3 3 3 3 3 3 3 3 3 3 3 3 3 3 3 3 3 3 3 3 3 3 3 3 3 3 3 3 3 3 3 3 3 3 3 3 3 3 3 3 3 3 3 3 3 3 3 3 3 3 3 3 3 3 3 3 3 3 3 3 3 3 3 3 3 3 3 3 3 3 3 3 3 3 3 3 3 3 3 3 3 3 3 3 3 3 3 3 3 3 3 3 3 3 3 3 3 3 3 3 3 3 3 3 3 3 3 3 3 3 3 3 3 3 3 3 3 3 3 3 3 3 3 3 3 3 3 3 3 3 3 3 3 3 3 3 3 3 3 3 3 3 3 3 3 3 3 3 3 3 3 3 3 3 3 3 3 3 3 3 3 3 3 3 3 3 3 3 3 3 3 3 3 3 3 3 3 3 3 3 3 3 3 3 3 3 3 3 3 3 3 3 3 3 3 3 3 3 3 3 3 3 3 3 3 3 3 3 3 3 3 3 3 3 3 3 3 3 3 3 3 3 3 3 3 3 3 3 3 3 3 3 3 3 3 3 3 3 3 3 3 3 3 3 3 3 3 3 3 3 3 3 3 3 3 3 3 3 3 3 3 3 3 3 3 3 3 3 3 3 3 3 3 3 3 3 3 3 3 3 3 3 3 3 3 3 3 3 3 3 3 3 3 3 3 3 3 3 3 3 3 3 3 3 3 3 3 3 3 3 3 3 3 3 3 3 3 3 3 3 3 3 3 3 3 3 3 3 3 3 3 3 3 3 3 3 3 3 3 3 3 3 3 3 3 3 3 3 3 3 3 3 3 3 3 3 3 3 3 3 3 3 3 3 </vcount>
          <p>0 1 2 3 4 5 6 7 8 9 10 11 12 13 14 15 16 17 18 19 20 21 22 23 24 25 26 27 28 29 30 31 32 33 34 35 36 37 38 39 40 41 42 43 44 45 46 47 48 49 50 51 52 53 54 55 56 57 58 59 60 61 62 63 64 65 66 67 68 69 70 71 72 73 74 75 76 77 78 79 80 81 82 83 84 85 86 87 88 89 90 91 92 93 94 95 96 97 98 99 100 101 102 103 104 105 106 107 108 109 110 111 112 113 114 115 116 117 118 119 120 121 122 123 124 125 126 127 128 129 130 131 132 133 134 135 136 137 138 139 140 141 142 143 144 145 146 147 148 149 150 151 152 153 154 155 156 157 158 159 160 161 162 163 164 165 166 167 168 169 170 171 172 173 174 175 176 177 178 179 180 181 182 183 184 185 186 187 188 189 190 191 192 193 194 195 196 197 198 199 200 201 202 203 204 205 206 207 208 209 210 211 212 213 214 215 216 217 218 219 220 221 222 223 224 225 226 227 228 229 230 231 232 233 234 235 236 237 238 239 240 241 242 243 244 245 246 247 248 249 250 251 252 253 254 255 256 257 258 259 260 261 262 263 264 265 266 267 268 269 270 271 272 273 274 275 276 277 278 279 280 281 282 283 284 285 286 287 288 289 290 291 292 293 294 295 296 297 298 299 300 301 302 303 304 305 306 307 308 309 310 311 312 313 314 315 316 317 318 319 320 321 322 323 324 325 326 327 328 329 330 331 332 333 334 335 336 337 338 339 340 341 342 343 344 345 346 347 348 349 350 351 352 353 354 355 356 357 358 359 360 361 362 363 364 365 366 367 368 369 370 371 372 373 374 375 376 377 378 379 380 381 382 383 384 385 386 387 388 389 390 391 392 393 394 395 396 397 398 399 400 401 402 403 404 405 406 407 408 409 410 411 412 413 414 415 416 417 418 419 420 421 422 423 424 425 426 427 428 429 430 431 432 433 434 435 436 437 438 439 440 441 442 443 444 445 446 447 448 449 450 451 452 453 454 455 456 457 458 459 460 461 462 463 464 465 466 467 468 469 470 471 472 473 474 475 476 477 478 479 480 481 482 483 484 485 486 487 488 489 490 491 492 493 494 495 496 497 498 499 500 501 502 503 504 505 506 507 508 509 510 511 512 513 514 515 516 517 518 519 520 521 522 523 524 525 526 527 528 529 530 531 532 533 534 535 536 537 538 539 540 541 542 543 544 545 546 547 548 549 550 551 552 553 554 555 556 557 558 559 560 561 562 563 564 565 566 567 568 569 570 571 572 573 574 575 576 577 578 579 580 581 582 583 584 585 586 587 588 589 590 591 592 593 594 595 596 597 598 599 600 601 602 603 604 605 606 607 608 609 610 611 612 613 614 615 616 617 618 619 620 621 622 623 624 625 626 627 628 629 630 631 632 633 634 635 636 637 638 639 640 641 642 643 644 645 646 647 648 649 650 651 652 653 654 655 656 657 658 659 660 661 662 663 664 665 666 667 668 669 670 671 672 673 674 675 676 677 678 679 680 681 682 683 684 685 686 687 688 689 690 691 692 693 694 695 696 697 698 699 700 701 702 703 704 705 706 707 708 709 710 711 712 713 714 715 716 717 718 719 720 721 722 723 724 725 726 727 728 729 730 731 732 733 734 735 736 737 738 739 740 741 742 743 744 745 746 747 748 749 750 751 752 753 754 755 756 757 758 759 760 761 762 763 764 765 766 767 768 769 770 771 772 773 774 775 776 777 778 779 780 781 782 783 784 785 786 787 788 789 790 791 792 793 794 795 796 797 798 799 800 801 802 803 804 805 806 807 808 809 810 811 812 813 814 815 816 817 818 819 820 821 822 823 824 825 826 827 828 829 830 831 832 833 834 835 836 837 838 839 840 841 842 843 844 845 846 847 848 849 850 851 852 853 854 855 856 857 858 859 860 861 862 863 864 865 866 867 868 869 870 871 872 873 874 875 876 877 878 879 880 881 882 883 884 885 886 887 888 889 890 891 892 893 894 895 896 897 898 899 900 901 902 903 904 905 906 907 908 909 910 911 912 913 914 915 916 917 918 919 920 921 922 923 924 925 926 927 928 929 930 931 932 933 934 935 936 937 938 939 940 941 942 943 944 945 946 947 948 949 950 951 952 953 954 955 956 957 958 959 960 961 962 963 964 965 966 967 968 969 970 971 972 973 974 975 976 977 978 979 980 981 982 983 984 985 986 987 988 989 990 991 992 993 994 995 996 997 998 999 1000 1001 1002 1003 1004 1005 1006 1007 1008 1009 1010 1011 1012 1013 1014 1015 1016 1017 1018 1019 1020 1021 1022 1023 1024 1025 1026 1027 1028 1029 1030 1031 1032 1033 1034 1035 1036 1037 1038 1039 1040 1041 1042 1043 1044 1045 1046 1047 1048 1049 1050 1051 1052 1053 1054 1055 1056 1057 1058 1059 1060 1061 1062 1063 1064 1065 1066 1067 1068 1069 1070 1071 1072 1073 1074 1075 1076 1077 1078 1079 1080 1081 1082 1083 1084 1085 1086 1087 1088 1089 1090 1091 1092 1093 1094 1095 1096 1097 1098 1099 1100 1101 1102 1103 1104 1105 1106 1107 1108 1109 1110 1111 1112 1113 1114 1115 1116 1117 1118 1119 1120 1121 1122 1123 1124 1125 1126 1127 1128 1129 1130 1131 1132 1133 1134 1135 1136 1137 1138 1139 1140 1141 1142 1143 1144 1145 1146 1147 1148 1149 1150 1151 1152 1153 1154 1155 1156 1157 1158 1159 1160 1161 1162 1163 1164 1165 1166 1167 1168 1169 1170 1171 1172 1173 1174 1175 1176 1177 1178 1179 1180 1181 1182 1183 1184 1185 1186 1187 1188 1189 1190 1191 1192 1193 1194 1195 1196 1197 1198 1199 1200 1201 1202 1203 1204 1205 1206 1207 1208 1209 1210 1211 1212 1213 1214 1215 1216 1217 1218 1219 1220 1221 1222 1223 1224 1225 1226 1227 1228 1229 1230 1231 1232 1233 1234 1235 1236 1237 1238 1239 1240 1241 1242 1243 1244 1245 1246 1247 1248 1249 1250 1251 1252 1253 1254 1255 1256 1257 1258 1259 1260 1261 1262 1263 1264 1265 1266 1267 1268 1269 1270 1271 1272 1273 1274 1275 1276 1277 1278 1279 1280 1281 1282 1283 1284 1285 1286 1287 1288 1289 1290 1291 1292 1293 1294 1295 1296 1297 1298 1299 1300 1301 1302 1303 1304 1305 1306 1307 1308 1309 1310 1311 1312 1313 1314 1315 1316 1317 1318 1319 1320 1321 1322 1323 1324 1325 1326 1327 1328 1329 1330 1331 1332 1333 1334 1335 1336 1337 1338 1339 1340 1341 1342 1343 1344 1345 1346 1347 1348 1349 1350 1351 1352 1353 1354 1355 1356 1357 1358 1359 1360 1361 1362 1363 1364 1365 1366 1367 1368 1369 1370 1371 1372 1373 1374 1375 1376 1377 1378 1379 1380 1381 1382 1383 1384 1385 1386 1387 1388 1389 1390 1391 1392 1393 1394 1395 1396 1397 1398 1399 1400 1401 1402 1403 1404 1405 1406 1407 1408 1409 1410 1411 1412 1413 1414 1415 1416 1417 1418 1419 1420 1421 1422 1423 1424 1425 1426 1427 1428 1429 1430 1431 1432 1433 1434 1435 1436 1437 1438 1439 1440 1441 1442 1443 1444 1445 </p>
        </polylist>
      </mesh>
    </geometry>
  </library_geometries>
  <library_controllers>
  </library_controllers>
  <library_visual_scenes>
    <visual_scene id="Scene" name="Scene">
      <node id="node" name="" type="NODE">
        <matrix sid="matrix">1 0 0 0 0 1 0 0 0 0 1 0 0 0 0 1</matrix>
        <instance_geometry url="#mesh_0">
          <bind_material>
            <technique_common>
              <instance_material symbol="defaultMaterial" target="#material_0">
              </instance_material>
            </technique_common>
          </bind_material>
        </instance_geometry>
      </node>
    </visual_scene>
  </library_visual_scenes>
  <scene>
    <instance_visual_scene url="#Scene" />
  </scene>
</COLLADA>
