<?xml version="1.0" encoding="UTF-8" standalone="no" ?>
<COLLADA xmlns="http://www.collada.org/2005/11/COLLADASchema" version="1.4.1">
  <asset>
    <contributor>
      <author>Assimp</author>
      <authoring_tool>Assimp Exporter</authoring_tool>
    </contributor>
    <created>2025-12-08T10:04:59</created>
    <modified>2025-12-08T10:04:59</modified>
    <unit name="meter" meter="1" />
    <up_axis>Y_UP</up_axis>
  </asset>
  <library_images>
  </library_images>
  <library_effects>
    <effect id="material_0-fx" name="">
      <profile_COMMON>
        <technique sid="standard">
          <phong>
            <emission>
              <color sid="emission">0   0   0   0</color>
            </emission>
            <ambient>
              <color sid="ambient">1   1   1   0</color>
            </ambient>
            <diffuse>
              <color sid="diffuse">1   1   1   0</color>
            </diffuse>
            <specular>
              <color sid="specular">0.200000003   0.200000003   0.200000003   4.53488209e-41</color>
            </specular>
          </phong>
        </technique>
      </profile_COMMON>
    </effect>
  </library_effects>
  <library_materials>
    <material id="material_0" name="">
      <instance_effect url="#material_0-fx"/>
    </material>
  </library_materials>
  <library_geometries>
    <geometry id="mesh_0" name="" >
      <mesh>
        <source id="mesh_0-positions" name="mesh_0-positions">
          <float_array id="mesh_0-positions-array" count="1800"> -0.0104997419 -0.0191047918 0.00300758192 -0.0104991021 0.0166793484 -0.00992854312 -0.0104982406 -0.00627710717 -0.0190276559 -0.0104987696 0.0193400066 0.00344771193 -0.0104991021 0.0166793484 -0.00992854312 -0.0104997419 -0.0191047918 0.00300758192 -0.0104994299 0.00609944016 0.0181734785 -0.0104987696 0.0193400066 0.00344771193 -0.0104997419 -0.0191047918 0.00300758192 -0.0105000474 -0.0185295008 0.00760871684 -0.0104994299 0.00609944016 0.0181734785 -0.0104997419 -0.0191047918 0.00300758192 -3.55174876e-07 -0.0143539291 -0.0139432503 -0.0104624201 -0.0180677045 -0.00883132592 -0.00872420147 -0.010272786 -0.0170585886 -2.83361743e-07 -0.0167557299 -0.01095114 -0.0104624201 -0.0180677045 -0.00883132592 -3.55174876e-07 -0.0143539291 -0.0139432503 -3.63553568e-07 -0.0199350566 -0.00172473292 -0.0104997419 -0.0191047918 0.00300758192 -0.0104624201 -0.0180677045 -0.00883132592 -2.686713e-07 -0.0199252293 0.0018031362 -0.0104997419 -0.0191047918 0.00300758192 -3.63553568e-07 -0.0199350566 -0.00172473292 -2.686713e-07 -0.0199252293 0.0018031362 -0.0105000474 -0.0185295008 0.00760871684 -0.0104997419 -0.0191047918 0.00300758192 -0.00850000046 -0.0153367203 0.0127892019 -0.0105000474 -0.0185295008 0.00760871684 -1.97660412e-07 -0.0168283395 0.0108233271 -2.28808616e-07 -0.0122950459 0.0157791097 -0.0105000474 -0.0185295008 0.00760871684 -0.00850000046 -0.0153367203 0.0127892019 -0.00985721964 -0.00613585347 0.0198837426 -0.0105000474 -0.0185295008 0.00760871684 -2.28808616e-07 -0.0122950459 0.0157791097 -1.14019301e-07 -0.00949411187 0.0176066626 -0.00957711041 -0.00500515336 0.0186483916 -0.00985721964 -0.00613585347 0.0198837426 -3.71590971e-07 -0.00638705632 0.018961098 -0.00957711041 -0.00500515336 0.0186483916 -1.14019301e-07 -0.00949411187 0.0176066626 -1.3255351e-07 -0.00315460004 0.0197572056 -0.00957711041 -0.00500515336 0.0186483916 -3.71590971e-07 -0.00638705632 0.018961098 -2.73669855e-07 6.81369129e-05 0.0200047791 -0.00957711041 -0.00500515336 0.0186483916 -1.3255351e-07 -0.00315460004 0.0197572056 -2.73669855e-07 6.81369129e-05 0.0200047791 -0.00985721964 -0.00613585347 0.0198837426 -0.00957711041 -0.00500515336 0.0186483916 -1.94653126e-07 0.00344572496 0.019708693 -0.00985721964 -0.00613585347 0.0198837426 -2.73669855e-07 6.81369129e-05 0.0200047791 -1.94653126e-07 0.00344572496 0.019708693 -0.0104994299 0.00609944016 0.0181734785 -0.00985721964 -0.00613585347 0.0198837426 -0.00872420147 0.00779466983 0.0183102749 -0.0104994299 0.00609944016 0.0181734785 -1.94653126e-07 0.00344572496 0.019708693 -0.0096501736 0.0113877263 0.0157410167 -0.00872420147 0.00779466983 0.0183102749 -0.00850000046 0.0102545628 0.0171496142 -1.18535262e-07 0.0123370457 0.0157477707 -0.0096501736 0.0113877263 0.0157410167 -0.00850000046 0.0102545628 0.0171496142 -2.12096126e-07 0.0147149581 0.0135504929 -0.0096501736 0.0113877263 0.0157410167 -1.18535262e-07 0.0123370457 0.0157477707 -0.0099896118 0.0138421133 0.0129976459 -0.0096501736 0.0113877263 0.0157410167 -2.12096126e-07 0.0147149581 0.0135504929 -2.83341706e-07 0.0167557318 0.0109511409 -0.0099896118 0.0138421133 0.0129976459 -2.12096126e-07 0.0147149581 0.0135504929 -2.83341706e-07 0.0167557318 0.0109511409 -0.0104987696 0.0193400066 0.00344771193 -0.0099896118 0.0138421133 0.0129976459 -1.7299439e-07 0.0182828568 0.00809982419 -0.0104987696 0.0193400066 0.00344771193 -2.83341706e-07 0.0167557318 0.0109511409 -4.58751401e-07 0.0194610804 0.00468823407 -0.0104987696 0.0193400066 0.00344771193 -1.7299439e-07 0.0182828568 0.00809982419 -8.22648047e-08 0.0199347027 -2.43925097e-05 -0.0104987696 0.0193400066 0.00344771193 -4.58751401e-07 0.0194610804 0.00468823407 -4.13279594e-07 0.0194498841 -0.00475197146 -0.0104987696 0.0193400066 0.00344771193 -8.22648047e-08 0.0199347027 -2.43925097e-05 -4.13279594e-07 0.0194498841 -0.00475197146 -0.0104991021 0.0166793484 -0.00992854312 -0.0104987696 0.0193400066 0.00344771193 -2.76509155e-07 0.0182890166 -0.00810781587 -0.0104991021 0.0166793484 -0.00992854312 -4.13279594e-07 0.0194498841 -0.00475197146 -1.96518229e-07 0.0166674145 -0.0110689467 -0.0104991021 0.0166793484 -0.00992854312 -2.76509155e-07 0.0182890166 -0.00810781587 -1.67612484e-07 0.0147511372 -0.0135039492 -0.0104991021 0.0166793484 -0.00992854312 -1.96518229e-07 0.0166674145 -0.0110689467 -3.84119687e-07 0.012193759 -0.0158661697 -0.0104991021 0.0166793484 -0.00992854312 -1.67612484e-07 0.0147511372 -0.0135039492 -0.00948695652 0.00885045528 -0.0172793418 -0.0104991021 0.0166793484 -0.00992854312 -3.84119687e-07 0.012193759 -0.0158661697 -1.1414825e-07 0.00949410349 -0.0176066682 -0.00948695652 0.00885045528 -0.0172793418 -3.84119687e-07 0.012193759 -0.0158661697 -3.71598048e-07 0.00638705399 -0.0189610999 -0.00948695652 0.00885045528 -0.0172793418 -1.1414825e-07 0.00949410349 -0.0176066682 -0.0100512821 0.00434618816 -0.019678982 -0.00948695652 0.00885045528 -0.0172793418 -3.71598048e-07 0.00638705399 -0.0189610999 -2.7347582e-07 -6.81382735e-05 -0.0200047847 -0.0104982406 -0.00627710717 -0.0190276559 -0.0100512821 0.00434618816 -0.019678982 -0.0100512821 0.00434618816 -0.019678982 -0.0104991021 0.0166793484 -0.00992854312 -0.00948695652 0.00885045528 -0.0172793418 -0.0096501736 0.0113877263 0.0157410167 -0.0104994299 0.00609944016 0.0181734785 -0.00872420147 0.00779466983 0.0183102749 -0.0102955829 -0.0169522483 -0.00727869384 -0.0104624201 -0.0180677045 -0.00883132592 -0.0104997419 -0.0191047918 0.00300758192 -0.00872420147 -0.010272786 -0.0170585886 -0.0104624201 -0.0180677045 -0.00883132592 -0.0104982406 -0.00627710717 -0.0190276559 -0.0100512821 0.00434618816 -0.019678982 -0.0104982406 -0.00627710717 -0.0190276559 -0.0104991021 0.0166793484 -0.00992854312 -0.0099896118 0.0138421133 0.0129976459 -0.0104987696 0.0193400066 0.00344771193 -0.0104994299 0.00609944016 0.0181734785 -0.0099896118 0.0138421133 0.0129976459 -0.0104994299 0.00609944016 0.0181734785 -0.0096501736 0.0113877263 0.0157410167 -0.00985721964 -0.00613585347 0.0198837426 -0.0104994299 0.00609944016 0.0181734785 -0.0105000474 -0.0185295008 0.00760871684 -0.0102955829 -0.0169522483 -0.00727869384 -0.0104997419 -0.0191047918 0.00300758192 -0.0104982406 -0.00627710717 -0.0190276559 -0.0102955829 -0.0169522483 -0.00727869384 -0.0104982406 -0.00627710717 -0.0190276559 -0.0104624201 -0.0180677045 -0.00883132592 -1.14019301e-07 -0.00949411187 0.0176066626 -0.00985721964 -0.00613585347 0.0198837426 -2.28808616e-07 -0.0122950459 0.0157791097 -1.19299778e-10 -0.0147144785 0.0135456305 -2.28808616e-07 -0.0122950459 0.0157791097 -0.00850000046 -0.0153367203 0.0127892019 -1.19299778e-10 -0.0147144785 0.0135456305 -0.00850000046 -0.0153367203 0.0127892019 -1.97660412e-07 -0.0168283395 0.0108233271 5.73132514e-11 -0.0188517347 0.00647180947 -1.97660412e-07 -0.0168283395 0.0108233271 -0.0105000474 -0.0185295008 0.00760871684 5.73132514e-11 -0.0188517347 0.00647180947 -0.0105000474 -0.0185295008 0.00760871684 -2.686713e-07 -0.0199252293 0.0018031362 -8.12333395e-11 -0.0188517347 -0.00647180947 -3.63553568e-07 -0.0199350566 -0.00172473292 -0.0104624201 -0.0180677045 -0.00883132592 -8.12333395e-11 -0.0188517347 -0.00647180947 -0.0104624201 -0.0180677045 -0.00883132592 -2.83361743e-07 -0.0167557299 -0.01095114 2.04092993e-11 -0.0122842537 -0.0157828107 -0.00872420147 -0.010272786 -0.0170585886 4.09984963e-11 -0.00800646842 -0.018252911 2.04092993e-11 -0.0122842537 -0.0157828107 -3.55174876e-07 -0.0143539291 -0.0139432503 -0.00872420147 -0.010272786 -0.0170585886 4.09984963e-11 -0.00800646842 -0.018252911 -0.00872420147 -0.010272786 -0.0170585886 -0.0104982406 -0.00627710717 -0.0190276559 -7.44701939e-11 -0.00329189119 -0.0197272263 4.09984963e-11 -0.00800646842 -0.018252911 -0.0104982406 -0.00627710717 -0.0190276559 -7.44701939e-11 -0.00329189119 -0.0197272263 -0.0104982406 -0.00627710717 -0.0190276559 -2.7347582e-07 -6.81382735e-05 -0.0200047847 -3.17832843e-11 0.00329189096 -0.0197272263 -2.7347582e-07 -6.81382735e-05 -0.0200047847 -0.0100512821 0.00434618816 -0.019678982 -3.17832843e-11 0.00329189096 -0.0197272263 -0.0100512821 0.00434618816 -0.019678982 -3.71598048e-07 0.00638705399 -0.0189610999 -4.85694124e-11 0.00951894838 0.0175894741 -1.18535262e-07 0.0123370457 0.0157477707 -0.00850000046 0.0102545628 0.0171496142 -4.85694124e-11 0.00951894838 0.0175894741 -0.00850000046 0.0102545628 0.0171496142 -0.00872420147 0.00779466983 0.0183102749 -2.07707879e-11 0.00649398845 0.0189163443 -4.85694124e-11 0.00951894838 0.0175894741 -0.00872420147 0.00779466983 0.0183102749 -2.07707879e-11 0.00649398845 0.0189163443 -0.00872420147 0.00779466983 0.0183102749 -1.94653126e-07 0.00344572496 0.019708693 -3.17832843e-11 0.00329189096 -0.0197272263 -2.73669855e-07 6.81369129e-05 0.0200047791 -1.3255351e-07 -0.00315460004 0.0197572056 -3.17832843e-11 0.00329189096 -0.0197272263 -1.94653126e-07 0.00344572496 0.019708693 -2.73669855e-07 6.81369129e-05 0.0200047791 -4.85694124e-11 0.00951894838 0.0175894741 -3.17832843e-11 0.00329189096 -0.0197272263 -1.18535262e-07 0.0123370457 0.0157477707 -2.07707879e-11 0.00649398845 0.0189163443 -3.17832843e-11 0.00329189096 -0.0197272263 -4.85694124e-11 0.00951894838 0.0175894741 -2.07707879e-11 0.00649398845 0.0189163443 -1.94653126e-07 0.00344572496 0.019708693 -3.17832843e-11 0.00329189096 -0.0197272263 -3.17832843e-11 0.00329189096 -0.0197272263 -1.7299439e-07 0.0182828568 0.00809982419 -2.83341706e-07 0.0167557318 0.0109511409 -3.17832843e-11 0.00329189096 -0.0197272263 -2.83341706e-07 0.0167557318 0.0109511409 -2.12096126e-07 0.0147149581 0.0135504929 -3.17832843e-11 0.00329189096 -0.0197272263 -2.12096126e-07 0.0147149581 0.0135504929 -1.18535262e-07 0.0123370457 0.0157477707 -3.17832843e-11 0.00329189096 -0.0197272263 -8.22648047e-08 0.0199347027 -2.43925097e-05 -4.58751401e-07 0.0194610804 0.00468823407 -3.17832843e-11 0.00329189096 -0.0197272263 -4.58751401e-07 0.0194610804 0.00468823407 -1.7299439e-07 0.0182828568 0.00809982419 -3.17832843e-11 0.00329189096 -0.0197272263 -1.96518229e-07 0.0166674145 -0.0110689467 -2.76509155e-07 0.0182890166 -0.00810781587 -3.17832843e-11 0.00329189096 -0.0197272263 -2.76509155e-07 0.0182890166 -0.00810781587 -4.13279594e-07 0.0194498841 -0.00475197146 -3.17832843e-11 0.00329189096 -0.0197272263 -4.13279594e-07 0.0194498841 -0.00475197146 -8.22648047e-08 0.0199347027 -2.43925097e-05 -3.17832843e-11 0.00329189096 -0.0197272263 -1.1414825e-07 0.00949410349 -0.0176066682 -3.84119687e-07 0.012193759 -0.0158661697 -3.17832843e-11 0.00329189096 -0.0197272263 -3.84119687e-07 0.012193759 -0.0158661697 -1.67612484e-07 0.0147511372 -0.0135039492 -3.17832843e-11 0.00329189096 -0.0197272263 -1.67612484e-07 0.0147511372 -0.0135039492 -1.96518229e-07 0.0166674145 -0.0110689467 -3.17832843e-11 0.00329189096 -0.0197272263 -3.71598048e-07 0.00638705399 -0.0189610999 -1.1414825e-07 0.00949410349 -0.0176066682 -3.17832843e-11 0.00329189096 -0.0197272263 4.09984963e-11 -0.00800646842 -0.018252911 -7.44701939e-11 -0.00329189119 -0.0197272263 -3.17832843e-11 0.00329189096 -0.0197272263 -7.44701939e-11 -0.00329189119 -0.0197272263 -2.7347582e-07 -6.81382735e-05 -0.0200047847 -3.17832843e-11 0.00329189096 -0.0197272263 -2.83361743e-07 -0.0167557299 -0.01095114 -3.55174876e-07 -0.0143539291 -0.0139432503 -3.17832843e-11 0.00329189096 -0.0197272263 -3.55174876e-07 -0.0143539291 -0.0139432503 2.04092993e-11 -0.0122842537 -0.0157828107 -3.17832843e-11 0.00329189096 -0.0197272263 2.04092993e-11 -0.0122842537 -0.0157828107 4.09984963e-11 -0.00800646842 -0.018252911 -3.17832843e-11 0.00329189096 -0.0197272263 -3.63553568e-07 -0.0199350566 -0.00172473292 -8.12333395e-11 -0.0188517347 -0.00647180947 -3.17832843e-11 0.00329189096 -0.0197272263 -8.12333395e-11 -0.0188517347 -0.00647180947 -2.83361743e-07 -0.0167557299 -0.01095114 -3.17832843e-11 0.00329189096 -0.0197272263 5.73132514e-11 -0.0188517347 0.00647180947 -2.686713e-07 -0.0199252293 0.0018031362 -3.17832843e-11 0.00329189096 -0.0197272263 -2.686713e-07 -0.0199252293 0.0018031362 -3.63553568e-07 -0.0199350566 -0.00172473292 -3.17832843e-11 0.00329189096 -0.0197272263 -2.28808616e-07 -0.0122950459 0.0157791097 -1.19299778e-10 -0.0147144785 0.0135456305 -3.17832843e-11 0.00329189096 -0.0197272263 -1.19299778e-10 -0.0147144785 0.0135456305 -1.97660412e-07 -0.0168283395 0.0108233271 -3.17832843e-11 0.00329189096 -0.0197272263 -1.97660412e-07 -0.0168283395 0.0108233271 5.73132514e-11 -0.0188517347 0.00647180947 -3.17832843e-11 0.00329189096 -0.0197272263 -1.3255351e-07 -0.00315460004 0.0197572056 -3.71590971e-07 -0.00638705632 0.018961098 -3.17832843e-11 0.00329189096 -0.0197272263 -3.71590971e-07 -0.00638705632 0.018961098 -1.14019301e-07 -0.00949411187 0.0176066626 -3.17832843e-11 0.00329189096 -0.0197272263 -1.14019301e-07 -0.00949411187 0.0176066626 -2.28808616e-07 -0.0122950459 0.0157791097 0.00600009738 -0.00496985344 0.0193125196 0.00600015884 -0.00965845585 0.0175211299 0.0164993145 -0.00739368424 0.0185786672 0.0148090161 -0.0131022772 0.0150018148 0.00600015884 -0.00965845585 0.0175211299 0.00600000005 -0.0122842537 0.0157828089 0.00600036606 -0.0147935748 0.0134696132 0.0148090161 -0.0131022772 0.0150018148 0.00600000005 -0.0122842537 0.0157828089 0.00600008154 -0.0174302906 0.00971355475 0.00600038609 -0.0194282308 0.00479527144 0.0158110596 -0.0174447224 0.0103041502 0.0164965093 -0.0199839696 0.000357211422 0.00600038609 -0.0194282308 0.00479527144 0.00600000005 -0.0199316908 3.50107138e-10 0.00600027665 -0.0194118004 -0.00487545831 0.0164965093 -0.0199839696 0.000357211422 0.00600000005 -0.0199316908 3.50107138e-10 0.0149484007 -0.0183095261 -0.00761901354 0.00600027665 -0.0194118004 -0.00487545831 0.00600000005 -0.0183154661 -0.00803390797 0.00600027665 -0.0167562291 -0.01095038 0.0149484007 -0.0183095261 -0.00761901354 0.00600000005 -0.0183154661 -0.00803390797 0.00600027852 0.0064958767 -0.0189168397 0.0162571259 0.00292145391 -0.0198497176 0.00600007735 0.00164097524 -0.0198649392 0.0060004089 0.0121288691 -0.0159279443 0.00600027852 0.0064958767 -0.0189168397 0.00600000005 0.00951894838 -0.017589476 0.00600000005 0.0167433321 -0.0109389611 0.0144999996 0.0165371932 -0.0112063261 0.00600021239 0.0147149581 -0.0135504929 0.00600017328 0.0182828568 -0.00809982233 0.0144999996 0.0165371932 -0.0112063261 0.00600000005 0.0167433321 -0.0109389611 0.0144999996 0.0195439104 -0.00394258136 0.00600017328 0.0182828568 -0.00809982233 0.00600000005 0.0193880051 -0.00490971096 0.0060001649 0.0199377146 -0.00160279358 0.0144999996 0.0195439104 -0.00394258136 0.00600000005 0.0193880051 -0.00490971096 0.0144999996 0.0188068971 0.00665031932 0.00600026874 0.0199252274 0.00180313829 0.00600000005 0.0193880051 0.00490971142 0.00600000005 0.018315468 0.00803390797 0.0144999996 0.0188068971 0.00665031932 0.00600000005 0.0193880051 0.00490971142 0.0144999996 0.0165371932 0.011206327 0.00600000005 0.018315468 0.00803390797 0.00600000005 0.0167433284 0.0109389704 0.0144999996 0.0165371932 0.011206327 0.0144999996 0.0188068971 0.00665031932 0.00600000005 0.018315468 0.00803390797 0.00600000005 0.0147144785 0.0135456314 0.0144999996 0.0165371932 0.011206327 0.00600000005 0.0167433284 0.0109389704 0.0144999996 0.0136004882 0.0145935388 0.00600000005 0.0147144785 0.0135456314 0.00600000005 0.0122842528 0.0157828089 0.0144999996 0.0136004882 0.0145935388 0.0144999996 0.0165371932 0.011206327 0.00600000005 0.0147144785 0.0135456314 0.0144999996 0.00947375502 0.0175014175 0.0144999996 0.0136004882 0.0145935388 0.00600000005 0.0122842528 0.0157828089 0.00600000005 0.00951894838 0.0175894741 0.0144999996 0.00947375502 0.0175014175 0.00600000005 0.0122842528 0.0157828089 0.00600015745 0.00635798182 0.018968001 0.0144999996 0.00947375502 0.0175014175 0.00600000005 0.00951894838 0.0175894741 0.0164987277 0.0107319634 -0.0164383464 0.0164993145 -0.00739368424 0.0185786672 0.0164991207 -0.00867851637 -0.0177170523 0.0164991207 -0.00867851637 -0.0177170523 0.0164993145 -0.00739368424 0.0185786672 0.0164965093 -0.0199839696 0.000357211422 0.0164989531 0.00871720538 0.0175949503 0.0164993145 -0.00739368424 0.0185786672 0.0164989252 0.0193789788 0.00124697667 0.0164989252 0.0193789788 0.00124697667 0.0164993145 -0.00739368424 0.0185786672 0.0164987277 0.0107319634 -0.0164383464 0.0164987277 0.0107319634 -0.0164383464 0.00600021239 0.0147149581 -0.0135504929 0.0144999996 0.0165371932 -0.0112063261 0.0158284381 0.0162502658 0.0103464974 0.0144999996 0.0188068971 0.00665031932 0.0144999996 0.0165371932 0.011206327 0.0164989531 0.00871720538 0.0175949503 0.0144999996 0.0136004882 0.0145935388 0.0144999996 0.00947375502 0.0175014175 0.0164989531 0.00871720538 0.0175949503 0.0144999996 0.00947375502 0.0175014175 0.00600015745 0.00635798182 0.018968001 0.0158110596 -0.0174447224 0.0103041502 0.0164993145 -0.00739368424 0.0185786672 0.00600015884 -0.00965845585 0.0175211299 0.00600028597 -0.00330293621 -0.0197423752 0.0164991207 -0.00867851637 -0.0177170523 0.0060001649 -0.00799703505 -0.0182624292 0.0164987277 0.0107319634 -0.0164383464 0.0164991207 -0.00867851637 -0.0177170523 0.0162571259 0.00292145391 -0.0198497176 0.0160265006 -0.016415352 -0.00950812176 0.0164965093 -0.0199839696 0.000357211422 0.0149484007 -0.0183095261 -0.00761901354 0.0157034378 0.0176497139 -0.00790408906 0.0164989252 0.0193789788 0.00124697667 0.0164987277 0.0107319634 -0.0164383464 0.0164991207 -0.00867851637 -0.0177170523 0.00600007735 0.00164097524 -0.0198649392 0.0162571259 0.00292145391 -0.0198497176 0.00600028597 -0.00330293621 -0.0197423752 0.00600007735 0.00164097524 -0.0198649392 0.0164991207 -0.00867851637 -0.0177170523 0.00600038422 -0.0121937562 -0.0158661716 0.0060001649 -0.00799703505 -0.0182624292 0.0164991207 -0.00867851637 -0.0177170523 0.00600016769 -0.0147511475 -0.0135039389 0.00600038422 -0.0121937562 -0.0158661716 0.0164991207 -0.00867851637 -0.0177170523 0.00600016769 -0.0147511475 -0.0135039389 0.0160265006 -0.016415352 -0.00950812176 0.00600027665 -0.0167562291 -0.01095038 0.00600016769 -0.0147511475 -0.0135039389 0.0164991207 -0.00867851637 -0.0177170523 0.0160265006 -0.016415352 -0.00950812176 0.0160265006 -0.016415352 -0.00950812176 0.0149484007 -0.0183095261 -0.00761901354 0.00600027665 -0.0167562291 -0.01095038 0.0160265006 -0.016415352 -0.00950812176 0.0164991207 -0.00867851637 -0.0177170523 0.0164965093 -0.0199839696 0.000357211422 0.0149484007 -0.0183095261 -0.00761901354 0.0164965093 -0.0199839696 0.000357211422 0.00600027665 -0.0194118004 -0.00487545831 0.0164965093 -0.0199839696 0.000357211422 0.0158110596 -0.0174447224 0.0103041502 0.00600038609 -0.0194282308 0.00479527144 0.00600008154 -0.0174302906 0.00971355475 0.0158110596 -0.0174447224 0.0103041502 0.00600036606 -0.0147935748 0.0134696132 0.0158110596 -0.0174447224 0.0103041502 0.0148090161 -0.0131022772 0.0150018148 0.00600036606 -0.0147935748 0.0134696132 0.0164965093 -0.0199839696 0.000357211422 0.0164993145 -0.00739368424 0.0185786672 0.0158110596 -0.0174447224 0.0103041502 0.0158110596 -0.0174447224 0.0103041502 0.00600015884 -0.00965845585 0.0175211299 0.0148090161 -0.0131022772 0.0150018148 0.0060002734 -6.81352758e-05 0.020004781 0.00600009738 -0.00496985344 0.0193125196 0.0164993145 -0.00739368424 0.0185786672 0.0060002734 -6.81352758e-05 0.020004781 0.0164993145 -0.00739368424 0.0185786672 0.0164989531 0.00871720538 0.0175949503 0.0060001323 0.00315460027 0.0197572075 0.0060002734 -6.81352758e-05 0.020004781 0.0164989531 0.00871720538 0.0175949503 0.0060001323 0.00315460027 0.0197572075 0.0164989531 0.00871720538 0.0175949503 0.00600015745 0.00635798182 0.018968001 0.0158284381 0.0162502658 0.0103464974 0.0144999996 0.0165371932 0.011206327 0.0144999996 0.0136004882 0.0145935388 0.0158284381 0.0162502658 0.0103464974 0.0144999996 0.0136004882 0.0145935388 0.0164989531 0.00871720538 0.0175949503 0.0158284381 0.0162502658 0.0103464974 0.0164989531 0.00871720538 0.0175949503 0.0164989252 0.0193789788 0.00124697667 0.0158284381 0.0162502658 0.0103464974 0.0164989252 0.0193789788 0.00124697667 0.0144999996 0.0188068971 0.00665031932 0.0164989252 0.0193789788 0.00124697667 0.00600026874 0.0199252274 0.00180313829 0.0144999996 0.0188068971 0.00665031932 0.0164989252 0.0193789788 0.00124697667 0.0060001649 0.0199377146 -0.00160279358 0.00600026874 0.0199252274 0.00180313829 0.0164989252 0.0193789788 0.00124697667 0.0144999996 0.0195439104 -0.00394258136 0.0060001649 0.0199377146 -0.00160279358 0.0157034378 0.0176497139 -0.00790408906 0.0144999996 0.0195439104 -0.00394258136 0.0164989252 0.0193789788 0.00124697667 0.0157034378 0.0176497139 -0.00790408906 0.00600017328 0.0182828568 -0.00809982233 0.0144999996 0.0195439104 -0.00394258136 0.0157034378 0.0176497139 -0.00790408906 0.0144999996 0.0165371932 -0.0112063261 0.00600017328 0.0182828568 -0.00809982233 0.0157034378 0.0176497139 -0.00790408906 0.0164987277 0.0107319634 -0.0164383464 0.0144999996 0.0165371932 -0.0112063261 0.0164987277 0.0107319634 -0.0164383464 0.0060004089 0.0121288691 -0.0159279443 0.00600021239 0.0147149581 -0.0135504929 0.0164987277 0.0107319634 -0.0164383464 0.00600027852 0.0064958767 -0.0189168397 0.0060004089 0.0121288691 -0.0159279443 0.0164987277 0.0107319634 -0.0164383464 0.0162571259 0.00292145391 -0.0198497176 0.00600027852 0.0064958767 -0.0189168397 0.00600028597 -0.00330293621 -0.0197423752 0.00600000005 0.0167433284 0.0109389704 0.00600007735 0.00164097524 -0.0198649392 0.00600000005 0.0167433284 0.0109389704 0.0060004089 0.0121288691 -0.0159279443 0.00600000005 0.00951894838 -0.017589476 0.00600000005 0.0167433284 0.0109389704 0.00600000005 0.00951894838 -0.017589476 0.00600027852 0.0064958767 -0.0189168397 0.00600000005 0.0167433284 0.0109389704 0.00600027852 0.0064958767 -0.0189168397 0.00600007735 0.00164097524 -0.0198649392 0.00600000005 0.0167433284 0.0109389704 0.00600017328 0.0182828568 -0.00809982233 0.00600000005 0.0167433321 -0.0109389611 0.00600000005 0.0167433284 0.0109389704 0.00600000005 0.0167433321 -0.0109389611 0.00600021239 0.0147149581 -0.0135504929 0.00600000005 0.0167433284 0.0109389704 0.00600021239 0.0147149581 -0.0135504929 0.0060004089 0.0121288691 -0.0159279443 0.00600000005 0.0167433284 0.0109389704 0.00600026874 0.0199252274 0.00180313829 0.0060001649 0.0199377146 -0.00160279358 0.00600000005 0.0167433284 0.0109389704 0.0060001649 0.0199377146 -0.00160279358 0.00600000005 0.0193880051 -0.00490971096 0.00600000005 0.0167433284 0.0109389704 0.00600000005 0.0193880051 -0.00490971096 0.00600017328 0.0182828568 -0.00809982233 0.00600000005 0.0167433284 0.0109389704 0.00600000005 0.018315468 0.00803390797 0.00600000005 0.0193880051 0.00490971142 0.00600000005 0.0167433284 0.0109389704 0.00600000005 0.0193880051 0.00490971142 0.00600026874 0.0199252274 0.00180313829 0.00600000005 0.00951894838 0.0175894741 0.00600000005 0.0122842528 0.0157828089 0.00600000005 0.0167433284 0.0109389704 0.00600000005 0.0122842528 0.0157828089 0.00600000005 0.0147144785 0.0135456314 0.00600000005 0.0167433284 0.0109389704 0.0060001323 0.00315460027 0.0197572075 0.00600000005 0.0167433284 0.0109389704 0.0060002734 -6.81352758e-05 0.020004781 0.0060001323 0.00315460027 0.0197572075 0.00600015745 0.00635798182 0.018968001 0.00600000005 0.0167433284 0.0109389704 0.00600015745 0.00635798182 0.018968001 0.00600000005 0.00951894838 0.0175894741 0.00600000005 0.0167433284 0.0109389704 0.00600000005 0.0167433284 0.0109389704 0.00600015884 -0.00965845585 0.0175211299 0.00600009738 -0.00496985344 0.0193125196 0.0060002734 -6.81352758e-05 0.020004781 0.00600000005 0.0167433284 0.0109389704 0.00600009738 -0.00496985344 0.0193125196 0.00600000005 0.0167433284 0.0109389704 0.00600008154 -0.0174302906 0.00971355475 0.00600036606 -0.0147935748 0.0134696132 0.00600000005 0.0167433284 0.0109389704 0.00600036606 -0.0147935748 0.0134696132 0.00600000005 -0.0122842537 0.0157828089 0.00600000005 0.0167433284 0.0109389704 0.00600000005 -0.0122842537 0.0157828089 0.00600015884 -0.00965845585 0.0175211299 0.00600000005 0.0167433284 0.0109389704 0.00600000005 -0.0199316908 3.50107138e-10 0.00600038609 -0.0194282308 0.00479527144 0.00600000005 0.0167433284 0.0109389704 0.00600038609 -0.0194282308 0.00479527144 0.00600008154 -0.0174302906 0.00971355475 0.00600000005 0.0167433284 0.0109389704 0.00600000005 -0.0183154661 -0.00803390797 0.00600027665 -0.0194118004 -0.00487545831 0.00600000005 0.0167433284 0.0109389704 0.00600027665 -0.0194118004 -0.00487545831 0.00600000005 -0.0199316908 3.50107138e-10 0.00600016769 -0.0147511475 -0.0135039389 0.00600000005 0.0167433284 0.0109389704 0.00600038422 -0.0121937562 -0.0158661716 0.00600016769 -0.0147511475 -0.0135039389 0.00600027665 -0.0167562291 -0.01095038 0.00600000005 0.0167433284 0.0109389704 0.00600000005 0.0167433284 0.0109389704 0.00600027665 -0.0167562291 -0.01095038 0.00600000005 -0.0183154661 -0.00803390797 0.00600028597 -0.00330293621 -0.0197423752 0.0060001649 -0.00799703505 -0.0182624292 0.00600000005 0.0167433284 0.0109389704 0.00600038422 -0.0121937562 -0.0158661716 0.00600000005 0.0167433284 0.0109389704 0.0060001649 -0.00799703505 -0.0182624292 </float_array>
          <technique_common>
            <accessor count="600" offset="0" source="#mesh_0-positions-array" stride="3">
              <param name="X" type="float" />
              <param name="Y" type="float" />
              <param name="Z" type="float" />
            </accessor>
          </technique_common>
        </source>
        <vertices id="mesh_0-vertices">
          <input semantic="POSITION" source="#mesh_0-positions" />
        </vertices>
        <polylist count="200" material="defaultMaterial">
          <input offset="0" semantic="VERTEX" source="#mesh_0-vertices" />
          <vcount>3 3 3 3 3 3 3 3 3 3 3 3 3 3 3 3 3 3 3 3 3 3 3 3 3 3 3 3 3 3 3 3 3 3 3 3 3 3 3 3 3 3 3 3 3 3 3 3 3 3 3 3 3 3 3 3 3 3 3 3 3 3 3 3 3 3 3 3 3 3 3 3 3 3 3 3 3 3 3 3 3 3 3 3 3 3 3 3 3 3 3 3 3 3 3 3 3 3 3 3 3 3 3 3 3 3 3 3 3 3 3 3 3 3 3 3 3 3 3 3 3 3 3 3 3 3 3 3 3 3 3 3 3 3 3 3 3 3 3 3 3 3 3 3 3 3 3 3 3 3 3 3 3 3 3 3 3 3 3 3 3 3 3 3 3 3 3 3 3 3 3 3 3 3 3 3 3 3 3 3 3 3 3 3 3 3 3 3 3 3 3 3 3 3 3 3 3 3 3 3 </vcount>
          <p>0 1 2 3 4 5 6 7 8 9 10 11 12 13 14 15 16 17 18 19 20 21 22 23 24 25 26 27 28 29 30 31 32 33 34 35 36 37 38 39 40 41 42 43 44 45 46 47 48 49 50 51 52 53 54 55 56 57 58 59 60 61 62 63 64 65 66 67 68 69 70 71 72 73 74 75 76 77 78 79 80 81 82 83 84 85 86 87 88 89 90 91 92 93 94 95 96 97 98 99 100 101 102 103 104 105 106 107 108 109 110 111 112 113 114 115 116 117 118 119 120 121 122 123 124 125 126 127 128 129 130 131 132 133 134 135 136 137 138 139 140 141 142 143 144 145 146 147 148 149 150 151 152 153 154 155 156 157 158 159 160 161 162 163 164 165 166 167 168 169 170 171 172 173 174 175 176 177 178 179 180 181 182 183 184 185 186 187 188 189 190 191 192 193 194 195 196 197 198 199 200 201 202 203 204 205 206 207 208 209 210 211 212 213 214 215 216 217 218 219 220 221 222 223 224 225 226 227 228 229 230 231 232 233 234 235 236 237 238 239 240 241 242 243 244 245 246 247 248 249 250 251 252 253 254 255 256 257 258 259 260 261 262 263 264 265 266 267 268 269 270 271 272 273 274 275 276 277 278 279 280 281 282 283 284 285 286 287 288 289 290 291 292 293 294 295 296 297 298 299 300 301 302 303 304 305 306 307 308 309 310 311 312 313 314 315 316 317 318 319 320 321 322 323 324 325 326 327 328 329 330 331 332 333 334 335 336 337 338 339 340 341 342 343 344 345 346 347 348 349 350 351 352 353 354 355 356 357 358 359 360 361 362 363 364 365 366 367 368 369 370 371 372 373 374 375 376 377 378 379 380 381 382 383 384 385 386 387 388 389 390 391 392 393 394 395 396 397 398 399 400 401 402 403 404 405 406 407 408 409 410 411 412 413 414 415 416 417 418 419 420 421 422 423 424 425 426 427 428 429 430 431 432 433 434 435 436 437 438 439 440 441 442 443 444 445 446 447 448 449 450 451 452 453 454 455 456 457 458 459 460 461 462 463 464 465 466 467 468 469 470 471 472 473 474 475 476 477 478 479 480 481 482 483 484 485 486 487 488 489 490 491 492 493 494 495 496 497 498 499 500 501 502 503 504 505 506 507 508 509 510 511 512 513 514 515 516 517 518 519 520 521 522 523 524 525 526 527 528 529 530 531 532 533 534 535 536 537 538 539 540 541 542 543 544 545 546 547 548 549 550 551 552 553 554 555 556 557 558 559 560 561 562 563 564 565 566 567 568 569 570 571 572 573 574 575 576 577 578 579 580 581 582 583 584 585 586 587 588 589 590 591 592 593 594 595 596 597 598 599 </p>
        </polylist>
      </mesh>
    </geometry>
  </library_geometries>
  <library_controllers>
  </library_controllers>
  <library_visual_scenes>
    <visual_scene id="Scene" name="Scene">
      <node id="node" name="" type="NODE">
        <matrix sid="matrix">1 0 0 0 0 1 0 0 0 0 1 0 0 0 0 1</matrix>
        <instance_geometry url="#mesh_0">
          <bind_material>
            <technique_common>
              <instance_material symbol="defaultMaterial" target="#material_0">
              </instance_material>
            </technique_common>
          </bind_material>
        </instance_geometry>
      </node>
    </visual_scene>
  </library_visual_scenes>
  <scene>
    <instance_visual_scene url="#Scene" />
  </scene>
</COLLADA>
