<?xml version="1.0" encoding="UTF-8" standalone="no" ?>
<COLLADA xmlns="http://www.collada.org/2005/11/COLLADASchema" version="1.4.1">
  <asset>
    <contributor>
      <author>Assimp</author>
      <authoring_tool>Assimp Exporter</authoring_tool>
    </contributor>
    <created>2025-12-08T10:04:59</created>
    <modified>2025-12-08T10:04:59</modified>
    <unit name="meter" meter="1" />
    <up_axis>Y_UP</up_axis>
  </asset>
  <library_images>
  </library_images>
  <library_effects>
    <effect id="material_0-fx" name="">
      <profile_COMMON>
        <technique sid="standard">
          <phong>
            <emission>
              <color sid="emission">0   0   0   4.53488209e-41</color>
            </emission>
            <ambient>
              <color sid="ambient">0.898039222   0.917647064   0.929411769   0</color>
            </ambient>
            <diffuse>
              <color sid="diffuse">0.898039222   0.917647064   0.929411769   0</color>
            </diffuse>
            <specular>
              <color sid="specular">0.200000003   0.200000003   0.200000003   2.55843558e-11</color>
            </specular>
          </phong>
        </technique>
      </profile_COMMON>
    </effect>
  </library_effects>
  <library_materials>
    <material id="material_0" name="">
      <instance_effect url="#material_0-fx"/>
    </material>
  </library_materials>
  <library_geometries>
    <geometry id="mesh_0" name="" >
      <mesh>
        <source id="mesh_0-positions" name="mesh_0-positions">
          <float_array id="mesh_0-positions-array" count="3969"> -0.0232499987 0.0247102268 -0.118506618 -0.0232499987 0.0178629793 -0.132832468 -0.0230162721 0.0109209102 -0.128658578 -0.0231781453 0.0193032399 -0.117789157 -0.0232499987 0.0247102268 -0.118506618 -0.0230162721 0.0109209102 -0.128658578 -0.0232504737 0.029452363 -0.038616661 -0.0232499987 0.0247102268 -0.118506618 -0.0231781453 0.0193032399 -0.117789157 -0.0232499987 -0.00682447897 -0.139592916 -0.0232508238 -0.0242434461 -0.122703865 -0.0226165354 -0.0132197943 -0.129117265 -0.0232499987 -0.00682447897 -0.139592916 -0.0226165354 -0.0132197943 -0.129117265 -0.0230162721 0.0109209102 -0.128658578 -0.0232499987 -0.00682447897 -0.139592916 -0.0230162721 0.0109209102 -0.128658578 -0.0232499987 0.0178629793 -0.132832468 -0.0232474394 0.0109707555 -0.096814096 -0.0225093663 -0.00649161637 -0.0983568579 -0.0232467074 -0.0145595288 -0.0798633695 -0.0232499987 0.0129283331 -0.0734212771 -0.0232474394 0.0109707555 -0.096814096 -0.0232467074 -0.0145595288 -0.0798633695 -0.0232499987 0.0129283331 -0.0734212771 -0.0232504737 0.029452363 -0.038616661 -0.0232474394 0.0109707555 -0.096814096 -0.0232474394 0.0109707555 -0.096814096 -0.0232504737 0.029452363 -0.038616661 -0.0231781453 0.0193032399 -0.117789157 -0.0232507661 -0.0162884183 -0.0175619647 -0.0232347306 0.00667277258 -0.0126648694 -0.0177542716 -0.0131414616 -0.0226394609 -0.0232500583 -0.029595213 -0.0357766636 -0.0232507661 -0.0162884183 -0.0175619647 -0.0205514729 -0.0214708056 -0.0349658616 -0.023240421 -0.0242997557 -0.045007091 -0.0229385663 -0.0239976812 -0.0742483661 -0.0232500583 -0.029595213 -0.0357766636 -0.0197270997 -0.0182113592 -0.0549025945 -0.0229385663 -0.0239976812 -0.0742483661 -0.023240421 -0.0242997557 -0.045007091 -0.0229385663 -0.0239976812 -0.0742483661 -0.0232467074 -0.0145595288 -0.0798633695 -0.0232500583 -0.029595213 -0.0357766636 -0.0232500583 -0.029595213 -0.0357766636 -0.0232467074 -0.0145595288 -0.0798633695 -0.0232508238 -0.0242434461 -0.122703865 -0.0232499987 0.0240000002 -0.0742500052 -0.0232504737 0.029452363 -0.038616661 -0.0232499987 0.0129283331 -0.0734212771 -0.0232490003 0.0256249327 -0.0482385531 -0.0232504737 0.029452363 -0.038616661 -0.0232499987 0.0240000002 -0.0742500052 -0.0232490003 0.0256249327 -0.0482385531 -0.0232499987 0.0240000002 -0.0742500052 -0.0232499987 0.0129283331 -0.0734212771 -0.0179701932 0.0166400578 -0.0746992826 -0.0232490003 0.0256249327 -0.0482385531 -0.0232499987 0.0129283331 -0.0734212771 -0.0229128469 0.00363384397 -0.0637956038 -0.0232490003 0.0256249327 -0.0482385531 -0.0232499987 0.0129283331 -0.0734212771 -0.0222995933 0.00260192808 -0.0750268847 -0.0232499987 0.0129283331 -0.0734212771 -0.0168942884 0.00885977782 -0.0741745681 -0.0222995933 0.00260192808 -0.0750268847 -0.0229128469 0.00363384397 -0.0637956038 -0.0232499987 0.0129283331 -0.0734212771 -0.023233423 -0.00287447893 -0.0695922449 -0.0222995933 0.00260192808 -0.0750268847 -0.0232499987 0.0129283331 -0.0734212771 -0.0195791107 -0.00799999945 -0.0742500052 -0.023233423 -0.00287447893 -0.0695922449 -0.0232499987 0.0129283331 -0.0734212771 -0.023233423 -0.00287447893 -0.0695922449 -0.0232499987 0.0129283331 -0.0734212771 -0.0232467074 -0.0145595288 -0.0798633695 -0.0184608102 -1.3056832e-10 -0.0902557746 -0.0232467074 -0.0145595288 -0.0798633695 -0.0232499987 0.0129283331 -0.0734212771 -0.0195643306 0.0172547493 -0.0810054764 -0.0232499987 0.0129283331 -0.0734212771 -0.0163030438 0.0120451609 -0.0824383944 -0.0194486026 9.19270751e-05 -0.0822567567 -0.0232499987 0.0129283331 -0.0734212771 -0.0232467074 -0.0145595288 -0.0798633695 -0.0186710004 -0.007683123 -0.0814174339 -0.0232499987 0.0129283331 -0.0734212771 -0.0232467074 -0.0145595288 -0.0798633695 -0.0232467074 -0.0145595288 -0.0798633695 -0.0225093663 -0.00649161637 -0.0983568579 -0.0232508238 -0.0242434461 -0.122703865 -0.0162502397 -0.00290758931 -0.0709832385 -0.0162495021 0.0240349993 -0.123245612 -0.0162500273 0.0291277487 -0.0443410389 -0.0162499994 0.0240000002 -0.0742500052 -0.0162500273 0.0291277487 -0.0443410389 -0.0162502397 -0.00290758931 -0.0709832385 -0.0162499994 0.0118532553 -0.136722952 -0.0162495021 0.0240349993 -0.123245612 -0.0162826348 0.0106680254 -0.126065254 -0.0162496213 -0.00783767365 -0.138804346 -0.0162499994 0.0118532553 -0.136722952 -0.0162826348 0.0106680254 -0.126065254 -0.0162499994 -0.0242542848 -0.123231962 -0.0162496213 -0.00783767365 -0.138804346 -0.0162958112 -0.0158128291 -0.119777896 -0.0162487235 -0.029408155 -0.0391303934 -0.0162499994 -0.0242542848 -0.123231962 -0.0162502397 -0.00290758931 -0.0709832385 -0.0162499994 -0.0242542848 -0.123231962 -0.0162958112 -0.0158128291 -0.119777896 -0.0162502397 -0.00290758931 -0.0709832385 -0.0162513461 -0.0202412289 -0.020218201 -0.0162487235 -0.029408155 -0.0391303934 -0.0177542716 -0.0131414616 -0.0226394609 -0.0162580032 0.000236718508 -0.0125971027 -0.0162429381 0.0283972658 -0.0353717692 -0.0162499994 0.0189047251 -0.0190505534 -0.0163074732 0.00450551277 -0.0986920893 -0.0162495021 0.0240349993 -0.123245612 -0.0163030438 0.0120451609 -0.0824383944 -0.0162502397 -0.00290758931 -0.0709832385 -0.0163030438 0.0120451609 -0.0824383944 -0.0162495021 0.0240349993 -0.123245612 -0.0163074732 0.00450551277 -0.0986920893 -0.0162502397 -0.00290758931 -0.0709832385 -0.0162958112 -0.0158128291 -0.119777896 -0.0163410027 0.00838929322 -0.0670137927 -0.0162502397 -0.00290758931 -0.0709832385 -0.0162500273 0.0291277487 -0.0443410389 -0.0162502397 -0.00290758931 -0.0709832385 -0.0168942884 0.00885977782 -0.0741745681 -0.0222995933 0.00260192808 -0.0750268847 -0.018313678 -0.0166083146 -0.0741966516 -0.0162487235 -0.029408155 -0.0391303934 -0.0162502397 -0.00290758931 -0.0709832385 -0.0162502397 -0.00290758931 -0.0709832385 -0.0163030438 0.0120451609 -0.0824383944 -0.0195643306 0.0172547493 -0.0810054764 -0.0205317046 0.00692864228 -0.0824998692 -0.0162502397 -0.00290758931 -0.0709832385 -0.0163074732 0.00450551277 -0.0986920893 -0.0205317046 0.00692864228 -0.0824998692 -0.0163030438 0.0120451609 -0.0824383944 -0.0162502397 -0.00290758931 -0.0709832385 -0.0205317046 0.00692864228 -0.0824998692 -0.0163074732 0.00450551277 -0.0986920893 -0.0163030438 0.0120451609 -0.0824383944 -0.0163074732 0.00450551277 -0.0986920893 -0.0194486026 9.19270751e-05 -0.0822567567 -0.0162502397 -0.00290758931 -0.0709832385 -0.0162502397 -0.00290758931 -0.0709832385 -0.0186710004 -0.007683123 -0.0814174339 -0.0232467074 -0.0145595288 -0.0798633695 -0.0162499994 -0.0156972297 -0.0820367783 -0.0162502397 -0.00290758931 -0.0709832385 -0.0162487235 -0.029408155 -0.0391303934 -0.0162499994 -0.0156972297 -0.0820367783 -0.0232467074 -0.0145595288 -0.0798633695 -0.0162487235 -0.029408155 -0.0391303934 -0.0186667982 0.00866870396 -0.0903660804 -0.0163030438 0.0120451609 -0.0824383944 -0.0163074732 0.00450551277 -0.0986920893 -0.0163074732 0.00450551277 -0.0986920893 -0.0162502397 -0.00290758931 -0.0709832385 -0.0184608102 -1.3056832e-10 -0.0902557746 -0.0183242075 -0.00799999945 -0.0902500004 -0.0163074732 0.00450551277 -0.0986920893 -0.0162502397 -0.00290758931 -0.0709832385 -0.0209956132 0.0152792605 -0.105982162 -0.0230162721 0.0109209102 -0.128658578 -0.0162826348 0.0106680254 -0.126065254 -0.0162826348 0.0106680254 -0.126065254 -0.0230162721 0.0109209102 -0.128658578 -0.0226165354 -0.0132197943 -0.129117265 -0.0195281468 0.00491264835 -0.0209648758 -0.0177542716 -0.0131414616 -0.0226394609 -0.0182432961 0.00280426629 -0.0157574415 -0.0182840563 -0.00452462956 -0.0682813376 -0.0229128469 0.00363384397 -0.0637956038 -0.023233423 -0.00287447893 -0.0695922449 -0.018245481 -0.0222568475 -0.0570665374 -0.0162502397 -0.00290758931 -0.0709832385 -0.0182840563 -0.00452462956 -0.0682813376 -0.0182840563 -0.00452462956 -0.0682813376 -0.0162502397 -0.00290758931 -0.0709832385 -0.0163410027 0.00838929322 -0.0670137927 -0.0182306357 0.0260895826 -0.034429241 -0.0162429381 0.0283972658 -0.0353717692 -0.0162580032 0.000236718508 -0.0125971027 -0.0182306357 0.0260895826 -0.034429241 -0.0162580032 0.000236718508 -0.0125971027 -0.0182432961 0.00280426629 -0.0157574415 -0.0182432961 0.00280426629 -0.0157574415 -0.0162513461 -0.0202412289 -0.020218201 -0.0177542716 -0.0131414616 -0.0226394609 -0.0162487235 -0.029408155 -0.0391303934 -0.0205514729 -0.0214708056 -0.0349658616 -0.0177542716 -0.0131414616 -0.0226394609 -0.018245481 -0.0222568475 -0.0570665374 -0.0205514729 -0.0214708056 -0.0349658616 -0.0162487235 -0.029408155 -0.0391303934 -0.0182306357 0.0260895826 -0.034429241 -0.0182432961 0.00280426629 -0.0157574415 -0.0195281468 0.00491264835 -0.0209648758 -0.0182238761 0.0200426821 -0.0592508763 -0.0182840563 -0.00452462956 -0.0682813376 -0.0163410027 0.00838929322 -0.0670137927 -0.0182238761 0.0200426821 -0.0592508763 -0.0197270997 -0.0182113592 -0.0549025945 -0.0182840563 -0.00452462956 -0.0682813376 -0.018245481 -0.0222568475 -0.0570665374 -0.0182840563 -0.00452462956 -0.0682813376 -0.0197270997 -0.0182113592 -0.0549025945 -0.018245481 -0.0222568475 -0.0570665374 -0.0197270997 -0.0182113592 -0.0549025945 -0.0205514729 -0.0214708056 -0.0349658616 -0.0162499994 -0.0242542848 -0.123231962 -0.0232508238 -0.0242434461 -0.122703865 -0.0232499987 -0.00682447897 -0.139592916 -0.0162499994 -0.0242542848 -0.123231962 -0.0232499987 -0.00682447897 -0.139592916 -0.0162496213 -0.00783767365 -0.138804346 -0.0162496213 -0.00783767365 -0.138804346 -0.0232499987 -0.00682447897 -0.139592916 -0.0162499994 0.0118532553 -0.136722952 -0.0162499994 0.0118532553 -0.136722952 -0.0232499987 -0.00682447897 -0.139592916 -0.0232499987 0.0178629793 -0.132832468 -0.0162499994 0.0118532553 -0.136722952 -0.0232499987 0.0178629793 -0.132832468 -0.0162495021 0.0240349993 -0.123245612 -0.0162495021 0.0240349993 -0.123245612 -0.0232499987 0.0178629793 -0.132832468 -0.0232499987 0.0247102268 -0.118506618 -0.0209956132 0.0152792605 -0.105982162 -0.0162826348 0.0106680254 -0.126065254 -0.0163074732 0.00450551277 -0.0986920893 -0.018245481 -0.0222568475 -0.0570665374 -0.0162487235 -0.029408155 -0.0391303934 -0.0162502397 -0.00290758931 -0.0709832385 -0.0182238761 0.0200426821 -0.0592508763 -0.0163410027 0.00838929322 -0.0670137927 -0.0162500273 0.0291277487 -0.0443410389 -0.0182238761 0.0200426821 -0.0592508763 -0.0162500273 0.0291277487 -0.0443410389 -0.0182306357 0.0260895826 -0.034429241 -0.0182306357 0.0260895826 -0.034429241 -0.0162500273 0.0291277487 -0.0443410389 -0.0162429381 0.0283972658 -0.0353717692 -0.0182432961 0.00280426629 -0.0157574415 -0.0162580032 0.000236718508 -0.0125971027 -0.0162513461 -0.0202412289 -0.020218201 -0.023240421 -0.0242997557 -0.045007091 -0.0232500583 -0.029595213 -0.0357766636 -0.0205514729 -0.0214708056 -0.0349658616 -0.0195281468 0.00491264835 -0.0209648758 -0.0177542716 -0.0131414616 -0.0226394609 -0.0232347306 0.00667277258 -0.0126648694 -0.0212726668 0.0213671885 -0.0436653718 -0.0182306357 0.0260895826 -0.034429241 -0.0231220163 0.0226350762 -0.0262539648 -0.0212726668 0.0213671885 -0.0436653718 -0.0182306357 0.0260895826 -0.034429241 -0.0232490003 0.0256249327 -0.0482385531 -0.0182840563 -0.00452462956 -0.0682813376 -0.0232467074 -0.0145595288 -0.0798633695 -0.0197270997 -0.0182113592 -0.0549025945 -0.0197270997 -0.0182113592 -0.0549025945 -0.023240421 -0.0242997557 -0.045007091 -0.0205514729 -0.0214708056 -0.0349658616 -0.023233423 -0.00287447893 -0.0695922449 -0.0197270997 -0.0182113592 -0.0549025945 -0.0229128469 0.00363384397 -0.0637956038 -0.0208831709 0.0180247352 -0.0544097163 -0.0217437483 0.0148070473 -0.0599353723 -0.018934153 0.0136802131 -0.0583306439 -0.0231220163 0.0226350762 -0.0262539648 -0.0195281468 0.00491264835 -0.0209648758 -0.0232347306 0.00667277258 -0.0126648694 -0.0209956132 0.0152792605 -0.105982162 -0.0231781453 0.0193032399 -0.117789157 -0.0230162721 0.0109209102 -0.128658578 -0.0212606285 -0.0160714611 -0.102716297 -0.0162958112 -0.0158128291 -0.119777896 -0.0226165354 -0.0132197943 -0.129117265 -0.0212606285 -0.0160714611 -0.102716297 -0.0225093663 -0.00649161637 -0.0983568579 -0.0162958112 -0.0158128291 -0.119777896 -0.0209956132 0.0152792605 -0.105982162 -0.0225093663 -0.00649161637 -0.0983568579 -0.0232474394 0.0109707555 -0.096814096 -0.0209956132 0.0152792605 -0.105982162 -0.0232474394 0.0109707555 -0.096814096 -0.0231781453 0.0193032399 -0.117789157 -0.0209956132 0.0152792605 -0.105982162 -0.0163074732 0.00450551277 -0.0986920893 -0.0225093663 -0.00649161637 -0.0983568579 -0.0212606285 -0.0160714611 -0.102716297 -0.0226165354 -0.0132197943 -0.129117265 -0.0232508238 -0.0242434461 -0.122703865 -0.0212606285 -0.0160714611 -0.102716297 -0.0232508238 -0.0242434461 -0.122703865 -0.0225093663 -0.00649161637 -0.0983568579 -0.0162958112 -0.0158128291 -0.119777896 -0.0162496213 -0.00783767365 -0.138804346 -0.0226165354 -0.0132197943 -0.129117265 -0.0162496213 -0.00783767365 -0.138804346 -0.0162826348 0.0106680254 -0.126065254 -0.0226165354 -0.0132197943 -0.129117265 -0.0163074732 0.00450551277 -0.0986920893 -0.0162958112 -0.0158128291 -0.119777896 -0.0225093663 -0.00649161637 -0.0983568579 -0.0163074732 0.00450551277 -0.0986920893 -0.0162826348 0.0106680254 -0.126065254 -0.0162495021 0.0240349993 -0.123245612 -0.0231220163 0.0226350762 -0.0262539648 -0.0182306357 0.0260895826 -0.034429241 -0.0195281468 0.00491264835 -0.0209648758 -0.0208831709 0.0180247352 -0.0544097163 -0.018934153 0.0136802131 -0.0583306439 -0.0182238761 0.0200426821 -0.0592508763 -0.0208831709 0.0180247352 -0.0544097163 -0.0182238761 0.0200426821 -0.0592508763 -0.0212726668 0.0213671885 -0.0436653718 -0.0212726668 0.0213671885 -0.0436653718 -0.0182238761 0.0200426821 -0.0592508763 -0.0182306357 0.0260895826 -0.034429241 -0.0182238761 0.0200426821 -0.0592508763 -0.0229128469 0.00363384397 -0.0637956038 -0.0197270997 -0.0182113592 -0.0549025945 -0.018934153 0.0136802131 -0.0583306439 -0.0229128469 0.00363384397 -0.0637956038 -0.0182238761 0.0200426821 -0.0592508763 -0.018934153 0.0136802131 -0.0583306439 -0.0217437483 0.0148070473 -0.0599353723 -0.0232490003 0.0256249327 -0.0482385531 -0.018934153 0.0136802131 -0.0583306439 -0.0232490003 0.0256249327 -0.0482385531 -0.0229128469 0.00363384397 -0.0637956038 -0.0212726668 0.0213671885 -0.0436653718 -0.0231220163 0.0226350762 -0.0262539648 -0.0232504737 0.029452363 -0.038616661 -0.0212726668 0.0213671885 -0.0436653718 -0.0232504737 0.029452363 -0.038616661 -0.0232490003 0.0256249327 -0.0482385531 -0.0208831709 0.0180247352 -0.0544097163 -0.0232490003 0.0256249327 -0.0482385531 -0.0217437483 0.0148070473 -0.0599353723 -0.0208831709 0.0180247352 -0.0544097163 -0.0212726668 0.0213671885 -0.0436653718 -0.0232490003 0.0256249327 -0.0482385531 -0.018245481 -0.0222568475 -0.0570665374 -0.0197270997 -0.0182113592 -0.0549025945 -0.0232467074 -0.0145595288 -0.0798633695 -0.0197270997 -0.0182113592 -0.0549025945 -0.0232467074 -0.0145595288 -0.0798633695 -0.0229385663 -0.0239976812 -0.0742483661 -0.023233423 -0.00287447893 -0.0695922449 -0.0232467074 -0.0145595288 -0.0798633695 -0.0197270997 -0.0182113592 -0.0549025945 -0.0182840563 -0.00452462956 -0.0682813376 -0.0222995933 0.00260192808 -0.0750268847 -0.0229128469 0.00363384397 -0.0637956038 -0.023233423 -0.00287447893 -0.0695922449 -0.0229128469 0.00363384397 -0.0637956038 -0.0222995933 0.00260192808 -0.0750268847 -0.0205514729 -0.0214708056 -0.0349658616 -0.0232507661 -0.0162884183 -0.0175619647 -0.0177542716 -0.0131414616 -0.0226394609 -0.0162500273 0.0291277487 -0.0443410389 -0.0162495021 0.0240349993 -0.123245612 -0.0232499987 0.0247102268 -0.118506618 -0.0162500273 0.0291277487 -0.0443410389 -0.0232499987 0.0247102268 -0.118506618 -0.0232504737 0.029452363 -0.038616661 -0.0162499994 -0.0242542848 -0.123231962 -0.0232500583 -0.029595213 -0.0357766636 -0.0232508238 -0.0242434461 -0.122703865 -0.0162487235 -0.029408155 -0.0391303934 -0.0232500583 -0.029595213 -0.0357766636 -0.0162499994 -0.0242542848 -0.123231962 -0.0162429381 0.0283972658 -0.0353717692 -0.0162500273 0.0291277487 -0.0443410389 -0.0232504737 0.029452363 -0.038616661 -0.0231220163 0.0226350762 -0.0262539648 -0.0162429381 0.0283972658 -0.0353717692 -0.0232504737 0.029452363 -0.038616661 -0.0231220163 0.0226350762 -0.0262539648 -0.0162499994 0.0189047251 -0.0190505534 -0.0162429381 0.0283972658 -0.0353717692 -0.0231220163 0.0226350762 -0.0262539648 -0.0232347306 0.00667277258 -0.0126648694 -0.0162499994 0.0189047251 -0.0190505534 -0.0162580032 0.000236718508 -0.0125971027 -0.0162499994 0.0189047251 -0.0190505534 -0.0232347306 0.00667277258 -0.0126648694 -0.0162513461 -0.0202412289 -0.020218201 -0.0232500583 -0.029595213 -0.0357766636 -0.0162487235 -0.029408155 -0.0391303934 -0.0162513461 -0.0202412289 -0.020218201 -0.0232507661 -0.0162884183 -0.0175619647 -0.0232500583 -0.029595213 -0.0357766636 -0.0162580032 0.000236718508 -0.0125971027 -0.0232507661 -0.0162884183 -0.0175619647 -0.0162513461 -0.0202412289 -0.020218201 -0.0162580032 0.000236718508 -0.0125971027 -0.0232347306 0.00667277258 -0.0126648694 -0.0232507661 -0.0162884183 -0.0175619647 -0.0205317046 0.00692864228 -0.0824998692 -0.0163030438 0.0120451609 -0.0824383944 -0.0232499987 0.0129283331 -0.0734212771 -0.00249076611 0.00215146272 -4.29263173e-06 0.00267189741 -0.0161332414 -0.00599125819 0.00239608297 0.0260772649 7.91773782e-05 0.00980020966 0.00560335116 -7.19370146e-05 0.0150586469 0.021004701 -0.00404971326 0.00239608297 0.0260772649 7.91773782e-05 0.0224765316 -0.00505389366 -0.000329554081 0.0150586469 0.021004701 -0.00404971326 0.00980020966 0.00560335116 -7.19370146e-05 0.00972662494 -0.0231317692 0.00102494145 0.0224765316 -0.00505389366 -0.000329554081 0.00841207523 -0.0016738266 -0.0001474038 -0.00938659161 -0.0218284633 5.19257867e-07 0.00972662494 -0.0231317692 0.00102494145 0.00841207523 -0.0016738266 -0.0001474038 -0.00938659161 -0.0218284633 5.19257867e-07 0.00267189741 -0.0161332414 -0.00599125819 0.00972662494 -0.0231317692 0.00102494145 -0.0183868315 -0.0125068212 -0.00141594606 -0.00938659161 -0.0218284633 5.19257867e-07 -0.00837311614 0.000548518321 -1.03862367e-05 -0.0247518718 0.000123985257 0.000974261027 -0.0183868315 -0.0125068212 -0.00141594606 -0.00837311614 0.000548518321 -1.03862367e-05 -0.0216142554 0.0141932759 -0.00322598871 -0.0247518718 0.000123985257 0.000974261027 -0.00837311614 0.000548518321 -1.03862367e-05 -0.0123788128 0.0222983342 0.000828782329 -0.0216142554 0.0141932759 -0.00322598871 -0.00837311614 0.000548518321 -1.03862367e-05 -0.014849795 0.0148464125 -0.00421554828 -0.00837311614 0.000548518321 -1.03862367e-05 -0.0123788128 0.0222983342 0.000828782329 -0.00837311614 0.000548518321 -1.03862367e-05 -0.00938659161 -0.0218284633 5.19257867e-07 -0.00249076611 0.00215146272 -4.29263173e-06 -0.00837311614 0.000548518321 -1.03862367e-05 -0.00249076611 0.00215146272 -4.29263173e-06 0.00239608297 0.0260772649 7.91773782e-05 -0.00938659161 -0.0218284633 5.19257867e-07 0.00841207523 -0.0016738266 -0.0001474038 0.00267189741 -0.0161332414 -0.00599125819 -0.0011843777 -0.025895007 -0.00594125409 0.00972662494 -0.0231317692 0.00102494145 -0.00938659161 -0.0218284633 5.19257867e-07 -0.0123788128 0.0222983342 0.000828782329 -0.00837311614 0.000548518321 -1.03862367e-05 0.00239608297 0.0260772649 7.91773782e-05 0.00841207523 -0.0016738266 -0.0001474038 0.0224765316 -0.00505389366 -0.000329554081 0.00980020966 0.00560335116 -7.19370146e-05 -0.00938659161 -0.0218284633 5.19257867e-07 0.00267189741 -0.0161332414 -0.00599125819 -0.00249076611 0.00215146272 -4.29263173e-06 0.00247783284 0.0171262827 -0.0175551604 0.00239608297 0.0260772649 7.91773782e-05 0.00267189741 -0.0161332414 -0.00599125819 0.00247783284 0.0171262827 -0.0175551604 0.00980020966 0.00560335116 -7.19370146e-05 0.00239608297 0.0260772649 7.91773782e-05 0.00256559299 -0.01163032 -0.0147103956 0.00247783284 0.0171262827 -0.0175551604 0.00267189741 -0.0161332414 -0.00599125819 -0.00247263396 0.0246265959 -0.0336727016 -0.00249790959 -0.00343546038 -0.0154032549 -0.00249076611 0.00215146272 -4.29263173e-06 -0.00246823276 -0.0192411691 -0.0237856563 -0.00249076611 0.00215146272 -4.29263173e-06 -0.00249790959 -0.00343546038 -0.0154032549 -0.00264293887 0.0190548524 -0.00601455476 -0.00249450677 0.0269707013 -0.0310835466 -0.00249076611 0.00215146272 -4.29263173e-06 -0.00249450677 0.0269707013 -0.0310835466 -0.00247263396 0.0246265959 -0.0336727016 -0.00249076611 0.00215146272 -4.29263173e-06 -0.00241001672 0.0214539301 -0.0630903244 -0.00247263396 0.0246265959 -0.0336727016 -0.00249206834 0.0293390136 -0.045053985 -0.00232079299 -0.0141531369 -0.0644519031 -0.00232282188 0.000403831684 -0.0688791797 -0.00234838855 0.00159531378 -0.0721381754 -0.00248501939 -0.0155749554 -0.066909261 -0.00232079299 -0.0141531369 -0.0644519031 -0.00234838855 0.00159531378 -0.0721381754 -0.00249206834 0.0293390136 -0.045053985 -0.00247263396 0.0246265959 -0.0336727016 -0.00249450677 0.0269707013 -0.0310835466 -0.00252029439 -0.0272285976 -0.0529090166 -0.00248501939 -0.0155749554 -0.066909261 0.0123869022 -0.0148574468 -0.0674993321 0.0110668782 -0.0198315568 -0.0209842697 0.00256559299 -0.01163032 -0.0147103956 -0.0025186392 -0.0272874776 -0.0317736119 -0.0025186392 -0.0272874776 -0.0317736119 0.00256559299 -0.01163032 -0.0147103956 -0.00246823276 -0.0192411691 -0.0237856563 0.00441283872 0.00285349553 -0.0152400862 0.00247783284 0.0171262827 -0.0175551604 0.00256559299 -0.01163032 -0.0147103956 0.012450248 0.0292822216 -0.0482775234 0.0125161335 0.00546874711 -0.0718272999 -0.00241001672 0.0214539301 -0.0630903244 0.0126850735 -0.0269899592 -0.0313897021 0.0110668782 -0.0198315568 -0.0209842697 -0.0025186392 -0.0272874776 -0.0317736119 0.0124735925 -0.0288549159 -0.0492731892 0.0126850735 -0.0269899592 -0.0313897021 -0.0025186392 -0.0272874776 -0.0317736119 0.0124735925 -0.0288549159 -0.0492731892 -0.0025186392 -0.0272874776 -0.0317736119 -0.00252029439 -0.0272285976 -0.0529090166 0.0124735925 -0.0288549159 -0.0492731892 -0.00252029439 -0.0272285976 -0.0529090166 0.0123869022 -0.0148574468 -0.0674993321 0.0125161335 0.00546874711 -0.0718272999 0.0123869022 -0.0148574468 -0.0674993321 -0.00234838855 0.00159531378 -0.0721381754 0.0123869022 -0.0148574468 -0.0674993321 -0.00248501939 -0.0155749554 -0.066909261 -0.00234838855 0.00159531378 -0.0721381754 0.0125161335 0.00546874711 -0.0718272999 -0.00234838855 0.00159531378 -0.0721381754 -0.00241001672 0.0214539301 -0.0630903244 0.012450248 0.0292822216 -0.0482775234 -0.00241001672 0.0214539301 -0.0630903244 -0.00249206834 0.0293390136 -0.045053985 0.0128523847 0.0262517128 -0.0295393728 0.012450248 0.0292822216 -0.0482775234 -0.00249450677 0.0269707013 -0.0310835466 0.012450248 0.0292822216 -0.0482775234 -0.00249206834 0.0293390136 -0.045053985 -0.00249450677 0.0269707013 -0.0310835466 0.0126850735 -0.0269899592 -0.0313897021 -0.00246823276 -0.0192411691 -0.0237856563 -0.00249790959 -0.00343546038 -0.0154032549 -0.0247412808 0.00626191543 -0.00600037444 -0.0216142554 0.0141932759 -0.00322598871 -0.00264293887 0.0190548524 -0.00601455476 0.0257476643 -7.50983309e-05 -0.00598581648 0.00267189741 -0.0161332414 -0.00599125819 0.0150586469 0.021004701 -0.00404971326 0.00340427551 0.00566436443 -0.00636995444 0.0150586469 0.021004701 -0.00404971326 0.00267189741 -0.0161332414 -0.00599125819 0.00340427551 0.00566436443 -0.00636995444 -0.00264293887 0.0190548524 -0.00601455476 0.0150586469 0.021004701 -0.00404971326 0.00796539616 0.0192999057 -0.000101554768 0.00340427551 0.00566436443 -0.00636995444 0.0150586469 0.021004701 -0.00404971326 0.00340427551 0.00566436443 -0.00636995444 0.00267189741 -0.0161332414 -0.00599125819 0.00841207523 -0.0016738266 -0.0001474038 -0.00866262801 -0.00385301583 -0.00588646531 -0.0247412808 0.00626191543 -0.00600037444 -0.00264293887 0.0190548524 -0.00601455476 0.0191241186 -0.018206276 -0.00590504333 0.00267189741 -0.0161332414 -0.00599125819 0.0257476643 -7.50983309e-05 -0.00598581648 -0.00866262801 -0.00385301583 -0.00588646531 -0.0011843777 -0.025895007 -0.00594125409 -0.0247412808 0.00626191543 -0.00600037444 0.0128523847 0.0262517128 -0.0295393728 -0.00249450677 0.0269707013 -0.0310835466 0.00247783284 0.0171262827 -0.0175551604 -0.00264293887 0.0190548524 -0.00601455476 0.00247783284 0.0171262827 -0.0175551604 -0.00249450677 0.0269707013 -0.0310835466 -0.00246823276 -0.0192411691 -0.0237856563 0.00256559299 -0.01163032 -0.0147103956 0.00267189741 -0.0161332414 -0.00599125819 -0.00866262801 -0.00385301583 -0.00588646531 -0.00837311614 0.000548518321 -1.03862367e-05 -0.00249076611 0.00215146272 -4.29263173e-06 -0.00866262801 -0.00385301583 -0.00588646531 -0.00249076611 0.00215146272 -4.29263173e-06 -0.0011843777 -0.025895007 -0.00594125409 -0.00246823276 -0.0192411691 -0.0237856563 -0.0011843777 -0.025895007 -0.00594125409 -0.00249076611 0.00215146272 -4.29263173e-06 0.00340427551 0.00566436443 -0.00636995444 0.00980020966 0.00560335116 -7.19370146e-05 0.00247783284 0.0171262827 -0.0175551604 0.00690277712 0.0172065292 -0.021626316 0.00247783284 0.0171262827 -0.0175551604 0.00441283872 0.00285349553 -0.0152400862 0.00690277712 0.0172065292 -0.021626316 0.0128523847 0.0262517128 -0.0295393728 0.00247783284 0.0171262827 -0.0175551604 0.0126850735 -0.0269899592 -0.0313897021 0.00256559299 -0.01163032 -0.0147103956 0.0110668782 -0.0198315568 -0.0209842697 -0.00264293887 0.0190548524 -0.00601455476 -0.00249076611 0.00215146272 -4.29263173e-06 -0.00837311614 0.000548518321 -1.03862367e-05 0.0191241186 -0.018206276 -0.00590504333 0.00972662494 -0.0231317692 0.00102494145 -0.0011843777 -0.025895007 -0.00594125409 -0.0234095622 -0.011380516 0.0018710274 -0.0247518718 0.000123985257 0.000974261027 -0.0247412808 0.00626191543 -0.00600037444 -0.00246823276 -0.0192411691 -0.0237856563 0.00267189741 -0.0161332414 -0.00599125819 -0.0011843777 -0.025895007 -0.00594125409 0.00340427551 0.00566436443 -0.00636995444 0.00247783284 0.0171262827 -0.0175551604 -0.00264293887 0.0190548524 -0.00601455476 0.0233537201 0.0111853257 0.00174443412 0.0224765316 -0.00505389366 -0.000329554081 0.00972662494 -0.0231317692 0.00102494145 0.0233537201 0.0111853257 0.00174443412 0.0150586469 0.021004701 -0.00404971326 0.0224765316 -0.00505389366 -0.000329554081 -0.0234095622 -0.011380516 0.0018710274 -0.00938659161 -0.0218284633 5.19257867e-07 -0.0183868315 -0.0125068212 -0.00141594606 -0.0234095622 -0.011380516 0.0018710274 -0.0183868315 -0.0125068212 -0.00141594606 -0.0247518718 0.000123985257 0.000974261027 -0.0234095622 -0.011380516 0.0018710274 0.00972662494 -0.0231317692 0.00102494145 -0.00938659161 -0.0218284633 5.19257867e-07 -0.0128968675 -0.0225996897 -0.0017228924 -0.0011843777 -0.025895007 -0.00594125409 -0.0234095622 -0.011380516 0.0018710274 -0.0247412808 0.00626191543 -0.00600037444 -0.0247518718 0.000123985257 0.000974261027 -0.0216142554 0.0141932759 -0.00322598871 0.0233537201 0.0111853257 0.00174443412 0.0191241186 -0.018206276 -0.00590504333 0.0257476643 -7.50983309e-05 -0.00598581648 0.0233537201 0.0111853257 0.00174443412 0.00972662494 -0.0231317692 0.00102494145 0.0191241186 -0.018206276 -0.00590504333 -0.0234095622 -0.011380516 0.0018710274 -0.0011843777 -0.025895007 -0.00594125409 0.00972662494 -0.0231317692 0.00102494145 0.00690277712 0.0172065292 -0.021626316 -0.00249790959 -0.00343546038 -0.0154032549 -0.00247263396 0.0246265959 -0.0336727016 0.00390480435 0.0257013906 -0.0481251068 -0.00247263396 0.0246265959 -0.0336727016 -0.00241001672 0.0214539301 -0.0630903244 0.0023334627 0.0168271549 -0.0629126206 0.00390480435 0.0257013906 -0.0481251068 -0.00241001672 0.0214539301 -0.0630903244 0.0023334627 0.0168271549 -0.0629126206 -0.00241001672 0.0214539301 -0.0630903244 -0.00234838855 0.00159531378 -0.0721381754 0.0023334627 0.0168271549 -0.0629126206 -0.00234838855 0.00159531378 -0.0721381754 -0.00232282188 0.000403831684 -0.0688791797 0.0028377641 -0.027325172 -0.0418158174 -0.00248501939 -0.0155749554 -0.066909261 -0.00252029439 -0.0272285976 -0.0529090166 -0.00150909356 -0.0261520129 -0.0399234407 0.0028377641 -0.027325172 -0.0418158174 -0.00252029439 -0.0272285976 -0.0529090166 -0.00150909356 -0.0261520129 -0.0399234407 -0.00252029439 -0.0272285976 -0.0529090166 -0.0025186392 -0.0272874776 -0.0317736119 -0.00150909356 -0.0261520129 -0.0399234407 -0.0025186392 -0.0272874776 -0.0317736119 0.0028377641 -0.027325172 -0.0418158174 0.0028377641 -0.027325172 -0.0418158174 -0.0025186392 -0.0272874776 -0.0317736119 -0.00246823276 -0.0192411691 -0.0237856563 0.0128523847 0.0262517128 -0.0295393728 -0.00247263396 0.0246265959 -0.0336727016 0.012450248 0.0292822216 -0.0482775234 0.00390480435 0.0257013906 -0.0481251068 0.012450248 0.0292822216 -0.0482775234 -0.00247263396 0.0246265959 -0.0336727016 0.0023334627 0.0168271549 -0.0629126206 0.012450248 0.0292822216 -0.0482775234 0.00390480435 0.0257013906 -0.0481251068 0.0023334627 0.0168271549 -0.0629126206 0.0125161335 0.00546874711 -0.0718272999 0.012450248 0.0292822216 -0.0482775234 0.0023334627 0.0168271549 -0.0629126206 -0.00232282188 0.000403831684 -0.0688791797 0.0125161335 0.00546874711 -0.0718272999 0.0125161335 0.00546874711 -0.0718272999 -0.00232282188 0.000403831684 -0.0688791797 0.0123869022 -0.0148574468 -0.0674993321 0.0123869022 -0.0148574468 -0.0674993321 -0.00232282188 0.000403831684 -0.0688791797 -0.00232079299 -0.0141531369 -0.0644519031 0.0123869022 -0.0148574468 -0.0674993321 -0.00232079299 -0.0141531369 -0.0644519031 -0.00248501939 -0.0155749554 -0.066909261 0.0124735925 -0.0288549159 -0.0492731892 0.0123869022 -0.0148574468 -0.0674993321 -0.00248501939 -0.0155749554 -0.066909261 0.0028377641 -0.027325172 -0.0418158174 0.0124735925 -0.0288549159 -0.0492731892 -0.00248501939 -0.0155749554 -0.066909261 0.0028377641 -0.027325172 -0.0418158174 0.0126850735 -0.0269899592 -0.0313897021 0.0124735925 -0.0288549159 -0.0492731892 0.0028377641 -0.027325172 -0.0418158174 -0.00246823276 -0.0192411691 -0.0237856563 0.0126850735 -0.0269899592 -0.0313897021 0.0126850735 -0.0269899592 -0.0313897021 -0.00249790959 -0.00343546038 -0.0154032549 0.00256559299 -0.01163032 -0.0147103956 0.00690277712 0.0172065292 -0.021626316 -0.00247263396 0.0246265959 -0.0336727016 0.0128523847 0.0262517128 -0.0295393728 0.00441283872 0.00285349553 -0.0152400862 0.00256559299 -0.01163032 -0.0147103956 -0.00249790959 -0.00343546038 -0.0154032549 0.00690277712 0.0172065292 -0.021626316 0.00441283872 0.00285349553 -0.0152400862 -0.00249790959 -0.00343546038 -0.0154032549 -0.0077635576 -0.0187552013 -0.00279374653 -0.00938659161 -0.0218284633 5.19257867e-07 -0.00866262801 -0.00385301583 -0.00588646531 -0.00866262801 -0.00385301583 -0.00588646531 -0.00264293887 0.0190548524 -0.00601455476 -0.00837311614 0.000548518321 -1.03862367e-05 0.00340427551 0.00566436443 -0.00636995444 0.00841207523 -0.0016738266 -0.0001474038 0.00980020966 0.00560335116 -7.19370146e-05 0.0191241186 -0.018206276 -0.00590504333 -0.0011843777 -0.025895007 -0.00594125409 0.00267189741 -0.0161332414 -0.00599125819 -0.0128968675 -0.0225996897 -0.0017228924 -0.0247412808 0.00626191543 -0.00600037444 -0.0011843777 -0.025895007 -0.00594125409 -0.0128968675 -0.0225996897 -0.0017228924 -0.0234095622 -0.011380516 0.0018710274 -0.0247412808 0.00626191543 -0.00600037444 0.0233537201 0.0111853257 0.00174443412 0.0257476643 -7.50983309e-05 -0.00598581648 0.0150586469 0.021004701 -0.00404971326 -0.00264293887 0.0190548524 -0.00601455476 0.00239608297 0.0260772649 7.91773782e-05 0.0150586469 0.021004701 -0.00404971326 -0.00264293887 0.0190548524 -0.00601455476 -0.0123788128 0.0222983342 0.000828782329 0.00239608297 0.0260772649 7.91773782e-05 -0.00264293887 0.0190548524 -0.00601455476 -0.0216142554 0.0141932759 -0.00322598871 -0.0123788128 0.0222983342 0.000828782329 -0.0248361472 -0.00993896089 -0.0625389293 -0.0283881631 -0.0228696708 -0.0435912199 -0.0282453559 -0.0123251863 -0.0417607799 -0.0253576618 0.0151035432 -0.059824761 -0.0248361472 -0.00993896089 -0.0625389293 -0.0282453559 -0.0123251863 -0.0417607799 -0.0255279206 0.0221151598 -0.0378516503 -0.0253576618 0.0151035432 -0.059824761 -0.0282453559 -0.0123251863 -0.0417607799 -0.0271726064 0.00132464874 -0.0300280806 -0.0255279206 0.0221151598 -0.0378516503 -0.0282453559 -0.0123251863 -0.0417607799 -0.0281954538 0.00279082288 -0.0198527128 -0.0282453559 -0.0123251863 -0.0417607799 -0.0258905087 -0.0103045255 -0.0229712557 -0.0258905087 -0.0103045255 -0.0229712557 -0.0282453559 -0.0123251863 -0.0417607799 -0.0283881631 -0.0228696708 -0.0435912199 -0.0256179832 0.00824611541 -0.0467089862 -0.0258685146 -0.00947509427 -0.0366119333 -0.0271726064 0.00132464874 -0.0300280806 -0.0261825752 -0.00698913448 -0.0522135161 -0.0256179832 0.00824611541 -0.0467089862 -0.0282453559 -0.0123251863 -0.0417607799 -0.0281954538 0.00279082288 -0.0198527128 -0.0271726064 0.00132464874 -0.0300280806 -0.0282453559 -0.0123251863 -0.0417607799 -0.0256179832 0.00824611541 -0.0467089862 -0.0271726064 0.00132464874 -0.0300280806 -0.0282453559 -0.0123251863 -0.0417607799 -0.0256179832 0.00824611541 -0.0467089862 -0.0253576618 0.0151035432 -0.059824761 -0.0255279206 0.0221151598 -0.0378516503 -0.0256179832 0.00824611541 -0.0467089862 -0.0251767635 -0.020807812 -0.0345508792 -0.0248361472 -0.00993896089 -0.0625389293 -0.0271726064 0.00132464874 -0.0300280806 -0.0255279206 0.0221151598 -0.0378516503 -0.0232952926 0.0133602479 -0.0250673033 -0.0271726064 0.00132464874 -0.0300280806 -0.0232952926 0.0133602479 -0.0250673033 -0.0251767635 -0.020807812 -0.0345508792 -0.0258905087 -0.0103045255 -0.0229712557 -0.0251767635 -0.020807812 -0.0345508792 -0.0232952926 0.0133602479 -0.0250673033 -0.0261825752 -0.00698913448 -0.0522135161 -0.0256179832 0.00824611541 -0.0467089862 -0.0258685146 -0.00947509427 -0.0366119333 -0.0261825752 -0.00698913448 -0.0522135161 -0.0251767635 -0.020807812 -0.0345508792 -0.0256179832 0.00824611541 -0.0467089862 -0.0258685146 -0.00947509427 -0.0366119333 -0.0251767635 -0.020807812 -0.0345508792 -0.0282453559 -0.0123251863 -0.0417607799 -0.0258685146 -0.00947509427 -0.0366119333 -0.0271726064 0.00132464874 -0.0300280806 -0.0251767635 -0.020807812 -0.0345508792 -0.0256179832 0.00824611541 -0.0467089862 -0.0255279206 0.0221151598 -0.0378516503 -0.0271726064 0.00132464874 -0.0300280806 -0.0256179832 0.00824611541 -0.0467089862 -0.0248361472 -0.00993896089 -0.0625389293 -0.0253576618 0.0151035432 -0.059824761 -0.0258905087 -0.0103045255 -0.0229712557 -0.0283881631 -0.0228696708 -0.0435912199 -0.0251767635 -0.020807812 -0.0345508792 -0.0281954538 0.00279082288 -0.0198527128 -0.0255279206 0.0221151598 -0.0378516503 -0.0271726064 0.00132464874 -0.0300280806 -0.0281954538 0.00279082288 -0.0198527128 -0.0232952926 0.0133602479 -0.0250673033 -0.0255279206 0.0221151598 -0.0378516503 -0.0281954538 0.00279082288 -0.0198527128 -0.0258905087 -0.0103045255 -0.0229712557 -0.0232952926 0.0133602479 -0.0250673033 -0.0248361472 -0.00993896089 -0.0625389293 -0.0251767635 -0.020807812 -0.0345508792 -0.0283881631 -0.0228696708 -0.0435912199 -0.0261825752 -0.00698913448 -0.0522135161 -0.0282453559 -0.0123251863 -0.0417607799 -0.0251767635 -0.020807812 -0.0345508792 -0.0258685146 -0.00947509427 -0.0366119333 -0.0282453559 -0.0123251863 -0.0417607799 -0.0271726064 0.00132464874 -0.0300280806 -0.0274452046 -0.00352449832 -0.127536133 -0.0262503829 -0.00614550337 -0.137374997 -0.0262662377 0.0165981334 -0.116053626 -0.0265131425 0.0116069671 -0.108991913 -0.027114613 0.0151399039 -0.0993821621 -0.0262478944 -0.00474083889 -0.0941554308 -0.0259878989 -0.00953211263 -0.119755693 -0.0262503829 -0.00614550337 -0.137374997 -0.0274452046 -0.00352449832 -0.127536133 -0.0262503158 -0.021296991 -0.107084267 -0.0262503829 -0.00614550337 -0.137374997 -0.0259878989 -0.00953211263 -0.119755693 -0.0262503158 -0.021296991 -0.107084267 -0.0259878989 -0.00953211263 -0.119755693 -0.0262478944 -0.00474083889 -0.0941554308 -0.0240362883 -0.00519559253 -0.104672529 -0.0265131425 0.0116069671 -0.108991913 -0.0262478944 -0.00474083889 -0.0941554308 -0.0223553684 0.00276971096 -0.118835852 -0.0259878989 -0.00953211263 -0.119755693 -0.0274452046 -0.00352449832 -0.127536133 -0.0282494221 0.000172831657 -0.0910043195 -0.0262662377 0.0165981334 -0.116053626 -0.0274452046 -0.00352449832 -0.127536133 -0.0282457061 0.0109951459 -0.134531528 -0.0274452046 -0.00352449832 -0.127536133 -0.0282494221 0.000172831657 -0.0910043195 -0.0282457061 0.0109951459 -0.134531528 -0.0282494221 0.000172831657 -0.0910043195 -0.0265131425 0.0116069671 -0.108991913 -0.0280580427 -0.00164407853 -0.10995429 -0.0223553684 0.00276971096 -0.118835852 -0.0274452046 -0.00352449832 -0.127536133 -0.0282494221 0.000172831657 -0.0910043195 -0.0274452046 -0.00352449832 -0.127536133 -0.0223553684 0.00276971096 -0.118835852 -0.0280580427 -0.00164407853 -0.10995429 -0.0282494221 0.000172831657 -0.0910043195 -0.0223553684 0.00276971096 -0.118835852 -0.0265131425 0.0116069671 -0.108991913 -0.027114613 0.0151399039 -0.0993821621 -0.0262662377 0.0165981334 -0.116053626 -0.0280580427 -0.00164407853 -0.10995429 -0.0282494221 0.000172831657 -0.0910043195 -0.0265131425 0.0116069671 -0.108991913 -0.0280580427 -0.00164407853 -0.10995429 -0.0282494221 0.000172831657 -0.0910043195 -0.0240362883 -0.00519559253 -0.104672529 -0.0282646473 -0.0193795227 -0.119608149 -0.0282494221 0.000172831657 -0.0910043195 -0.0280580427 -0.00164407853 -0.10995429 -0.0282646473 -0.0193795227 -0.119608149 -0.0280580427 -0.00164407853 -0.10995429 -0.0274452046 -0.00352449832 -0.127536133 -0.0223553684 0.00276971096 -0.118835852 -0.0240362883 -0.00519559253 -0.104672529 -0.0259878989 -0.00953211263 -0.119755693 -0.0223553684 0.00276971096 -0.118835852 -0.0262662377 0.0165981334 -0.116053626 -0.0265131425 0.0116069671 -0.108991913 -0.0223553684 0.00276971096 -0.118835852 -0.0265131425 0.0116069671 -0.108991913 -0.0240362883 -0.00519559253 -0.104672529 -0.0282494221 0.000172831657 -0.0910043195 -0.0262478944 -0.00474083889 -0.0941554308 -0.027114613 0.0151399039 -0.0993821621 -0.0282457061 0.0109951459 -0.134531528 -0.0262662377 0.0165981334 -0.116053626 -0.0262503829 -0.00614550337 -0.137374997 -0.0282646473 -0.0193795227 -0.119608149 -0.0262503829 -0.00614550337 -0.137374997 -0.0262503158 -0.021296991 -0.107084267 -0.0283103865 -0.0180737916 -0.111918353 -0.0282646473 -0.0193795227 -0.119608149 -0.0262503158 -0.021296991 -0.107084267 -0.0282457061 0.0109951459 -0.134531528 -0.0265131425 0.0116069671 -0.108991913 -0.0262662377 0.0165981334 -0.116053626 -0.0283103865 -0.0180737916 -0.111918353 -0.0262478944 -0.00474083889 -0.0941554308 -0.0282494221 0.000172831657 -0.0910043195 -0.0283103865 -0.0180737916 -0.111918353 -0.0262503158 -0.021296991 -0.107084267 -0.0262478944 -0.00474083889 -0.0941554308 -0.0282646473 -0.0193795227 -0.119608149 -0.0274452046 -0.00352449832 -0.127536133 -0.0262503829 -0.00614550337 -0.137374997 -0.0282457061 0.0109951459 -0.134531528 -0.0262503829 -0.00614550337 -0.137374997 -0.0274452046 -0.00352449832 -0.127536133 -0.0240362883 -0.00519559253 -0.104672529 -0.0262478944 -0.00474083889 -0.0941554308 -0.0259878989 -0.00953211263 -0.119755693 -0.0223553684 0.00276971096 -0.118835852 -0.0274452046 -0.00352449832 -0.127536133 -0.0262662377 0.0165981334 -0.116053626 -0.0282646473 -0.0193795227 -0.119608149 -0.0262503158 -0.021296991 -0.107084267 -0.0262478944 -0.00474083889 -0.0941554308 -0.0282646473 -0.0193795227 -0.119608149 -0.0262478944 -0.00474083889 -0.0941554308 -0.0282494221 0.000172831657 -0.0910043195 -0.0282494221 0.000172831657 -0.0910043195 -0.027114613 0.0151399039 -0.0993821621 -0.0265131425 0.0116069671 -0.108991913 -0.00419250363 -0.0211208314 -0.0228948351 -0.00318504986 0.0307867061 -0.0416147336 -0.00342713972 -0.0128831295 -0.0675651655 0.0356499963 -0.014630273 -0.0592915751 0.0356499963 -0.0162600502 -0.0536205582 0.0262499973 -0.0162279103 -0.058701735 0.0262499992 -0.0105233146 -0.0501675233 0.0262499973 -0.0162279103 -0.058701735 0.0356499963 -0.0162600502 -0.0536205582 0.0262499992 -0.0105233146 -0.0501675233 0.0356499963 -0.014630273 -0.0592915751 0.0262499973 -0.0162279103 -0.058701735 0.0262499992 -0.0105233146 -0.0501675233 0.0356499963 -0.0162600502 -0.0536205582 0.0356499963 -0.014630273 -0.0592915751 0.0356499963 -0.0181859639 -0.0539701954 0.0356499963 -0.0198157374 -0.0482991785 0.0262499973 -0.019783603 -0.0533803552 0.0262499973 -0.0140790073 -0.0448461436 0.0262499973 -0.019783603 -0.0533803552 0.0356499963 -0.0198157374 -0.0482991785 0.0262499973 -0.0140790073 -0.0448461436 0.0356499963 -0.0181859639 -0.0539701954 0.0262499973 -0.019783603 -0.0533803552 0.0262499973 -0.0140790073 -0.0448461436 0.0356499963 -0.0198157374 -0.0482991785 0.0356499963 -0.0181859639 -0.0539701954 -0.025159575 0.0112261502 -0.0591929406 -0.021306498 -0.00705522718 -0.0618501455 -0.0250507053 0.00377618009 -0.0470294021 -0.0227498244 0.00252747512 -0.0356477201 -0.0227495413 -0.00394487893 -0.036218375 0.0343051814 0.0010955194 -0.0352697372 -0.0227500014 0.00652506063 -0.0395805277 -0.0227497164 0.00505581172 -0.037332166 0.0338205583 0.00652176887 -0.0395773761 0.0337369218 0.00704812584 -0.0422162488 -0.0227500014 0.00652506063 -0.0395805277 0.0338205583 0.00652176887 -0.0395773761 -0.022746468 0.00660916464 -0.0453255177 -0.0227500014 0.00652506063 -0.0395805277 0.0337369218 0.00704812584 -0.0422162488 -0.0227498207 0.00249523576 -0.0489229113 -0.022746468 0.00660916464 -0.0453255177 0.0338704586 0.00508316327 -0.0471361279 -0.0227498412 -0.00619203737 -0.0457674377 -0.0227444042 -0.00284259883 -0.0487087183 0.0343278833 -0.00541678397 -0.0468538143 -0.0227408316 -0.000149566884 -0.0493165925 -0.0227498207 0.00249523576 -0.0489229113 0.0338704586 0.00508316327 -0.0471361279 0.0338205583 0.00652176887 -0.0395773761 -0.0227497164 0.00505581172 -0.037332166 0.0343051814 0.0010955194 -0.0352697372 -0.0227497164 0.00505581172 -0.037332166 -0.0227498244 0.00252747512 -0.0356477201 0.0343051814 0.0010955194 -0.0352697372 -0.0227327403 -0.00642598094 -0.0392699987 0.0343051814 0.0010955194 -0.0352697372 -0.0227495413 -0.00394487893 -0.036218375 -0.0227497164 -0.00705306325 -0.0422755294 0.0343278833 -0.00541678397 -0.0468538143 -0.0227327403 -0.00642598094 -0.0392699987 -0.0227497164 -0.00705306325 -0.0422755294 -0.0227498412 -0.00619203737 -0.0457674377 0.0343278833 -0.00541678397 -0.0468538143 0.0338704586 0.00508316327 -0.0471361279 -0.022746468 0.00660916464 -0.0453255177 0.0337369218 0.00704812584 -0.0422162488 -0.0227408316 -0.000149566884 -0.0493165925 0.0338704586 0.00508316327 -0.0471361279 0.0343278833 -0.00541678397 -0.0468538143 -0.0227408316 -0.000149566884 -0.0493165925 0.0343278833 -0.00541678397 -0.0468538143 -0.0227444042 -0.00284259883 -0.0487087183 0.0335273929 -0.00585557614 -0.0440109856 -0.0227327403 -0.00642598094 -0.0392699987 0.0343278833 -0.00541678397 -0.0468538143 0.0335273929 -0.00585557614 -0.0440109856 0.0343051814 0.0010955194 -0.0352697372 -0.0227327403 -0.00642598094 -0.0392699987 -0.023938844 -0.000133804017 -0.0483524464 0.0338704586 0.00508316327 -0.0471361279 -0.0250507053 0.00377618009 -0.0470294021 -0.0243810937 0.00569079723 -0.0443915762 -0.0250507053 0.00377618009 -0.0470294021 0.0338704586 0.00508316327 -0.0471361279 -0.0243810937 0.00569079723 -0.0443915762 0.0338704586 0.00508316327 -0.0471361279 0.0337369218 0.00704812584 -0.0422162488 -0.0125831496 0.00585546019 -0.0404883847 -0.0243810937 0.00569079723 -0.0443915762 0.0337369218 0.00704812584 -0.0422162488 -0.0125831496 0.00585546019 -0.0404883847 0.0337369218 0.00704812584 -0.0422162488 0.0338205583 0.00652176887 -0.0395773761 -0.0242145211 0.00356731634 -0.0373952091 0.0338205583 0.00652176887 -0.0395773761 -0.024445992 0.000204399068 -0.0361395739 -0.0242145211 0.00356731634 -0.0373952091 -0.0125831496 0.00585546019 -0.0404883847 0.0338205583 0.00652176887 -0.0395773761 -0.024445992 0.000204399068 -0.0361395739 0.0338205583 0.00652176887 -0.0395773761 0.0343051814 0.0010955194 -0.0352697372 -0.0240975376 -0.00500604277 -0.0384986848 -0.024445992 0.000204399068 -0.0361395739 0.0343051814 0.0010955194 -0.0352697372 -0.0240975376 -0.00500604277 -0.0384986848 0.0343051814 0.0010955194 -0.0352697372 0.0335273929 -0.00585557614 -0.0440109856 -0.0136343427 -0.00329382927 -0.0473261438 0.0335273929 -0.00585557614 -0.0440109856 0.0343278833 -0.00541678397 -0.0468538143 -0.0136343427 -0.00329382927 -0.0473261438 0.0343278833 -0.00541678397 -0.0468538143 -0.023938844 -0.000133804017 -0.0483524464 -0.023938844 -0.000133804017 -0.0483524464 0.0343278833 -0.00541678397 -0.0468538143 0.0338704586 0.00508316327 -0.0471361279 -0.0242145211 0.00356731634 -0.0373952091 -0.0250507053 0.00377618009 -0.0470294021 -0.0243810937 0.00569079723 -0.0443915762 -0.0242145211 0.00356731634 -0.0373952091 -0.024445992 0.000204399068 -0.0361395739 -0.0250507053 0.00377618009 -0.0470294021 -0.0242145211 0.00356731634 -0.0373952091 -0.0243810937 0.00569079723 -0.0443915762 -0.0125831496 0.00585546019 -0.0404883847 -0.0240975376 -0.00500604277 -0.0384986848 -0.0250507053 0.00377618009 -0.0470294021 -0.024445992 0.000204399068 -0.0361395739 -0.0240975376 -0.00500604277 -0.0384986848 -0.023938844 -0.000133804017 -0.0483524464 -0.0250507053 0.00377618009 -0.0470294021 -0.0136343427 -0.00329382927 -0.0473261438 -0.023938844 -0.000133804017 -0.0483524464 0.0335273929 -0.00585557614 -0.0440109856 -0.0240975376 -0.00500604277 -0.0384986848 0.0335273929 -0.00585557614 -0.0440109856 -0.023938844 -0.000133804017 -0.0483524464 -0.0250769574 0.00858161692 -0.0232002176 -0.0250507053 0.00377618009 -0.0470294021 -0.0248031635 -0.0226000529 -0.0408850834 -0.0238127448 0.0204906687 -0.0431194678 -0.0250507053 0.00377618009 -0.0470294021 -0.0250769574 0.00858161692 -0.0232002176 -0.0181330796 -0.0131496675 -0.0261943731 -0.0248031635 -0.0226000529 -0.0408850834 -0.0211662371 0.00327254063 -0.0221189316 -0.0238127448 0.0204906687 -0.0431194678 -0.025159575 0.0112261502 -0.0591929406 -0.0250507053 0.00377618009 -0.0470294021 -0.0248031635 -0.0226000529 -0.0408850834 -0.0250507053 0.00377618009 -0.0470294021 -0.021306498 -0.00705522718 -0.0618501455 -0.0168515667 -0.0207870733 -0.0455328226 -0.0248031635 -0.0226000529 -0.0408850834 -0.0181330796 -0.0131496675 -0.0261943731 -0.0168515667 -0.0207870733 -0.0455328226 -0.021306498 -0.00705522718 -0.0618501455 -0.0248031635 -0.0226000529 -0.0408850834 -0.0163346604 0.0173614621 -0.0567955114 -0.0155503005 0.00113521959 -0.0685522109 -0.0163513087 -0.00181795552 -0.0643449202 -0.0177266654 0.0127199925 -0.0651038215 -0.0163346604 0.0173614621 -0.0567955114 -0.011849652 0.0215727296 -0.0569339432 -0.0176182464 0.0167154428 -0.0216362607 -0.0163034331 0.0215803459 -0.0281541627 -0.0158414468 0.0135044232 -0.0244730916 -0.0177894775 0.0255686473 -0.0480962545 -0.011849652 0.0215727296 -0.0569339432 -0.0163346604 0.0173614621 -0.0567955114 -0.0176692661 -0.0209414661 -0.0584366173 0.00031161966 -0.0137173338 -0.0614785403 -0.0162506513 -0.0208500288 -0.0521358512 -0.0172436703 -0.0237772726 -0.0310507733 -0.0175723322 -0.0147585403 -0.0203800332 -0.0164094791 -0.0186186433 -0.0306506306 -0.017553078 -0.00715170335 -0.0678251907 -0.0162506513 -0.0208500288 -0.0521358512 -0.0163513087 -0.00181795552 -0.0643449202 -0.017553078 -0.00715170335 -0.0678251907 -0.0176692661 -0.0209414661 -0.0584366173 -0.0162506513 -0.0208500288 -0.0521358512 -0.0134122074 -0.0261312537 -0.0442552678 -0.0172436703 -0.0237772726 -0.0310507733 -0.0183248278 -0.0215251669 -0.0457321927 -0.017553078 -0.00715170335 -0.0678251907 -0.0163513087 -0.00181795552 -0.0643449202 -0.0155503005 0.00113521959 -0.0685522109 -0.0183248278 -0.0215251669 -0.0457321927 -0.0172436703 -0.0237772726 -0.0310507733 -0.0164094791 -0.0186186433 -0.0306506306 -0.0134122074 -0.0261312537 -0.0442552678 -0.0183248278 -0.0215251669 -0.0457321927 -0.0176692661 -0.0209414661 -0.0584366173 -0.0162843578 -0.00337249739 -0.0202268567 -0.0175723322 -0.0147585403 -0.0203800332 -0.0175852589 0.000517108652 -0.015802389 -0.0162843578 -0.00337249739 -0.0202268567 -0.0162506513 -0.0208500288 -0.0521358512 -0.0164094791 -0.0186186433 -0.0306506306 -0.0162506513 -0.0208500288 -0.0521358512 -0.0163346604 0.0173614621 -0.0567955114 -0.0163513087 -0.00181795552 -0.0643449202 0.0321533941 -0.0251082145 -0.0350381806 0.0308250468 -0.0158850811 -0.0226355772 0.0346328355 -0.0120028555 -0.0429209583 0.0327255614 0.0140304388 -0.0646330118 0.0327478237 0.0262346696 -0.0401629098 0.0327644646 0.000718310534 -0.0683432743 0.0327706747 0.00683905929 -0.0315687694 0.0327644646 0.000718310534 -0.0683432743 0.0327478237 0.0262346696 -0.0401629098 0.0326875672 -0.00878866203 -0.0668324754 0.0327644646 0.000718310534 -0.0683432743 0.0342132412 -0.00789660122 -0.0515766554 0.0312807113 -0.0201900657 -0.0592875779 0.0342132412 -0.00789660122 -0.0515766554 0.0317309126 -0.0259239338 -0.0452904068 0.0323029757 -0.0160844233 -0.0209464263 0.0321533941 -0.0251082145 -0.0350381806 0.0327706747 0.00683905929 -0.0315687694 0.0326819941 0.00587651972 -0.0170260482 0.0327706747 0.00683905929 -0.0315687694 0.0326918997 0.0186296087 -0.0229186807 0.0326918997 0.0186296087 -0.0229186807 0.0327706747 0.00683905929 -0.0315687694 0.0327478237 0.0262346696 -0.0401629098 0.0327706747 0.00683905929 -0.0315687694 0.0321533941 -0.0251082145 -0.0350381806 0.0346328355 -0.0120028555 -0.0429209583 0.0314990543 -0.00133269222 -0.0161753725 0.0323029757 -0.0160844233 -0.0209464263 0.0327706747 0.00683905929 -0.0315687694 0.02002443 0.0244643167 -0.0522548631 0.0327478237 0.0262346696 -0.0401629098 0.0327255614 0.0140304388 -0.0646330118 0.0317309126 -0.0259239338 -0.0452904068 0.0342132412 -0.00789660122 -0.0515766554 0.0346328355 -0.0120028555 -0.0429209583 0.0175502282 -0.0240665674 -0.0339551792 0.0308250468 -0.0158850811 -0.0226355772 0.0321533941 -0.0251082145 -0.0350381806 0.0175514016 -0.0162906218 -0.0228218418 0.0308250468 -0.0158850811 -0.0226355772 0.0175502282 -0.0240665674 -0.0339551792 0.017551994 -0.00384428049 -0.0171824619 0.0326819941 0.00587651972 -0.0170260482 0.0308250468 -0.0158850811 -0.0226355772 0.0312227905 0.00809614267 -0.0183989629 0.0175510142 0.014010326 -0.0210998505 0.0198396202 0.0242486987 -0.0337464549 0.0178862233 -0.0143698342 -0.0639054477 0.0179376882 -0.0244638156 -0.0487199314 0.0312807113 -0.0201900657 -0.0592875779 0.0179376882 -0.0244638156 -0.0487199314 0.0175502282 -0.0240665674 -0.0339551792 0.0317309126 -0.0259239338 -0.0452904068 0.0175502282 -0.0240665674 -0.0339551792 0.0321533941 -0.0251082145 -0.0350381806 0.0317309126 -0.0259239338 -0.0452904068 0.017551994 -0.00384428049 -0.0171824619 0.0308250468 -0.0158850811 -0.0226355772 0.0175514016 -0.0162906218 -0.0228218418 0.0312227905 0.00809614267 -0.0183989629 0.0326819941 0.00587651972 -0.0170260482 0.017551994 -0.00384428049 -0.0171824619 0.0175499991 0.00551132858 -0.0177625474 0.0312227905 0.00809614267 -0.0183989629 0.017551994 -0.00384428049 -0.0171824619 0.0175499991 0.00551132858 -0.0177625474 0.0175510142 0.014010326 -0.0210998505 0.0312227905 0.00809614267 -0.0183989629 0.0262499973 0.00731392298 -0.0360074826 0.0262499973 0.0167882442 -0.0237446092 0.0262982603 -0.00530611351 -0.0173660312 0.0262451489 -0.0128106158 -0.0572410375 0.0262499973 0.00731392298 -0.0360074826 0.0262982603 -0.00530611351 -0.0173660312 -0.0210251715 0.00177514425 -0.129274517 -0.0232424457 -0.0121153779 -0.103233382 -0.0204055943 0.00355774234 -0.0982120559 -0.0182542391 0.0146351652 -0.113486029 -0.0204055943 0.00355774234 -0.0982120559 -0.0232424457 -0.0121153779 -0.103233382 -0.0182542391 0.0146351652 -0.113486029 -0.0232424457 -0.0121153779 -0.103233382 -0.0210251715 0.00177514425 -0.129274517 -0.0215070993 -0.0129546477 -0.120629035 -0.0232424457 -0.0121153779 -0.103233382 -0.0204055943 0.00355774234 -0.0982120559 -0.0182542391 0.0146351652 -0.113486029 -0.0210251715 0.00177514425 -0.129274517 -0.0204055943 0.00355774234 -0.0982120559 -0.0302511696 0.0217561983 -0.0487286299 -0.0342496857 0.0126436856 -0.0494024493 -0.0302551966 0.01375343 -0.0475510806 -0.0342465974 0.0217402689 -0.0701834634 -0.0302511696 0.0217561983 -0.0487286299 -0.030261416 0.0218384918 -0.106936201 -0.030261416 0.0218384918 -0.106936201 -0.0302511696 0.0217561983 -0.0487286299 -0.0302551966 0.01375343 -0.0475510806 -0.0342438966 0.0137274927 -0.106661476 -0.030261416 0.0218384918 -0.106936201 -0.0302551966 0.01375343 -0.0475510806 -0.0341547616 0.0258707702 -0.042116221 -0.0342465974 0.0217402689 -0.0701834634 -0.0342496857 0.0126436856 -0.0494024493 -0.0311318673 0.0220838264 -0.0353237391 -0.0341547616 0.0258707702 -0.042116221 -0.033294782 0.0107362522 -0.0376680717 -0.0342438966 0.0137274927 -0.106661476 -0.0342496857 0.0126436856 -0.0494024493 -0.0342465974 0.0217402689 -0.0701834634 -0.0342438966 0.0137274927 -0.106661476 -0.0342465974 0.0217402689 -0.0701834634 -0.030261416 0.0218384918 -0.106936201 -0.0342438966 0.0137274927 -0.106661476 -0.0302551966 0.01375343 -0.0475510806 -0.0342496857 0.0126436856 -0.0494024493 -0.0311318673 0.0220838264 -0.0353237391 -0.0302511696 0.0217561983 -0.0487286299 -0.0341547616 0.0258707702 -0.042116221 -0.033294782 0.0107362522 -0.0376680717 -0.0342496857 0.0126436856 -0.0494024493 -0.0302551966 0.01375343 -0.0475510806 -0.0341547616 0.0258707702 -0.042116221 -0.0302511696 0.0217561983 -0.0487286299 -0.0342465974 0.0217402689 -0.0701834634 -0.0341547616 0.0258707702 -0.042116221 -0.0342496857 0.0126436856 -0.0494024493 -0.0302511696 0.0217561983 -0.0487286299 -0.0342413075 -0.0217538141 -0.107079692 -0.0320757739 -0.0092665758 -0.114797756 -0.0302514173 -0.0137428092 -0.106349573 -0.0341903418 -0.0255264025 -0.118906714 -0.0342413075 -0.0217538141 -0.107079692 -0.0302514173 -0.0137428092 -0.106349573 -0.0302522369 -0.0137535632 -0.0518694445 -0.0302514173 -0.0137428092 -0.106349573 -0.0341467112 -0.0138859423 -0.105631322 -0.0342487842 -0.0137583837 -0.047969047 -0.0302522369 -0.0137535632 -0.0518694445 -0.0341467112 -0.0138859423 -0.105631322 -0.0302568357 -0.0219536033 -0.0479871742 -0.0342413075 -0.0217538141 -0.107079692 -0.0302514173 -0.0137428092 -0.106349573 -0.0302568357 -0.0219536033 -0.0479871742 -0.0302514173 -0.0137428092 -0.106349573 -0.0302522369 -0.0137535632 -0.0518694445 -0.0341467112 -0.0138859423 -0.105631322 -0.0341903418 -0.0255264025 -0.118906714 -0.0320757739 -0.0092665758 -0.114797756 -0.0342487842 -0.0137583837 -0.047969047 -0.0341467112 -0.0138859423 -0.105631322 -0.0342413075 -0.0217538141 -0.107079692 -0.0302568357 -0.0219536033 -0.0479871742 -0.0342487842 -0.0137583837 -0.047969047 -0.0342413075 -0.0217538141 -0.107079692 -0.0341467112 -0.0138859423 -0.105631322 -0.0302514173 -0.0137428092 -0.106349573 -0.0320757739 -0.0092665758 -0.114797756 -0.0335497223 -0.00937583111 -0.0408578962 -0.0342487842 -0.0137583837 -0.047969047 -0.0302522369 -0.0137535632 -0.0518694445 -0.0302568357 -0.0219536033 -0.0479871742 -0.0302522369 -0.0137535632 -0.0518694445 -0.0342487842 -0.0137583837 -0.047969047 -0.0341467112 -0.0138859423 -0.105631322 -0.0320757739 -0.0092665758 -0.114797756 -0.0342413075 -0.0217538141 -0.107079692 </float_array>
          <technique_common>
            <accessor count="1323" offset="0" source="#mesh_0-positions-array" stride="3">
              <param name="X" type="float" />
              <param name="Y" type="float" />
              <param name="Z" type="float" />
            </accessor>
          </technique_common>
        </source>
        <vertices id="mesh_0-vertices">
          <input semantic="POSITION" source="#mesh_0-positions" />
        </vertices>
        <polylist count="441" material="defaultMaterial">
          <input offset="0" semantic="VERTEX" source="#mesh_0-vertices" />
          <vcount>3 3 3 3 3 3 3 3 3 3 3 3 3 3 3 3 3 3 3 3 3 3 3 3 3 3 3 3 3 3 3 3 3 3 3 3 3 3 3 3 3 3 3 3 3 3 3 3 3 3 3 3 3 3 3 3 3 3 3 3 3 3 3 3 3 3 3 3 3 3 3 3 3 3 3 3 3 3 3 3 3 3 3 3 3 3 3 3 3 3 3 3 3 3 3 3 3 3 3 3 3 3 3 3 3 3 3 3 3 3 3 3 3 3 3 3 3 3 3 3 3 3 3 3 3 3 3 3 3 3 3 3 3 3 3 3 3 3 3 3 3 3 3 3 3 3 3 3 3 3 3 3 3 3 3 3 3 3 3 3 3 3 3 3 3 3 3 3 3 3 3 3 3 3 3 3 3 3 3 3 3 3 3 3 3 3 3 3 3 3 3 3 3 3 3 3 3 3 3 3 3 3 3 3 3 3 3 3 3 3 3 3 3 3 3 3 3 3 3 3 3 3 3 3 3 3 3 3 3 3 3 3 3 3 3 3 3 3 3 3 3 3 3 3 3 3 3 3 3 3 3 3 3 3 3 3 3 3 3 3 3 3 3 3 3 3 3 3 3 3 3 3 3 3 3 3 3 3 3 3 3 3 3 3 3 3 3 3 3 3 3 3 3 3 3 3 3 3 3 3 3 3 3 3 3 3 3 3 3 3 3 3 3 3 3 3 3 3 3 3 3 3 3 3 3 3 3 3 3 3 3 3 3 3 3 3 3 3 3 3 3 3 3 3 3 3 3 3 3 3 3 3 3 3 3 3 3 3 3 3 3 3 3 3 3 3 3 3 3 3 3 3 3 3 3 3 3 3 3 3 3 3 3 3 3 3 3 3 3 3 3 3 3 3 3 3 3 3 3 3 3 3 3 3 3 3 3 3 3 3 3 3 3 3 3 3 3 3 3 3 3 3 3 3 3 3 3 3 3 3 3 3 3 3 3 3 3 3 3 3 3 </vcount>
          <p>0 1 2 3 4 5 6 7 8 9 10 11 12 13 14 15 16 17 18 19 20 21 22 23 24 25 26 27 28 29 30 31 32 33 34 35 36 37 38 39 40 41 42 43 44 45 46 47 48 49 50 51 52 53 54 55 56 57 58 59 60 61 62 63 64 65 66 67 68 69 70 71 72 73 74 75 76 77 78 79 80 81 82 83 84 85 86 87 88 89 90 91 92 93 94 95 96 97 98 99 100 101 102 103 104 105 106 107 108 109 110 111 112 113 114 115 116 117 118 119 120 121 122 123 124 125 126 127 128 129 130 131 132 133 134 135 136 137 138 139 140 141 142 143 144 145 146 147 148 149 150 151 152 153 154 155 156 157 158 159 160 161 162 163 164 165 166 167 168 169 170 171 172 173 174 175 176 177 178 179 180 181 182 183 184 185 186 187 188 189 190 191 192 193 194 195 196 197 198 199 200 201 202 203 204 205 206 207 208 209 210 211 212 213 214 215 216 217 218 219 220 221 222 223 224 225 226 227 228 229 230 231 232 233 234 235 236 237 238 239 240 241 242 243 244 245 246 247 248 249 250 251 252 253 254 255 256 257 258 259 260 261 262 263 264 265 266 267 268 269 270 271 272 273 274 275 276 277 278 279 280 281 282 283 284 285 286 287 288 289 290 291 292 293 294 295 296 297 298 299 300 301 302 303 304 305 306 307 308 309 310 311 312 313 314 315 316 317 318 319 320 321 322 323 324 325 326 327 328 329 330 331 332 333 334 335 336 337 338 339 340 341 342 343 344 345 346 347 348 349 350 351 352 353 354 355 356 357 358 359 360 361 362 363 364 365 366 367 368 369 370 371 372 373 374 375 376 377 378 379 380 381 382 383 384 385 386 387 388 389 390 391 392 393 394 395 396 397 398 399 400 401 402 403 404 405 406 407 408 409 410 411 412 413 414 415 416 417 418 419 420 421 422 423 424 425 426 427 428 429 430 431 432 433 434 435 436 437 438 439 440 441 442 443 444 445 446 447 448 449 450 451 452 453 454 455 456 457 458 459 460 461 462 463 464 465 466 467 468 469 470 471 472 473 474 475 476 477 478 479 480 481 482 483 484 485 486 487 488 489 490 491 492 493 494 495 496 497 498 499 500 501 502 503 504 505 506 507 508 509 510 511 512 513 514 515 516 517 518 519 520 521 522 523 524 525 526 527 528 529 530 531 532 533 534 535 536 537 538 539 540 541 542 543 544 545 546 547 548 549 550 551 552 553 554 555 556 557 558 559 560 561 562 563 564 565 566 567 568 569 570 571 572 573 574 575 576 577 578 579 580 581 582 583 584 585 586 587 588 589 590 591 592 593 594 595 596 597 598 599 600 601 602 603 604 605 606 607 608 609 610 611 612 613 614 615 616 617 618 619 620 621 622 623 624 625 626 627 628 629 630 631 632 633 634 635 636 637 638 639 640 641 642 643 644 645 646 647 648 649 650 651 652 653 654 655 656 657 658 659 660 661 662 663 664 665 666 667 668 669 670 671 672 673 674 675 676 677 678 679 680 681 682 683 684 685 686 687 688 689 690 691 692 693 694 695 696 697 698 699 700 701 702 703 704 705 706 707 708 709 710 711 712 713 714 715 716 717 718 719 720 721 722 723 724 725 726 727 728 729 730 731 732 733 734 735 736 737 738 739 740 741 742 743 744 745 746 747 748 749 750 751 752 753 754 755 756 757 758 759 760 761 762 763 764 765 766 767 768 769 770 771 772 773 774 775 776 777 778 779 780 781 782 783 784 785 786 787 788 789 790 791 792 793 794 795 796 797 798 799 800 801 802 803 804 805 806 807 808 809 810 811 812 813 814 815 816 817 818 819 820 821 822 823 824 825 826 827 828 829 830 831 832 833 834 835 836 837 838 839 840 841 842 843 844 845 846 847 848 849 850 851 852 853 854 855 856 857 858 859 860 861 862 863 864 865 866 867 868 869 870 871 872 873 874 875 876 877 878 879 880 881 882 883 884 885 886 887 888 889 890 891 892 893 894 895 896 897 898 899 900 901 902 903 904 905 906 907 908 909 910 911 912 913 914 915 916 917 918 919 920 921 922 923 924 925 926 927 928 929 930 931 932 933 934 935 936 937 938 939 940 941 942 943 944 945 946 947 948 949 950 951 952 953 954 955 956 957 958 959 960 961 962 963 964 965 966 967 968 969 970 971 972 973 974 975 976 977 978 979 980 981 982 983 984 985 986 987 988 989 990 991 992 993 994 995 996 997 998 999 1000 1001 1002 1003 1004 1005 1006 1007 1008 1009 1010 1011 1012 1013 1014 1015 1016 1017 1018 1019 1020 1021 1022 1023 1024 1025 1026 1027 1028 1029 1030 1031 1032 1033 1034 1035 1036 1037 1038 1039 1040 1041 1042 1043 1044 1045 1046 1047 1048 1049 1050 1051 1052 1053 1054 1055 1056 1057 1058 1059 1060 1061 1062 1063 1064 1065 1066 1067 1068 1069 1070 1071 1072 1073 1074 1075 1076 1077 1078 1079 1080 1081 1082 1083 1084 1085 1086 1087 1088 1089 1090 1091 1092 1093 1094 1095 1096 1097 1098 1099 1100 1101 1102 1103 1104 1105 1106 1107 1108 1109 1110 1111 1112 1113 1114 1115 1116 1117 1118 1119 1120 1121 1122 1123 1124 1125 1126 1127 1128 1129 1130 1131 1132 1133 1134 1135 1136 1137 1138 1139 1140 1141 1142 1143 1144 1145 1146 1147 1148 1149 1150 1151 1152 1153 1154 1155 1156 1157 1158 1159 1160 1161 1162 1163 1164 1165 1166 1167 1168 1169 1170 1171 1172 1173 1174 1175 1176 1177 1178 1179 1180 1181 1182 1183 1184 1185 1186 1187 1188 1189 1190 1191 1192 1193 1194 1195 1196 1197 1198 1199 1200 1201 1202 1203 1204 1205 1206 1207 1208 1209 1210 1211 1212 1213 1214 1215 1216 1217 1218 1219 1220 1221 1222 1223 1224 1225 1226 1227 1228 1229 1230 1231 1232 1233 1234 1235 1236 1237 1238 1239 1240 1241 1242 1243 1244 1245 1246 1247 1248 1249 1250 1251 1252 1253 1254 1255 1256 1257 1258 1259 1260 1261 1262 1263 1264 1265 1266 1267 1268 1269 1270 1271 1272 1273 1274 1275 1276 1277 1278 1279 1280 1281 1282 1283 1284 1285 1286 1287 1288 1289 1290 1291 1292 1293 1294 1295 1296 1297 1298 1299 1300 1301 1302 1303 1304 1305 1306 1307 1308 1309 1310 1311 1312 1313 1314 1315 1316 1317 1318 1319 1320 1321 1322 </p>
        </polylist>
      </mesh>
    </geometry>
  </library_geometries>
  <library_controllers>
  </library_controllers>
  <library_visual_scenes>
    <visual_scene id="Scene" name="Scene">
      <node id="node" name="" type="NODE">
        <matrix sid="matrix">1 0 0 0 0 1 0 0 0 0 1 0 0 0 0 1</matrix>
        <instance_geometry url="#mesh_0">
          <bind_material>
            <technique_common>
              <instance_material symbol="defaultMaterial" target="#material_0">
              </instance_material>
            </technique_common>
          </bind_material>
        </instance_geometry>
      </node>
    </visual_scene>
  </library_visual_scenes>
  <scene>
    <instance_visual_scene url="#Scene" />
  </scene>
</COLLADA>
