<?xml version="1.0" encoding="UTF-8" standalone="no" ?>
<COLLADA xmlns="http://www.collada.org/2005/11/COLLADASchema" version="1.4.1">
  <asset>
    <contributor>
      <author>Assimp</author>
      <authoring_tool>Assimp Exporter</authoring_tool>
    </contributor>
    <created>2025-12-08T10:04:59</created>
    <modified>2025-12-08T10:04:59</modified>
    <unit name="meter" meter="1" />
    <up_axis>Y_UP</up_axis>
  </asset>
  <library_images>
  </library_images>
  <library_effects>
    <effect id="material_0-fx" name="">
      <profile_COMMON>
        <technique sid="standard">
          <phong>
            <emission>
              <color sid="emission">0   0   0   4.53488209e-41</color>
            </emission>
            <ambient>
              <color sid="ambient">0.498039246   0.498039246   0.498039246   -0.021484375</color>
            </ambient>
            <diffuse>
              <color sid="diffuse">0.498039246   0.498039246   0.498039246   -0.021484375</color>
            </diffuse>
            <specular>
              <color sid="specular">0.498039246   0.498039246   0.498039246   2.55843558e-11</color>
            </specular>
          </phong>
        </technique>
      </profile_COMMON>
    </effect>
  </library_effects>
  <library_materials>
    <material id="material_0" name="">
      <instance_effect url="#material_0-fx"/>
    </material>
  </library_materials>
  <library_geometries>
    <geometry id="mesh_0" name="" >
      <mesh>
        <source id="mesh_0-positions" name="mesh_0-positions">
          <float_array id="mesh_0-positions-array" count="4230"> 0.0150044793 -0.0388831161 -0.195742399 0.0147540104 -0.0361281708 -0.175324574 -0.0101849809 -0.0356673002 -0.173850164 0.0147859221 -0.0172077566 -0.155651852 -0.0101849809 -0.0356673002 -0.173850164 0.0147540104 -0.0361281708 -0.175324574 -0.0160706379 -0.0190077219 -0.156373277 0.0147859221 -0.0172077566 -0.155651852 -0.00494839344 -0.0150831705 -0.150947332 -0.0160706379 -0.0190077219 -0.156373277 -0.0101849809 -0.0356673002 -0.173850164 0.0147859221 -0.0172077566 -0.155651852 0.0148339896 -0.0286227781 -0.21856226 0.0150044793 -0.0388831161 -0.195742399 -0.00473533478 -0.0361943357 -0.206566736 0.00234216312 0.0165759679 -0.152276263 -0.00311142858 0.0149005223 -0.091328226 0.00491514895 0.0145075694 -0.103603996 0.0147643974 0.00411726581 -0.115093455 0.00234216312 0.0165759679 -0.152276263 0.00491514895 0.0145075694 -0.103603996 0.0160426125 0.00270245341 -0.0889420956 0.0147643974 0.00411726581 -0.115093455 0.00491514895 0.0145075694 -0.103603996 0.0133690014 -0.0079771122 -0.0752730295 0.0140039595 -0.00732922927 -0.136807054 0.0147643974 0.00411726581 -0.115093455 0.00783406943 -0.0131444409 -0.117476806 0.0140039595 -0.00732922927 -0.136807054 0.0133690014 -0.0079771122 -0.0752730295 -0.0135323871 -0.0071439133 -0.0947967842 -0.00494839344 -0.0150831705 -0.150947332 -0.00625569746 -0.0137129184 -0.0717826933 -0.00895669963 0.0080305459 -0.15733178 -0.0111881653 0.00434769271 -0.0714147091 -0.0120435925 0.00248275395 -0.155885786 -0.0119996332 -6.50525453e-06 -0.117262475 -0.0135323871 -0.0071439133 -0.0947967842 -0.0111881653 0.00434769271 -0.0714147091 -0.0120435925 0.00248275395 -0.155885786 -0.0111881653 0.00434769271 -0.0714147091 -0.0135323871 -0.0071439133 -0.0947967842 -0.0111346478 -0.0046130605 -0.156540453 -0.0120435925 0.00248275395 -0.155885786 -0.0135323871 -0.0071439133 -0.0947967842 -0.0111346478 -0.0046130605 -0.156540453 -0.0135323871 -0.0071439133 -0.0947967842 -0.0119996332 -6.50525453e-06 -0.117262475 0.0115340697 0.00351100066 -0.156336665 0.0108468905 -0.0054006991 -0.156725183 0.012382281 -6.00378153e-05 -0.0755686313 0.00899067987 0.00838876422 -0.0746035874 0.0115340697 0.00351100066 -0.156336665 0.012382281 -6.00378153e-05 -0.0755686313 0.00547325937 0.0108097801 -0.158121303 0.0115340697 0.00351100066 -0.156336665 0.00899067987 0.00838876422 -0.0746035874 -0.0119658401 0.000751269923 -0.0758100376 -0.0119996332 -6.50525453e-06 -0.117262475 -0.0111881653 0.00434769271 -0.0714147091 -0.0119658401 0.000751269923 -0.0758100376 -0.0111346478 -0.0046130605 -0.156540453 -0.0119996332 -6.50525453e-06 -0.117262475 -0.00878746714 0.0082893651 -0.0749747083 -0.00895669963 0.0080305459 -0.15733178 -0.00538084563 0.0107325045 -0.0714276806 -0.00878746714 0.0082893651 -0.0749747083 -0.0111881653 0.00434769271 -0.0714147091 -0.00895669963 0.0080305459 -0.15733178 -0.00878746714 0.0082893651 -0.0749747083 -0.00538084563 0.0107325045 -0.0714276806 -0.0111881653 0.00434769271 -0.0714147091 -0.00240862253 0.0118111949 -0.156484291 0.000812796177 0.012300292 -0.077066727 -0.00538084563 0.0107325045 -0.0714276806 -0.00240862253 0.0118111949 -0.156484291 -0.00538084563 0.0107325045 -0.0714276806 -0.00895669963 0.0080305459 -0.15733178 -0.00240862253 0.0118111949 -0.156484291 0.00547325937 0.0108097801 -0.158121303 0.000812796177 0.012300292 -0.077066727 0.000812796177 0.012300292 -0.077066727 0.00547325937 0.0108097801 -0.158121303 0.00899067987 0.00838876422 -0.0746035874 0.00912174117 -0.00837330148 -0.0732809305 0.0108468905 -0.0054006991 -0.156725183 0.00518062897 -0.01087227 -0.156882778 0.00912174117 -0.00837330148 -0.0732809305 0.012382281 -6.00378153e-05 -0.0755686313 0.0108468905 -0.0054006991 -0.156725183 -0.00263805548 -0.0117362421 -0.156909645 -0.00529530458 -0.0107731419 -0.0714135095 0.00518062897 -0.01087227 -0.156882778 -0.000345495413 -0.0120378248 -0.0755309686 -0.00263805548 -0.0117362421 -0.156909645 0.00518062897 -0.01087227 -0.156882778 -0.00897485297 -0.00803188235 -0.157355383 -0.00529530458 -0.0107731419 -0.0714135095 -0.00263805548 -0.0117362421 -0.156909645 -0.00875181053 -0.00828452036 -0.0740306452 -0.00529530458 -0.0107731419 -0.0714135095 -0.00897485297 -0.00803188235 -0.157355383 -0.0111913793 -0.00433109421 -0.071414724 -0.00875181053 -0.00828452036 -0.0740306452 -0.00897485297 -0.00803188235 -0.157355383 -0.0111913793 -0.00433109421 -0.071414724 -0.00897485297 -0.00803188235 -0.157355383 -0.0111346478 -0.0046130605 -0.156540453 -0.0111913793 -0.00433109421 -0.071414724 -0.0111346478 -0.0046130605 -0.156540453 -0.0119658401 0.000751269923 -0.0758100376 0.0145893358 0.00932899024 -0.0714000314 0.00912174117 -0.00837330148 -0.0732809305 0.00625226367 -0.0142474808 -0.0713954419 0.00870766398 0.0147714792 -0.0720203817 -0.0111881653 0.00434769271 -0.0714147091 -0.00538084563 0.0107325045 -0.0714276806 0.0205122717 -0.000440087897 -0.0713899359 0.0145893358 0.00932899024 -0.0714000314 0.0133690014 -0.0079771122 -0.0752730295 0.0223002061 -0.0114208898 -0.0721951276 0.0133690014 -0.0079771122 -0.0752730295 0.00625226367 -0.0142474808 -0.0713954419 0.0164813753 -0.0195560455 -0.0756036639 0.0223002061 -0.0114208898 -0.0721951276 0.00625226367 -0.0142474808 -0.0713954419 0.00818383694 -0.0151549652 -0.0859396979 0.0164813753 -0.0195560455 -0.0756036639 0.00625226367 -0.0142474808 -0.0713954419 -0.0253005568 -0.00447074044 -0.0728244856 -0.0169746932 -0.0195078589 -0.0753346011 -0.00625569746 -0.0137129184 -0.0717826933 -0.0229957867 0.00785558857 -0.0717542693 0.00156622252 0.0252811685 -0.0729303584 -0.0121914549 0.012920199 -0.0838680193 -0.0144792292 0.0211516879 -0.0784184113 -0.0229957867 0.00785558857 -0.0717542693 -0.0121914549 0.012920199 -0.0838680193 -0.0229957867 0.00785558857 -0.0717542693 0.00870766398 0.0147714792 -0.0720203817 0.00156622252 0.0252811685 -0.0729303584 0.0145297041 0.018909758 -0.0728880018 0.0145893358 0.00932899024 -0.0714000314 0.0232582707 0.01017946 -0.0791942999 0.0145297041 0.018909758 -0.0728880018 0.0232582707 0.01017946 -0.0791942999 0.0205122717 -0.000440087897 -0.0713899359 0.0205122717 -0.000440087897 -0.0713899359 0.0160426125 0.00270245341 -0.0889420956 0.0145893358 0.00932899024 -0.0714000314 -0.0111913793 -0.00433109421 -0.071414724 -0.00625569746 -0.0137129184 -0.0717826933 -0.00529530458 -0.0107731419 -0.0714135095 0.00625226367 -0.0142474808 -0.0713954419 -0.00529530458 -0.0107731419 -0.0714135095 -0.00625569746 -0.0137129184 -0.0717826933 -0.0253005568 -0.00447074044 -0.0728244856 -0.00625569746 -0.0137129184 -0.0717826933 -0.0111913793 -0.00433109421 -0.071414724 0.0145893358 0.00932899024 -0.0714000314 0.00899067987 0.00838876422 -0.0746035874 0.00912174117 -0.00837330148 -0.0732809305 0.0145297041 0.018909758 -0.0728880018 0.00899067987 0.00838876422 -0.0746035874 0.0145893358 0.00932899024 -0.0714000314 0.0145297041 0.018909758 -0.0728880018 0.00870766398 0.0147714792 -0.0720203817 0.00899067987 0.00838876422 -0.0746035874 -0.0229957867 0.00785558857 -0.0717542693 -0.0253005568 -0.00447074044 -0.0728244856 -0.0111913793 -0.00433109421 -0.071414724 -0.0229957867 0.00785558857 -0.0717542693 -0.0111913793 -0.00433109421 -0.071414724 0.00870766398 0.0147714792 -0.0720203817 0.00870766398 0.0147714792 -0.0720203817 -0.0111913793 -0.00433109421 -0.071414724 -0.0111881653 0.00434769271 -0.0714147091 -0.000203482297 -0.0236040782 -0.0741294175 0.00625226367 -0.0142474808 -0.0713954419 -0.00625569746 -0.0137129184 -0.0717826933 0.0145893358 0.00932899024 -0.0714000314 0.00625226367 -0.0142474808 -0.0713954419 0.0133690014 -0.0079771122 -0.0752730295 0.00818383694 -0.0151549652 -0.0859396979 0.00783406943 -0.0131444409 -0.117476806 0.0133690014 -0.0079771122 -0.0752730295 0.00818383694 -0.0151549652 -0.0859396979 0.0133690014 -0.0079771122 -0.0752730295 0.0164813753 -0.0195560455 -0.0756036639 0.0133690014 -0.0079771122 -0.0752730295 0.0147643974 0.00411726581 -0.115093455 0.0160426125 0.00270245341 -0.0889420956 0.0232582707 0.01017946 -0.0791942999 0.0223002061 -0.0114208898 -0.0721951276 0.0160426125 0.00270245341 -0.0889420956 0.00156622252 0.0252811685 -0.0729303584 0.00870766398 0.0147714792 -0.0720203817 -0.00311142858 0.0149005223 -0.091328226 -0.0144792292 0.0211516879 -0.0784184113 0.00156622252 0.0252811685 -0.0729303584 -0.00311142858 0.0149005223 -0.091328226 0.0145297041 0.018909758 -0.0728880018 0.0232582707 0.01017946 -0.0791942999 0.0160426125 0.00270245341 -0.0889420956 0.0145297041 0.018909758 -0.0728880018 0.0160426125 0.00270245341 -0.0889420956 0.00870766398 0.0147714792 -0.0720203817 -0.000203482297 -0.0236040782 -0.0741294175 -0.00625569746 -0.0137129184 -0.0717826933 0.00818383694 -0.0151549652 -0.0859396979 -0.0149263572 0.00336221047 -0.0990977883 -0.0253005568 -0.00447074044 -0.0728244856 -0.0229957867 0.00785558857 -0.0717542693 -0.0149263572 0.00336221047 -0.0990977883 -0.0135323871 -0.0071439133 -0.0947967842 -0.0253005568 -0.00447074044 -0.0728244856 0.00870766398 0.0147714792 -0.0720203817 0.00491514895 0.0145075694 -0.103603996 -0.00311142858 0.0149005223 -0.091328226 -0.0169746932 -0.0195078589 -0.0753346011 -0.0135323871 -0.0071439133 -0.0947967842 -0.00625569746 -0.0137129184 -0.0717826933 -0.0105087627 0.0112643223 -0.141093791 -0.0149263572 0.00336221047 -0.0990977883 -0.00311142858 0.0149005223 -0.091328226 -0.0149263572 0.00336221047 -0.0990977883 -0.0121914549 0.012920199 -0.0838680193 -0.00311142858 0.0149005223 -0.091328226 0.00870766398 0.0147714792 -0.0720203817 0.0160426125 0.00270245341 -0.0889420956 0.00491514895 0.0145075694 -0.103603996 0.0146564748 -0.0354226418 -0.191394761 -0.00498462794 -0.0337964855 -0.201207414 -0.0101284664 -0.0315553993 -0.175278977 -0.015015481 -0.0170812998 -0.160725221 -0.0160706379 -0.0190077219 -0.156373277 -0.0120435925 0.00248275395 -0.155885786 -0.015015481 -0.0170812998 -0.160725221 -0.0120435925 0.00248275395 -0.155885786 -0.0111346478 -0.0046130605 -0.156540453 -0.015015481 -0.0170812998 -0.160725221 -0.0111346478 -0.0046130605 -0.156540453 -0.00897485297 -0.00803188235 -0.157355383 0.0150157455 -0.0161143448 -0.160332099 -0.00897485297 -0.00803188235 -0.157355383 0.0108468905 -0.0054006991 -0.156725183 0.0150157455 -0.0161143448 -0.160332099 0.0108468905 -0.0054006991 -0.156725183 0.0147859221 -0.0172077566 -0.155651852 -0.0150439963 0.0283881482 -0.163731441 -0.0120435925 0.00248275395 -0.155885786 -0.0160706379 -0.0190077219 -0.156373277 -0.0150839575 0.0171371922 -0.160711333 -0.00895669963 0.0080305459 -0.15733178 -0.0150439963 0.0283881482 -0.163731441 -0.0150439963 0.0283881482 -0.163731441 -0.00895669963 0.0080305459 -0.15733178 -0.0120435925 0.00248275395 -0.155885786 0.0150644099 0.0123468479 -0.15858382 0.0115340697 0.00351100066 -0.156336665 0.00547325937 0.0108097801 -0.158121303 0.0150644099 0.0123468479 -0.15858382 0.0147859221 -0.0172077566 -0.155651852 0.0108468905 -0.0054006991 -0.156725183 0.0150644099 0.0123468479 -0.15858382 0.0108468905 -0.0054006991 -0.156725183 0.0115340697 0.00351100066 -0.156336665 0.01495534 -0.0263090841 -0.167534947 -0.0101284664 -0.0315553993 -0.175278977 -0.015015481 -0.0170812998 -0.160725221 0.01495534 -0.0263090841 -0.167534947 -0.015015481 -0.0170812998 -0.160725221 0.0150157455 -0.0161143448 -0.160332099 0.01495534 -0.0263090841 -0.167534947 0.0146564748 -0.0354226418 -0.191394761 -0.0101284664 -0.0315553993 -0.175278977 0.0145049337 -0.0321529657 -0.205505878 -0.00498462794 -0.0337964855 -0.201207414 0.0146564748 -0.0354226418 -0.191394761 -0.00498357043 -0.0237520076 -0.217919514 -0.00498462794 -0.0337964855 -0.201207414 0.0145049337 -0.0321529657 -0.205505878 0.0148676857 -0.0247877557 -0.216780752 -0.00498357043 -0.0237520076 -0.217919514 0.0145049337 -0.0321529657 -0.205505878 0.0148557015 -8.57707564e-05 -0.226821929 -0.00500541087 -0.020714175 -0.223940074 -0.00498357043 -0.0237520076 -0.217919514 0.0148557015 -8.57707564e-05 -0.226821929 -0.00498357043 -0.0237520076 -0.217919514 0.0148676857 -0.0247877557 -0.216780752 -0.00482217176 0.0140909106 -0.223948032 -0.00500541087 -0.020714175 -0.223940074 0.0148557015 -8.57707564e-05 -0.226821929 0.0149797387 0.0227241796 -0.220736161 -0.00482217176 0.0140909106 -0.223948032 0.0148557015 -8.57707564e-05 -0.226821929 0.0150145199 0.028099183 -0.212219834 0.0150357923 0.0355709195 -0.192378357 -0.00489606429 0.0340122916 -0.199947402 -0.00500276033 0.0276041199 -0.213048011 0.0150145199 0.028099183 -0.212219834 -0.00489606429 0.0340122916 -0.199947402 -0.00794202648 0.0330942236 -0.178147122 -0.00489606429 0.0340122916 -0.199947402 0.0150357923 0.0355709195 -0.192378357 0.0144368941 0.0291255191 -0.165617555 -0.00794202648 0.0330942236 -0.178147122 0.0150357923 0.0355709195 -0.192378357 0.0150294937 0.0282376297 -0.170718789 -0.00794202648 0.0330942236 -0.178147122 0.0144368941 0.0291255191 -0.165617555 0.0046138647 0.0250945576 -0.166709736 -0.00794202648 0.0330942236 -0.178147122 0.0150294937 0.0282376297 -0.170718789 -0.00670383452 0.0380218774 -0.182256356 -0.00794202648 0.0330942236 -0.178147122 0.0046138647 0.0250945576 -0.166709736 0.0149999997 0.0196415465 -0.162430882 0.0046138647 0.0250945576 -0.166709736 0.0150294937 0.0282376297 -0.170718789 0.0149999997 0.0196415465 -0.162430882 -0.0150839575 0.0171371922 -0.160711333 0.0046138647 0.0250945576 -0.166709736 0.0149999997 0.0196415465 -0.162430882 0.0150644099 0.0123468479 -0.15858382 -0.0150839575 0.0171371922 -0.160711333 0.0150644099 0.0123468479 -0.15858382 0.00547325937 0.0108097801 -0.158121303 -0.0150839575 0.0171371922 -0.160711333 -0.0150839575 0.0171371922 -0.160711333 0.00547325937 0.0108097801 -0.158121303 -0.00895669963 0.0080305459 -0.15733178 0.0150157455 -0.0161143448 -0.160332099 -0.015015481 -0.0170812998 -0.160725221 -0.00897485297 -0.00803188235 -0.157355383 -0.00897485297 -0.00803188235 -0.157355383 -0.00263805548 -0.0117362421 -0.156909645 0.00518062897 -0.01087227 -0.156882778 -0.00897485297 -0.00803188235 -0.157355383 0.00518062897 -0.01087227 -0.156882778 0.0108468905 -0.0054006991 -0.156725183 -0.00240862253 0.0118111949 -0.156484291 -0.00895669963 0.0080305459 -0.15733178 0.00547325937 0.0108097801 -0.158121303 0.0146563873 0.0397349522 -0.186982438 -0.0150439963 0.0283881482 -0.163731441 0.0144368941 0.0291255191 -0.165617555 0.0146563873 0.0397349522 -0.186982438 -0.00670383452 0.0380218774 -0.182256356 -0.0150439963 0.0283881482 -0.163731441 0.0150105478 0.0339163281 -0.21091482 -0.00476222252 0.0370521396 -0.205001429 0.0146563873 0.0397349522 -0.186982438 -0.00478329789 0.0285872184 -0.218613744 0.0150105478 0.0339163281 -0.21091482 0.0149797387 0.0227241796 -0.220736161 -0.00478329789 0.0285872184 -0.218613744 -0.00476222252 0.0370521396 -0.205001429 0.0150105478 0.0339163281 -0.21091482 -0.00492938189 0.0156277865 -0.227662191 -0.00478329789 0.0285872184 -0.218613744 0.0149797387 0.0227241796 -0.220736161 0.0146632176 0.00107335462 -0.230979562 -0.00492938189 0.0156277865 -0.227662191 0.0149797387 0.0227241796 -0.220736161 0.0144005679 -0.0157039464 -0.227635846 -0.00500541087 -0.020714175 -0.223940074 -0.0049650874 5.30802754e-05 -0.230926633 0.0144005679 -0.0157039464 -0.227635846 0.0148339896 -0.0286227781 -0.21856226 -0.00500541087 -0.020714175 -0.223940074 -0.00498258788 -0.029227566 -0.217712864 -0.00500541087 -0.020714175 -0.223940074 0.0148339896 -0.0286227781 -0.21856226 -0.00498258788 -0.029227566 -0.217712864 0.0148339896 -0.0286227781 -0.21856226 -0.00473533478 -0.0361943357 -0.206566736 -0.00484824926 -0.0387253724 -0.195890546 -0.00473533478 -0.0361943357 -0.206566736 0.0150044793 -0.0388831161 -0.195742399 0.0144005679 -0.0157039464 -0.227635846 -0.0049650874 5.30802754e-05 -0.230926633 0.0146632176 0.00107335462 -0.230979562 -0.0049650874 5.30802754e-05 -0.230926633 -0.00492938189 0.0156277865 -0.227662191 0.0146632176 0.00107335462 -0.230979562 0.0146632176 0.00107335462 -0.230979562 0.0149797387 0.0227241796 -0.220736161 0.0148557015 -8.57707564e-05 -0.226821929 0.0146564748 -0.0354226418 -0.191394761 0.0147540104 -0.0361281708 -0.175324574 0.0150044793 -0.0388831161 -0.195742399 0.01495534 -0.0263090841 -0.167534947 0.0147540104 -0.0361281708 -0.175324574 0.0146564748 -0.0354226418 -0.191394761 0.0145049337 -0.0321529657 -0.205505878 0.0146564748 -0.0354226418 -0.191394761 0.0150044793 -0.0388831161 -0.195742399 0.0150105478 0.0339163281 -0.21091482 0.0150145199 0.028099183 -0.212219834 0.0149797387 0.0227241796 -0.220736161 0.0150105478 0.0339163281 -0.21091482 0.0150357923 0.0355709195 -0.192378357 0.0150145199 0.028099183 -0.212219834 0.0150105478 0.0339163281 -0.21091482 0.0146563873 0.0397349522 -0.186982438 0.0150357923 0.0355709195 -0.192378357 0.0144005679 -0.0157039464 -0.227635846 0.0146632176 0.00107335462 -0.230979562 0.0148557015 -8.57707564e-05 -0.226821929 0.0144005679 -0.0157039464 -0.227635846 0.0148557015 -8.57707564e-05 -0.226821929 0.0148676857 -0.0247877557 -0.216780752 0.0144005679 -0.0157039464 -0.227635846 0.0148676857 -0.0247877557 -0.216780752 0.0148339896 -0.0286227781 -0.21856226 0.0148676857 -0.0247877557 -0.216780752 0.0145049337 -0.0321529657 -0.205505878 0.0148339896 -0.0286227781 -0.21856226 0.0145049337 -0.0321529657 -0.205505878 0.0150044793 -0.0388831161 -0.195742399 0.0148339896 -0.0286227781 -0.21856226 0.0146563873 0.0397349522 -0.186982438 0.0144368941 0.0291255191 -0.165617555 0.0150357923 0.0355709195 -0.192378357 0.0149999997 0.0196415465 -0.162430882 0.0150294937 0.0282376297 -0.170718789 0.0150644099 0.0123468479 -0.15858382 0.0150294937 0.0282376297 -0.170718789 0.0144368941 0.0291255191 -0.165617555 0.0150644099 0.0123468479 -0.15858382 0.01495534 -0.0263090841 -0.167534947 0.0150157455 -0.0161143448 -0.160332099 0.0147859221 -0.0172077566 -0.155651852 0.01495534 -0.0263090841 -0.167534947 0.0147859221 -0.0172077566 -0.155651852 0.0147540104 -0.0361281708 -0.175324574 -0.0149359638 -0.00266384217 -0.13003388 -0.0160706379 -0.0190077219 -0.156373277 -0.00494839344 -0.0150831705 -0.150947332 -0.0149359638 -0.00266384217 -0.13003388 -0.00494839344 -0.0150831705 -0.150947332 -0.0135323871 -0.0071439133 -0.0947967842 0.00783406943 -0.0131444409 -0.117476806 0.0147859221 -0.0172077566 -0.155651852 0.0140039595 -0.00732922927 -0.136807054 0.00783406943 -0.0131444409 -0.117476806 -0.00494839344 -0.0150831705 -0.150947332 0.0147859221 -0.0172077566 -0.155651852 0.0150644099 0.0123468479 -0.15858382 0.0140039595 -0.00732922927 -0.136807054 0.0147859221 -0.0172077566 -0.155651852 0.0144368941 0.0291255191 -0.165617555 0.00234216312 0.0165759679 -0.152276263 0.0150644099 0.0123468479 -0.15858382 0.0150644099 0.0123468479 -0.15858382 0.0147643974 0.00411726581 -0.115093455 0.0140039595 -0.00732922927 -0.136807054 0.0150644099 0.0123468479 -0.15858382 0.00234216312 0.0165759679 -0.152276263 0.0147643974 0.00411726581 -0.115093455 0.0144368941 0.0291255191 -0.165617555 -0.0150439963 0.0283881482 -0.163731441 0.00234216312 0.0165759679 -0.152276263 -0.0105087627 0.0112643223 -0.141093791 -0.00311142858 0.0149005223 -0.091328226 0.00234216312 0.0165759679 -0.152276263 -0.0150439963 0.0283881482 -0.163731441 -0.0160706379 -0.0190077219 -0.156373277 -0.0105087627 0.0112643223 -0.141093791 -0.0150439963 0.0283881482 -0.163731441 -0.0105087627 0.0112643223 -0.141093791 0.00234216312 0.0165759679 -0.152276263 -0.0149359638 -0.00266384217 -0.13003388 -0.0105087627 0.0112643223 -0.141093791 -0.0160706379 -0.0190077219 -0.156373277 -0.0149359638 -0.00266384217 -0.13003388 -0.0149263572 0.00336221047 -0.0990977883 -0.0105087627 0.0112643223 -0.141093791 -0.00484824926 -0.0387253724 -0.195890546 -0.0101849809 -0.0356673002 -0.173850164 -0.00498462794 -0.0337964855 -0.201207414 -0.00670383452 0.0380218774 -0.182256356 -0.00489606429 0.0340122916 -0.199947402 -0.00794202648 0.0330942236 -0.178147122 -0.00476222252 0.0370521396 -0.205001429 -0.00489606429 0.0340122916 -0.199947402 -0.00670383452 0.0380218774 -0.182256356 -0.00484824926 -0.0387253724 -0.195890546 -0.00498462794 -0.0337964855 -0.201207414 -0.00473533478 -0.0361943357 -0.206566736 -0.00498258788 -0.029227566 -0.217712864 -0.00473533478 -0.0361943357 -0.206566736 -0.00498462794 -0.0337964855 -0.201207414 -0.00498258788 -0.029227566 -0.217712864 -0.00498462794 -0.0337964855 -0.201207414 -0.00498357043 -0.0237520076 -0.217919514 -0.00498258788 -0.029227566 -0.217712864 -0.00498357043 -0.0237520076 -0.217919514 -0.00500541087 -0.020714175 -0.223940074 -0.0049650874 5.30802754e-05 -0.230926633 -0.00500541087 -0.020714175 -0.223940074 -0.00482217176 0.0140909106 -0.223948032 -0.0049650874 5.30802754e-05 -0.230926633 -0.00482217176 0.0140909106 -0.223948032 -0.00492938189 0.0156277865 -0.227662191 -0.00492938189 0.0156277865 -0.227662191 -0.00482217176 0.0140909106 -0.223948032 -0.00478329789 0.0285872184 -0.218613744 -0.00478329789 0.0285872184 -0.218613744 -0.00482217176 0.0140909106 -0.223948032 -0.00500276033 0.0276041199 -0.213048011 -0.00478329789 0.0285872184 -0.218613744 -0.00500276033 0.0276041199 -0.213048011 -0.00476222252 0.0370521396 -0.205001429 -0.00476222252 0.0370521396 -0.205001429 -0.00500276033 0.0276041199 -0.213048011 -0.00489606429 0.0340122916 -0.199947402 -0.00670383452 0.0380218774 -0.182256356 -0.0150839575 0.0171371922 -0.160711333 -0.0150439963 0.0283881482 -0.163731441 -0.0101284664 -0.0315553993 -0.175278977 -0.0101849809 -0.0356673002 -0.173850164 -0.0160706379 -0.0190077219 -0.156373277 -0.015015481 -0.0170812998 -0.160725221 -0.0101284664 -0.0315553993 -0.175278977 -0.0160706379 -0.0190077219 -0.156373277 -0.0101284664 -0.0315553993 -0.175278977 -0.00498462794 -0.0337964855 -0.201207414 -0.0101849809 -0.0356673002 -0.173850164 -0.00670383452 0.0380218774 -0.182256356 0.0046138647 0.0250945576 -0.166709736 -0.0150839575 0.0171371922 -0.160711333 -0.00478329789 0.0285872184 -0.218613744 0.0149797387 0.0227241796 -0.220736161 0.0150145199 0.028099183 -0.212219834 -0.00478329789 0.0285872184 -0.218613744 -0.00482217176 0.0140909106 -0.223948032 0.0149797387 0.0227241796 -0.220736161 -0.00478329789 0.0285872184 -0.218613744 0.0150145199 0.028099183 -0.212219834 -0.00500276033 0.0276041199 -0.213048011 0.0145049337 -0.0321529657 -0.205505878 -0.00473533478 -0.0361943357 -0.206566736 -0.00498462794 -0.0337964855 -0.201207414 -0.00529530458 -0.0107731419 -0.0714135095 0.00912174117 -0.00837330148 -0.0732809305 0.00518062897 -0.01087227 -0.156882778 0.00625226367 -0.0142474808 -0.0713954419 0.00912174117 -0.00837330148 -0.0732809305 -0.00529530458 -0.0107731419 -0.0714135095 0.00912174117 -0.00837330148 -0.0732809305 0.00899067987 0.00838876422 -0.0746035874 0.012382281 -6.00378153e-05 -0.0755686313 0.00870766398 0.0147714792 -0.0720203817 0.000812796177 0.012300292 -0.077066727 0.00899067987 0.00838876422 -0.0746035874 0.00870766398 0.0147714792 -0.0720203817 -0.00538084563 0.0107325045 -0.0714276806 0.000812796177 0.012300292 -0.077066727 -0.0111913793 -0.00433109421 -0.071414724 -0.0119658401 0.000751269923 -0.0758100376 -0.0111881653 0.00434769271 -0.0714147091 -0.0111913793 -0.00433109421 -0.071414724 -0.00529530458 -0.0107731419 -0.0714135095 -0.00875181053 -0.00828452036 -0.0740306452 0.0232582707 0.01017946 -0.0791942999 0.0205122717 -0.000440087897 -0.0713899359 0.0223002061 -0.0114208898 -0.0721951276 -0.00484824926 -0.0387253724 -0.195890546 0.0150044793 -0.0388831161 -0.195742399 -0.0101849809 -0.0356673002 -0.173850164 -0.00476222252 0.0370521396 -0.205001429 -0.00670383452 0.0380218774 -0.182256356 0.0146563873 0.0397349522 -0.186982438 -0.0138772875 -0.00789036229 -0.0713202879 -0.0253005568 -0.00447074044 -0.0728244856 -0.0135323871 -0.0071439133 -0.0947967842 -0.0138772875 -0.00789036229 -0.0713202879 -0.0169746932 -0.0195078589 -0.0753346011 -0.0253005568 -0.00447074044 -0.0728244856 -0.0138772875 -0.00789036229 -0.0713202879 -0.0135323871 -0.0071439133 -0.0947967842 -0.0169746932 -0.0195078589 -0.0753346011 -0.000203482297 -0.0236040782 -0.0741294175 0.00818383694 -0.0151549652 -0.0859396979 0.00625226367 -0.0142474808 -0.0713954419 0.0164813753 -0.0195560455 -0.0756036639 0.0133690014 -0.0079771122 -0.0752730295 0.0223002061 -0.0114208898 -0.0721951276 0.0223002061 -0.0114208898 -0.0721951276 0.0205122717 -0.000440087897 -0.0713899359 0.0160426125 0.00270245341 -0.0889420956 0.0205122717 -0.000440087897 -0.0713899359 0.0133690014 -0.0079771122 -0.0752730295 0.0160426125 0.00270245341 -0.0889420956 0.0232582707 0.01017946 -0.0791942999 0.0160426125 0.00270245341 -0.0889420956 0.0205122717 -0.000440087897 -0.0713899359 0.0232582707 0.01017946 -0.0791942999 0.0145893358 0.00932899024 -0.0714000314 0.0160426125 0.00270245341 -0.0889420956 -0.0121914549 0.012920199 -0.0838680193 0.00156622252 0.0252811685 -0.0729303584 -0.00311142858 0.0149005223 -0.091328226 -0.0149263572 0.00336221047 -0.0990977883 -0.0229957867 0.00785558857 -0.0717542693 -0.0121914549 0.012920199 -0.0838680193 -0.0229957867 0.00785558857 -0.0717542693 -0.0253005568 -0.00447074044 -0.0728244856 -0.0119658401 0.000751269923 -0.0758100376 -0.0253005568 -0.00447074044 -0.0728244856 -0.0119658401 0.000751269923 -0.0758100376 -0.0111913793 -0.00433109421 -0.071414724 -0.00625569746 -0.0137129184 -0.0717826933 -0.00494839344 -0.0150831705 -0.150947332 0.00783406943 -0.0131444409 -0.117476806 0.00818383694 -0.0151549652 -0.0859396979 -0.00625569746 -0.0137129184 -0.0717826933 0.00783406943 -0.0131444409 -0.117476806 -0.00263805548 -0.0117362421 -0.156909645 0.00783406943 -0.0131444409 -0.117476806 0.00518062897 -0.01087227 -0.156882778 -0.0149359638 -0.00266384217 -0.13003388 -0.0135323871 -0.0071439133 -0.0947967842 -0.0149263572 0.00336221047 -0.0990977883 -0.0149263572 0.00336221047 -0.0990977883 -0.0120435925 0.00248275395 -0.155885786 -0.0135323871 -0.0071439133 -0.0947967842 0.0138951186 -0.0313773565 -0.17928198 0.0190820917 -0.0328883938 -0.201225728 0.0204977654 -0.0210828893 -0.16024819 0.0145707298 -0.0122131351 -0.159317076 0.0204977654 -0.0210828893 -0.16024819 0.0176552664 0.0173859335 -0.162203521 0.0145707298 -0.0122131351 -0.159317076 0.0138951186 -0.0313773565 -0.17928198 0.0204977654 -0.0210828893 -0.16024819 0.0109106097 0.0120011931 -0.159067124 0.0145707298 -0.0122131351 -0.159317076 0.0176552664 0.0173859335 -0.162203521 0.0166056883 0.00769907143 -0.22516413 0.00988603942 0.0257330388 -0.215234652 0.017334694 0.0308913924 -0.207559198 0.0164261088 -0.0134225618 -0.223638132 0.0097266566 0.00107692659 -0.226051509 0.0166056883 0.00769907143 -0.22516413 0.00965456758 -0.0251264982 -0.215207607 0.0164261088 -0.0134225618 -0.223638132 0.0190820917 -0.0328883938 -0.201225728 0.00958911888 -0.0348792449 -0.188513815 0.00965456758 -0.0251264982 -0.215207607 0.0190820917 -0.0328883938 -0.201225728 0.00958911888 -0.0348792449 -0.188513815 0.0190820917 -0.0328883938 -0.201225728 0.0138951186 -0.0313773565 -0.17928198 0.00739210937 -0.0308123548 -0.173539639 0.0138951186 -0.0313773565 -0.17928198 0.0145707298 -0.0122131351 -0.159317076 0.0153896408 0.02628861 -0.168083191 0.0109106097 0.0120011931 -0.159067124 0.0176552664 0.0173859335 -0.162203521 0.00416541239 -0.00724280532 -0.155828834 0.0145707298 -0.0122131351 -0.159317076 0.0109106097 0.0120011931 -0.159067124 0.00210726517 -0.0329447947 -0.204597414 0.00965456758 -0.0251264982 -0.215207607 0.00958911888 -0.0348792449 -0.188513815 0.00739210937 -0.0308123548 -0.173539639 0.00958911888 -0.0348792449 -0.188513815 0.0138951186 -0.0313773565 -0.17928198 0.00416541239 -0.00724280532 -0.155828834 0.00739210937 -0.0308123548 -0.173539639 0.0145707298 -0.0122131351 -0.159317076 0.0146976402 0.0336797684 -0.181485027 0.017334694 0.0308913924 -0.207559198 0.00210042088 0.0353805386 -0.19715327 0.00210042088 0.0353805386 -0.19715327 0.017334694 0.0308913924 -0.207559198 0.00988603942 0.0257330388 -0.215234652 0.0304999985 0.0265904367 -0.18763116 0.0379106998 0.0205071196 -0.185232863 0.0414999984 0.0260535702 -0.189247534 0.0304999985 0.0247746222 -0.181912512 0.0379106924 0.0186912902 -0.179514244 0.0414999984 0.0242377445 -0.183528885 -0.0163495149 0.00369701069 -0.221443132 -0.0126119778 0.0171658024 -0.222442985 -0.0129811577 -0.00763053307 -0.2259662 -0.0129350023 -0.0291046351 -0.211234331 -0.0163495149 0.00369701069 -0.221443132 -0.0129811577 -0.00763053307 -0.2259662 -0.0164384358 -0.031173978 -0.187801614 -0.0112038879 -0.0354527198 -0.189554214 -0.0123885237 -0.0281667002 -0.17018573 -0.0164384358 -0.031173978 -0.187801614 -0.0129350023 -0.0291046351 -0.211234331 -0.0112038879 -0.0354527198 -0.189554214 -0.0121546537 -0.0119088655 -0.158975914 -0.0164384358 -0.031173978 -0.187801614 -0.0123885237 -0.0281667002 -0.17018573 -0.0129704326 0.028350275 -0.20946756 -0.0126119778 0.0171658024 -0.222442985 -0.0163495149 0.00369701069 -0.221443132 -0.0308480505 0.00707099261 -0.18557559 -0.0285154991 0.00926909968 -0.192834705 0.0384111404 0.00449835416 -0.199561089 0.038912978 0.000167266378 -0.181982815 -0.0308480505 0.00707099261 -0.18557559 0.0384111404 0.00449835416 -0.199561089 0.0392995216 -0.00703861518 -0.197019249 -0.0293496195 -0.00744627742 -0.18592526 0.038912978 0.000167266378 -0.181982815 -0.0298764072 -0.00907090772 -0.193171456 -0.0293496195 -0.00744627742 -0.18592526 0.0392995216 -0.00703861518 -0.197019249 0.00412500091 -0.00471334904 -0.199067101 -0.0298845004 -0.00642818306 -0.197750777 0.0392995216 -0.00703861518 -0.197019249 0.00412500091 -0.00338710286 -0.199738324 0.00412500091 -0.00471334904 -0.199067101 0.0392995216 -0.00703861518 -0.197019249 0.00412500091 -0.00123229914 -0.200284213 0.00412500091 -0.00338710286 -0.199738324 0.0392995216 -0.00703861518 -0.197019249 0.00412500091 -0.00123229914 -0.200284213 0.0392995216 -0.00703861518 -0.197019249 0.0384111404 0.00449835416 -0.199561089 -0.0307543408 0.00454536127 -0.220041618 -0.030855922 0.0209904928 -0.205654815 -0.0307395346 0.0202063825 -0.212367475 -0.0302176271 0.0281175952 -0.195601434 -0.030855922 0.0209904928 -0.205654815 -0.0306592137 0.0256542917 -0.177311435 -0.0307226237 0.0269624125 -0.200506061 -0.0307395346 0.0202063825 -0.212367475 -0.030855922 0.0209904928 -0.205654815 -0.0307226237 0.0269624125 -0.200506061 -0.030855922 0.0209904928 -0.205654815 -0.0302176271 0.0281175952 -0.195601434 -0.030852804 0.000961685204 -0.160720482 -0.0306592137 0.0256542917 -0.177311435 -0.030855922 0.0209904928 -0.205654815 -0.0308566429 -0.0189629048 -0.213951722 -0.030855922 0.0209904928 -0.205654815 -0.0307543408 0.00454536127 -0.220041618 -0.0308079869 -0.0282302871 -0.180810288 -0.030852804 0.000961685204 -0.160720482 -0.0308566429 -0.0189629048 -0.213951722 -0.0308480505 0.00707099261 -0.18557559 -0.030855922 0.0209904928 -0.205654815 -0.0308566429 -0.0189629048 -0.213951722 -0.0308480505 0.00707099261 -0.18557559 -0.030852804 0.000961685204 -0.160720482 -0.030855922 0.0209904928 -0.205654815 -0.0308480505 0.00707099261 -0.18557559 -0.0308566429 -0.0189629048 -0.213951722 -0.030852804 0.000961685204 -0.160720482 -0.0293496195 -0.00744627742 -0.18592526 -0.0308480505 0.00707099261 -0.18557559 0.038912978 0.000167266378 -0.181982815 0.00412500091 -0.00123229914 -0.200284213 0.0384111404 0.00449835416 -0.199561089 -0.0285154991 0.00926909968 -0.192834705 0.00412500091 -0.00123229914 -0.200284213 -0.0285154991 0.00926909968 -0.192834705 -0.0298845004 -0.00642818306 -0.197750777 0.00412500091 -0.00123229914 -0.200284213 -0.0298845004 -0.00642818306 -0.197750777 0.00412500091 -0.00338710286 -0.199738324 0.00412500091 -0.00338710286 -0.199738324 -0.0298845004 -0.00642818306 -0.197750777 0.00412500091 -0.00471334904 -0.199067101 -0.0298764072 -0.00907090772 -0.193171456 -0.0308480505 0.00707099261 -0.18557559 -0.0293496195 -0.00744627742 -0.18592526 -0.0298845004 -0.00642818306 -0.197750777 -0.0285154991 0.00926909968 -0.192834705 -0.0308480505 0.00707099261 -0.18557559 -0.0298845004 -0.00642818306 -0.197750777 -0.0308480505 0.00707099261 -0.18557559 -0.0298764072 -0.00907090772 -0.193171456 -0.0298845004 -0.00642818306 -0.197750777 -0.0298764072 -0.00907090772 -0.193171456 0.0392995216 -0.00703861518 -0.197019249 0.0371662267 0.0358753055 -0.193224326 0.0376018286 0.00131323235 -0.211567342 0.0373929851 0.0228818692 -0.21912536 0.0373960882 -0.0212474354 -0.220327288 0.0374740176 -0.0345512964 -0.199405983 0.022041725 -0.0251226667 -0.216327414 0.0375005789 -0.00760136312 -0.156143859 0.0374874286 0.0123448987 -0.158569857 0.022299733 -0.00309111946 -0.156071275 0.023331549 -0.0241384655 -0.165453449 0.0375005789 -0.00760136312 -0.156143859 0.022299733 -0.00309111946 -0.156071275 0.0364020392 -0.0337525792 -0.180866525 0.0375005789 -0.00760136312 -0.156143859 0.023331549 -0.0241384655 -0.165453449 0.037519794 0.0153751634 -0.183705807 0.0368614458 0.0264842156 -0.167341962 0.0374874286 0.0123448987 -0.158569857 0.0375317372 -0.0189374778 -0.197512463 0.037519794 0.0153751634 -0.183705807 0.0374874286 0.0123448987 -0.158569857 0.0388063975 -0.00301094167 -0.17335622 0.037519794 0.0153751634 -0.183705807 0.0375317372 -0.0189374778 -0.197512463 0.0375317372 -0.0189374778 -0.197512463 0.0374740176 -0.0345512964 -0.199405983 0.0376018286 0.00131323235 -0.211567342 0.0371820852 -0.000700599165 -0.226860195 0.0376018286 0.00131323235 -0.211567342 0.0373960882 -0.0212474354 -0.220327288 0.0375317372 -0.0189374778 -0.197512463 0.0374874286 0.0123448987 -0.158569857 0.0375005789 -0.00760136312 -0.156143859 0.0371820852 -0.000700599165 -0.226860195 0.0373929851 0.0228818692 -0.21912536 0.0376018286 0.00131323235 -0.211567342 0.0373960882 -0.0212474354 -0.220327288 0.0376018286 0.00131323235 -0.211567342 0.0374740176 -0.0345512964 -0.199405983 0.0375317372 -0.0189374778 -0.197512463 0.0364020392 -0.0337525792 -0.180866525 0.0374740176 -0.0345512964 -0.199405983 0.0375317372 -0.0189374778 -0.197512463 0.0375005789 -0.00760136312 -0.156143859 0.0364020392 -0.0337525792 -0.180866525 0.00362975406 0.00793941785 -0.027499998 0.00655210204 -0.00492310803 -0.0275000017 0.00615259027 0.00680389907 -0.0545000024 -0.00620888732 0.00461647706 -0.0545000024 0.00362975406 0.00793941785 -0.027499998 0.00615259027 0.00680389907 -0.0545000024 -0.00646775262 0.00424621301 -0.027499998 0.00362975406 0.00793941785 -0.027499998 -0.00620888732 0.00461647706 -0.0545000024 -0.00672844984 -0.00498208078 -0.0545000024 -0.00646775262 0.00424621301 -0.027499998 -0.00620888732 0.00461647706 -0.0545000024 -0.00586251868 -0.00622644881 -0.0274999999 -0.00646775262 0.00424621301 -0.027499998 -0.00672844984 -0.00498208078 -0.0545000024 0.00398396235 -0.00692399126 -0.0545000024 -0.00586251868 -0.00622644881 -0.0274999999 -0.00672844984 -0.00498208078 -0.0545000024 0.00398396235 -0.00692399126 -0.0545000024 0.00655210204 -0.00492310803 -0.0275000017 -0.00586251868 -0.00622644881 -0.0274999999 0.00398396235 -0.00692399126 -0.0545000024 0.00615259027 0.00680389907 -0.0545000024 0.00655210204 -0.00492310803 -0.0275000017 0.029862944 -0.00832888763 -0.0261703841 0.0140185254 0.0302049294 -0.0244428124 -0.0108585497 0.0304436423 -0.0241722856 0.0101574017 -0.0293077845 -0.0242756326 0.029862944 -0.00832888763 -0.0261703841 -0.0108585497 0.0304436423 -0.0241722856 -0.0303804297 -0.0151128992 -0.0254508127 0.0101574017 -0.0293077845 -0.0242756326 -0.0108585497 0.0304436423 -0.0241722856 0.0028059592 -0.00866508111 -0.0288999993 0.00782117341 0.0026479254 -0.0376558937 0.00313790236 -0.00875996612 -0.048150003 -0.00782117341 -0.00264792517 -0.0376558937 0.0028059592 -0.00866508111 -0.0288999993 0.00313790236 -0.00875996612 -0.048150003 -0.0028059592 0.00866508111 -0.0288999975 -0.00782117341 -0.00264792517 -0.0376558937 -0.00313790212 0.00875996612 -0.048150003 -0.0028059592 0.00866508111 -0.0288999975 -0.00313790212 0.00875996612 -0.048150003 0.00782117341 0.0026479254 -0.0376558937 -0.0255031846 0.00931057334 -0.000193403568 0.00412570126 -0.0275742281 -0.000198801892 0.0164195616 0.0186586305 -0.000389007415 0.00502743665 -0.00365474494 -0.00020089779 0.00412570126 -0.0275742281 -0.000198801892 -0.0255031846 0.00931057334 -0.000193403568 0.00560139632 0.00262253475 -0.0605361089 0.00502743665 -0.00365474494 -0.00020089779 -0.00222707377 0.00652082916 -0.00211065263 -0.00594384037 -0.00260677375 -0.0467844903 -0.00222707377 0.00652082916 -0.00211065263 0.00502743665 -0.00365474494 -0.00020089779 -0.00253036967 -0.00626748381 -0.0603526682 -0.00594384037 -0.00260677375 -0.0467844903 0.00502743665 -0.00365474494 -0.00020089779 -0.00594384037 -0.00260677375 -0.0467844903 0.00560139632 0.00262253475 -0.0605361089 -0.00222707377 0.00652082916 -0.00211065263 -0.00253036967 -0.00626748381 -0.0603526682 0.00502743665 -0.00365474494 -0.00020089779 0.00560139632 0.00262253475 -0.0605361089 0.0137924692 0.0064805327 -0.0586333089 -0.0129704326 0.0119526815 -0.0582356565 -0.0169806164 0.0250539128 -0.0579823963 0.0295333844 0.00746679492 -0.0579953641 0.0137924692 0.0064805327 -0.0586333089 -0.0169806164 0.0250539128 -0.0579823963 0.0281377174 -0.0118334349 -0.0567524843 0.0137924692 0.0064805327 -0.0586333089 0.0295333844 0.00746679492 -0.0579953641 0.0117014805 0.0279112458 -0.056698896 0.0295333844 0.00746679492 -0.0579953641 -0.0169806164 0.0250539128 -0.0579823963 0.0203902908 0.0223726146 -0.0550155975 0.0295333844 0.00746679492 -0.0579953641 0.0117014805 0.0279112458 -0.056698896 -0.0296308454 -0.00552085787 -0.0578787811 -0.0288161095 0.0106102414 -0.0575002544 -0.0129704326 0.0119526815 -0.0582356565 -0.0141566684 -0.0270236693 -0.0576545149 -0.0296308454 -0.00552085787 -0.0578787811 0.00457938248 -0.0162495207 -0.0581918098 0.0104131419 -0.0293797776 -0.0571496785 -0.0141566684 -0.0270236693 -0.0576545149 0.00457938248 -0.0162495207 -0.0581918098 -0.0048831203 0.0300712101 -0.0576558597 0.0117014805 0.0279112458 -0.056698896 -0.0169806164 0.0250539128 -0.0579823963 0.00457938248 -0.0162495207 -0.0581918098 -0.0296308454 -0.00552085787 -0.0578787811 -0.0129704326 0.0119526815 -0.0582356565 -0.0288161095 0.0106102414 -0.0575002544 -0.0169806164 0.0250539128 -0.0579823963 -0.0129704326 0.0119526815 -0.0582356565 -0.0258355662 -0.0156372525 -0.04587055 -0.0296308454 -0.00552085787 -0.0578787811 -0.0141566684 -0.0270236693 -0.0576545149 0.0292233694 0.0086989738 -0.0424948521 0.0295333844 0.00746679492 -0.0579953641 0.0203902908 0.0223726146 -0.0550155975 0.0292233694 0.0086989738 -0.0424948521 0.0281377174 -0.0118334349 -0.0567524843 0.0295333844 0.00746679492 -0.0579953641 0.00457938248 -0.0162495207 -0.0581918098 -0.0129704326 0.0119526815 -0.0582356565 0.0137924692 0.0064805327 -0.0586333089 0.0124703571 -0.0262338314 -0.0428000018 0.0291006528 -0.00872977264 -0.0428000018 0.0258827358 -0.0143509153 -0.0535000004 0.0113704111 -0.0267289635 -0.0535000004 0.0124703571 -0.0262338314 -0.0428000018 0.0258827358 -0.0143509153 -0.0535000004 -0.00860396121 -0.0286438521 -0.0428000055 0.0124703571 -0.0262338314 -0.0428000018 0.0113704111 -0.0267289635 -0.0535000004 -0.0150242457 -0.0268578567 -0.0523111112 -0.00860396121 -0.0286438521 -0.0428000055 0.0113704111 -0.0267289635 -0.0535000004 -0.0258827358 0.0143509153 -0.0535000004 -0.0291006528 0.00872977264 -0.0428000018 -0.028278783 -0.00764652994 -0.0492199995 -0.0124703571 0.0262338314 -0.0428000018 -0.0291006528 0.00872977264 -0.0428000018 -0.0258827358 0.0143509153 -0.0535000004 -0.0113704111 0.0267289635 -0.0535000004 -0.0124703571 0.0262338314 -0.0428000018 -0.0258827358 0.0143509153 -0.0535000004 0.00860396121 0.0286438521 -0.0427999981 -0.0124703571 0.0262338314 -0.0428000018 -0.0113704111 0.0267289635 -0.0535000004 0.0150242457 0.0268578567 -0.0523111075 0.00860396121 0.0286438521 -0.0427999981 -0.0113704111 0.0267289635 -0.0535000004 0.028278783 0.0076465304 -0.0492199957 0.0258827358 -0.0143509153 -0.0535000004 0.0291006528 -0.00872977264 -0.0428000018 0.0333366804 -0.00562562374 -0.071016632 0.0265392289 -0.00240797014 -0.071254164 0.0171868745 -0.022727415 -0.0713916793 -0.0264057536 0.00249282806 -0.0719357878 -0.0172560606 -0.022397805 -0.0716006607 -0.0197991598 -0.0172274169 -0.0793237835 -0.017174596 0.0187984481 -0.0793860331 -0.0156872328 0.0202365834 -0.0716199875 -0.0264057536 0.00249282806 -0.0719357878 0.0257401858 -0.000826169911 -0.0793719888 0.0265392289 -0.00240797014 -0.071254164 0.0205953028 0.0164005086 -0.0714741275 0.0257401858 -0.000826169911 -0.0793719888 0.0265392289 -0.00240797014 -0.071254164 0.0333366804 -0.00562562374 -0.071016632 0.0143852076 -0.0249502473 -0.0714097917 0.0171868745 -0.022727415 -0.0713916793 0.0184617173 -0.0197242387 -0.0793359578 -0.0230884869 0.0240279008 -0.070908159 -0.017174596 0.0187984481 -0.0793860331 -0.0156872328 0.0202365834 -0.0716199875 0.0190148801 0.0172762591 -0.0793429539 0.0205953028 0.0164005086 -0.0714741275 0.0252151024 0.0217236709 -0.0732014403 -0.00416849647 -0.0338030607 -0.0706897005 -0.00227908138 -0.0338190831 -0.0793225914 -0.00217295508 -0.0258660205 -0.0769150406 -0.00295402925 -0.0305667222 -0.0400164239 -0.00114196748 -0.033928182 -0.0396026857 0.00480969343 -0.0327980109 -0.0234224163 -0.0141126467 -0.0269425418 -0.0236471388 -0.00295402925 -0.0305667222 -0.0400164239 -0.0213443469 -0.0211079251 -0.0385345183 0.00468910811 0.0297355969 -0.0712820739 0.00455795089 0.0298335031 -0.0377763659 -0.00292519457 0.0318920538 -0.0237651803 -0.0139476918 0.0274323486 -0.0401563048 -0.00292519457 0.0318920538 -0.0237651803 0.00455795089 0.0298335031 -0.0377763659 -0.0213443469 -0.0211079251 -0.0385345183 -0.00295402925 -0.0305667222 -0.0400164239 -0.0172560606 -0.022397805 -0.0716006607 0.0159870293 -0.0256589893 -0.0420092791 -0.00295402925 -0.0305667222 -0.0400164239 0.0142637305 -0.0268124957 -0.0235299077 0.0159870293 -0.0256589893 -0.0420092791 0.0171868745 -0.022727415 -0.0713916793 0.0143852076 -0.0249502473 -0.0714097917 0.0299137905 -0.00640292326 -0.040199887 0.0159870293 -0.0256589893 -0.0420092791 0.0278725065 -0.0138993347 -0.0236050002 0.0278725065 -0.0138993347 -0.0236050002 0.0159870293 -0.0256589893 -0.0420092791 0.0142637305 -0.0268124957 -0.0235299077 0.0282497797 0.0104487957 -0.0237316918 0.0299137905 -0.00640292326 -0.040199887 0.0278725065 -0.0138993347 -0.0236050002 0.0297888741 0.00463067507 -0.0713167265 0.0299137905 -0.00640292326 -0.040199887 0.0282497797 0.0104487957 -0.0237316918 0.0221609492 0.0247597545 -0.0708908662 0.0297888741 0.00463067507 -0.0713167265 0.0282497797 0.0104487957 -0.0237316918 -0.0180457421 0.0257751998 -0.0233890116 -0.0251514502 0.0169610083 -0.0369054787 -0.0139476918 0.0274323486 -0.0401563048 -0.0293412954 0.00754249003 -0.0394471958 -0.0267315395 0.0137451123 -0.0713892207 -0.0251514502 0.0169610083 -0.0369054787 -0.0330763347 -0.00263591669 -0.0708023384 -0.0267315395 0.0137451123 -0.0713892207 -0.0293412954 0.00754249003 -0.0394471958 -0.0294821225 -0.0103070494 -0.0402055271 -0.0293412954 0.00754249003 -0.0394471958 -0.0288102906 -0.0125433691 -0.0233789124 -0.0337854028 0.00287222699 -0.0234078057 -0.0288102906 -0.0125433691 -0.0233789124 -0.0180457421 0.0257751998 -0.0233890116 -0.00217295508 -0.0258660205 -0.0769150406 0.0184617173 -0.0197242387 -0.0793359578 -0.00227908138 -0.0338190831 -0.0793225914 -0.0167487822 -0.0286503714 -0.0793840215 -0.00217295508 -0.0258660205 -0.0769150406 -0.00227908138 -0.0338190831 -0.0793225914 -0.0167487822 -0.0286503714 -0.0793840215 -0.0197991598 -0.0172274169 -0.0793237835 -0.00217295508 -0.0258660205 -0.0769150406 0.0329189524 0.00350553775 -0.0793512464 0.0257401858 -0.000826169911 -0.0793719888 0.0152375288 0.0292010177 -0.0794004574 0.023265142 -0.0243363399 -0.0793334991 0.0257401858 -0.000826169911 -0.0793719888 0.0329189524 0.00350553775 -0.0793512464 0.023265142 -0.0243363399 -0.0793334991 0.0184617173 -0.0197242387 -0.0793359578 0.0257401858 -0.000826169911 -0.0793719888 -0.0266604833 -0.02141013 -0.0793461725 -0.0197991598 -0.0172274169 -0.0793237835 -0.0167487822 -0.0286503714 -0.0793840215 -0.0303537603 0.012942329 -0.0794009417 -0.0197991598 -0.0172274169 -0.0793237835 -0.0266604833 -0.02141013 -0.0793461725 -0.0303537603 0.012942329 -0.0794009417 -0.017174596 0.0187984481 -0.0793860331 -0.0197991598 -0.0172274169 -0.0793237835 -0.0112228291 0.0311361775 -0.0793949217 -0.017174596 0.0187984481 -0.0793860331 -0.0303537603 0.012942329 -0.0794009417 -0.0112228291 0.0311361775 -0.0793949217 0.0152375288 0.0292010177 -0.0794004574 -0.017174596 0.0187984481 -0.0793860331 0.0152375288 0.0292010177 -0.0794004574 0.0190148801 0.0172762591 -0.0793429539 -0.017174596 0.0187984481 -0.0793860331 0.0329189524 0.00350553775 -0.0793512464 0.0152375288 0.0292010177 -0.0794004574 0.0190148801 0.0172762591 -0.0793429539 0.0287082903 -0.0181834307 -0.0402252488 0.0329189524 0.00350553775 -0.0793512464 0.0330212824 -0.00452147704 -0.0234718416 0.0306709893 0.0133234346 -0.023645699 0.0330212824 -0.00452147704 -0.0234718416 0.0329189524 0.00350553775 -0.0793512464 0.0287082903 -0.0181834307 -0.0402252488 0.0330212824 -0.00452147704 -0.0234718416 0.0278725065 -0.0138993347 -0.0236050002 0.0301826019 0.0133984862 -0.0694676787 0.0190148801 0.0172762591 -0.0793429539 0.0252151024 0.0217236709 -0.0732014403 0.0152375288 0.0292010177 -0.0794004574 0.0221609492 0.0247597545 -0.0708908662 0.0252151024 0.0217236709 -0.0732014403 0.0061703641 0.0325489715 -0.0753806978 0.0221609492 0.0247597545 -0.0708908662 0.0152375288 0.0292010177 -0.0794004574 0.0061703641 0.0325489715 -0.0753806978 -0.0112228291 0.0311361775 -0.0793949217 -0.00292519457 0.0318920538 -0.0237651803 -0.02860233 0.0164901745 -0.0548736006 -0.0230884869 0.0240279008 -0.070908159 -0.0303537603 0.012942329 -0.0794009417 -0.0165691897 0.0296985731 -0.0392178595 -0.02860233 0.0164901745 -0.0548736006 -0.0337854028 0.00287222699 -0.0234078057 0.00575446757 0.0327287912 -0.0235879607 0.0061703641 0.0325489715 -0.0753806978 -0.00292519457 0.0318920538 -0.0237651803 -0.0303537603 0.012942329 -0.0794009417 -0.0264057536 0.00249282806 -0.0719357878 -0.0330763347 -0.00263591669 -0.0708023384 -0.0303537603 0.012942329 -0.0794009417 -0.0330763347 -0.00263591669 -0.0708023384 -0.0293412954 0.00754249003 -0.0394471958 -0.0182982497 -0.0283258762 -0.0235652961 -0.0288102906 -0.0125433691 -0.0233789124 -0.0294821225 -0.0103070494 -0.0402055271 -0.0337854028 0.00287222699 -0.0234078057 -0.0294821225 -0.0103070494 -0.0402055271 -0.0288102906 -0.0125433691 -0.0233789124 -0.0337854028 0.00287222699 -0.0234078057 -0.0293412954 0.00754249003 -0.0394471958 -0.0294821225 -0.0103070494 -0.0402055271 0.0134803066 -0.0303894486 -0.0694874302 -0.00416849647 -0.0338030607 -0.0706897005 -0.00227908138 -0.0338190831 -0.0793225914 0.023265142 -0.0243363399 -0.0793334991 -0.00114196748 -0.033928182 -0.0396026857 0.0159870293 -0.0256589893 -0.0420092791 0.0134803066 -0.0303894486 -0.0694874302 0.023265142 -0.0243363399 -0.0793334991 0.0159870293 -0.0256589893 -0.0420092791 -0.0182982497 -0.0283258762 -0.0235652961 -0.00114196748 -0.033928182 -0.0396026857 0.00480969343 -0.0327980109 -0.0234224163 -0.0182982497 -0.0283258762 -0.0235652961 -0.0167487822 -0.0286503714 -0.0793840215 -0.00114196748 -0.033928182 -0.0396026857 0.0152375288 0.0292010177 -0.0794004574 0.0252151024 0.0217236709 -0.0732014403 0.0190148801 0.0172762591 -0.0793429539 -0.0182982497 -0.0283258762 -0.0235652961 -0.0266604833 -0.02141013 -0.0793461725 -0.0167487822 -0.0286503714 -0.0793840215 0.0301826019 0.0133984862 -0.0694676787 0.0306709893 0.0133234346 -0.023645699 0.0329189524 0.00350553775 -0.0793512464 -0.0303537603 0.012942329 -0.0794009417 -0.0293412954 0.00754249003 -0.0394471958 -0.0337854028 0.00287222699 -0.0234078057 -0.02860233 0.0164901745 -0.0548736006 -0.0303537603 0.012942329 -0.0794009417 -0.0337854028 0.00287222699 -0.0234078057 -0.0167487822 -0.0286503714 -0.0793840215 -0.0172560606 -0.022397805 -0.0716006607 -0.0197991598 -0.0172274169 -0.0793237835 0.0134803066 -0.0303894486 -0.0694874302 0.0159870293 -0.0256589893 -0.0420092791 0.0143852076 -0.0249502473 -0.0714097917 -0.0167487822 -0.0286503714 -0.0793840215 -0.0172560606 -0.022397805 -0.0716006607 -0.00295402925 -0.0305667222 -0.0400164239 -0.0165691897 0.0296985731 -0.0392178595 -0.0139476918 0.0274323486 -0.0401563048 -0.0251514502 0.0169610083 -0.0369054787 0.0287082903 -0.0181834307 -0.0402252488 0.0159870293 -0.0256589893 -0.0420092791 0.0299137905 -0.00640292326 -0.040199887 0.023265142 -0.0243363399 -0.0793334991 0.0171868745 -0.022727415 -0.0713916793 0.0159870293 -0.0256589893 -0.0420092791 -0.0266604833 -0.02141013 -0.0793461725 -0.0172560606 -0.022397805 -0.0716006607 -0.0330763347 -0.00263591669 -0.0708023384 -0.0266604833 -0.02141013 -0.0793461725 -0.0213443469 -0.0211079251 -0.0385345183 -0.0172560606 -0.022397805 -0.0716006607 -0.0167487822 -0.0286503714 -0.0793840215 -0.00416849647 -0.0338030607 -0.0706897005 -0.0172560606 -0.022397805 -0.0716006607 -0.02860233 0.0164901745 -0.0548736006 -0.0251514502 0.0169610083 -0.0369054787 -0.0267315395 0.0137451123 -0.0713892207 -0.0165691897 0.0296985731 -0.0392178595 -0.0251514502 0.0169610083 -0.0369054787 -0.02860233 0.0164901745 -0.0548736006 -0.0165691897 0.0296985731 -0.0392178595 -0.00292519457 0.0318920538 -0.0237651803 -0.0139476918 0.0274323486 -0.0401563048 0.0061703641 0.0325489715 -0.0753806978 0.00455795089 0.0298335031 -0.0377763659 0.00468910811 0.0297355969 -0.0712820739 0.0205948148 0.0230567269 -0.0396735817 0.0225086901 0.0244950689 -0.0349813066 0.0306709893 0.0133234346 -0.023645699 0.0205948148 0.0230567269 -0.0396735817 0.0306709893 0.0133234346 -0.023645699 0.0282497797 0.0104487957 -0.0237316918 0.0134803066 -0.0303894486 -0.0694874302 0.0143852076 -0.0249502473 -0.0714097917 -0.00416849647 -0.0338030607 -0.0706897005 0.0329189524 0.00350553775 -0.0793512464 0.0265392289 -0.00240797014 -0.071254164 0.0333366804 -0.00562562374 -0.071016632 0.0329189524 0.00350553775 -0.0793512464 0.0297888741 0.00463067507 -0.0713167265 0.0265392289 -0.00240797014 -0.071254164 0.0306709893 0.0133234346 -0.023645699 0.0221609492 0.0247597545 -0.0708908662 0.0282497797 0.0104487957 -0.0237316918 0.0061703641 0.0325489715 -0.0753806978 0.00468910811 0.0297355969 -0.0712820739 0.0221609492 0.0247597545 -0.0708908662 -0.02860233 0.0164901745 -0.0548736006 -0.0267315395 0.0137451123 -0.0713892207 -0.0230884869 0.0240279008 -0.070908159 0.0297888741 0.00463067507 -0.0713167265 0.0205953028 0.0164005086 -0.0714741275 0.0265392289 -0.00240797014 -0.071254164 0.0221609492 0.0247597545 -0.0708908662 0.0205953028 0.0164005086 -0.0714741275 0.0297888741 0.00463067507 -0.0713167265 0.00158116606 0.0258377995 -0.0717680752 0.0205953028 0.0164005086 -0.0714741275 0.0221609492 0.0247597545 -0.0708908662 0.00158116606 0.0258377995 -0.0717680752 0.0221609492 0.0247597545 -0.0708908662 0.00468910811 0.0297355969 -0.0712820739 0.00158116606 0.0258377995 -0.0717680752 0.00468910811 0.0297355969 -0.0712820739 -0.0156872328 0.0202365834 -0.0716199875 0.00468910811 0.0297355969 -0.0712820739 -0.0230884869 0.0240279008 -0.070908159 -0.0156872328 0.0202365834 -0.0716199875 -0.0267315395 0.0137451123 -0.0713892207 -0.0156872328 0.0202365834 -0.0716199875 -0.0230884869 0.0240279008 -0.070908159 -0.0267315395 0.0137451123 -0.0713892207 -0.0264057536 0.00249282806 -0.0719357878 -0.0156872328 0.0202365834 -0.0716199875 -0.0330763347 -0.00263591669 -0.0708023384 -0.0264057536 0.00249282806 -0.0719357878 -0.0267315395 0.0137451123 -0.0713892207 -0.0330763347 -0.00263591669 -0.0708023384 -0.0172560606 -0.022397805 -0.0716006607 -0.0264057536 0.00249282806 -0.0719357878 -0.00416849647 -0.0338030607 -0.0706897005 -0.00217295508 -0.0258660205 -0.0769150406 -0.0172560606 -0.022397805 -0.0716006607 -0.00416849647 -0.0338030607 -0.0706897005 0.0143852076 -0.0249502473 -0.0714097917 -0.00217295508 -0.0258660205 -0.0769150406 0.0134803066 -0.0303894486 -0.0694874302 0.0184617173 -0.0197242387 -0.0793359578 0.023265142 -0.0243363399 -0.0793334991 0.0061703641 0.0325489715 -0.0753806978 0.0152375288 0.0292010177 -0.0794004574 -0.0112228291 0.0311361775 -0.0793949217 -0.0112228291 0.0311361775 -0.0793949217 -0.0303537603 0.012942329 -0.0794009417 -0.0230884869 0.0240279008 -0.070908159 0.023265142 -0.0243363399 -0.0793334991 0.0329189524 0.00350553775 -0.0793512464 0.0333366804 -0.00562562374 -0.071016632 0.0301826019 0.0133984862 -0.0694676787 0.0329189524 0.00350553775 -0.0793512464 0.0190148801 0.0172762591 -0.0793429539 0.0134803066 -0.0303894486 -0.0694874302 -0.00227908138 -0.0338190831 -0.0793225914 0.0184617173 -0.0197242387 -0.0793359578 -0.0167487822 -0.0286503714 -0.0793840215 -0.00227908138 -0.0338190831 -0.0793225914 -0.00416849647 -0.0338030607 -0.0706897005 -0.0303537603 0.012942329 -0.0794009417 -0.0266604833 -0.02141013 -0.0793461725 -0.0330763347 -0.00263591669 -0.0708023384 -0.0165691897 0.0296985731 -0.0392178595 -0.0337854028 0.00287222699 -0.0234078057 -0.0180457421 0.0257751998 -0.0233890116 -0.0165691897 0.0296985731 -0.0392178595 -0.0180457421 0.0257751998 -0.0233890116 -0.00292519457 0.0318920538 -0.0237651803 0.0306709893 0.0133234346 -0.023645699 0.0282497797 0.0104487957 -0.0237316918 0.0330212824 -0.00452147704 -0.0234718416 0.0287082903 -0.0181834307 -0.0402252488 0.0278725065 -0.0138993347 -0.0236050002 0.0142637305 -0.0268124957 -0.0235299077 0.0287082903 -0.0181834307 -0.0402252488 0.0142637305 -0.0268124957 -0.0235299077 0.023265142 -0.0243363399 -0.0793334991 0.023265142 -0.0243363399 -0.0793334991 0.0142637305 -0.0268124957 -0.0235299077 0.00480969343 -0.0327980109 -0.0234224163 0.023265142 -0.0243363399 -0.0793334991 0.00480969343 -0.0327980109 -0.0234224163 -0.00114196748 -0.033928182 -0.0396026857 0.0159870293 -0.0256589893 -0.0420092791 -0.00114196748 -0.033928182 -0.0396026857 -0.00295402925 -0.0305667222 -0.0400164239 -0.0167487822 -0.0286503714 -0.0793840215 -0.00295402925 -0.0305667222 -0.0400164239 -0.00114196748 -0.033928182 -0.0396026857 -0.0182982497 -0.0283258762 -0.0235652961 -0.0213443469 -0.0211079251 -0.0385345183 -0.0266604833 -0.02141013 -0.0793461725 -0.0182982497 -0.0283258762 -0.0235652961 -0.0294821225 -0.0103070494 -0.0402055271 -0.0213443469 -0.0211079251 -0.0385345183 -0.0112228291 0.0311361775 -0.0793949217 -0.0230884869 0.0240279008 -0.070908159 0.00468910811 0.0297355969 -0.0712820739 -0.0112228291 0.0311361775 -0.0793949217 0.00468910811 0.0297355969 -0.0712820739 -0.00292519457 0.0318920538 -0.0237651803 0.0301826019 0.0133984862 -0.0694676787 0.0252151024 0.0217236709 -0.0732014403 0.0221609492 0.0247597545 -0.0708908662 0.0301826019 0.0133984862 -0.0694676787 0.0221609492 0.0247597545 -0.0708908662 0.0306709893 0.0133234346 -0.023645699 0.00575446757 0.0327287912 -0.0235879607 0.00455795089 0.0298335031 -0.0377763659 0.0061703641 0.0325489715 -0.0753806978 0.0205948148 0.0230567269 -0.0396735817 0.00575446757 0.0327287912 -0.0235879607 0.0225086901 0.0244950689 -0.0349813066 0.0205948148 0.0230567269 -0.0396735817 0.00455795089 0.0298335031 -0.0377763659 0.00575446757 0.0327287912 -0.0235879607 0.023265142 -0.0243363399 -0.0793334991 0.0333366804 -0.00562562374 -0.071016632 0.0171868745 -0.022727415 -0.0713916793 0.0287082903 -0.0181834307 -0.0402252488 0.0299137905 -0.00640292326 -0.040199887 0.0329189524 0.00350553775 -0.0793512464 0.0329189524 0.00350553775 -0.0793512464 0.0299137905 -0.00640292326 -0.040199887 0.0297888741 0.00463067507 -0.0713167265 0.0287082903 -0.0181834307 -0.0402252488 0.023265142 -0.0243363399 -0.0793334991 0.0159870293 -0.0256589893 -0.0420092791 -0.0180457421 0.0257751998 -0.0233890116 -0.0139476918 0.0274323486 -0.0401563048 -0.00292519457 0.0318920538 -0.0237651803 -0.0293412954 0.00754249003 -0.0394471958 -0.0251514502 0.0169610083 -0.0369054787 -0.0180457421 0.0257751998 -0.0233890116 -0.0288102906 -0.0125433691 -0.0233789124 -0.0293412954 0.00754249003 -0.0394471958 -0.0180457421 0.0257751998 -0.0233890116 -0.0182982497 -0.0283258762 -0.0235652961 -0.0141126467 -0.0269425418 -0.0236471388 -0.0213443469 -0.0211079251 -0.0385345183 -0.0182982497 -0.0283258762 -0.0235652961 0.00480969343 -0.0327980109 -0.0234224163 -0.0141126467 -0.0269425418 -0.0236471388 -0.0141126467 -0.0269425418 -0.0236471388 0.00480969343 -0.0327980109 -0.0234224163 -0.00295402925 -0.0305667222 -0.0400164239 0.0142637305 -0.0268124957 -0.0235299077 -0.00295402925 -0.0305667222 -0.0400164239 0.00480969343 -0.0327980109 -0.0234224163 0.0330212824 -0.00452147704 -0.0234718416 0.0282497797 0.0104487957 -0.0237316918 0.0278725065 -0.0138993347 -0.0236050002 0.00575446757 0.0327287912 -0.0235879607 -0.00292519457 0.0318920538 -0.0237651803 0.00455795089 0.0298335031 -0.0377763659 -0.00217295508 -0.0258660205 -0.0769150406 -0.0197991598 -0.0172274169 -0.0793237835 -0.0172560606 -0.022397805 -0.0716006607 -0.017174596 0.0187984481 -0.0793860331 -0.0264057536 0.00249282806 -0.0719357878 -0.0197991598 -0.0172274169 -0.0793237835 0.00158116606 0.0258377995 -0.0717680752 -0.0156872328 0.0202365834 -0.0716199875 -0.017174596 0.0187984481 -0.0793860331 0.00158116606 0.0258377995 -0.0717680752 -0.017174596 0.0187984481 -0.0793860331 0.0190148801 0.0172762591 -0.0793429539 0.00158116606 0.0258377995 -0.0717680752 0.0190148801 0.0172762591 -0.0793429539 0.0205953028 0.0164005086 -0.0714741275 0.0152375288 0.0292010177 -0.0794004574 0.0205953028 0.0164005086 -0.0714741275 0.0190148801 0.0172762591 -0.0793429539 0.0152375288 0.0292010177 -0.0794004574 0.0257401858 -0.000826169911 -0.0793719888 0.0205953028 0.0164005086 -0.0714741275 0.0257401858 -0.000826169911 -0.0793719888 0.0171868745 -0.022727415 -0.0713916793 0.0265392289 -0.00240797014 -0.071254164 0.0184617173 -0.0197242387 -0.0793359578 0.0171868745 -0.022727415 -0.0713916793 0.0257401858 -0.000826169911 -0.0793719888 -0.00217295508 -0.0258660205 -0.0769150406 0.0143852076 -0.0249502473 -0.0714097917 0.0184617173 -0.0197242387 -0.0793359578 </float_array>
          <technique_common>
            <accessor count="1410" offset="0" source="#mesh_0-positions-array" stride="3">
              <param name="X" type="float" />
              <param name="Y" type="float" />
              <param name="Z" type="float" />
            </accessor>
          </technique_common>
        </source>
        <vertices id="mesh_0-vertices">
          <input semantic="POSITION" source="#mesh_0-positions" />
        </vertices>
        <polylist count="470" material="defaultMaterial">
          <input offset="0" semantic="VERTEX" source="#mesh_0-vertices" />
          <vcount>3 3 3 3 3 3 3 3 3 3 3 3 3 3 3 3 3 3 3 3 3 3 3 3 3 3 3 3 3 3 3 3 3 3 3 3 3 3 3 3 3 3 3 3 3 3 3 3 3 3 3 3 3 3 3 3 3 3 3 3 3 3 3 3 3 3 3 3 3 3 3 3 3 3 3 3 3 3 3 3 3 3 3 3 3 3 3 3 3 3 3 3 3 3 3 3 3 3 3 3 3 3 3 3 3 3 3 3 3 3 3 3 3 3 3 3 3 3 3 3 3 3 3 3 3 3 3 3 3 3 3 3 3 3 3 3 3 3 3 3 3 3 3 3 3 3 3 3 3 3 3 3 3 3 3 3 3 3 3 3 3 3 3 3 3 3 3 3 3 3 3 3 3 3 3 3 3 3 3 3 3 3 3 3 3 3 3 3 3 3 3 3 3 3 3 3 3 3 3 3 3 3 3 3 3 3 3 3 3 3 3 3 3 3 3 3 3 3 3 3 3 3 3 3 3 3 3 3 3 3 3 3 3 3 3 3 3 3 3 3 3 3 3 3 3 3 3 3 3 3 3 3 3 3 3 3 3 3 3 3 3 3 3 3 3 3 3 3 3 3 3 3 3 3 3 3 3 3 3 3 3 3 3 3 3 3 3 3 3 3 3 3 3 3 3 3 3 3 3 3 3 3 3 3 3 3 3 3 3 3 3 3 3 3 3 3 3 3 3 3 3 3 3 3 3 3 3 3 3 3 3 3 3 3 3 3 3 3 3 3 3 3 3 3 3 3 3 3 3 3 3 3 3 3 3 3 3 3 3 3 3 3 3 3 3 3 3 3 3 3 3 3 3 3 3 3 3 3 3 3 3 3 3 3 3 3 3 3 3 3 3 3 3 3 3 3 3 3 3 3 3 3 3 3 3 3 3 3 3 3 3 3 3 3 3 3 3 3 3 3 3 3 3 3 3 3 3 3 3 3 3 3 3 3 3 3 3 3 3 3 3 3 3 3 3 3 3 3 3 3 3 3 3 3 3 3 3 3 3 3 3 3 3 3 3 3 3 3 3 3 </vcount>
          <p>0 1 2 3 4 5 6 7 8 9 10 11 12 13 14 15 16 17 18 19 20 21 22 23 24 25 26 27 28 29 30 31 32 33 34 35 36 37 38 39 40 41 42 43 44 45 46 47 48 49 50 51 52 53 54 55 56 57 58 59 60 61 62 63 64 65 66 67 68 69 70 71 72 73 74 75 76 77 78 79 80 81 82 83 84 85 86 87 88 89 90 91 92 93 94 95 96 97 98 99 100 101 102 103 104 105 106 107 108 109 110 111 112 113 114 115 116 117 118 119 120 121 122 123 124 125 126 127 128 129 130 131 132 133 134 135 136 137 138 139 140 141 142 143 144 145 146 147 148 149 150 151 152 153 154 155 156 157 158 159 160 161 162 163 164 165 166 167 168 169 170 171 172 173 174 175 176 177 178 179 180 181 182 183 184 185 186 187 188 189 190 191 192 193 194 195 196 197 198 199 200 201 202 203 204 205 206 207 208 209 210 211 212 213 214 215 216 217 218 219 220 221 222 223 224 225 226 227 228 229 230 231 232 233 234 235 236 237 238 239 240 241 242 243 244 245 246 247 248 249 250 251 252 253 254 255 256 257 258 259 260 261 262 263 264 265 266 267 268 269 270 271 272 273 274 275 276 277 278 279 280 281 282 283 284 285 286 287 288 289 290 291 292 293 294 295 296 297 298 299 300 301 302 303 304 305 306 307 308 309 310 311 312 313 314 315 316 317 318 319 320 321 322 323 324 325 326 327 328 329 330 331 332 333 334 335 336 337 338 339 340 341 342 343 344 345 346 347 348 349 350 351 352 353 354 355 356 357 358 359 360 361 362 363 364 365 366 367 368 369 370 371 372 373 374 375 376 377 378 379 380 381 382 383 384 385 386 387 388 389 390 391 392 393 394 395 396 397 398 399 400 401 402 403 404 405 406 407 408 409 410 411 412 413 414 415 416 417 418 419 420 421 422 423 424 425 426 427 428 429 430 431 432 433 434 435 436 437 438 439 440 441 442 443 444 445 446 447 448 449 450 451 452 453 454 455 456 457 458 459 460 461 462 463 464 465 466 467 468 469 470 471 472 473 474 475 476 477 478 479 480 481 482 483 484 485 486 487 488 489 490 491 492 493 494 495 496 497 498 499 500 501 502 503 504 505 506 507 508 509 510 511 512 513 514 515 516 517 518 519 520 521 522 523 524 525 526 527 528 529 530 531 532 533 534 535 536 537 538 539 540 541 542 543 544 545 546 547 548 549 550 551 552 553 554 555 556 557 558 559 560 561 562 563 564 565 566 567 568 569 570 571 572 573 574 575 576 577 578 579 580 581 582 583 584 585 586 587 588 589 590 591 592 593 594 595 596 597 598 599 600 601 602 603 604 605 606 607 608 609 610 611 612 613 614 615 616 617 618 619 620 621 622 623 624 625 626 627 628 629 630 631 632 633 634 635 636 637 638 639 640 641 642 643 644 645 646 647 648 649 650 651 652 653 654 655 656 657 658 659 660 661 662 663 664 665 666 667 668 669 670 671 672 673 674 675 676 677 678 679 680 681 682 683 684 685 686 687 688 689 690 691 692 693 694 695 696 697 698 699 700 701 702 703 704 705 706 707 708 709 710 711 712 713 714 715 716 717 718 719 720 721 722 723 724 725 726 727 728 729 730 731 732 733 734 735 736 737 738 739 740 741 742 743 744 745 746 747 748 749 750 751 752 753 754 755 756 757 758 759 760 761 762 763 764 765 766 767 768 769 770 771 772 773 774 775 776 777 778 779 780 781 782 783 784 785 786 787 788 789 790 791 792 793 794 795 796 797 798 799 800 801 802 803 804 805 806 807 808 809 810 811 812 813 814 815 816 817 818 819 820 821 822 823 824 825 826 827 828 829 830 831 832 833 834 835 836 837 838 839 840 841 842 843 844 845 846 847 848 849 850 851 852 853 854 855 856 857 858 859 860 861 862 863 864 865 866 867 868 869 870 871 872 873 874 875 876 877 878 879 880 881 882 883 884 885 886 887 888 889 890 891 892 893 894 895 896 897 898 899 900 901 902 903 904 905 906 907 908 909 910 911 912 913 914 915 916 917 918 919 920 921 922 923 924 925 926 927 928 929 930 931 932 933 934 935 936 937 938 939 940 941 942 943 944 945 946 947 948 949 950 951 952 953 954 955 956 957 958 959 960 961 962 963 964 965 966 967 968 969 970 971 972 973 974 975 976 977 978 979 980 981 982 983 984 985 986 987 988 989 990 991 992 993 994 995 996 997 998 999 1000 1001 1002 1003 1004 1005 1006 1007 1008 1009 1010 1011 1012 1013 1014 1015 1016 1017 1018 1019 1020 1021 1022 1023 1024 1025 1026 1027 1028 1029 1030 1031 1032 1033 1034 1035 1036 1037 1038 1039 1040 1041 1042 1043 1044 1045 1046 1047 1048 1049 1050 1051 1052 1053 1054 1055 1056 1057 1058 1059 1060 1061 1062 1063 1064 1065 1066 1067 1068 1069 1070 1071 1072 1073 1074 1075 1076 1077 1078 1079 1080 1081 1082 1083 1084 1085 1086 1087 1088 1089 1090 1091 1092 1093 1094 1095 1096 1097 1098 1099 1100 1101 1102 1103 1104 1105 1106 1107 1108 1109 1110 1111 1112 1113 1114 1115 1116 1117 1118 1119 1120 1121 1122 1123 1124 1125 1126 1127 1128 1129 1130 1131 1132 1133 1134 1135 1136 1137 1138 1139 1140 1141 1142 1143 1144 1145 1146 1147 1148 1149 1150 1151 1152 1153 1154 1155 1156 1157 1158 1159 1160 1161 1162 1163 1164 1165 1166 1167 1168 1169 1170 1171 1172 1173 1174 1175 1176 1177 1178 1179 1180 1181 1182 1183 1184 1185 1186 1187 1188 1189 1190 1191 1192 1193 1194 1195 1196 1197 1198 1199 1200 1201 1202 1203 1204 1205 1206 1207 1208 1209 1210 1211 1212 1213 1214 1215 1216 1217 1218 1219 1220 1221 1222 1223 1224 1225 1226 1227 1228 1229 1230 1231 1232 1233 1234 1235 1236 1237 1238 1239 1240 1241 1242 1243 1244 1245 1246 1247 1248 1249 1250 1251 1252 1253 1254 1255 1256 1257 1258 1259 1260 1261 1262 1263 1264 1265 1266 1267 1268 1269 1270 1271 1272 1273 1274 1275 1276 1277 1278 1279 1280 1281 1282 1283 1284 1285 1286 1287 1288 1289 1290 1291 1292 1293 1294 1295 1296 1297 1298 1299 1300 1301 1302 1303 1304 1305 1306 1307 1308 1309 1310 1311 1312 1313 1314 1315 1316 1317 1318 1319 1320 1321 1322 1323 1324 1325 1326 1327 1328 1329 1330 1331 1332 1333 1334 1335 1336 1337 1338 1339 1340 1341 1342 1343 1344 1345 1346 1347 1348 1349 1350 1351 1352 1353 1354 1355 1356 1357 1358 1359 1360 1361 1362 1363 1364 1365 1366 1367 1368 1369 1370 1371 1372 1373 1374 1375 1376 1377 1378 1379 1380 1381 1382 1383 1384 1385 1386 1387 1388 1389 1390 1391 1392 1393 1394 1395 1396 1397 1398 1399 1400 1401 1402 1403 1404 1405 1406 1407 1408 1409 </p>
        </polylist>
      </mesh>
    </geometry>
  </library_geometries>
  <library_controllers>
  </library_controllers>
  <library_visual_scenes>
    <visual_scene id="Scene" name="Scene">
      <node id="node" name="" type="NODE">
        <matrix sid="matrix">1 0 0 0 0 1 0 0 0 0 1 0 0 0 0 1</matrix>
        <instance_geometry url="#mesh_0">
          <bind_material>
            <technique_common>
              <instance_material symbol="defaultMaterial" target="#material_0">
              </instance_material>
            </technique_common>
          </bind_material>
        </instance_geometry>
      </node>
    </visual_scene>
  </library_visual_scenes>
  <scene>
    <instance_visual_scene url="#Scene" />
  </scene>
</COLLADA>
